<svg width="22" height="24" viewBox="0 0 22 24" fill="none" xmlns="http://www.w3.org/2000/svg">
<path opacity="0.2" d="M6.22659 9.71427V4.1009H11.1676C11.6384 4.1009 12.092 4.14008 12.529 4.21858C12.9659 4.29693 13.3526 4.4369 13.6887 4.63866C14.0247 4.84041 14.2937 5.12052 14.4954 5.47897C14.697 5.83757 14.798 6.29698 14.798 6.85703C14.798 7.8655 14.4954 8.59386 13.8903 9.04196C13.2854 9.49022 12.5123 9.71427 11.571 9.71427H6.22659V9.71427ZM0.949219 0V24H12.5795C13.6551 24 14.7028 23.8656 15.7224 23.5966C16.742 23.3277 17.6495 22.9132 18.4451 22.353C19.2405 21.7928 19.8736 21.07 20.3442 20.1849C20.8149 19.2997 21.0501 18.2521 21.0501 17.042C21.0501 15.5405 20.6859 14.2577 19.9577 13.1933C19.2293 12.1288 18.1256 11.3837 16.6466 10.9579C17.7223 10.4426 18.5347 9.78147 19.0838 8.97476C19.6327 8.16805 19.9072 7.15974 19.9072 5.94952C19.9072 4.82911 19.7223 3.888 19.3526 3.12604C18.9828 2.36423 18.4618 1.75355 17.7895 1.29414C17.1173 0.834736 16.3106 0.504155 15.3694 0.302555C14.4282 0.1008 13.3862 0 12.2433 0H0.949219V0ZM6.22659 19.8991V13.3109H11.9744C13.1172 13.3109 14.036 13.5741 14.7308 14.1009C15.4254 14.6275 15.7729 15.5069 15.7729 16.7395C15.7729 17.367 15.6663 17.8823 15.4534 18.2857C15.2405 18.689 14.9548 19.0085 14.5962 19.2437C14.2378 19.479 13.8231 19.647 13.3526 19.748C12.8819 19.8486 12.389 19.8991 11.8736 19.8991H6.22659V19.8991Z" fill="white"/>
</svg>
