<svg width="30" height="32" viewBox="0 0 30 32" fill="none" xmlns="http://www.w3.org/2000/svg">
<path fill-rule="evenodd" clip-rule="evenodd" d="M3.46875 28.75L0.90625 0L29.0938 -1.46289e-07L26.5313 28.75L14.9688 32L3.46875 28.75ZM14.9688 13L10.3438 13L10.0313 9.375L14.9688 9.375L15.0313 9.375L23.5313 9.375L23.5938 8.625L23.7813 6.8125L23.8438 5.875L15.0313 5.875L14.9688 5.875L14.9688 5.875L6.15625 5.875L6.21875 6.8125L7.09375 16.5625L14.9688 16.5625L15.0313 16.5625L19.3438 16.5625L18.9063 21.125L14.9688 22.1875L11.0313 21.125L10.7813 18.3125L8.90625 18.3125L7.28125 18.3125L7.71875 23.875L14.9688 25.875L15.0313 25.875L15.0313 25.8578L22.2188 23.875L22.2813 23.25L23.0938 13.9375L23.2188 13L22.2188 13L15.0313 13L14.9688 13Z" fill="white"/>
</svg>
