<svg width="32" height="32" viewBox="0 0 32 32" fill="none" xmlns="http://www.w3.org/2000/svg">
<path fill-rule="evenodd" clip-rule="evenodd" d="M0.398438 0H31.5985V32H0.398438V0ZM22.4344 24.6343C21.1178 24.6343 20.3734 23.8903 19.8013 22.8782L17.6321 24.2435C18.4157 25.921 20.0172 27.2008 22.4962 27.2008C25.0315 27.2008 26.9193 25.7744 26.9193 23.1708C26.9193 20.7557 25.6388 19.6816 23.3709 18.6279L22.7036 18.3182C21.5584 17.7809 21.0624 17.4296 21.0624 16.5621C21.0624 15.8602 21.5579 15.3228 22.3397 15.3228C23.1062 15.3228 23.5999 15.6731 24.0576 16.5621L26.1361 15.1162C25.2569 13.4407 24.0368 12.8008 22.3397 12.8008C19.9559 12.8008 18.4306 14.4519 18.4306 16.6207C18.4306 18.9752 19.7102 20.089 21.6364 20.978L22.3037 21.2882C23.521 21.8651 24.2469 22.2163 24.2469 23.2079C24.2469 24.0354 23.5404 24.6343 22.4344 24.6343ZM12.0899 24.6162C11.1728 24.6162 10.7914 23.9348 10.3721 23.1288L8.19928 24.5539C8.82871 25.9972 10.0664 27.1954 12.2035 27.1954C14.5688 27.1954 16.1893 25.8325 16.1893 22.8381V12.9659H13.5201V22.7991C13.5201 24.2445 12.9669 24.6162 12.0899 24.6162Z" fill="white"/>
</svg>
