<svg width="36" height="32" viewBox="0 0 36 32" fill="none" xmlns="http://www.w3.org/2000/svg">
<mask id="path-1-inside-1" fill="white">
<path fill-rule="evenodd" clip-rule="evenodd" d="M28.4169 9.96842C32.9873 11.3674 35.9683 13.6233 35.9683 16.0037C35.9683 18.3767 33.002 20.6326 28.4609 22.0316C29.5229 26.6752 29.0615 30.374 27.0034 31.5605C26.5199 31.8389 25.9633 31.9707 25.348 31.9707C23.3339 31.9707 20.6971 30.5498 18.031 28.0742C15.365 30.5644 12.7282 32 10.714 32C10.0988 32 9.54214 31.8682 9.06606 31.5898C7.0006 30.4033 6.53184 26.6972 7.58654 22.0389C3.01616 20.64 0.0351563 18.3841 0.0351563 16.0037C0.0351563 13.6306 3.00151 11.382 7.55725 9.97574C6.49522 5.33211 6.95665 1.63333 9.01479 0.446784C9.49819 0.168459 10.0548 0.0366216 10.6701 0.0366216L10.6701 0.0292974C12.6843 0.0292974 15.321 1.45022 17.9871 3.92584C20.6532 1.43557 23.2899 -1.20689e-07 25.3041 -1.31142e-07L25.3041 0.00733048C25.9092 0.00838601 26.4633 0.14028 26.9374 0.417487C29.0029 1.60403 29.4716 5.31014 28.4169 9.96842ZM25.2968 1.63334C23.7735 1.63722 21.5356 2.85272 19.1517 5.06844C20.1844 6.14511 21.2098 7.3756 22.1986 8.7306C23.8466 8.90639 25.414 9.17739 26.8495 9.52896C27.0107 8.7892 27.1425 8.06409 27.2231 7.3756C27.56 4.57771 27.1279 2.40238 26.1318 1.83108C25.9047 1.70657 25.6337 1.64065 25.2968 1.64065L25.2968 1.63334ZM16.8225 5.07576C14.4348 2.87114 12.1862 1.66262 10.6701 1.66262L10.6701 1.66995C10.3332 1.66995 10.0475 1.72854 9.82779 1.86038C8.839 2.439 8.41419 4.61433 8.75844 7.41222C8.84633 8.09339 8.97084 8.80385 9.1393 9.53628C10.5749 9.17739 12.1423 8.90639 13.7976 8.7306C14.7717 7.3756 15.7971 6.15244 16.8225 5.07576ZM25.4433 14.0114C25.8241 13.0373 26.161 12.0632 26.432 11.1183C25.4726 10.884 24.4691 10.6935 23.4291 10.5397C23.788 11.0964 24.1469 11.6677 24.4838 12.2536C24.828 12.8396 25.143 13.4255 25.4433 14.0114ZM21.3123 21.7166C21.9203 20.845 22.5062 19.9075 23.0775 18.9187C23.6268 17.9593 24.1322 16.9778 24.5936 15.9963C24.1322 15.0149 23.6268 14.0407 23.0702 13.0813C22.4989 12.0998 21.9056 11.1696 21.2977 10.298C20.2137 10.2101 19.1077 10.1588 18.0017 10.1588C16.8884 10.1588 15.7825 10.2101 14.6911 10.3053C14.0832 11.1769 13.4973 12.1144 12.926 13.1032C12.3767 14.0627 11.864 15.0442 11.4098 16.0256C11.8713 17.0071 12.3767 17.9812 12.9333 18.9407C13.5046 19.9222 14.0979 20.8524 14.7058 21.724C15.7898 21.8119 16.8958 21.8631 18.0017 21.8631C19.115 21.8631 20.221 21.8119 21.3123 21.7166ZM26.454 20.8817C26.1757 19.9295 25.8388 18.948 25.4433 17.9666C25.143 18.5525 24.828 19.1458 24.4911 19.7318C24.1542 20.325 23.7953 20.9036 23.4364 21.4676C24.4838 21.3138 25.4945 21.116 26.454 20.8817ZM15.9802 23.4379C16.6541 24.2948 17.3352 25.0785 18.0164 25.7816C18.6902 25.0785 19.3714 24.2948 20.0306 23.4379C19.3641 23.4745 18.6829 23.4891 17.9944 23.4891C17.3133 23.4891 16.6394 23.4672 15.9802 23.4379ZM9.56411 20.889C10.5236 21.1234 11.527 21.3138 12.5671 21.4676C12.2082 20.911 11.8566 20.3397 11.5124 19.7537C11.1681 19.1678 10.8532 18.5818 10.5529 17.9959C10.172 18.97 9.83511 19.9442 9.56411 20.889ZM20.0159 8.56947C19.3421 7.71252 18.6609 6.92882 17.9798 6.22568C17.3059 6.92882 16.6248 7.71252 15.9656 8.56947C16.6321 8.53285 17.3133 8.5182 18.0017 8.5182C18.6829 8.5182 19.3567 8.54017 20.0159 8.56947ZM11.5051 12.2756C11.842 11.6823 12.2009 11.1037 12.5598 10.5397C11.5124 10.6935 10.5016 10.8913 9.54214 11.1183C9.82047 12.0705 10.1574 13.052 10.5529 14.0334C10.8532 13.4475 11.1681 12.8615 11.5051 12.2756ZM1.66116 16.0037C1.66116 17.1536 3.33843 18.6038 5.93125 19.7098C6.56846 19.9808 7.25695 20.2298 7.98206 20.4569C8.39222 19.0286 8.93422 17.5418 9.60806 16.0183C8.9269 14.4875 8.37757 12.9934 7.96008 11.5578C7.24962 11.7849 6.56114 12.0266 5.93125 12.2976C3.33843 13.3962 1.66116 14.8537 1.66116 16.0037ZM8.78041 24.6317C8.44349 27.4296 8.87563 29.6049 9.87174 30.1762C10.0915 30.3008 10.3698 30.3667 10.6994 30.374C12.2228 30.374 14.4641 29.1582 16.8518 26.9389C15.8191 25.8622 14.7937 24.6317 13.8049 23.2767C12.1569 23.1009 10.5895 22.8299 9.15395 22.4784C8.99282 23.2181 8.86098 23.9432 8.78041 24.6317ZM26.1757 30.147C27.1645 29.5683 27.5893 27.393 27.2451 24.5951C27.1645 23.9139 27.0326 23.2035 26.8642 22.4637C25.4286 22.8226 23.8612 23.0936 22.2059 23.2694C21.2318 24.6244 20.2064 25.8476 19.181 26.9242C21.5687 29.1289 23.8173 30.3374 25.3334 30.3374C25.6703 30.3374 25.956 30.2788 26.1757 30.147ZM28.0361 20.4495C28.7465 20.2225 29.435 19.9808 30.0649 19.7098C32.6577 18.6111 34.335 17.1536 34.3423 16.0037C34.3423 14.8537 32.6651 13.4035 30.0722 12.2976C29.4277 12.0266 28.7392 11.7775 28.0141 11.5505C27.6039 12.9787 27.0619 14.4656 26.3881 15.989C27.0693 17.5198 27.6186 19.014 28.0361 20.4495ZM21.3452 16.0035C21.3452 17.8521 19.8466 19.3507 17.998 19.3507C16.1494 19.3507 14.6508 17.8521 14.6508 16.0035C14.6508 14.1549 16.1494 12.6562 17.998 12.6562C19.8466 12.6562 21.3452 14.1549 21.3452 16.0035Z"/>
</mask>
<path fill-rule="evenodd" clip-rule="evenodd" d="M28.4169 9.96842C32.9873 11.3674 35.9683 13.6233 35.9683 16.0037C35.9683 18.3767 33.002 20.6326 28.4609 22.0316C29.5229 26.6752 29.0615 30.374 27.0034 31.5605C26.5199 31.8389 25.9633 31.9707 25.348 31.9707C23.3339 31.9707 20.6971 30.5498 18.031 28.0742C15.365 30.5644 12.7282 32 10.714 32C10.0988 32 9.54214 31.8682 9.06606 31.5898C7.0006 30.4033 6.53184 26.6972 7.58654 22.0389C3.01616 20.64 0.0351563 18.3841 0.0351563 16.0037C0.0351563 13.6306 3.00151 11.382 7.55725 9.97574C6.49522 5.33211 6.95665 1.63333 9.01479 0.446784C9.49819 0.168459 10.0548 0.0366216 10.6701 0.0366216L10.6701 0.0292974C12.6843 0.0292974 15.321 1.45022 17.9871 3.92584C20.6532 1.43557 23.2899 -1.20689e-07 25.3041 -1.31142e-07L25.3041 0.00733048C25.9092 0.00838601 26.4633 0.14028 26.9374 0.417487C29.0029 1.60403 29.4716 5.31014 28.4169 9.96842ZM25.2968 1.63334C23.7735 1.63722 21.5356 2.85272 19.1517 5.06844C20.1844 6.14511 21.2098 7.3756 22.1986 8.7306C23.8466 8.90639 25.414 9.17739 26.8495 9.52896C27.0107 8.7892 27.1425 8.06409 27.2231 7.3756C27.56 4.57771 27.1279 2.40238 26.1318 1.83108C25.9047 1.70657 25.6337 1.64065 25.2968 1.64065L25.2968 1.63334ZM16.8225 5.07576C14.4348 2.87114 12.1862 1.66262 10.6701 1.66262L10.6701 1.66995C10.3332 1.66995 10.0475 1.72854 9.82779 1.86038C8.839 2.439 8.41419 4.61433 8.75844 7.41222C8.84633 8.09339 8.97084 8.80385 9.1393 9.53628C10.5749 9.17739 12.1423 8.90639 13.7976 8.7306C14.7717 7.3756 15.7971 6.15244 16.8225 5.07576ZM25.4433 14.0114C25.8241 13.0373 26.161 12.0632 26.432 11.1183C25.4726 10.884 24.4691 10.6935 23.4291 10.5397C23.788 11.0964 24.1469 11.6677 24.4838 12.2536C24.828 12.8396 25.143 13.4255 25.4433 14.0114ZM21.3123 21.7166C21.9203 20.845 22.5062 19.9075 23.0775 18.9187C23.6268 17.9593 24.1322 16.9778 24.5936 15.9963C24.1322 15.0149 23.6268 14.0407 23.0702 13.0813C22.4989 12.0998 21.9056 11.1696 21.2977 10.298C20.2137 10.2101 19.1077 10.1588 18.0017 10.1588C16.8884 10.1588 15.7825 10.2101 14.6911 10.3053C14.0832 11.1769 13.4973 12.1144 12.926 13.1032C12.3767 14.0627 11.864 15.0442 11.4098 16.0256C11.8713 17.0071 12.3767 17.9812 12.9333 18.9407C13.5046 19.9222 14.0979 20.8524 14.7058 21.724C15.7898 21.8119 16.8958 21.8631 18.0017 21.8631C19.115 21.8631 20.221 21.8119 21.3123 21.7166ZM26.454 20.8817C26.1757 19.9295 25.8388 18.948 25.4433 17.9666C25.143 18.5525 24.828 19.1458 24.4911 19.7318C24.1542 20.325 23.7953 20.9036 23.4364 21.4676C24.4838 21.3138 25.4945 21.116 26.454 20.8817ZM15.9802 23.4379C16.6541 24.2948 17.3352 25.0785 18.0164 25.7816C18.6902 25.0785 19.3714 24.2948 20.0306 23.4379C19.3641 23.4745 18.6829 23.4891 17.9944 23.4891C17.3133 23.4891 16.6394 23.4672 15.9802 23.4379ZM9.56411 20.889C10.5236 21.1234 11.527 21.3138 12.5671 21.4676C12.2082 20.911 11.8566 20.3397 11.5124 19.7537C11.1681 19.1678 10.8532 18.5818 10.5529 17.9959C10.172 18.97 9.83511 19.9442 9.56411 20.889ZM20.0159 8.56947C19.3421 7.71252 18.6609 6.92882 17.9798 6.22568C17.3059 6.92882 16.6248 7.71252 15.9656 8.56947C16.6321 8.53285 17.3133 8.5182 18.0017 8.5182C18.6829 8.5182 19.3567 8.54017 20.0159 8.56947ZM11.5051 12.2756C11.842 11.6823 12.2009 11.1037 12.5598 10.5397C11.5124 10.6935 10.5016 10.8913 9.54214 11.1183C9.82047 12.0705 10.1574 13.052 10.5529 14.0334C10.8532 13.4475 11.1681 12.8615 11.5051 12.2756ZM1.66116 16.0037C1.66116 17.1536 3.33843 18.6038 5.93125 19.7098C6.56846 19.9808 7.25695 20.2298 7.98206 20.4569C8.39222 19.0286 8.93422 17.5418 9.60806 16.0183C8.9269 14.4875 8.37757 12.9934 7.96008 11.5578C7.24962 11.7849 6.56114 12.0266 5.93125 12.2976C3.33843 13.3962 1.66116 14.8537 1.66116 16.0037ZM8.78041 24.6317C8.44349 27.4296 8.87563 29.6049 9.87174 30.1762C10.0915 30.3008 10.3698 30.3667 10.6994 30.374C12.2228 30.374 14.4641 29.1582 16.8518 26.9389C15.8191 25.8622 14.7937 24.6317 13.8049 23.2767C12.1569 23.1009 10.5895 22.8299 9.15395 22.4784C8.99282 23.2181 8.86098 23.9432 8.78041 24.6317ZM26.1757 30.147C27.1645 29.5683 27.5893 27.393 27.2451 24.5951C27.1645 23.9139 27.0326 23.2035 26.8642 22.4637C25.4286 22.8226 23.8612 23.0936 22.2059 23.2694C21.2318 24.6244 20.2064 25.8476 19.181 26.9242C21.5687 29.1289 23.8173 30.3374 25.3334 30.3374C25.6703 30.3374 25.956 30.2788 26.1757 30.147ZM28.0361 20.4495C28.7465 20.2225 29.435 19.9808 30.0649 19.7098C32.6577 18.6111 34.335 17.1536 34.3423 16.0037C34.3423 14.8537 32.6651 13.4035 30.0722 12.2976C29.4277 12.0266 28.7392 11.7775 28.0141 11.5505C27.6039 12.9787 27.0619 14.4656 26.3881 15.989C27.0693 17.5198 27.6186 19.014 28.0361 20.4495ZM21.3452 16.0035C21.3452 17.8521 19.8466 19.3507 17.998 19.3507C16.1494 19.3507 14.6508 17.8521 14.6508 16.0035C14.6508 14.1549 16.1494 12.6562 17.998 12.6562C19.8466 12.6562 21.3452 14.1549 21.3452 16.0035Z" fill="white"/>
<path d="M28.4169 9.96842L27.4416 9.74759L27.2366 10.6529L28.1243 10.9246L28.4169 9.96842ZM28.4609 22.0316L28.1665 21.0759L27.279 21.3493L27.4861 22.2545L28.4609 22.0316ZM27.0034 31.5605L27.5023 32.4272L27.5028 32.4269L27.0034 31.5605ZM18.031 28.0742L18.7115 27.3414L18.029 26.7077L17.3484 27.3434L18.031 28.0742ZM9.06606 31.5898L9.57077 30.7265L9.56418 30.7227L9.06606 31.5898ZM7.58654 22.0389L8.56186 22.2597L8.76684 21.3544L7.87923 21.0827L7.58654 22.0389ZM7.55725 9.97574L7.85219 10.9313L8.73899 10.6575L8.53208 9.75279L7.55725 9.97574ZM9.01479 0.446784L8.51582 -0.419839L8.51533 -0.419555L9.01479 0.446784ZM10.6701 0.0366216L10.6701 1.03662L11.6701 1.03662L11.6701 0.0366216L10.6701 0.0366216ZM10.6701 0.0292974L10.6701 -0.970703L9.67009 -0.970703L9.67009 0.0292974L10.6701 0.0292974ZM17.9871 3.92584L17.3066 4.65864L17.9891 5.29235L18.6697 4.65663L17.9871 3.92584ZM25.3041 -1.31142e-07L26.3041 -1.36332e-07L26.3041 -1L25.3041 -1L25.3041 -1.31142e-07ZM25.3041 0.00733048L24.3041 0.00733048L24.3041 1.00559L25.3024 1.00733L25.3041 0.00733048ZM26.9374 0.417487L26.4327 1.28081L26.4393 1.28459L26.9374 0.417487ZM19.1517 5.06844L18.4709 4.33596L17.7268 5.02755L18.43 5.76066L19.1517 5.06844ZM25.2968 1.63334L26.2968 1.63334L26.2968 0.63078L25.2942 0.633339L25.2968 1.63334ZM22.1986 8.7306L21.3908 9.32007L21.652 9.67797L22.0925 9.72496L22.1986 8.7306ZM26.8495 9.52896L26.6117 10.5003L27.6083 10.7443L27.8266 9.74179L26.8495 9.52896ZM27.2231 7.3756L26.2302 7.25605L26.2299 7.25938L27.2231 7.3756ZM26.1318 1.83108L26.6293 0.963626L26.621 0.958869L26.6126 0.954272L26.1318 1.83108ZM25.2968 1.64065L24.2968 1.64065L24.2968 2.64065L25.2968 2.64065L25.2968 1.64065ZM10.6701 1.66262L10.6701 0.662623L9.67009 0.662623L9.67009 1.66262L10.6701 1.66262ZM16.8225 5.07576L17.5467 5.76542L18.2471 5.02999L17.5009 4.34105L16.8225 5.07576ZM10.6701 1.66995L10.6701 2.66995L11.6701 2.66995L11.6701 1.66995L10.6701 1.66995ZM9.82779 1.86038L10.3329 2.72351L10.3423 2.71787L9.82779 1.86038ZM8.75844 7.41222L7.7659 7.53434L7.76666 7.54019L8.75844 7.41222ZM9.1393 9.53628L8.16475 9.76043L8.39317 10.7536L9.38184 10.5064L9.1393 9.53628ZM13.7976 8.7306L13.9032 9.72501L14.3483 9.67775L14.6095 9.31433L13.7976 8.7306ZM26.432 11.1183L27.3933 11.394L27.6802 10.3938L26.6693 10.1469L26.432 11.1183ZM25.4433 14.0114L24.5533 14.4675L25.5661 16.4436L26.3746 14.3756L25.4433 14.0114ZM23.4291 10.5397L23.5754 9.55047L21.3934 9.22778L22.5886 11.0816L23.4291 10.5397ZM24.4838 12.2536L23.6168 12.7521L23.6216 12.7602L24.4838 12.2536ZM23.0775 18.9187L23.9434 19.419L23.9453 19.4156L23.0775 18.9187ZM21.3123 21.7166L21.3993 22.7129L21.8651 22.6722L22.1325 22.2887L21.3123 21.7166ZM24.5936 15.9963L25.4986 16.4218L25.6987 15.9963L25.4986 15.5709L24.5936 15.9963ZM23.0702 13.0813L23.9352 12.5794L23.9344 12.5782L23.0702 13.0813ZM21.2977 10.298L22.1179 9.72594L21.8483 9.33937L21.3785 9.30128L21.2977 10.298ZM14.6911 10.3053L14.6042 9.30912L14.1384 9.34976L13.8709 9.73326L14.6911 10.3053ZM12.926 13.1032L12.0601 12.6029L12.0581 12.6064L12.926 13.1032ZM11.4098 16.0256L10.5023 15.6057L10.3064 16.029L10.5049 16.4511L11.4098 16.0256ZM12.9333 18.9407L12.0683 19.4425L12.0691 19.4438L12.9333 18.9407ZM14.7058 21.724L13.8856 22.296L14.1552 22.6826L14.625 22.7207L14.7058 21.724ZM25.4433 17.9666L26.3708 17.5928L25.5522 15.5615L24.5533 17.5105L25.4433 17.9666ZM26.454 20.8817L26.6913 21.8531L27.7073 21.6049L27.4139 20.6011L26.454 20.8817ZM24.4911 19.7318L23.6242 19.2333L23.6215 19.2379L24.4911 19.7318ZM23.4364 21.4676L22.5927 20.9307L21.4194 22.7745L23.5817 22.457L23.4364 21.4676ZM18.0164 25.7816L17.2982 26.4774L18.0203 27.2229L18.7384 26.4736L18.0164 25.7816ZM15.9802 23.4379L16.0246 22.4388L13.8464 22.342L15.1941 24.056L15.9802 23.4379ZM20.0306 23.4379L20.8232 24.0476L22.1523 22.3198L19.9757 22.4394L20.0306 23.4379ZM12.5671 21.4676L12.4208 22.4569L14.6028 22.7795L13.4075 20.9257L12.5671 21.4676ZM9.56411 20.889L8.60287 20.6133L8.31599 21.6135L9.32681 21.8604L9.56411 20.889ZM11.5124 19.7537L10.6502 20.2603L10.6502 20.2603L11.5124 19.7537ZM10.5529 17.9959L11.4428 17.5398L10.4301 15.5637L9.62155 17.6317L10.5529 17.9959ZM17.9798 6.22568L18.698 5.52989L17.9759 4.78446L17.2578 5.53378L17.9798 6.22568ZM20.0159 8.56947L19.9715 9.56848L22.1497 9.66529L20.802 7.95135L20.0159 8.56947ZM15.9656 8.56947L15.173 7.95976L13.8439 9.68755L16.0204 9.56796L15.9656 8.56947ZM12.5598 10.5397L13.4034 11.0766L14.5768 9.23279L12.4145 9.55032L12.5598 10.5397ZM11.5051 12.2756L12.372 12.7741L12.3746 12.7694L11.5051 12.2756ZM9.54214 11.1183L9.31186 10.1452L8.28675 10.3878L8.58231 11.3989L9.54214 11.1183ZM10.5529 14.0334L9.62538 14.4072L10.444 16.4385L11.4428 14.4895L10.5529 14.0334ZM5.93125 19.7098L5.53889 20.6296L5.53988 20.63L5.93125 19.7098ZM7.98206 20.4569L7.68324 21.4112L8.66054 21.7172L8.94321 20.7329L7.98206 20.4569ZM9.60806 16.0183L10.5226 16.4228L10.702 16.0171L10.5217 15.6118L9.60806 16.0183ZM7.96008 11.5578L8.9203 11.2785L8.63361 10.2927L7.65567 10.6053L7.96008 11.5578ZM5.93125 12.2976L6.3214 13.2183L6.32645 13.2161L5.93125 12.2976ZM9.87174 30.1762L9.37422 31.0437L9.37872 31.0463L9.87174 30.1762ZM8.78041 24.6317L9.77324 24.7513L9.77363 24.748L8.78041 24.6317ZM10.6994 30.374L10.6772 31.3738L10.6883 31.374L10.6994 31.374L10.6994 30.374ZM16.8518 26.9389L17.5326 27.6714L18.2767 26.9798L17.5735 26.2467L16.8518 26.9389ZM13.8049 23.2767L14.6127 22.6873L14.3515 22.3294L13.911 22.2824L13.8049 23.2767ZM9.15395 22.4784L9.39182 21.5071L8.39524 21.263L8.17686 22.2655L9.15395 22.4784ZM27.2451 24.5951L26.252 24.7126L26.2525 24.7172L27.2451 24.5951ZM26.1757 30.147L25.6706 29.2838L25.6612 29.2895L26.1757 30.147ZM26.8642 22.4637L27.8392 22.2417L27.6125 21.2459L26.6217 21.4936L26.8642 22.4637ZM22.2059 23.2694L22.1003 22.275L21.6552 22.3223L21.394 22.6857L22.2059 23.2694ZM19.181 26.9242L18.4568 26.2346L17.7564 26.97L18.5026 27.659L19.181 26.9242ZM30.0649 19.7098L29.6748 18.789L29.6697 18.7912L30.0649 19.7098ZM28.0361 20.4495L27.0759 20.7288L27.3626 21.7146L28.3405 21.4021L28.0361 20.4495ZM34.3423 16.0037L35.3423 16.01L35.3423 16.0037L34.3423 16.0037ZM30.0722 12.2976L30.4646 11.3777L30.4598 11.3757L30.0722 12.2976ZM28.0141 11.5505L28.3129 10.5962L27.3356 10.2901L27.053 11.2744L28.0141 11.5505ZM26.3881 15.989L25.4736 15.5845L25.2941 15.9902L25.4745 16.3956L26.3881 15.989ZM36.9683 16.0037C36.9683 14.3726 35.9524 12.9558 34.5251 11.8322C33.0802 10.6948 31.068 9.73408 28.7096 9.01221L28.1243 10.9246C30.3363 11.6017 32.0998 12.4684 33.288 13.4037C34.4938 14.353 34.9683 15.2543 34.9683 16.0037L36.9683 16.0037ZM28.7553 22.9873C31.0994 22.2651 33.1006 21.304 34.5379 20.1673C35.9576 19.0444 36.9683 17.6297 36.9683 16.0037L34.9683 16.0037C34.9683 16.7508 34.4959 17.6505 33.2972 18.5986C32.116 19.5328 30.3634 20.3991 28.1665 21.0759L28.7553 22.9873ZM27.5028 32.4269C28.9138 31.6134 29.6317 30.0288 29.8918 28.236C30.1551 26.4212 29.9837 24.2046 29.4357 21.8086L27.4861 22.2545C28.0001 24.5022 28.129 26.4568 27.9125 27.9489C27.6929 29.4631 27.1511 30.3211 26.5039 30.6942L27.5028 32.4269ZM25.348 32.9707C26.1084 32.9707 26.8431 32.8067 27.5023 32.4272L26.5044 30.6939C26.1968 30.871 25.8181 30.9707 25.348 30.9707L25.348 32.9707ZM17.3506 28.807C18.7307 30.0885 20.1257 31.1185 21.4628 31.8328C22.7903 32.542 24.1186 32.9707 25.348 32.9707L25.348 30.9707C24.5633 30.9707 23.5661 30.6889 22.4052 30.0688C21.2539 29.4537 19.9974 28.5354 18.7115 27.3414L17.3506 28.807ZM10.714 33C11.9457 33 13.2751 32.5662 14.6023 31.8513C15.9394 31.1312 17.334 30.0936 18.7136 28.805L17.3484 27.3434C16.062 28.545 14.8053 29.4704 13.6539 30.0905C12.4926 30.716 11.4966 31 10.714 31L10.714 33ZM8.56136 32.4531C9.21732 32.8366 9.9552 33 10.714 33L10.714 31C10.2424 31 9.86696 30.8997 9.57076 30.7265L8.56136 32.4531ZM6.61123 21.8181C6.06712 24.2212 5.89963 26.4433 6.16687 28.2617C6.43087 30.0581 7.15314 31.6442 8.56793 32.4569L9.56418 30.7227C8.91352 30.349 8.36867 29.4887 8.14561 27.9709C7.92578 26.475 8.05126 24.5149 8.56186 22.2597L6.61123 21.8181ZM-0.964844 16.0037C-0.964844 17.6347 0.0511275 19.0515 1.47841 20.1751C2.9233 21.3125 4.9355 22.2733 7.29386 22.9951L7.87923 21.0827C5.6672 20.4056 3.90371 19.539 2.7155 18.6036C1.50969 17.6544 1.03516 16.7531 1.03516 16.0037L-0.964844 16.0037ZM7.2623 9.02023C4.91187 9.74576 2.90738 10.7066 1.46833 11.8421C0.0466756 12.964 -0.964844 14.377 -0.964844 16.0037L1.03516 16.0037C1.03516 15.2572 1.50681 14.3595 2.70727 13.4122C3.89034 12.4786 5.64688 11.612 7.85219 10.9313L7.2623 9.02023ZM8.51533 -0.419555C7.10436 0.39389 6.3864 1.9785 6.12631 3.77129C5.86303 5.58615 6.03444 7.80273 6.58242 10.1987L8.53208 9.75279C8.01802 7.50513 7.88914 5.55049 8.10559 4.05842C8.32526 2.54427 8.86708 1.68622 9.51424 1.31312L8.51533 -0.419555ZM10.6701 -0.963378C9.90969 -0.963378 9.17502 -0.799378 8.51582 -0.419838L9.51375 1.31341C9.82136 1.1363 10.2 1.03662 10.6701 1.03662L10.6701 -0.963378ZM9.67009 0.0292974L9.67009 0.0366216L11.6701 0.0366216L11.6701 0.0292974L9.67009 0.0292974ZM18.6675 3.19305C17.2874 1.9115 15.8925 0.881509 14.5553 0.167181C13.2278 -0.542009 11.8996 -0.970703 10.6701 -0.970703L10.6701 1.0293C11.4548 1.0293 12.452 1.31106 13.6129 1.93124C14.7642 2.54628 16.0207 3.46456 17.3066 4.65864L18.6675 3.19305ZM25.3041 -1C24.0724 -1 22.743 -0.566207 21.4158 0.14866C20.0788 0.868839 18.6841 1.90637 17.3045 3.19505L18.6697 4.65663C19.9561 3.45504 21.2129 2.52965 22.3643 1.90948C23.5255 1.28399 24.5216 1 25.3041 1L25.3041 -1ZM26.3041 0.00733047L26.3041 -1.36332e-07L24.3041 -1.25952e-07L24.3041 0.00733048L26.3041 0.00733047ZM27.4421 -0.44581C26.7897 -0.827253 26.0554 -0.99136 25.3058 -0.992668L25.3024 1.00733C25.763 1.00813 26.1369 1.10781 26.4327 1.28078L27.4421 -0.44581ZM29.3923 10.1892C29.9364 7.78608 30.1039 5.56406 29.8366 3.74565C29.5726 1.94922 28.8503 0.363135 27.4356 -0.449619L26.4393 1.28459C27.09 1.65838 27.6348 2.51862 27.8579 4.03645C28.0777 5.5323 27.9522 7.49247 27.4416 9.74759L29.3923 10.1892ZM19.8325 5.80091C20.9805 4.7339 22.0711 3.92901 23.0321 3.3959C24.0101 2.85329 24.7775 2.63466 25.2993 2.63333L25.2942 0.633339C24.2927 0.635895 23.1795 1.02696 22.0618 1.647C20.927 2.27654 19.7068 3.18726 18.4709 4.33596L19.8325 5.80091ZM23.0064 8.14113C21.9939 6.75368 20.9401 5.48831 19.8733 4.37621L18.43 5.76066C19.4287 6.80191 20.4257 7.99752 21.3908 9.32007L23.0064 8.14113ZM27.0874 8.55766C25.6048 8.19456 23.9931 7.91634 22.3047 7.73624L22.0925 9.72496C23.7001 9.89643 25.2232 10.1602 26.6117 10.5003L27.0874 8.55766ZM26.2299 7.25938C26.1543 7.90532 26.0292 8.59651 25.8724 9.31613L27.8266 9.74179C27.9921 8.98189 28.1308 8.22286 28.2163 7.49183L26.2299 7.25938ZM25.6342 2.69854C25.7385 2.75836 26.0192 3.06519 26.1962 3.96198C26.3607 4.79541 26.3902 5.92816 26.2303 7.25605L28.2159 7.49516C28.3929 6.02515 28.3748 4.67129 28.1584 3.57476C27.9545 2.54158 27.5211 1.47511 26.6293 0.963626L25.6342 2.69854ZM25.2968 2.64065C25.4987 2.64065 25.5978 2.67876 25.6509 2.70789L26.6126 0.954272C26.2116 0.734377 25.7686 0.64065 25.2968 0.64065L25.2968 2.64065ZM24.2968 1.63334L24.2968 1.64065L26.2968 1.64065L26.2968 1.63334L24.2968 1.63334ZM10.6701 2.66262C11.1883 2.66262 11.9565 2.87896 12.9375 3.41863C13.9008 3.94858 14.9948 4.74927 16.1442 5.81048L17.5009 4.34105C16.2625 3.19763 15.0384 2.29175 13.9015 1.66629C12.7822 1.05054 11.668 0.662623 10.6701 0.662623L10.6701 2.66262ZM11.6701 1.66995L11.6701 1.66262L9.67009 1.66262L9.67009 1.66995L11.6701 1.66995ZM10.3423 2.71787C10.3498 2.71334 10.4342 2.66995 10.6701 2.66995L10.6701 0.669948C10.2321 0.669948 9.74519 0.743748 9.31329 1.00289L10.3423 2.71787ZM9.75095 7.29011C9.58755 5.96206 9.6136 4.8288 9.77504 3.99392C9.9487 3.09582 10.2279 2.78489 10.3329 2.72346L9.32273 0.997298C8.43891 1.5145 8.01129 2.58053 7.81141 3.61423C7.59931 4.71114 7.58508 6.06449 7.76592 7.53434L9.75095 7.29011ZM10.1139 9.31213C9.95293 8.61243 9.83407 7.9341 9.75021 7.28425L7.76666 7.54019C7.85859 8.25267 7.98876 8.99526 8.16475 9.76043L10.1139 9.31213ZM13.692 7.73619C11.9962 7.91628 10.3826 8.19469 8.89677 8.56614L9.38184 10.5064C10.7672 10.1601 12.2884 9.8965 13.9032 9.72501L13.692 7.73619ZM16.0984 4.38611C15.0421 5.49526 13.9872 6.75373 12.9856 8.14688L14.6095 9.31433C15.5562 7.99748 16.5522 6.80962 17.5467 5.76542L16.0984 4.38611ZM25.4708 10.8426C25.2099 11.7524 24.8836 12.6967 24.5119 13.6473L26.3746 14.3756C26.7647 13.378 27.1122 12.374 27.3933 11.394L25.4708 10.8426ZM23.2828 11.529C24.2971 11.679 25.2697 11.8638 26.1948 12.0898L26.6693 10.1469C25.6754 9.9041 24.6411 9.70809 23.5754 9.55047L23.2828 11.529ZM25.3507 11.7551C25.0014 11.1478 24.6321 10.5602 24.2695 9.99784L22.5886 11.0816C22.9438 11.6325 23.2923 12.1876 23.6169 12.7521L25.3507 11.7551ZM26.3332 13.5554C26.027 12.9579 25.7027 12.3542 25.346 11.7471L23.6216 12.7602C23.9534 13.3249 24.2589 13.8931 24.5533 14.4675L26.3332 13.5554ZM22.2116 18.4185C21.6512 19.3884 21.0804 20.3011 20.4921 21.1446L22.1325 22.2887C22.7601 21.389 23.3612 20.4266 23.9434 19.419L22.2116 18.4185ZM23.6887 15.5709C23.2375 16.5304 22.7444 17.4879 22.2097 18.4219L23.9453 19.4156C24.5092 18.4307 25.0269 17.4252 25.4986 16.4218L23.6887 15.5709ZM22.2052 13.5831C22.7463 14.5157 23.2384 15.4642 23.6887 16.4218L25.4986 15.5709C25.026 14.5656 24.5074 13.5658 23.9352 12.5794L22.2052 13.5831ZM20.4775 10.8701C21.0692 11.7184 21.6478 12.6255 22.2059 13.5843L23.9344 12.5782C23.35 11.5741 22.7421 10.6208 22.1179 9.72594L20.4775 10.8701ZM18.0017 11.1588C19.0772 11.1588 20.1559 11.2087 21.2169 11.2947L21.3785 9.30128C20.2715 9.21152 19.1383 9.15885 18.0017 9.15885L18.0017 11.1588ZM14.7781 11.3016C15.8421 11.2087 16.9191 11.1588 18.0017 11.1588L18.0017 9.15885C16.8578 9.15885 15.7228 9.21153 14.6042 9.30912L14.7781 11.3016ZM13.7918 13.6035C14.3523 12.6335 14.9231 11.7209 15.5113 10.8774L13.8709 9.73326C13.2434 10.633 12.6423 11.5953 12.0601 12.603L13.7918 13.6035ZM12.3174 16.4456C12.758 15.4934 13.257 14.5376 13.7938 13.6001L12.0581 12.6064C11.4963 13.5878 10.9699 14.595 10.5023 15.6057L12.3174 16.4456ZM13.7983 18.4389C13.2572 17.5063 12.765 16.5578 12.3148 15.6002L10.5049 16.4511C10.9775 17.4564 11.4961 18.4562 12.0683 19.4425L13.7983 18.4389ZM15.526 21.1519C14.9343 20.3036 14.3557 19.3965 13.7976 18.4377L12.0691 19.4438C12.6535 20.4479 13.2614 21.4011 13.8856 22.296L15.526 21.1519ZM18.0017 20.8631C16.9263 20.8631 15.8476 20.8133 14.7866 20.7272L14.625 22.7207C15.732 22.8105 16.8652 22.8631 18.0017 22.8631L18.0017 20.8631ZM21.2254 20.7204C20.1613 20.8133 19.0844 20.8631 18.0017 20.8631L18.0017 22.8631C19.1457 22.8631 20.2807 22.8105 21.3993 22.7129L21.2254 20.7204ZM24.5157 18.3404C24.8986 19.2904 25.2248 20.2407 25.4942 21.1622L27.4139 20.6011C27.1266 19.6183 26.779 18.6057 26.3708 17.5928L24.5157 18.3404ZM25.358 20.2302C25.7058 19.6254 26.0287 19.0168 26.3332 18.4227L24.5533 17.5105C24.2572 18.0883 23.9503 18.6662 23.6242 19.2333L25.358 20.2302ZM24.2801 22.0045C24.6425 21.4349 25.0117 20.8401 25.3607 20.2256L23.6215 19.2379C23.2967 19.8099 22.9481 20.3724 22.5927 20.9307L24.2801 22.0045ZM26.2167 19.9102C25.2883 20.137 24.3083 20.3289 23.2911 20.4782L23.5817 22.457C24.6593 22.2988 25.7008 22.0951 26.6913 21.8531L26.2167 19.9102ZM18.7346 25.0859C18.0798 24.4099 17.4211 23.6524 16.7663 22.8197L15.1941 24.056C15.887 24.9372 16.5907 25.7472 17.2982 26.4774L18.7346 25.0859ZM19.238 22.8282C18.6019 23.655 17.9446 24.4113 17.2944 25.0897L18.7384 26.4736C19.4359 25.7457 20.1408 24.9346 20.8232 24.0476L19.238 22.8282ZM17.9944 24.4891C18.6967 24.4891 19.3967 24.4742 20.0854 24.4364L19.9757 22.4394C19.3315 22.4748 18.6691 22.4891 17.9944 22.4891L17.9944 24.4891ZM15.9358 24.4369C16.6023 24.4665 17.2925 24.4891 17.9944 24.4891L17.9944 22.4891C17.334 22.4891 16.6765 22.4678 16.0246 22.4388L15.9358 24.4369ZM12.7134 20.4784C11.699 20.3284 10.7264 20.1435 9.80141 19.9176L9.32681 21.8604C10.3208 22.1032 11.355 22.2992 12.4208 22.4569L12.7134 20.4784ZM10.6502 20.2603C11.0012 20.8578 11.3601 21.4409 11.7266 22.0095L13.4075 20.9257C13.0563 20.381 12.712 19.8215 12.3746 19.2472L10.6502 20.2603ZM9.66296 18.452C9.96917 19.0494 10.2935 19.6531 10.6502 20.2603L12.3746 19.2472C12.0428 18.6824 11.7372 18.1142 11.4428 17.5398L9.66296 18.452ZM10.5254 21.1647C10.7863 20.255 11.1126 19.3107 11.4842 18.36L9.62155 17.6317C9.2315 18.6294 8.88394 19.6333 8.60287 20.6133L10.5254 21.1647ZM17.2615 6.92148C17.9164 7.59747 18.5751 8.35488 19.2299 9.18759L20.802 7.95135C20.1091 7.07016 19.4055 6.26016 18.698 5.52989L17.2615 6.92148ZM16.7582 9.17918C17.3942 8.35236 18.0516 7.596 18.7018 6.91759L17.2578 5.53378C16.5603 6.26164 15.8553 7.07268 15.173 7.95976L16.7582 9.17918ZM18.0017 7.5182C17.2995 7.5182 16.5995 7.53313 15.9107 7.57097L16.0204 9.56796C16.6647 9.53256 17.3271 9.5182 18.0017 9.5182L18.0017 7.5182ZM20.0603 7.57045C19.3938 7.54083 18.7037 7.5182 18.0017 7.5182L18.0017 9.5182C18.6621 9.5182 19.3197 9.53951 19.9715 9.56848L20.0603 7.57045ZM11.7161 10.0028C11.3536 10.5724 10.9845 11.1672 10.6355 11.7818L12.3746 12.7694C12.6995 12.1974 13.0481 11.635 13.4034 11.0766L11.7161 10.0028ZM9.77242 12.0915C10.7055 11.8706 11.6879 11.6785 12.7051 11.5291L12.4145 9.55032C11.3368 9.70858 10.2977 9.91192 9.31186 10.1452L9.77242 12.0915ZM11.4804 13.6596C11.0976 12.7096 10.7713 11.7593 10.502 10.8378L8.58231 11.3989C8.86958 12.3817 9.2172 13.3943 9.62538 14.4072L11.4804 13.6596ZM10.6382 11.7771C10.2919 12.3793 9.96926 12.9797 9.66296 13.5773L11.4428 14.4895C11.7371 13.9153 12.0444 13.3437 12.372 12.7741L10.6382 11.7771ZM6.3236 18.79C5.09142 18.2644 4.12172 17.6749 3.47897 17.1176C2.78716 16.5178 2.66116 16.1233 2.66116 16.0037L0.661158 16.0037C0.661158 17.034 1.37379 17.9395 2.16882 18.6288C3.01291 19.3606 4.17825 20.0492 5.53889 20.6296L6.3236 18.79ZM8.28088 19.5025C7.58184 19.2837 6.92483 19.0457 6.32261 18.7895L5.53988 20.63C6.2121 20.9159 6.93206 21.176 7.68324 21.4112L8.28088 19.5025ZM8.69352 15.6138C8.00273 17.1756 7.44464 18.7053 7.02091 20.1808L8.94321 20.7329C9.3398 19.3519 9.86571 17.9079 10.5226 16.4228L8.69352 15.6138ZM6.99986 11.837C7.43096 13.3194 7.99635 14.8561 8.69443 16.4249L10.5217 15.6118C9.85744 14.119 9.32418 12.6673 8.9203 11.2785L6.99986 11.837ZM6.32645 13.2161C6.91449 12.9632 7.56894 12.7326 8.2645 12.5103L7.65567 10.6053C6.93031 10.8371 6.20778 11.09 5.53604 11.379L6.32645 13.2161ZM2.66116 16.0037C2.66116 15.8833 2.78814 15.4867 3.4795 14.8865C4.12182 14.3288 5.09077 13.7398 6.32139 13.2183L5.5411 11.3768C4.17891 11.954 3.01281 12.643 2.16829 13.3763C1.37281 14.0669 0.661158 14.9741 0.661158 16.0037L2.66116 16.0037ZM10.3692 29.3088C10.265 29.249 9.98424 28.9421 9.80727 28.0454C9.64279 27.2119 9.61334 26.0792 9.77324 24.7513L7.78758 24.5122C7.61057 25.9822 7.62872 27.336 7.84511 28.4326C8.049 29.4657 8.48241 30.5322 9.37422 31.0437L10.3692 29.3088ZM10.7216 29.3743C10.5061 29.3695 10.4019 29.3273 10.3647 29.3062L9.37872 31.0463C9.78104 31.2742 10.2335 31.3639 10.6772 31.3738L10.7216 29.3743ZM16.171 26.2064C15.0212 27.2752 13.9289 28.0809 12.9668 28.614C11.9875 29.1566 11.2201 29.374 10.6994 29.374L10.6994 31.374C11.7021 31.374 12.8171 30.9835 13.9362 30.3634C15.0725 29.7337 16.2948 28.8219 17.5326 27.6714L16.171 26.2064ZM12.9971 23.8662C14.0096 25.2536 15.0634 26.519 16.1301 27.6311L17.5735 26.2467C16.5748 25.2054 15.5778 24.0098 14.6127 22.6873L12.9971 23.8662ZM8.91608 23.4497C10.3987 23.8128 12.0104 24.091 13.6988 24.2711L13.911 22.2824C12.3034 22.1109 10.7803 21.8471 9.39182 21.5071L8.91608 23.4497ZM9.77363 24.748C9.84922 24.102 9.97429 23.4108 10.131 22.6912L8.17686 22.2655C8.01134 23.0254 7.87273 23.7845 7.78719 24.5155L9.77363 24.748ZM26.2525 24.7172C26.4159 26.0453 26.3899 27.1785 26.2284 28.0134C26.0548 28.9115 25.7756 29.2224 25.6706 29.2839L26.6808 31.01C27.5646 30.4928 27.9922 29.4268 28.1921 28.3931C28.4042 27.2962 28.4184 25.9428 28.2376 24.473L26.2525 24.7172ZM25.8891 22.6858C26.0522 23.4017 26.1767 24.076 26.252 24.7126L28.2381 24.4776C28.1523 23.7519 28.0131 23.0052 27.8392 22.2417L25.8891 22.6858ZM22.3115 24.2638C24.0073 24.0837 25.6209 23.8053 27.1067 23.4339L26.6217 21.4936C25.2363 21.8399 23.7151 22.1035 22.1003 22.275L22.3115 24.2638ZM19.9051 27.6139C20.9614 26.5048 22.0163 25.2463 23.0179 23.8531L21.394 22.6857C20.4473 24.0025 19.4513 25.1904 18.4568 26.2346L19.9051 27.6139ZM25.3334 29.3374C24.8152 29.3374 24.047 29.121 23.066 28.5814C22.1027 28.0514 21.0087 27.2507 19.8593 26.1895L18.5026 27.659C19.741 28.8024 20.9651 29.7083 22.102 30.3337C23.2213 30.9495 24.3355 31.3374 25.3334 31.3374L25.3334 29.3374ZM25.6612 29.2895C25.6536 29.294 25.5692 29.3374 25.3334 29.3374L25.3334 31.3374C25.7714 31.3374 26.2583 31.2636 26.6902 31.0044L25.6612 29.2895ZM29.6697 18.7912C29.0817 19.0442 28.4272 19.2747 27.7317 19.497L28.3405 21.4021C29.0659 21.1703 29.7884 20.9174 30.4601 20.6284L29.6697 18.7912ZM33.3423 15.9973C33.3416 16.1213 33.2101 16.5203 32.518 17.1204C31.8745 17.6785 30.9053 18.2676 29.6748 18.789L30.4551 20.6305C31.8174 20.0533 32.9832 19.3643 33.8283 18.6315C34.6249 17.9407 35.3358 17.036 35.3423 16.01L33.3423 15.9973ZM29.6799 13.2174C30.9121 13.743 31.8818 14.3324 32.5245 14.8897C33.2163 15.4895 33.3423 15.8841 33.3423 16.0037L35.3423 16.0037C35.3423 14.9733 34.6297 14.0679 33.8347 13.3786C32.9906 12.6467 31.8252 11.9581 30.4646 11.3777L29.6799 13.2174ZM27.7153 12.5048C28.414 12.7236 29.0725 12.962 29.6847 13.2194L30.4598 11.3757C29.7829 11.0911 29.0644 10.8315 28.3129 10.5962L27.7153 12.5048ZM27.3026 16.3935C27.9934 14.8317 28.5515 13.302 28.9753 11.8265L27.053 11.2744C26.6564 12.6554 26.1305 14.0994 25.4736 15.5845L27.3026 16.3935ZM28.9963 20.1703C28.5652 18.6879 27.9998 17.1513 27.3017 15.5825L25.4745 16.3956C26.1387 17.8883 26.672 19.34 27.0759 20.7288L28.9963 20.1703ZM17.998 20.3507C20.3989 20.3507 22.3452 18.4044 22.3452 16.0035L20.3452 16.0035C20.3452 17.2998 19.2943 18.3507 17.998 18.3507L17.998 20.3507ZM13.6508 16.0035C13.6508 18.4044 15.5971 20.3507 17.998 20.3507L17.998 18.3507C16.7017 18.3507 15.6508 17.2998 15.6508 16.0035L13.6508 16.0035ZM17.998 11.6562C15.5971 11.6562 13.6508 13.6026 13.6508 16.0035L15.6508 16.0035C15.6508 14.7071 16.7017 13.6562 17.998 13.6562L17.998 11.6562ZM22.3452 16.0035C22.3452 13.6026 20.3989 11.6562 17.998 11.6562L17.998 13.6562C19.2943 13.6562 20.3452 14.7071 20.3452 16.0035L22.3452 16.0035Z" fill="white" mask="url(#path-1-inside-1)"/>
</svg>
