<svg width="37" height="40" viewBox="0 0 37 40" fill="none" xmlns="http://www.w3.org/2000/svg">
<path fill-rule="evenodd" clip-rule="evenodd" d="M4.08593 35.9375L0.882797 0L36.1172 -1.82862e-07L32.9141 35.9375L18.4609 40L4.08593 35.9375ZM18.4609 16.25L12.6797 16.25L12.2891 11.7188L18.4609 11.7188L18.5391 11.7188L29.1641 11.7188L29.2422 10.7813L29.4766 8.51563L29.5547 7.34375L18.5391 7.34375L18.4609 7.34375L7.4453 7.34375L7.52342 8.51563L8.61717 20.7031L18.4609 20.7031L18.5391 20.7031L23.9297 20.7031L23.3828 26.4063L18.4609 27.7344L13.5391 26.4063L13.2266 22.8906L10.8828 22.8906L8.85155 22.8906L9.39842 29.8438L18.4609 32.3438L18.5391 32.3438L18.5391 32.3222L27.5234 29.8438L27.6015 29.0625L28.6172 17.4219L28.7734 16.25L27.5234 16.25L18.5391 16.25L18.4609 16.25Z" fill="#121212"/>
</svg>
