<svg width="34" height="20" viewBox="0 0 34 20" fill="none" xmlns="http://www.w3.org/2000/svg">
<path d="M8.68669 6.66667C9.79464 2.2225 12.5658 0 16.9984 0C23.6477 0 24.4789 5 27.8036 5.83333C30.0203 6.38917 31.9594 5.55583 33.6218 3.33333C32.5138 7.7775 29.7427 10 25.3101 10C18.6607 10 17.8295 5 14.5049 4.16667C12.2881 3.61083 10.349 4.44417 8.68669 6.66667ZM0.375 16.6667C1.48295 12.2225 4.25407 10 8.68669 10C15.336 10 16.1672 15 19.4919 15.8333C21.7086 16.3892 23.6477 15.5558 25.3101 13.3333C24.2021 17.7775 21.431 20 16.9984 20C10.349 20 9.51786 15 6.19318 14.1667C3.97646 13.6108 2.03734 14.4442 0.375 16.6667Z" fill="white"/>
</svg>
