<svg width="16" height="16" viewBox="0 0 16 16" fill="none" xmlns="http://www.w3.org/2000/svg">
<g opacity="0.6">
<path d="M11.75 5.375H11.125V4.125C11.125 2.4 9.725 1 8 1C6.275 1 4.875 2.4 4.875 4.125V5.375H4.25C3.5625 5.375 3 5.9375 3 6.625V12.875C3 13.5625 3.5625 14.125 4.25 14.125H11.75C12.4375 14.125 13 13.5625 13 12.875V6.625C13 5.9375 12.4375 5.375 11.75 5.375ZM8 11C7.3125 11 6.75 10.4375 6.75 9.75C6.75 9.0625 7.3125 8.5 8 8.5C8.6875 8.5 9.25 9.0625 9.25 9.75C9.25 10.4375 8.6875 11 8 11ZM9.9375 5.375H6.0625V4.125C6.0625 3.05625 6.93125 2.1875 8 2.1875C9.06875 2.1875 9.9375 3.05625 9.9375 4.125V5.375Z" fill="white"/>
</g>
</svg>
