<svg width="20" height="20" viewBox="0 0 20 20" fill="none" xmlns="http://www.w3.org/2000/svg">
<path fill-rule="evenodd" clip-rule="evenodd" d="M10.2906 0.0595703L10.7141 0.734576L15.4189 8.23279L15.4459 8.27586L15.4637 8.32348L15.4647 8.32619C16.1693 9.38856 16.5809 10.6773 16.5809 12.0636C16.5809 15.6696 13.7865 18.6336 10.2905 18.6336C6.79439 18.6336 4 15.6696 4 12.0636C4 10.677 4.41179 9.38792 5.11675 8.3254L5.11747 8.32348L5.13527 8.27586L5.16229 8.23279L9.86705 0.734575L10.2906 0.0595703ZM6.03638 8.72121L6.03301 8.73023L6.01214 8.78607L5.97873 8.83543C5.36331 9.7447 5 10.858 5 12.0636C5 15.1623 7.39057 17.6336 10.2905 17.6336C13.1904 17.6336 15.5809 15.1623 15.5809 12.0636C15.5809 10.8583 15.2178 9.74526 14.6027 8.83613L14.5693 8.78679L14.5484 8.73098L14.5448 8.72121L10.2906 1.94107L6.03638 8.72121Z" fill="white"/>
</svg>
