<svg width="19" height="21" viewBox="0 0 19 21" fill="none" xmlns="http://www.w3.org/2000/svg">
<path fill-rule="evenodd" clip-rule="evenodd" d="M1.66221 18.8643L9.12123 20.935L16.6009 18.8614L18.2648 0.220703H0L1.66221 18.8643ZM3.6063 6.31784L3.39844 4.03125H9.125H9.13206H14.8529L14.4401 8.65932L14.3843 9.27332L13.847 15.2931L13.8126 15.6794L9.13387 16.9761V16.9774L9.12335 16.9804L4.43949 15.6801L4.11914 12.0898H6.41449L6.57728 13.9135L9.12385 14.6011L9.125 14.6008V14.5997L11.6752 13.9114L11.9407 10.9459H9.13238V10.9467H4.01548L3.81055 8.66016H9.125V8.65932H12.1389L12.347 6.31784H9.125L3.6063 6.31784Z" fill="white"/>
</svg>
