<svg width="15" height="4" viewBox="0 0 15 4" fill="none" xmlns="http://www.w3.org/2000/svg">
<path fill-rule="evenodd" clip-rule="evenodd" d="M3 2C3 2.82843 2.32843 3.5 1.5 3.5C0.671573 3.5 0 2.82843 0 2C0 1.17157 0.671573 0.5 1.5 0.5C2.32843 0.5 3 1.17157 3 2ZM9 2C9 2.82843 8.32843 3.5 7.5 3.5C6.67157 3.5 6 2.82843 6 2C6 1.17157 6.67157 0.5 7.5 0.5C8.32843 0.5 9 1.17157 9 2ZM13.5 3.5C14.3284 3.5 15 2.82843 15 2C15 1.17157 14.3284 0.5 13.5 0.5C12.6716 0.5 12 1.17157 12 2C12 2.82843 12.6716 3.5 13.5 3.5Z" fill="#808080"/>
</svg>
