<svg width="16" height="17" viewBox="0 0 16 17" fill="none" xmlns="http://www.w3.org/2000/svg">
<path fill-rule="evenodd" clip-rule="evenodd" d="M10.1168 0.818359H15.2232C15.5052 0.818359 15.6809 1.01219 15.681 1.29447V6.4008C15.681 6.68308 15.4523 6.91145 15.1703 6.91145C14.8883 6.91145 14.6597 6.68303 14.6597 6.4008V2.52714L10.3022 6.91375C10.2025 7.0135 10.0983 7.06548 9.96765 7.06548C9.83701 7.06548 9.70637 7.01988 9.60662 6.92013C9.40717 6.72067 9.40717 6.40623 9.60662 6.20678L13.9904 1.83967H10.1168C9.83479 1.83967 9.60614 1.6113 9.60614 1.32902C9.60614 1.04673 9.83479 0.818359 10.1168 0.818359ZM5.759 10.0106C5.95845 9.81113 6.29483 9.81975 6.49428 10.0192C6.69378 10.2187 6.707 10.5506 6.50745 10.7499L2.11452 15.1604H5.98817C6.27017 15.1604 6.49883 15.3888 6.49883 15.6711C6.49883 15.9534 6.27017 16.1818 5.98817 16.1818H0.881797C0.861771 16.1818 0.841711 16.1743 0.821768 16.167C0.808382 16.162 0.795048 16.1571 0.781813 16.1544C0.773532 16.1528 0.76556 16.1457 0.757647 16.1386C0.750418 16.1322 0.74324 16.1258 0.735922 16.1236C0.730999 16.1222 0.726047 16.1208 0.721095 16.1194C0.709451 16.1162 0.697811 16.1129 0.686563 16.1083C0.67123 16.1019 0.656863 16.0938 0.642548 16.0856C0.639314 16.0838 0.636083 16.082 0.632844 16.0801C0.628509 16.0777 0.624045 16.0755 0.619573 16.0733C0.612295 16.0697 0.604998 16.066 0.598203 16.0616C0.541953 16.024 0.492735 15.9757 0.455235 15.9195C0.448548 15.9094 0.442391 15.8984 0.436498 15.8878L0.435219 15.8856C0.431505 15.8789 0.427247 15.8724 0.42296 15.8658C0.415776 15.8547 0.40851 15.8436 0.403578 15.8317C0.401023 15.8255 0.397908 15.8192 0.394764 15.8129C0.389773 15.8028 0.384707 15.7926 0.381688 15.7825C0.379527 15.7753 0.374152 15.7682 0.368743 15.7611C0.36265 15.7531 0.356514 15.745 0.354875 15.7366C0.351997 15.7222 0.3447 15.7077 0.337379 15.6932C0.32789 15.6744 0.318359 15.6555 0.318359 15.6366V10.5302C0.318359 10.248 0.547016 10.0196 0.829016 10.0196C1.11102 10.0196 1.33967 10.248 1.33967 10.5302V14.4039L5.759 10.0106Z" fill="#A4A4A4"/>
</svg>
