<svg width="14" height="14" viewBox="0 0 14 14" fill="none" xmlns="http://www.w3.org/2000/svg">
<path fill-rule="evenodd" clip-rule="evenodd" d="M1 0.999022L5.22222 0.999023L5.22222 5.22125L0.999999 5.22125L1 0.999022ZM0 0.999022C0 0.446737 0.447715 -0.000976562 1 -0.000976562H5.22222C5.77451 -0.000976562 6.22222 0.446739 6.22222 0.999023V5.22125C6.22222 5.77353 5.77451 6.22125 5.22222 6.22125H0.999999C0.447714 6.22125 0 5.77353 0 5.22125V0.999022ZM8.77759 0.999022L12.9998 0.999023L12.9998 5.22125L8.77759 5.22125L8.77759 0.999022ZM7.77759 0.999022C7.77759 0.446737 8.2253 -0.000976562 8.77759 -0.000976562H12.9998C13.5521 -0.000976562 13.9998 0.446739 13.9998 0.999023V5.22125C13.9998 5.77353 13.5521 6.22125 12.9998 6.22125H8.77759C8.2253 6.22125 7.77759 5.77353 7.77759 5.22125V0.999022ZM12.9998 8.77832L8.77759 8.77832L8.77759 13.0005L12.9998 13.0005L12.9998 8.77832ZM8.77759 7.77832C8.2253 7.77832 7.77759 8.22603 7.77759 8.77832V13.0005C7.77759 13.5528 8.2253 14.0005 8.77759 14.0005H12.9998C13.5521 14.0005 13.9998 13.5528 13.9998 13.0005V8.77832C13.9998 8.22604 13.5521 7.77832 12.9998 7.77832H8.77759ZM1 8.77832L5.22222 8.77832L5.22222 13.0005L0.999999 13.0005L1 8.77832ZM0 8.77832C0 8.22603 0.447715 7.77832 1 7.77832H5.22222C5.77451 7.77832 6.22222 8.22604 6.22222 8.77832V13.0005C6.22222 13.5528 5.77451 14.0005 5.22222 14.0005H0.999999C0.447714 14.0005 0 13.5528 0 13.0005V8.77832Z" fill="white"/>
</svg>
