<svg width="18" height="20" viewBox="0 0 18 20" fill="none" xmlns="http://www.w3.org/2000/svg">
<path fill-rule="evenodd" clip-rule="evenodd" d="M0 0L1.60156 17.9688L8.78906 20L16.0156 17.9688L17.6172 0H0ZM9 7.63125H5.83099L5.61972 5.275H9H14.7887L14.831 4.7875L14.9577 3.60938L15 3H9H8.95775H3L3.04225 3.60938L3.6338 9.94687H9H11.9577L11.662 12.9125L9 13.6031H8.95775L6.29577 12.9125L6.12676 11.0844H4.85916H3.76056L4.05634 14.7L8.95775 16H9L13.9014 14.7L13.9437 14.2937L14.493 8.24062L14.5775 7.63125H13.9014H9Z" fill="white"/>
</svg>
