<svg width="350" height="200" viewBox="0 0 350 200" fill="none" xmlns="http://www.w3.org/2000/svg">
<g clip-path="url(#clip0)">
<rect x="0.5" y="0.5" width="349" height="199" rx="3.5" fill="#343434"/>
<rect x="0.5" y="0.5" width="349" height="199" rx="3.5" fill="#343434" stroke="#474747"/>
<rect opacity="0.2" x="300" y="21" width="18" height="4" rx="2" fill="#C4C4C4"/>
<rect opacity="0.2" x="270" y="21" width="18" height="4" rx="2" fill="#C4C4C4"/>
<rect opacity="0.2" x="240" y="21" width="18" height="4" rx="2" fill="#C4C4C4"/>
<rect x="32" y="17" width="36" height="12" rx="2" fill="#515151"/>
<rect opacity="0.4" x="32" y="70" width="147" height="7" rx="3.5" fill="#C4C4C4"/>
<rect opacity="0.4" x="32" y="85" width="107" height="7" rx="3.5" fill="#C4C4C4"/>
<rect opacity="0.2" x="32" y="108" width="107" height="4" rx="2" fill="#C4C4C4"/>
<rect opacity="0.2" x="32" y="120" width="73" height="4" rx="2" fill="#C4C4C4"/>
<rect opacity="0.4" x="32" y="140" width="40" height="14" rx="7" fill="#C4C4C4"/>
<rect opacity="0.2" x="78" y="140" width="40" height="14" rx="7" fill="#C4C4C4"/>
<rect x="216" y="53" width="102" height="155" rx="8" fill="#2B2B2B"/>
<rect x="219" y="62" width="96" height="161" rx="8" fill="#303030"/>
</g>
<rect x="0.5" y="0.5" width="349" height="199" rx="3.5" stroke="#474747"/>
<defs>
<clipPath id="clip0">
</clipPath>
</defs>
</svg>
