<svg width="23" height="20" viewBox="0 0 23 20" fill="none" xmlns="http://www.w3.org/2000/svg">
<path fill-rule="evenodd" clip-rule="evenodd" d="M17.7386 6.23026C20.5951 7.1046 22.4582 8.51453 22.4582 10.0023C22.4582 11.4855 20.6043 12.8954 17.7661 13.7697C18.4298 16.672 18.1415 18.9837 16.8551 19.7253C16.553 19.8993 16.2051 19.9817 15.8206 19.9817C14.5617 19.9817 12.9137 19.0936 11.2474 17.5463C9.58114 19.1028 7.93317 20 6.6743 20C6.28977 20 5.94186 19.9176 5.64431 19.7436C4.3534 19.0021 4.06043 16.6857 4.71962 13.7743C1.86313 12.9 5.96317e-08 11.49 5.19105e-08 10.0023C4.4213e-08 8.51911 1.85397 7.11376 4.7013 6.23484C4.03754 3.33257 4.32593 1.02083 5.61227 0.27924C5.9144 0.105287 6.2623 0.0228885 6.64683 0.0228885L6.64683 0.0183109C7.9057 0.0183109 9.55367 0.906386 11.22 2.45365C12.8862 0.897231 14.5342 -7.54306e-08 15.7931 -8.19639e-08L15.7931 0.00458155C16.1713 0.00524136 16.5176 0.0876753 16.8139 0.260929C18.1048 1.00252 18.3978 3.31884 17.7386 6.23026ZM15.7885 1.02083C14.8364 1.02326 13.4378 1.78295 11.9478 3.16777C12.5933 3.8407 13.2341 4.60975 13.8521 5.45663C14.8821 5.56649 15.8618 5.73587 16.759 5.9556C16.8597 5.49325 16.9421 5.04005 16.9924 4.60975C17.203 2.86107 16.9329 1.50149 16.3104 1.14443C16.1685 1.06661 15.9991 1.02541 15.7885 1.02541L15.7885 1.02083ZM10.4921 3.17235C8.99977 1.79446 7.59441 1.03914 6.64683 1.03914L6.64683 1.04372C6.43625 1.04372 6.25772 1.08034 6.12039 1.16274C5.5024 1.52438 5.2369 2.88395 5.45205 4.63264C5.50698 5.05837 5.5848 5.5024 5.69009 5.96017C6.58732 5.73587 7.56695 5.56649 8.60151 5.45663C9.21035 4.60975 9.85122 3.84527 10.4921 3.17235ZM15.8801 8.75715C16.1181 8.14832 16.3287 7.53948 16.4981 6.94896C15.8984 6.80247 15.2712 6.68345 14.6212 6.58732C14.8455 6.93523 15.0698 7.29229 15.2804 7.6585C15.4955 8.02472 15.6924 8.39094 15.8801 8.75715ZM13.2982 13.5729C13.6782 13.0282 14.0444 12.4422 14.4015 11.8242C14.7448 11.2245 15.0607 10.6111 15.349 9.99771C15.0607 9.3843 14.7448 8.77546 14.3969 8.17578C14.0398 7.56237 13.669 6.981 13.2891 6.43626C12.6116 6.38132 11.9203 6.34928 11.2291 6.34928C10.5333 6.34928 9.84207 6.38132 9.15999 6.44083C8.78004 6.98558 8.41383 7.57153 8.05676 8.18952C7.71344 8.7892 7.393 9.40261 7.10918 10.016C7.39757 10.6294 7.71343 11.2383 8.06134 11.8379C8.4184 12.4514 8.7892 13.0327 9.16915 13.5775C9.84665 13.6324 10.5379 13.6645 11.2291 13.6645C11.9249 13.6645 12.6162 13.6324 13.2982 13.5729ZM16.5118 13.051C16.3378 12.4559 16.1273 11.8425 15.8801 11.2291C15.6924 11.5953 15.4955 11.9661 15.285 12.3323C15.0744 12.7031 14.8501 13.0648 14.6258 13.4173C15.2804 13.3211 15.9121 13.1975 16.5118 13.051ZM9.96567 14.6487C10.3868 15.1843 10.8125 15.6741 11.2383 16.1135C11.6594 15.6741 12.0851 15.1843 12.4971 14.6487C12.0806 14.6715 11.6548 14.6807 11.2245 14.6807C10.7988 14.6807 10.3777 14.667 9.96567 14.6487ZM5.9556 13.0556C6.55528 13.2021 7.18242 13.3211 7.83246 13.4173C7.60815 13.0694 7.38842 12.7123 7.17327 12.3461C6.95811 11.9799 6.76127 11.6136 6.57359 11.2474C6.33555 11.8563 6.12497 12.4651 5.9556 13.0556ZM12.488 5.35592C12.0668 4.82033 11.6411 4.33051 11.2154 3.89105C10.7942 4.33051 10.3685 4.82033 9.95651 5.35592C10.3731 5.33303 10.7988 5.32387 11.2291 5.32387C11.6548 5.32387 12.076 5.33761 12.488 5.35592ZM7.16869 7.67224C7.37926 7.30144 7.60357 6.9398 7.82788 6.58732C7.17327 6.68345 6.54154 6.80705 5.94186 6.94896C6.11582 7.54406 6.32639 8.15747 6.57359 8.77089C6.76127 8.40467 6.95811 8.03845 7.16869 7.67224ZM1.01625 10.0023C1.01625 10.721 2.06455 11.6274 3.68505 12.3186C4.08331 12.488 4.51362 12.6436 4.96681 12.7855C5.22316 11.8929 5.56191 10.9636 5.98306 10.0114C5.55734 9.0547 5.21401 8.12085 4.95308 7.22362C4.50904 7.36553 4.07874 7.51659 3.68505 7.68597C2.06455 8.37263 1.01625 9.28359 1.01625 10.0023ZM5.46578 15.3948C5.25521 17.1435 5.52529 18.5031 6.14786 18.8602C6.28519 18.938 6.45914 18.9792 6.66514 18.9838C7.6173 18.9838 9.01808 18.2239 10.5104 16.8368C9.86496 16.1639 9.22408 15.3948 8.60609 14.548C7.5761 14.4381 6.59648 14.2687 5.69925 14.049C5.59854 14.5113 5.51614 14.9645 5.46578 15.3948ZM16.3378 18.8418C16.9558 18.4802 17.2213 17.1206 17.0062 15.3719C16.9558 14.9462 16.8734 14.5022 16.7681 14.0398C15.8709 14.2641 14.8913 14.4335 13.8567 14.5434C13.2479 15.3903 12.607 16.1547 11.9661 16.8277C13.4585 18.2055 14.8638 18.9609 15.8114 18.9609C16.022 18.9609 16.2005 18.9242 16.3378 18.8418ZM17.5006 12.781C17.9446 12.639 18.3749 12.488 18.7686 12.3186C20.3891 11.632 21.4374 10.721 21.442 10.0023C21.442 9.28359 20.3937 8.3772 18.7732 7.68597C18.3703 7.51659 17.94 7.36095 17.4868 7.21904C17.2305 8.1117 16.8917 9.04097 16.4706 9.99313C16.8963 10.9499 17.2396 11.8837 17.5006 12.781ZM13.3178 10.001C13.3178 11.1564 12.3811 12.093 11.2257 12.093C10.0704 12.093 9.13373 11.1564 9.13373 10.001C9.13373 8.84563 10.0704 7.90901 11.2257 7.90901C12.3811 7.90901 13.3178 8.84563 13.3178 10.001Z" fill="#A7A7A7"/>
</svg>
