<svg width="23" height="17" viewBox="0 0 23 17" fill="none" xmlns="http://www.w3.org/2000/svg">
<path d="M19.5126 9.76188C18.72 9.76635 18.0338 9.9568 17.4582 10.2404C17.2457 9.81951 17.0332 9.45178 16.9978 9.17716C16.9579 8.85821 16.9092 8.66324 16.9579 8.28231C17.0066 7.90129 17.228 7.36083 17.228 7.31653C17.2235 7.27666 17.1792 7.08174 16.7232 7.07731C16.2673 7.07288 15.8732 7.16591 15.8289 7.28552C15.7846 7.40513 15.6961 7.67979 15.6385 7.96331C15.5588 8.37972 14.7265 9.85491 14.2527 10.6302C14.0978 10.3289 13.9649 10.0631 13.9383 9.85043C13.8985 9.53152 13.8498 9.33655 13.8985 8.95562C13.9472 8.5746 14.1686 8.03419 14.1686 7.98989C14.1642 7.95002 14.1199 7.7551 13.6639 7.75067C13.2078 7.74624 12.8138 7.83927 12.7696 7.95887C12.7253 8.07848 12.6766 8.362 12.5792 8.63666C12.4862 8.91132 11.3793 11.3744 11.0915 12.0167C10.9454 12.3446 10.817 12.6059 10.724 12.7831C10.631 12.9603 10.7196 12.7964 10.7107 12.8141C10.631 12.9648 10.5868 13.0489 10.5868 13.0489L10.5868 13.0534C10.5248 13.1641 10.4584 13.2704 10.4273 13.2704C10.4052 13.2704 10.3609 12.9736 10.4362 12.5661C10.6 11.7111 10.9985 10.3777 10.9941 10.329C10.9941 10.3068 11.0693 10.072 10.7373 9.95241C10.4141 9.8328 10.299 10.0322 10.2724 10.0322C10.2458 10.0322 10.2237 10.103 10.2237 10.103C10.2237 10.103 10.5823 8.60131 9.53742 8.60131C8.88215 8.60131 7.97895 9.31454 7.53177 9.96574C7.24842 10.1208 6.64628 10.4486 6.00873 10.7986C5.76522 10.9315 5.51285 11.0732 5.27377 11.2017L5.22511 11.1485C3.95885 9.79732 1.61672 8.84044 1.71412 7.02415C1.74954 6.36408 1.97977 4.6231 6.21248 2.51443C9.67919 0.786738 12.4552 1.26075 12.9378 2.31508C13.624 3.82127 11.4546 6.62102 7.85064 7.02415C6.47813 7.1792 5.7564 6.6476 5.57492 6.44825C5.38454 6.24004 5.35798 6.23118 5.28714 6.27105C5.17202 6.33307 5.24286 6.51913 5.28714 6.62988C5.3934 6.90897 5.83614 7.40513 6.58881 7.65321C7.24846 7.87028 8.8601 7.98989 10.8082 7.23679C12.9909 6.39066 14.6955 4.04277 14.1952 2.08029C13.686 0.0823709 10.3743 -0.573267 7.24408 0.538659C5.38007 1.20316 3.36114 2.23977 1.90893 3.59978C0.18222 5.21229 -0.0922833 6.62102 0.0228309 7.20578C0.425775 9.2923 3.29916 10.6523 4.4503 11.6579C4.39274 11.6889 4.33961 11.7199 4.29091 11.7465C3.71534 12.03 1.52374 13.1774 0.974737 14.3912C0.354891 15.7645 1.07214 16.7524 1.55031 16.8853C3.02908 17.2973 4.54328 16.5575 5.36236 15.3392C6.17697 14.121 6.07961 12.5395 5.70327 11.8174L5.68995 11.7908L6.14155 11.525C6.43381 11.3522 6.72159 11.1928 6.97391 11.0554C6.83228 11.4408 6.7304 11.8971 6.67732 12.5616C6.61533 13.3413 6.93411 14.3513 7.35472 14.75C7.54067 14.9227 7.76205 14.9272 7.8993 14.9272C8.38632 14.9272 8.60769 14.524 8.85121 14.0412C9.15227 13.452 9.41792 12.7698 9.41792 12.7698C9.41792 12.7698 9.08586 14.6171 9.99349 14.6171C10.3256 14.6171 10.6576 14.1874 10.8081 13.9659L10.8081 13.9703C10.8081 13.9703 10.817 13.957 10.8347 13.926C10.8533 13.8985 10.871 13.8705 10.8878 13.8419L10.8878 13.833C11.0207 13.6027 11.3173 13.0755 11.7601 12.2028C12.3312 11.0776 12.8802 9.66885 12.8802 9.66885C12.8802 9.66885 12.9333 10.0144 13.0971 10.5814C13.1945 10.9181 13.407 11.2858 13.5708 11.6446C13.438 11.8307 13.3583 11.937 13.3583 11.937L13.3628 11.9415C13.2565 12.0832 13.137 12.2339 13.013 12.3845C12.5614 12.9249 12.0213 13.5407 11.9504 13.7179C11.8663 13.9261 11.884 14.0812 12.0478 14.2052C12.1674 14.2938 12.3799 14.3115 12.6057 14.2938C13.013 14.2672 13.2964 14.1654 13.4381 14.1033C13.6594 14.0236 13.9118 13.904 14.1553 13.7268C14.5981 13.399 14.8681 12.9338 14.8416 12.3136C14.8283 11.9725 14.7176 11.6358 14.5804 11.3169C14.6202 11.2593 14.6601 11.2017 14.6999 11.1397C15.3994 10.1163 15.9396 8.99115 15.9396 8.99115C15.9396 8.99115 15.9927 9.33669 16.1565 9.90373C16.2406 10.1917 16.4089 10.5062 16.5594 10.8163C15.9042 11.3524 15.4924 11.9726 15.3507 12.3801C15.0895 13.1332 15.2932 13.4743 15.6784 13.5541C15.851 13.5895 16.099 13.5098 16.2849 13.43C16.5151 13.3547 16.794 13.2262 17.0509 13.0358C17.4936 12.7079 17.9187 12.2517 17.8965 11.6359C17.8832 11.3524 17.808 11.0733 17.7061 10.8075C18.264 10.5771 18.9856 10.4442 19.9022 10.555C21.8724 10.7853 22.262 12.0169 22.1868 12.5307C22.1115 13.0447 21.6998 13.3281 21.5625 13.4167C21.4252 13.5009 21.3809 13.532 21.3942 13.5939C21.4119 13.687 21.4739 13.6825 21.5935 13.6649C21.7573 13.6382 22.6295 13.244 22.6649 12.296C22.718 11.0776 21.5625 9.74863 19.5126 9.76188ZM4.31748 14.8874C3.66664 15.6006 2.75015 15.8708 2.36053 15.6405C1.93993 15.3968 2.1037 14.3469 2.90511 13.5894C3.39214 13.1287 4.02526 12.7034 4.44145 12.442C4.53442 12.3844 4.6761 12.3003 4.84435 12.1984C4.87091 12.1807 4.88862 12.1718 4.88862 12.1718C4.91961 12.1541 4.95503 12.1319 4.99045 12.1098C5.28709 13.1907 5.00373 14.1387 4.31748 14.8874ZM9.07701 11.6491C8.8512 12.2028 8.37304 13.6248 8.08525 13.5451C7.83727 13.4786 7.68678 12.4021 8.03651 11.339C8.21361 10.8029 8.58994 10.165 8.81131 9.91688C9.16998 9.51818 9.55956 9.38528 9.657 9.54919C9.77212 9.76188 9.21868 11.3035 9.07701 11.6491ZM13.0042 13.5274C12.9068 13.5761 12.8182 13.6115 12.7784 13.585C12.7474 13.5673 12.8182 13.5008 12.8182 13.5008C12.8182 13.5008 13.3096 12.9737 13.5044 12.73C13.6151 12.5883 13.7479 12.4244 13.8896 12.2383L13.8896 12.2914C13.8897 12.9293 13.2787 13.3546 13.0042 13.5274ZM16.0325 12.8363C15.9617 12.7831 15.9706 12.6192 16.2096 12.1053C16.3026 11.9016 16.5151 11.5604 16.8826 11.2371C16.9269 11.37 16.9535 11.4984 16.949 11.618C16.9446 12.4154 16.3779 12.7122 16.0325 12.8363Z" fill="#A7A7A7"/>
</svg>
