<svg width="15" height="16" viewBox="0 0 15 16" fill="none" xmlns="http://www.w3.org/2000/svg">
<path opacity="0.3" fill-rule="evenodd" clip-rule="evenodd" d="M2.76657 7.11671C2.76657 9.94799 5.06177 12.2432 7.89305 12.2432C10.7243 12.2432 13.0195 9.94799 13.0195 7.11671C13.0195 4.28544 10.7243 1.99023 7.89305 1.99023C5.06177 1.99023 2.76657 4.28544 2.76657 7.11671ZM3.92889 11.788C4.99737 12.6956 6.38127 13.2432 7.89305 13.2432C11.2766 13.2432 14.0195 10.5003 14.0195 7.11671C14.0195 3.73315 11.2766 0.990234 7.89305 0.990234C4.50949 0.990234 1.76657 3.73315 1.76657 7.11671C1.76657 8.6285 2.31415 10.0124 3.22178 11.0809L-0.000785828 14.3034L0.706322 15.0106L3.92889 11.788Z" fill="#8C8C8C"/>
</svg>
