<svg width="20" height="21" viewBox="0 0 20 21" fill="none" xmlns="http://www.w3.org/2000/svg">
<path fill-rule="evenodd" clip-rule="evenodd" d="M1.00096 8.47644C1.00096 12.3445 4.13667 15.4802 8.00475 15.4802C11.8728 15.4802 15.0085 12.3445 15.0085 8.47644C15.0085 4.60836 11.8728 1.47266 8.00475 1.47266C4.13667 1.47266 1.00096 4.60836 1.00096 8.47644ZM0.000963211 8.47644C0.000963211 12.8968 3.58438 16.4802 8.00475 16.4802C9.87758 16.4802 11.6002 15.837 12.9637 14.7594L18.7343 20.53L19.4414 19.8229L13.7092 14.0907C15.1312 12.646 16.0085 10.6637 16.0085 8.47644C16.0085 4.05607 12.4251 0.472656 8.00475 0.472656C3.58438 0.472656 0.000963211 4.05607 0.000963211 8.47644Z" fill="#FCFDFF"/>
</svg>
