<svg width="14" height="15" viewBox="0 0 14 15" fill="none" xmlns="http://www.w3.org/2000/svg">
<path fill-rule="evenodd" clip-rule="evenodd" d="M10.999 1.5H5V6.5H12.999V3.5C12.999 2.39543 12.1036 1.5 10.999 1.5ZM13.999 6.5V3.5C13.999 1.84315 12.6559 0.5 10.999 0.5H5H4H3C1.34315 0.5 0 1.84315 0 3.5V11.499V11.5C0 13.1569 1.34315 14.5 3 14.5H4H5H11C12.6569 14.5 14 13.1569 14 11.5V7.5V6.5H13.999ZM4 13.499V7.5V6.5V1.5H3C1.89543 1.5 1 2.39543 1 3.5V11.499C1 12.6036 1.89543 13.499 3 13.499H4ZM12.999 7.5H5V13.499H10.999C12.1036 13.499 12.999 12.6036 12.999 11.499V7.5Z" fill="white"/>
</svg>
