<svg width="14" height="16" viewBox="0 0 14 16" fill="none" xmlns="http://www.w3.org/2000/svg">
<path fill-rule="evenodd" clip-rule="evenodd" d="M1 1.58789L13 1.58789V6.17613L1 6.17613V1.58789ZM0 1.58789C0 1.0356 0.447715 0.587891 1 0.587891H13C13.5523 0.587891 14 1.03561 14 1.58789V6.17613C14 6.72841 13.5523 7.17613 13 7.17613H1C0.447716 7.17613 0 6.72841 0 6.17613V1.58789ZM1 9.82318L13 9.82318V14.4114H1V9.82318ZM0 9.82318C0 9.2709 0.447715 8.82318 1 8.82318H13C13.5523 8.82318 14 9.2709 14 9.82318V14.4114C14 14.9637 13.5523 15.4114 13 15.4114H1C0.447716 15.4114 0 14.9637 0 14.4114V9.82318Z" fill="#A4A4A4"/>
</svg>
