<svg width="12" height="16" viewBox="0 0 12 16" fill="none" xmlns="http://www.w3.org/2000/svg">
<path fill-rule="evenodd" clip-rule="evenodd" d="M2.40039 1H9.60039C10.1527 1 10.6004 1.44771 10.6004 2V14C10.6004 14.5523 10.1527 15 9.60039 15H2.40039C1.84811 15 1.40039 14.5523 1.40039 14V2C1.40039 1.44772 1.84811 1 2.40039 1ZM0.400391 2C0.400391 0.895431 1.29582 0 2.40039 0H9.60039C10.705 0 11.6004 0.895431 11.6004 2V14C11.6004 15.1046 10.705 16 9.60039 16H2.40039C1.29582 16 0.400391 15.1046 0.400391 14V2ZM6.80094 12.7978H5.20094V13.5978H6.80094V12.7978Z" fill="#A4A4A4"/>
</svg>
