<svg width="14" height="17" viewBox="0 0 14 17" fill="none" xmlns="http://www.w3.org/2000/svg">
<g clip-path="url(#clip0)">
<path d="M6.99926 0.5C4.77998 0.5 2.97461 2.30538 2.97461 4.52466C2.97461 6.74394 4.77998 8.54931 6.99926 8.54931C9.21855 8.54931 11.0239 6.74394 11.0239 4.52466C11.0239 2.30538 9.21855 0.5 6.99926 0.5ZM6.99926 7.36559C5.4328 7.36559 4.15833 6.09113 4.15833 4.52466C4.15833 2.95819 5.4328 1.68372 6.99926 1.68372C8.56573 1.68372 9.8402 2.95819 9.8402 4.52466C9.8402 6.09113 8.56573 7.36559 6.99926 7.36559Z" fill="#7A7E80"/>
<path d="M7.00069 9.96875C3.46056 9.96875 0.6875 12.8371 0.6875 16.499H1.87122C1.87122 13.4509 4.0765 11.1525 7.00069 11.1525C9.92487 11.1525 12.1302 13.4511 12.1302 16.499H13.3139C13.3139 12.8371 10.5408 9.96875 7.00069 9.96875Z" fill="#7A7E80"/>
</g>
<defs>
<clipPath id="clip0">
<rect width="12.6875" height="16" fill="white" transform="translate(0.65625 0.5)"/>
</clipPath>
</defs>
</svg>
