<svg width="25" height="24" viewBox="0 0 25 24" fill="none" xmlns="http://www.w3.org/2000/svg">
<g clip-path="url(#clip0)">
<path d="M24.3224 20C24.3224 22.2 22.5944 24 20.4824 24H5.12238C3.01038 24 1.28238 22.2 1.28238 20V4C1.28238 1.8 3.01038 0 5.12238 0H20.4824C22.5944 0 24.3224 1.8 24.3224 4V20Z" fill="white"/>
<path d="M7.54335 5.21484H14.0751C15.2798 5.21484 16.2473 5.50112 16.9739 6.07759C17.7005 6.65406 18.0657 7.52073 18.0657 8.68543C18.0657 9.39131 17.9001 9.99524 17.5688 10.4972C17.2375 10.9992 16.7631 11.3913 16.1457 11.6658V11.705C16.9739 11.8894 17.6026 12.2972 18.0281 12.9286C18.4535 13.5639 18.6681 14.356 18.6681 15.3129C18.6681 15.8619 18.5739 16.3756 18.3857 16.8501C18.1975 17.3286 17.9038 17.7403 17.501 18.0854C17.0982 18.4305 16.5862 18.705 15.9575 18.909C15.3288 19.1129 14.5833 19.2148 13.7175 19.2148H7.54335V5.21484ZM9.89629 11.0776H13.7363C14.301 11.0776 14.7716 10.9129 15.1481 10.5756C15.5245 10.2384 15.7128 9.75994 15.7128 9.13249C15.7128 8.42661 15.5433 7.92857 15.2045 7.64229C14.8657 7.35602 14.3763 7.21092 13.7363 7.21092H9.89629V11.0776ZM9.89629 17.2148H14.0563C14.7716 17.2148 15.3288 17.0227 15.7203 16.6345C16.1156 16.2501 16.3151 15.7011 16.3151 14.9952C16.3151 14.3011 16.1193 13.7717 15.7203 13.3952C15.3212 13.0188 14.7716 12.8384 14.0563 12.8384H9.89629V17.2148Z" fill="#0E1218"/>
</g>
<defs>
<clipPath id="clip0">
<rect width="24" height="24" fill="white" transform="translate(0.436981)"/>
</clipPath>
</defs>
</svg>
