<svg width="20" height="20" viewBox="0 0 20 20" fill="none" xmlns="http://www.w3.org/2000/svg">
<path fill-rule="evenodd" clip-rule="evenodd" d="M10.2906 0.059082L10.7141 0.734088L15.4189 8.2323L15.4459 8.27537L15.4637 8.32299L15.4647 8.3257C16.1693 9.38807 16.5809 10.6769 16.5809 12.0631C16.5809 15.6692 13.7865 18.6331 10.2905 18.6331C6.79439 18.6331 4 15.6692 4 12.0631C4 10.6765 4.41179 9.38743 5.11675 8.32491L5.11747 8.32299L5.13527 8.27537L5.16229 8.2323L9.86705 0.734087L10.2906 0.059082ZM6.03638 8.72072L6.03301 8.72974L6.01214 8.78558L5.97873 8.83494C5.36331 9.74421 5 10.8575 5 12.0631C5 15.1618 7.39057 17.6331 10.2905 17.6331C13.1904 17.6331 15.5809 15.1618 15.5809 12.0631C15.5809 10.8578 15.2178 9.74477 14.6027 8.83564L14.5693 8.7863L14.5484 8.73049L14.5448 8.72073L10.2906 1.94058L6.03638 8.72072Z" fill="#808080"/>
</svg>
