<svg width="18" height="18" viewBox="0 0 18 18" fill="none" xmlns="http://www.w3.org/2000/svg">
<g opacity="0.8">
<path d="M11.5837 3.14844H3.21586C2.43069 3.14844 1.79297 3.78616 1.79297 4.57133V16.5775C1.79297 17.3627 2.43069 18.0004 3.21586 18.0004H11.5837C12.3688 18.0004 13.0066 17.3627 13.0066 16.5775V4.57133C13.0029 3.78616 12.3652 3.14844 11.5837 3.14844ZM12.0076 16.5738C12.0076 16.8097 11.8159 17.0014 11.58 17.0014H3.21218C2.97626 17.0014 2.78457 16.8097 2.78457 16.5738V4.57133C2.78457 4.33541 2.97626 4.14373 3.21218 4.14373H11.58C11.8159 4.14373 12.0076 4.33541 12.0076 4.57133V16.5738Z" fill="white" fill-opacity="0.7"/>
<path d="M14.7829 0H6.41508C5.62991 0 4.99219 0.637723 4.99219 1.4229C4.99219 1.69937 5.21336 1.92054 5.48983 1.92054C5.7663 1.92054 5.98748 1.69937 5.98748 1.4229C5.98748 1.18698 6.17916 0.99529 6.41508 0.99529H14.7829C15.0188 0.99529 15.2105 1.18698 15.2105 1.4229V13.429C15.2105 13.665 15.0188 13.8566 14.7829 13.8566C14.5064 13.8566 14.2852 14.0778 14.2852 14.3543C14.2852 14.6308 14.5064 14.8519 14.7829 14.8519C15.5681 14.8519 16.2058 14.2142 16.2058 13.429V1.4229C16.2058 0.637723 15.5681 0 14.7829 0Z" fill="white" fill-opacity="0.7"/>
</g>
</svg>
