<svg width="19" height="20" viewBox="0 0 19 20" fill="none" xmlns="http://www.w3.org/2000/svg">
<path d="M0.76001 0L2.36287 17.9946L9.55511 20L16.7674 17.9873L18.3716 0H0.76001V0ZM15.0417 4.12265L14.5081 10.1172L14.5097 10.1496L14.5075 10.2241V10.2234L14.1284 14.4149L14.0866 14.7873L9.56579 16.0377V16.0379L9.56229 16.0409L5.04924 14.7835L4.74365 11.3181H6.95674L7.11376 13.0802L9.56643 13.7449L9.56579 13.7462V13.7459L12.0276 13.0717L12.2877 10.2022H7.14149L7.09734 9.71713L6.99675 8.5807L6.94398 7.97048H12.4833L12.6848 5.73874H4.24789L4.20373 5.25398L4.10331 4.11723L4.05038 3.50701H15.0944L15.0417 4.12265V4.12265Z" fill="white"/>
</svg>
