<svg width="23" height="24" viewBox="0 0 23 24" fill="none" xmlns="http://www.w3.org/2000/svg">
<g clip-path="url(#clip0)">
<path d="M2.457 21.5625L0.535126 0L21.6758 -1.09717e-07L19.7539 21.5625L11.082 24" fill="white"/>
<path d="M11.1291 22.125L18.1134 20.2031L19.7541 1.73437L11.1291 1.73438" fill="white"/>
<path fill-rule="evenodd" clip-rule="evenodd" d="M7.61276 9.75L11.0815 9.75L11.1284 9.75L16.519 9.75L17.269 9.75L17.1753 10.4531L16.5659 17.4375L16.519 17.9063L11.1284 19.3933L11.1284 19.4063L11.0815 19.4063L5.64401 17.9063L5.31589 13.7344L6.53464 13.7344L7.94089 13.7344L8.12839 15.8438L11.0815 16.6406L14.0346 15.8438L14.3628 12.4219L11.1284 12.4219L11.0815 12.4219L5.17526 12.4219L4.51901 5.10938L4.47214 4.40625L11.0815 4.40625L11.1284 4.40625L17.7378 4.40625L17.6909 5.10938L17.5503 6.46875L17.5034 7.03125L11.1284 7.03125L11.0815 7.03125L7.37839 7.03125L7.61276 9.75Z" fill="#0E1218"/>
</g>
<defs>
<clipPath id="clip0">
<rect width="22" height="24" fill="white" transform="translate(0.436981)"/>
</clipPath>
</defs>
</svg>
