<svg width="17" height="8" viewBox="0 0 17 8" fill="none" xmlns="http://www.w3.org/2000/svg">
<path opacity="0.5" fill-rule="evenodd" clip-rule="evenodd" d="M4 6.5L13 6.5C14.3807 6.5 15.5 5.38071 15.5 4C15.5 2.61929 14.3807 1.5 13 1.5L9.5 1.5V0.5H13C14.933 0.5 16.5 2.067 16.5 4C16.5 5.933 14.933 7.5 13 7.5L9.5 7.5V6.5H7.5V7.5L4 7.5C2.067 7.5 0.5 5.933 0.5 4C0.5 2.067 2.067 0.5 4 0.5H7.5V1.5L4 1.5C2.61929 1.5 1.5 2.61929 1.5 4C1.5 5.38071 2.61929 6.5 4 6.5ZM12.5 3.5H4.5V4.5H12.5V3.5Z" fill="white"/>
</svg>
