<svg width="14" height="16" viewBox="0 0 14 16" fill="none" xmlns="http://www.w3.org/2000/svg">
<g clip-path="url(#clip0)">
<path d="M6.99926 0C4.77998 0 2.97461 1.80538 2.97461 4.02466C2.97461 6.24394 4.77998 8.04931 6.99926 8.04931C9.21855 8.04931 11.0239 6.24394 11.0239 4.02466C11.0239 1.80538 9.21855 0 6.99926 0ZM6.99926 6.86559C5.4328 6.86559 4.15833 5.59113 4.15833 4.02466C4.15833 2.45819 5.4328 1.18372 6.99926 1.18372C8.56573 1.18372 9.8402 2.45819 9.8402 4.02466C9.8402 5.59113 8.56573 6.86559 6.99926 6.86559Z" fill="#808080"/>
<path d="M7.00069 9.46973C3.46056 9.46973 0.6875 12.3381 0.6875 15.9999H1.87122C1.87122 12.9518 4.0765 10.6534 7.00069 10.6534C9.92487 10.6534 12.1302 12.952 12.1302 15.9999H13.3139C13.3139 12.3381 10.5408 9.46973 7.00069 9.46973Z" fill="#808080"/>
</g>
<defs>
<clipPath id="clip0">
<rect width="12.6875" height="16" fill="white" transform="translate(0.65625)"/>
</clipPath>
</defs>
</svg>
