<svg width="34" height="24" viewBox="0 0 34 24" fill="none" xmlns="http://www.w3.org/2000/svg">
<path d="M28.6755 13.7815C27.5567 13.7878 26.5878 14.0567 25.7753 14.457C25.4752 13.8628 25.1752 13.3437 25.1253 12.956C25.069 12.5057 25.0003 12.2305 25.069 11.6927C25.1377 11.1548 25.4502 10.3918 25.4502 10.3292C25.4439 10.2729 25.3814 9.99775 24.7377 9.99149C24.0939 9.98524 23.5376 10.1166 23.4751 10.2854C23.4126 10.4543 23.2876 10.8421 23.2063 11.2423C23.0938 11.8302 21.9187 13.9128 21.2499 15.0073C21.0311 14.582 20.8436 14.2068 20.806 13.9065C20.7498 13.4563 20.681 13.181 20.7498 12.6432C20.8186 12.1053 21.1311 11.3424 21.1311 11.2798C21.1249 11.2236 21.0624 10.9484 20.4186 10.9421C19.7747 10.9359 19.2185 11.0672 19.156 11.2361C19.0935 11.4049 19.0247 11.8052 18.8872 12.1929C18.7559 12.5807 17.1933 16.058 16.787 16.9648C16.5807 17.4276 16.3995 17.7966 16.2682 18.0468C16.1369 18.2969 16.2619 18.0655 16.2494 18.0905C16.1369 18.3032 16.0744 18.422 16.0744 18.422L16.0744 18.4283C15.9869 18.5847 15.8932 18.7347 15.8493 18.7347C15.8181 18.7347 15.7556 18.3157 15.8618 17.7404C16.0931 16.5333 16.6557 14.6509 16.6495 14.5821C16.6495 14.5508 16.7557 14.2193 16.2869 14.0505C15.8306 13.8816 15.6681 14.163 15.6306 14.163C15.5931 14.163 15.5618 14.2631 15.5618 14.2631C15.5618 14.2631 16.0681 12.143 14.593 12.143C13.6679 12.143 12.3928 13.1499 11.7615 14.0693C11.3614 14.2882 10.5114 14.7509 9.61129 15.2451C9.26751 15.4327 8.91123 15.6328 8.5737 15.8142L8.50501 15.739C6.71735 13.8315 3.41082 12.4806 3.54833 9.91645C3.59833 8.98459 3.92336 6.52673 9.89894 3.54978C14.7931 1.11069 18.7122 1.77988 19.3935 3.26835C20.3623 5.39474 17.2995 9.34732 12.2116 9.91645C10.274 10.1353 9.25508 9.38485 8.99887 9.10341C8.73009 8.80947 8.69259 8.79696 8.59258 8.85325C8.43007 8.94081 8.53008 9.20348 8.59258 9.35983C8.74259 9.75384 9.36765 10.4543 10.4302 10.8045C11.3615 11.111 13.6368 11.2798 16.387 10.2166C19.4685 9.02211 21.875 5.70744 21.1687 2.93688C20.4499 0.116288 15.7745 -0.809317 11.3553 0.760459C8.72378 1.69857 5.87353 3.16203 3.82335 5.08203C1.38564 7.35852 0.998105 9.34732 1.16062 10.1729C1.72948 13.1185 5.78602 15.0385 7.41116 16.4582C7.32991 16.5019 7.2549 16.5457 7.18615 16.5833C6.37357 16.9835 3.27955 18.6034 2.50449 20.3169C1.62941 22.2557 2.642 23.6504 3.31706 23.838C5.40474 24.4197 7.54243 23.3752 8.69878 21.6554C9.84882 19.9355 9.71137 17.7028 9.18007 16.6834L9.16126 16.6458L9.79881 16.2706C10.2114 16.0267 10.6177 15.8015 10.9739 15.6076C10.774 16.1517 10.6301 16.7959 10.5552 17.734C10.4677 18.8348 10.9177 20.2606 11.5115 20.8235C11.774 21.0674 12.0866 21.0737 12.2803 21.0737C12.9679 21.0737 13.2804 20.5045 13.6242 19.8229C14.0492 18.9911 14.4243 18.0279 14.4243 18.0279C14.4243 18.0279 13.9555 20.6359 15.2368 20.6359C15.7056 20.6359 16.1744 20.0292 16.3869 19.7165L16.3869 19.7228C16.3869 19.7228 16.3995 19.704 16.4245 19.6603C16.4507 19.6215 16.4757 19.5818 16.4995 19.5415L16.4995 19.529C16.687 19.2038 17.1058 18.4595 17.7308 17.2275C18.5371 15.6389 19.3122 13.6501 19.3122 13.6501C19.3122 13.6501 19.3872 14.138 19.6185 14.9385C19.7559 15.4139 20.056 15.9329 20.2872 16.4395C20.0997 16.7021 19.9872 16.8523 19.9872 16.8523L19.9935 16.8585C19.8435 17.0587 19.6747 17.2714 19.4997 17.484C18.8622 18.247 18.0996 19.1163 17.9996 19.3665C17.8808 19.6604 17.9058 19.8793 18.1371 20.0545C18.3059 20.1795 18.6059 20.2045 18.9247 20.1795C19.4997 20.1419 19.8998 19.9982 20.0998 19.9105C20.4123 19.798 20.7686 19.6291 21.1124 19.3789C21.7374 18.9162 22.1187 18.2595 22.0812 17.384C22.0624 16.9024 21.9062 16.4271 21.7124 15.9768C21.7687 15.8955 21.825 15.8141 21.8812 15.7266C22.8688 14.2819 23.6313 12.6934 23.6313 12.6934C23.6313 12.6934 23.7063 13.1812 23.9376 13.9817C24.0563 14.3882 24.2939 14.8323 24.5064 15.2701C23.5813 16.0269 23 16.9025 22.8 17.4778C22.4312 18.541 22.7188 19.0226 23.2625 19.1352C23.5063 19.1852 23.8564 19.0726 24.1188 18.96C24.4438 18.8537 24.8376 18.6723 25.2002 18.4034C25.8253 17.9406 26.4253 17.2965 26.3941 16.4271C26.3753 16.0269 26.2691 15.6329 26.1253 15.2576C26.9129 14.9324 27.9316 14.7448 29.2256 14.9011C32.0071 15.2264 32.5571 16.965 32.4509 17.6905C32.3447 18.416 31.7634 18.8162 31.5695 18.9413C31.3758 19.0601 31.3133 19.104 31.332 19.1914C31.357 19.3228 31.4445 19.3165 31.6133 19.2916C31.8445 19.254 33.0759 18.6974 33.1259 17.3591C33.2009 15.639 31.5695 13.7628 28.6755 13.7815V13.7815ZM7.22365 21.0175C6.30482 22.0244 5.01096 22.4059 4.46091 22.0807C3.86711 21.7367 4.09831 20.2545 5.22972 19.185C5.91728 18.5346 6.81111 17.9342 7.39866 17.5652C7.52993 17.4839 7.72994 17.3651 7.96746 17.2212C8.00497 17.1963 8.02997 17.1837 8.02997 17.1837C8.07372 17.1587 8.12373 17.1274 8.17373 17.0961C8.59252 18.6221 8.19248 19.9605 7.22365 21.0175V21.0175ZM13.943 16.4457C13.6242 17.2275 12.9491 19.235 12.5429 19.1225C12.1928 19.0287 11.9803 17.5089 12.474 16.0079C12.7241 15.2511 13.2554 14.3506 13.5679 14.0003C14.0742 13.4374 14.6242 13.2498 14.7618 13.4812C14.9243 13.7815 14.143 15.9579 13.943 16.4457ZM19.4872 19.0975C19.3497 19.1663 19.2247 19.2163 19.1684 19.1788C19.1247 19.1538 19.2246 19.06 19.2246 19.06C19.2246 19.06 19.9184 18.3158 20.1935 17.9718C20.3497 17.7717 20.5372 17.5403 20.7373 17.2776L20.7373 17.3526C20.7373 18.2531 19.8748 18.8535 19.4872 19.0975ZM23.7625 18.1218C23.6625 18.0468 23.6751 17.8154 24.0126 17.0899C24.1439 16.8022 24.4438 16.3206 24.9626 15.8641C25.0251 16.0517 25.0627 16.233 25.0564 16.4019C25.0502 17.5277 24.2501 17.9467 23.7625 18.1218Z" fill="white"/>
</svg>
