<svg width="20" height="20" viewBox="0 0 20 20" fill="none" xmlns="http://www.w3.org/2000/svg">
<path fill-rule="evenodd" clip-rule="evenodd" d="M17 1H7.5V9.16667H7.66667H19L19 3C19 1.89543 18.1046 1 17 1ZM20 9.16667L20 3C20 1.34315 18.6569 0 17 0H7.5H6.5H3C1.34315 0 0 1.34315 0 3V17C0 18.6569 1.34315 20 3 20H6.5H6.66667H7.5H7.66667H17C18.6569 20 20 18.6569 20 17L20 10.1667V9.16667ZM19 10.1667H7.66667V19H17C18.1046 19 19 18.1046 19 17L19 10.1667ZM3 1H6.5V19H3C1.89543 19 1 18.1046 1 17V3C1 1.89543 1.89543 1 3 1Z" fill="white"/>
</svg>
