<svg width="154" height="154" viewBox="0 0 154 154" fill="none" xmlns="http://www.w3.org/2000/svg">
<g filter="url(#filter0_d)">
<rect x="55" y="35" width="64" height="64" rx="32" fill="white" fill-opacity="0.9"/>
<path d="M80.6245 62.9662C80.6245 62.1484 79.6964 61.6764 79.0355 62.158L73.5098 66.185C72.9622 66.5841 72.9616 67.4008 73.5088 67.8005L79.0345 71.8382C79.6952 72.321 80.6245 71.8491 80.6245 71.0308L80.6245 67.9125L84.0796 67.9125C84.5879 67.9125 85 67.5004 85 66.9921C85 66.4837 84.5879 66.0716 84.0796 66.0716L80.6245 66.0716L80.6245 62.9662Z" fill="#131313"/>
<path d="M93.3755 71.0338C93.3755 71.8516 94.3036 72.3236 94.9645 71.842L100.49 67.815C101.038 67.4159 101.038 66.5992 100.491 66.1995L94.9655 62.1618C94.3048 61.679 93.3755 62.1509 93.3755 62.9692L93.3755 66.0875H89.9204C89.4121 66.0875 89 66.4996 89 67.0079C89 67.5163 89.4121 67.9284 89.9204 67.9284L93.3755 67.9284L93.3755 71.0338Z" fill="#131313"/>
</g>
<defs>
<filter id="filter0_d" x="0" y="0" width="154" height="154" filterUnits="userSpaceOnUse" color-interpolation-filters="sRGB">
<feFlood flood-opacity="0" result="BackgroundImageFix"/>
<feColorMatrix in="SourceAlpha" type="matrix" values="0 0 0 0 0 0 0 0 0 0 0 0 0 0 0 0 0 0 127 0"/>
<feOffset dx="-10" dy="10"/>
<feGaussianBlur stdDeviation="22.5"/>
<feColorMatrix type="matrix" values="0 0 0 0 0 0 0 0 0 0 0 0 0 0 0 0 0 0 0.55 0"/>
<feBlend mode="normal" in2="BackgroundImageFix" result="effect1_dropShadow"/>
<feBlend mode="normal" in="SourceGraphic" in2="effect1_dropShadow" result="shape"/>
</filter>
</defs>
</svg>
