<svg width="25" height="24" viewBox="0 0 25 24" fill="none" xmlns="http://www.w3.org/2000/svg">
<g clip-path="url(#clip0)">
<path d="M24.604 20C24.604 22.2 22.876 24 20.764 24H5.40397C3.29197 24 1.56396 22.2 1.56396 20V4C1.56396 1.8 3.29197 0 5.40397 0H20.764C22.876 0 24.604 1.8 24.604 4V20Z" fill="white"/>
<path d="M7.82495 5.21594H14.3567C15.5614 5.21594 16.529 5.50222 17.2555 6.07869C17.9821 6.65516 18.3473 7.52182 18.3473 8.68653C18.3473 9.39241 18.1817 9.99634 17.8504 10.4983C17.5191 11.0003 17.0447 11.3924 16.4273 11.6669V11.7061C17.2555 11.8905 17.8842 12.2983 18.3097 12.9297C18.7351 13.565 18.9497 14.3571 18.9497 15.314C18.9497 15.863 18.8555 16.3767 18.6673 16.8512C18.4791 17.3297 18.1854 17.7414 17.7826 18.0865C17.3798 18.4316 16.8678 18.7061 16.2391 18.9101C15.6104 19.114 14.865 19.2159 13.9991 19.2159H7.82495V5.21594ZM10.1779 11.0787H14.0179C14.5826 11.0787 15.0532 10.914 15.4297 10.5767C15.8061 10.2395 15.9944 9.76104 15.9944 9.13359C15.9944 8.42771 15.825 7.92967 15.4861 7.64339C15.1473 7.35712 14.6579 7.21202 14.0179 7.21202H10.1779V11.0787ZM10.1779 17.2159H14.3379C15.0532 17.2159 15.6104 17.0238 16.0019 16.6356C16.3972 16.2512 16.5967 15.7022 16.5967 14.9963C16.5967 14.3022 16.401 13.7728 16.0019 13.3963C15.6028 13.0199 15.0532 12.8395 14.3379 12.8395H10.1779V17.2159Z" fill="#0E1218"/>
</g>
<defs>
<clipPath id="clip0">
<rect x="0.718506" width="24" height="24" fill="white"/>
</clipPath>
</defs>
</svg>
