<svg width="20" height="20" viewBox="0 0 20 20" fill="none" xmlns="http://www.w3.org/2000/svg">
<path d="M20 16.6667C20 18.5 18.5 20 16.6667 20H3.33333C1.5 20 0 18.5 0 16.6667V3.33333C0 1.5 1.5 0 3.33333 0H16.6667C18.5 0 20 1.5 20 3.33333V16.6667Z" fill="#1D2733"/>
<path d="M5.43555 4.34766H11.1055C12.1512 4.34766 12.9911 4.58622 13.6218 5.06661C14.2525 5.547 14.5695 6.26922 14.5695 7.23981C14.5695 7.82805 14.4257 8.33132 14.1382 8.74962C13.8506 9.16792 13.4388 9.49471 12.9029 9.72347V9.75615C13.6218 9.90975 14.1676 10.2496 14.5369 10.7758C14.9061 11.3052 15.0924 11.9653 15.0924 12.7627C15.0924 13.2202 15.0107 13.6483 14.8473 14.0437C14.6839 14.4424 14.429 14.7856 14.0793 15.0731C13.7297 15.3607 13.2852 15.5895 12.7395 15.7594C12.1937 15.9294 11.5467 16.0143 10.795 16.0143H5.43555V4.34766ZM7.47803 9.23328H10.8114C11.3016 9.23328 11.7101 9.09602 12.0369 8.81498C12.3637 8.53393 12.527 8.13524 12.527 7.61236C12.527 7.02413 12.38 6.60909 12.0859 6.37053C11.7918 6.13197 11.3669 6.01105 10.8114 6.01105H7.47803V9.23328ZM7.47803 14.3477H11.0891C11.7101 14.3477 12.1937 14.1875 12.5336 13.864C12.8767 13.5437 13.0499 13.0862 13.0499 12.498C13.0499 11.9196 12.88 11.4784 12.5336 11.1646C12.1872 10.8509 11.7101 10.7006 11.0891 10.7006H7.47803V14.3477Z" fill="white"/>
</svg>
