<svg width="23" height="24" viewBox="0 0 23 24" fill="none" xmlns="http://www.w3.org/2000/svg">
<g clip-path="url(#clip0)">
<path d="M2.45898 21.5625L0.537109 0L21.6777 -1.09717e-07L19.7559 21.5625L11.084 24" fill="#E16D39"/>
<path d="M11.1309 22.125L18.1152 20.2031L19.7559 1.73437L11.1309 1.73438" fill="#B55F38"/>
<path fill-rule="evenodd" clip-rule="evenodd" d="M7.61426 9.75L11.083 9.75L11.1299 9.75L16.5205 9.75L17.2705 9.75L17.1768 10.4531L16.5674 17.4375L16.5205 17.9063L11.1299 19.3933L11.1299 19.4063L11.083 19.4063L5.64551 17.9063L5.31738 13.7344L6.53613 13.7344L7.94238 13.7344L8.12988 15.8438L11.083 16.6406L14.0361 15.8438L14.3643 12.4219L11.1299 12.4219L11.083 12.4219L5.17676 12.4219L4.52051 5.10938L4.47363 4.40625L11.083 4.40625L11.1299 4.40625L17.7393 4.40625L17.6924 5.10938L17.5518 6.46875L17.5049 7.03125L11.1299 7.03125L11.083 7.03125L7.37988 7.03125L7.61426 9.75Z" fill="white"/>
</g>
<defs>
<clipPath id="clip0">
<rect width="22" height="24" fill="white" transform="translate(0.438477)"/>
</clipPath>
</defs>
</svg>
