<svg width="23" height="24" viewBox="0 0 23 24" fill="none" xmlns="http://www.w3.org/2000/svg">
<g clip-path="url(#clip0)">
<path d="M2.73853 21.5625L0.81665 0L21.9573 -1.09717e-07L20.0354 21.5625L11.3635 24" fill="white"/>
<path d="M11.4106 22.1251L18.395 20.2032L20.0356 1.7345L11.4106 1.7345" fill="white"/>
<path fill-rule="evenodd" clip-rule="evenodd" d="M7.89429 9.75012L11.363 9.75012L11.4099 9.75012L16.8005 9.75012L17.5505 9.75012L17.4568 10.4532L16.8474 17.4376L16.8005 17.9064L11.4099 19.3934L11.4099 19.4064L11.363 19.4064L5.92554 17.9064L5.59741 13.7345L6.81616 13.7345L8.22241 13.7345L8.40991 15.8439L11.363 16.6407L14.3162 15.8439L14.6443 12.422L11.4099 12.422L11.363 12.422L5.45679 12.422L4.80054 5.1095L4.75366 4.40637L11.363 4.40637L11.4099 4.40637L18.0193 4.40637L17.9724 5.1095L17.8318 6.46887L17.7849 7.03137L11.4099 7.03137L11.363 7.03137L7.65991 7.03137L7.89429 9.75012Z" fill="#0E1218"/>
</g>
<defs>
<clipPath id="clip0">
<rect x="0.718506" width="22" height="24" fill="white"/>
</clipPath>
</defs>
</svg>
