<svg width="19" height="20" viewBox="0 0 19 20" fill="none" xmlns="http://www.w3.org/2000/svg">
<g clip-path="url(#clip0)">
<path d="M1.68359 17.9687L0.0820312 0L17.6992 -9.14308e-08L16.0977 17.9687L8.8711 20" fill="#1D2733"/>
<path d="M8.91016 18.4375L14.7305 16.8359L16.0977 1.44531L8.91016 1.44531" fill="#1D2733"/>
<path fill-rule="evenodd" clip-rule="evenodd" d="M5.97949 8.125L8.87012 8.125L8.90918 8.125L13.4014 8.125L14.0264 8.125L13.9482 8.71094L13.4404 14.5313L13.4014 14.9219L8.90918 16.1611L8.90918 16.1719L8.87012 16.1719L4.33887 14.9219L4.06543 11.4453L5.08106 11.4453L6.25293 11.4453L6.40918 13.2031L8.87012 13.8672L11.3311 13.2031L11.6045 10.3516L8.90918 10.3516L8.87012 10.3516L3.94824 10.3516L3.40137 4.25781L3.3623 3.67188L8.87012 3.67187L8.90918 3.67187L14.417 3.67187L14.3779 4.25781L14.2607 5.39063L14.2217 5.85938L8.90918 5.85938L8.87012 5.85938L5.78418 5.85938L5.97949 8.125Z" fill="white"/>
</g>
<defs>
<clipPath id="clip0">
<rect width="18.3333" height="20" fill="white"/>
</clipPath>
</defs>
</svg>
