<svg width="16" height="16" viewBox="0 0 16 16" fill="none" xmlns="http://www.w3.org/2000/svg">
<circle cx="8" cy="8" r="8" fill="#3E91FF"/>
<path d="M7.55163 3.90849C7.73504 3.53687 8.26496 3.53687 8.44837 3.90849L9.35313 5.74174C9.42596 5.88931 9.56674 5.99159 9.7296 6.01526L11.7527 6.30923C12.1628 6.36882 12.3266 6.87281 12.0298 7.16208L10.5659 8.58906C10.448 8.70393 10.3943 8.86943 10.4221 9.03162L10.7677 11.0466C10.8377 11.455 10.409 11.7665 10.0422 11.5736L8.23267 10.6223C8.08701 10.5457 7.91299 10.5457 7.76733 10.6223L5.95781 11.5736C5.591 11.7665 5.16228 11.455 5.23234 11.0466L5.57792 9.03162C5.60574 8.86943 5.55197 8.70393 5.43412 8.58906L3.97019 7.16208C3.67343 6.87281 3.83719 6.36882 4.2473 6.30923L6.2704 6.01526C6.43326 5.99159 6.57404 5.88931 6.64687 5.74174L7.55163 3.90849Z" fill="white"/>
</svg>
