<svg width="17" height="17" viewBox="0 0 17 17" fill="none" xmlns="http://www.w3.org/2000/svg">
<circle cx="8.66699" cy="8.5" r="7.5" stroke="#768699"/>
<path d="M5.98926 6.83789H7.20215C7.25488 6.06445 7.77637 5.57812 8.58496 5.57812C9.3877 5.57812 9.90918 6.06445 9.90918 6.72656C9.90918 7.33008 9.65723 7.66992 8.94824 8.09766C8.14551 8.57812 7.78809 9.10547 7.81738 9.93164L7.82324 10.4004H9.03613V10.043C9.03613 9.43945 9.25293 9.12891 10.0088 8.68359C10.7822 8.2207 11.2393 7.58203 11.2393 6.67383C11.2393 5.41992 10.1963 4.5 8.64941 4.5C6.9502 4.5 6.04199 5.50781 5.98926 6.83789ZM8.43848 13.1133C8.87793 13.1133 9.21191 12.7852 9.21191 12.3574C9.21191 11.9297 8.87793 11.6016 8.43848 11.6016C8.01074 11.6016 7.6709 11.9297 7.6709 12.3574C7.6709 12.7852 8.01074 13.1133 8.43848 13.1133Z" fill="#768699"/>
</svg>
