<svg width="29" height="24" viewBox="0 0 29 24" fill="none" xmlns="http://www.w3.org/2000/svg">
<path fill-rule="evenodd" clip-rule="evenodd" d="M22.4162 7.47631C25.844 8.52552 28.0798 10.2174 28.0798 12.0027C28.0798 13.7826 25.855 15.4745 22.4492 16.5237C23.2457 20.0064 22.8996 22.7805 21.356 23.6704C20.9935 23.8791 20.576 23.978 20.1145 23.978C18.6039 23.978 16.6263 22.9123 14.6268 21.0556C12.6273 22.9233 10.6497 24 9.13904 24C8.67761 24 8.26012 23.9011 7.90306 23.6924C6.35396 22.8025 6.00239 20.0229 6.79342 16.5292C3.36563 15.48 1.12988 13.7881 1.12988 12.0027C1.12988 10.2229 3.35465 8.53651 6.77145 7.4818C5.97493 3.99908 6.321 1.22499 7.8646 0.335088C8.22716 0.126345 8.64465 0.0274662 9.10608 0.0274662L9.10608 0.021973C10.6167 0.021973 12.5943 1.08766 14.5938 2.94438C16.5934 1.07668 18.5709 -9.05167e-08 20.0816 -9.83567e-08L20.0816 0.00549786C20.5354 0.00628958 20.951 0.10521 21.3066 0.313115C22.8557 1.20302 23.2072 3.98261 22.4162 7.47631ZM20.0761 1.225C18.9336 1.22792 17.2552 2.13954 15.4673 3.80133C16.2418 4.60883 17.0109 5.5317 17.7524 6.54795C18.9884 6.67979 20.164 6.88304 21.2407 7.14672C21.3615 6.5919 21.4604 6.04807 21.5208 5.5317C21.7735 3.43328 21.4494 1.80179 20.7023 1.37331C20.532 1.27993 20.3288 1.23049 20.0761 1.23049L20.0761 1.225ZM13.7204 3.80682C11.9296 2.15335 10.2432 1.24697 9.10608 1.24697L9.10608 1.25246C8.85339 1.25246 8.63915 1.29641 8.47436 1.39528C7.73277 1.82925 7.41416 3.46075 7.67234 5.55917C7.73826 6.07004 7.83165 6.60288 7.95799 7.15221C9.03467 6.88304 10.2102 6.67979 11.4517 6.54795C12.1823 5.5317 12.9514 4.61433 13.7204 3.80682ZM20.186 10.5086C20.4716 9.77798 20.7243 9.04738 20.9275 8.33875C20.2079 8.16297 19.4554 8.02014 18.6753 7.90478C18.9445 8.32227 19.2137 8.75074 19.4663 9.1902C19.7245 9.62966 19.9607 10.0691 20.186 10.5086ZM17.0878 16.2875C17.5437 15.6338 17.9832 14.9306 18.4116 14.1891C18.8236 13.4694 19.2027 12.7333 19.5487 11.9973C19.2027 11.2612 18.8236 10.5306 18.4061 9.81094C17.9777 9.07485 17.5327 8.3772 17.0768 7.72351C16.2638 7.65759 15.4343 7.61913 14.6048 7.61913C13.7698 7.61913 12.9404 7.65759 12.1219 7.729C11.6659 8.3827 11.2265 9.08583 10.798 9.82742C10.386 10.547 10.0015 11.2831 9.6609 12.0192C10.007 12.7553 10.386 13.4859 10.8035 14.2055C11.232 14.9416 11.6769 15.6393 12.1329 16.293C12.9459 16.3589 13.7753 16.3973 14.6048 16.3973C15.4398 16.3973 16.2693 16.3589 17.0878 16.2875ZM20.944 15.6613C20.7353 14.9471 20.4826 14.211 20.186 13.4749C19.9607 13.9144 19.7245 14.3593 19.4718 14.7988C19.2191 15.2438 18.95 15.6777 18.6808 16.1007C19.4663 15.9854 20.2244 15.837 20.944 15.6613ZM13.0887 17.5784C13.5941 18.2211 14.1049 18.8089 14.6158 19.3362C15.1212 18.8089 15.6321 18.2211 16.1264 17.5784C15.6266 17.6059 15.1157 17.6168 14.5993 17.6168C14.0885 17.6168 13.5831 17.6004 13.0887 17.5784ZM8.2766 15.6667C8.99621 15.8425 9.74879 15.9854 10.5288 16.1007C10.2597 15.6832 9.99599 15.2548 9.7378 14.8153C9.47962 14.3758 9.24341 13.9364 9.01819 13.4969C8.73254 14.2275 8.47985 14.9581 8.2766 15.6667ZM16.1155 6.4271C15.6101 5.78439 15.0992 5.19661 14.5883 4.66926C14.083 5.19661 13.5721 5.78439 13.0777 6.4271C13.5776 6.39963 14.0885 6.38865 14.6048 6.38865C15.1157 6.38865 15.6211 6.40513 16.1155 6.4271ZM9.73231 9.20668C9.985 8.76173 10.2542 8.32776 10.5233 7.90478C9.7378 8.02014 8.97973 8.16846 8.26012 8.33875C8.46886 9.05287 8.72155 9.78897 9.01819 10.5251C9.24341 10.0856 9.47962 9.64614 9.73231 9.20668ZM2.34938 12.0027C2.34938 12.8652 3.60734 13.9529 5.55195 14.7823C6.02986 14.9856 6.54623 15.1723 7.09006 15.3426C7.39768 14.2715 7.80418 13.1563 8.30956 12.0137C7.79869 10.8656 7.38669 9.74502 7.07358 8.66835C6.54073 8.83864 6.02437 9.01991 5.55195 9.22316C3.60734 10.0471 2.34938 11.1403 2.34938 12.0027ZM7.68882 18.4738C7.43613 20.5722 7.76023 22.2037 8.50731 22.6322C8.67211 22.7256 8.88086 22.775 9.12805 22.7805C10.2706 22.7805 11.9516 21.8686 13.7424 20.2042C12.9678 19.3967 12.1988 18.4738 11.4572 17.4575C10.2212 17.3257 9.04565 17.1225 7.96898 16.8588C7.84813 17.4136 7.74925 17.9574 7.68882 18.4738ZM20.7353 22.6102C21.4769 22.1762 21.7955 20.5447 21.5373 18.4463C21.4769 17.9355 21.378 17.4026 21.2516 16.8478C20.175 17.117 18.9994 17.3202 17.7579 17.452C17.0273 18.4683 16.2583 19.3857 15.4892 20.1932C17.28 21.8466 18.9665 22.753 20.1036 22.753C20.3562 22.753 20.5705 22.7091 20.7353 22.6102ZM22.1306 15.3371C22.6634 15.1669 23.1798 14.9856 23.6522 14.7823C25.5968 13.9583 26.8548 12.8652 26.8603 12.0027C26.8603 11.1403 25.6023 10.0526 23.6577 9.22316C23.1743 9.01991 22.6579 8.83314 22.1141 8.66285C21.8065 9.73404 21.4 10.8492 20.8946 11.9918C21.4055 13.1398 21.8175 14.2605 22.1306 15.3371ZM17.1107 12.0026C17.1107 13.3891 15.9867 14.513 14.6003 14.513C13.2138 14.513 12.0898 13.3891 12.0898 12.0026C12.0898 10.6161 13.2138 9.49219 14.6003 9.49219C15.9867 9.49219 17.1107 10.6161 17.1107 12.0026Z" fill="#2CA9D0"/>
</svg>
