<svg width="29" height="24" viewBox="0 0 29 24" fill="none" xmlns="http://www.w3.org/2000/svg">
<path fill-rule="evenodd" clip-rule="evenodd" d="M22.6962 7.47631C26.124 8.52552 28.3598 10.2174 28.3598 12.0027C28.3598 13.7826 26.135 15.4745 22.7292 16.5237C23.5257 20.0064 23.1797 22.7805 21.6361 23.6704C21.2735 23.8791 20.856 23.978 20.3946 23.978C18.8839 23.978 16.9064 22.9123 14.9068 21.0556C12.9073 22.9233 10.9297 24 9.41907 24C8.95764 24 8.54015 23.9011 8.18309 23.6924C6.63399 22.8025 6.28242 20.0229 7.07345 16.5292C3.64566 15.48 1.40991 13.7881 1.40991 12.0027C1.40991 10.2229 3.63468 8.53651 7.05148 7.4818C6.25496 3.99908 6.60103 1.22499 8.14463 0.335088C8.50719 0.126345 8.92467 0.0274662 9.38611 0.0274662L9.38611 0.021973C10.8968 0.021973 12.8743 1.08766 14.8739 2.94438C16.8734 1.07668 18.851 -9.05167e-08 20.3616 -9.83567e-08L20.3616 0.00549786C20.8154 0.00628958 21.231 0.10521 21.5866 0.313115C23.1357 1.20302 23.4873 3.98261 22.6962 7.47631ZM20.3561 1.225C19.2136 1.22792 17.5352 2.13954 15.7473 3.80133C16.5218 4.60883 17.2909 5.5317 18.0325 6.54795C19.2685 6.67979 20.444 6.88304 21.5207 7.14672C21.6415 6.5919 21.7404 6.04807 21.8008 5.5317C22.0535 3.43328 21.7294 1.80179 20.9824 1.37331C20.8121 1.27993 20.6088 1.23049 20.3561 1.23049L20.3561 1.225ZM14.0004 3.80682C12.2096 2.15335 10.5232 1.24697 9.38611 1.24697L9.38611 1.25246C9.13342 1.25246 8.91918 1.29641 8.75438 1.39528C8.0128 1.82925 7.69419 3.46075 7.95237 5.55917C8.01829 6.07004 8.11167 6.60288 8.23802 7.15221C9.3147 6.88304 10.4903 6.67979 11.7317 6.54795C12.4623 5.5317 13.2314 4.61433 14.0004 3.80682ZM20.466 10.5086C20.7516 9.77798 21.0043 9.04738 21.2076 8.33875C20.488 8.16297 19.7354 8.02014 18.9553 7.90478C19.2245 8.32227 19.4937 8.75074 19.7464 9.1902C20.0046 9.62966 20.2408 10.0691 20.466 10.5086ZM17.3678 16.2875C17.8237 15.6338 18.2632 14.9306 18.6917 14.1891C19.1037 13.4694 19.4827 12.7333 19.8288 11.9973C19.4827 11.2612 19.1037 10.5306 18.6862 9.81094C18.2577 9.07485 17.8127 8.3772 17.3568 7.72351C16.5438 7.65759 15.7143 7.61913 14.8848 7.61913C14.0499 7.61913 13.2204 7.65759 12.4019 7.729C11.946 8.3827 11.5065 9.08583 11.078 9.82742C10.666 10.547 10.2815 11.2831 9.94093 12.0192C10.287 12.7553 10.666 13.4859 11.0835 14.2055C11.512 14.9416 11.9569 15.6393 12.4129 16.293C13.2259 16.3589 14.0554 16.3973 14.8848 16.3973C15.7198 16.3973 16.5493 16.3589 17.3678 16.2875ZM21.2241 15.6613C21.0153 14.9471 20.7626 14.211 20.466 13.4749C20.2408 13.9144 20.0046 14.3593 19.7519 14.7988C19.4992 15.2438 19.23 15.6777 18.9608 16.1007C19.7464 15.9854 20.5044 15.837 21.2241 15.6613ZM13.3687 17.5784C13.8741 18.2211 14.385 18.8089 14.8958 19.3362C15.4012 18.8089 15.9121 18.2211 16.4065 17.5784C15.9066 17.6059 15.3957 17.6168 14.8794 17.6168C14.3685 17.6168 13.8631 17.6004 13.3687 17.5784ZM8.55663 15.6667C9.27624 15.8425 10.0288 15.9854 10.8089 16.1007C10.5397 15.6832 10.276 15.2548 10.0178 14.8153C9.75965 14.3758 9.52344 13.9364 9.29822 13.4969C9.01257 14.2275 8.75988 14.9581 8.55663 15.6667ZM16.3955 6.4271C15.8901 5.78439 15.3792 5.19661 14.8684 4.66926C14.363 5.19661 13.8521 5.78439 13.3577 6.4271C13.8576 6.39963 14.3685 6.38865 14.8848 6.38865C15.3957 6.38865 15.9011 6.40513 16.3955 6.4271ZM10.0123 9.20668C10.265 8.76173 10.5342 8.32776 10.8034 7.90478C10.0178 8.02014 9.25976 8.16846 8.54015 8.33875C8.74889 9.05287 9.00158 9.78897 9.29822 10.5251C9.52344 10.0856 9.75965 9.64614 10.0123 9.20668ZM2.62941 12.0027C2.62941 12.8652 3.88737 13.9529 5.83198 14.7823C6.30989 14.9856 6.82626 15.1723 7.37009 15.3426C7.67771 14.2715 8.08421 13.1563 8.58959 12.0137C8.07871 10.8656 7.66672 9.74502 7.35361 8.66835C6.82076 8.83864 6.3044 9.01991 5.83198 9.22316C3.88737 10.0471 2.62941 11.1403 2.62941 12.0027ZM7.96885 18.4738C7.71616 20.5722 8.04026 22.2037 8.78734 22.6322C8.95214 22.7256 9.16088 22.775 9.40808 22.7805C10.5507 22.7805 12.2316 21.8686 14.0224 20.2042C13.2479 19.3967 12.4788 18.4738 11.7372 17.4575C10.5012 17.3257 9.32568 17.1225 8.24901 16.8588C8.12816 17.4136 8.02928 17.9574 7.96885 18.4738ZM21.0153 22.6102C21.7569 22.1762 22.0755 20.5447 21.8173 18.4463C21.7569 17.9355 21.658 17.4026 21.5317 16.8478C20.455 17.117 19.2794 17.3202 18.038 17.452C17.3074 18.4683 16.5383 19.3857 15.7693 20.1932C17.5601 21.8466 19.2465 22.753 20.3836 22.753C20.6363 22.753 20.8505 22.7091 21.0153 22.6102ZM22.4106 15.3371C22.9434 15.1669 23.4598 14.9856 23.9322 14.7823C25.8768 13.9583 27.1348 12.8652 27.1403 12.0027C27.1403 11.1403 25.8823 10.0526 23.9377 9.22316C23.4543 9.01991 22.938 8.83314 22.3941 8.66285C22.0865 9.73404 21.68 10.8492 21.1746 11.9918C21.6855 13.1398 22.0975 14.2605 22.4106 15.3371ZM17.3907 12.0026C17.3907 13.3891 16.2668 14.513 14.8803 14.513C13.4938 14.513 12.3699 13.3891 12.3699 12.0026C12.3699 10.6161 13.4938 9.49219 14.8803 9.49219C16.2668 9.49219 17.3907 10.6161 17.3907 12.0026Z" fill="white"/>
</svg>
