<svg width="28" height="20" viewBox="0 0 28 20" fill="none" xmlns="http://www.w3.org/2000/svg">
<path d="M22.9559 11.4846C22.0236 11.4898 21.2162 11.7139 20.5391 12.0475C20.289 11.5524 20.039 11.1197 19.9974 10.7967C19.9505 10.4214 19.8932 10.192 19.9505 9.74389C20.0078 9.29563 20.2682 8.6598 20.2682 8.60768C20.263 8.56077 20.2109 8.33146 19.6744 8.32625C19.138 8.32103 18.6743 8.43048 18.6222 8.5712C18.5701 8.71191 18.466 9.03504 18.3983 9.36859C18.3045 9.8585 17.3252 11.594 16.7679 12.5061C16.5856 12.1517 16.4293 11.839 16.398 11.5887C16.3512 11.2136 16.2939 10.9842 16.3512 10.536C16.4085 10.0878 16.6689 9.45198 16.6689 9.39987C16.6637 9.35296 16.6116 9.12364 16.0752 9.11843C15.5386 9.11322 15.0751 9.22266 15.023 9.36338C14.9709 9.5041 14.9136 9.83765 14.799 10.1608C14.6896 10.4839 13.3874 13.3816 13.0488 14.1373C12.8769 14.523 12.7259 14.8305 12.6165 15.039C12.5071 15.2474 12.6113 15.0546 12.6009 15.0755C12.5071 15.2527 12.455 15.3517 12.455 15.3517L12.455 15.3569C12.3821 15.4872 12.304 15.6123 12.2675 15.6123C12.2414 15.6123 12.1893 15.2631 12.2779 14.7836C12.4706 13.7777 12.9394 12.209 12.9342 12.1517C12.9342 12.1257 13.0227 11.8494 12.6321 11.7087C12.2518 11.568 12.1165 11.8025 12.0852 11.8025C12.0539 11.8025 12.0279 11.8859 12.0279 11.8859C12.0279 11.8859 12.4498 10.1192 11.2205 10.1192C10.4496 10.1192 9.387 10.9583 8.86091 11.7244C8.52755 11.9068 7.81916 12.2924 7.06909 12.7042C6.78261 12.8606 6.48571 13.0273 6.20443 13.1785L6.14719 13.1158C4.65747 11.5263 1.90202 10.4005 2.01662 8.26371C2.05829 7.48716 2.32914 5.43894 7.3088 2.95815C11.3873 0.925574 14.6532 1.48323 15.2209 2.72362C16.0283 4.49562 13.476 7.78944 9.23605 8.26371C7.62133 8.44612 6.77224 7.82071 6.55873 7.58618C6.33475 7.34123 6.3035 7.3308 6.22016 7.37771C6.08473 7.45067 6.16807 7.66957 6.22016 7.79986C6.34517 8.1282 6.86605 8.71192 7.75154 9.00377C8.5276 9.25915 10.4237 9.39987 12.7155 8.51387C15.2835 7.51843 17.2888 4.7562 16.7002 2.4474C16.1012 0.0969069 12.2051 -0.674431 8.52245 0.633716C6.32949 1.41548 3.95429 2.63502 2.2458 4.23503C0.214376 6.1321 -0.108569 7.78944 0.0268599 8.47739C0.500912 10.9321 3.88136 12.5321 5.23565 13.7152C5.16793 13.7516 5.10543 13.7881 5.04813 13.8194C4.37099 14.1529 1.79264 15.5028 1.14675 16.9308C0.417519 18.5464 1.26134 19.7087 1.82389 19.865C3.56363 20.3497 5.34503 19.4794 6.30866 18.0461C7.26702 16.6129 7.15248 14.7523 6.70974 13.9028L6.69406 13.8715L7.22535 13.5588C7.56919 13.3556 7.90776 13.168 8.20461 13.0063C8.03798 13.4598 7.91812 13.9966 7.85567 14.7783C7.78275 15.6957 8.15778 16.8839 8.65261 17.3529C8.87138 17.5561 9.13182 17.5614 9.29329 17.5614C9.86626 17.5614 10.1267 17.0871 10.4132 16.5191C10.7674 15.8259 11.0799 15.0233 11.0799 15.0233C11.0799 15.0233 10.6893 17.1966 11.7571 17.1966C12.1477 17.1966 12.5384 16.691 12.7155 16.4305L12.7155 16.4357C12.7155 16.4357 12.7259 16.42 12.7467 16.3835C12.7686 16.3512 12.7894 16.3182 12.8092 16.2846L12.8092 16.2742C12.9655 16.0031 13.3145 15.3829 13.8354 14.3562C14.5072 13.0325 15.1532 11.3751 15.1532 11.3751C15.1532 11.3751 15.2157 11.7816 15.4084 12.4487C15.523 12.8449 15.773 13.2774 15.9657 13.6996C15.8094 13.9184 15.7157 14.0436 15.7157 14.0436L15.7209 14.0488C15.5959 14.2156 15.4552 14.3928 15.3094 14.57C14.7781 15.2058 14.1427 15.9303 14.0593 16.1388C13.9604 16.3837 13.9812 16.5661 14.1739 16.712C14.3146 16.8163 14.5646 16.8371 14.8302 16.8163C15.3094 16.785 15.6428 16.6651 15.8095 16.5921C16.0699 16.4983 16.3668 16.3576 16.6533 16.1491C17.1742 15.7635 17.4919 15.2163 17.4607 14.4866C17.445 14.0853 17.3148 13.6892 17.1534 13.314C17.2002 13.2462 17.2472 13.1784 17.294 13.1055C18.117 11.9016 18.7525 10.5778 18.7525 10.5778C18.7525 10.5778 18.815 10.9843 19.0077 11.6514C19.1066 11.9902 19.3046 12.3603 19.4817 12.7251C18.7108 13.3557 18.2264 14.0854 18.0597 14.5649C17.7524 15.4509 17.992 15.8522 18.4451 15.946C18.6482 15.9877 18.94 15.8939 19.1587 15.8C19.4295 15.7114 19.7577 15.5602 20.0599 15.3362C20.5807 14.9505 21.0808 14.4137 21.0547 13.6893C21.0391 13.3557 20.9506 13.0274 20.8308 12.7147C21.4871 12.4437 22.336 12.2873 23.4143 12.4176C25.7322 12.6886 26.1906 14.1375 26.1021 14.7421C26.0136 15.3467 25.5291 15.6802 25.3676 15.7844C25.2061 15.8834 25.1541 15.92 25.1697 15.9929C25.1905 16.1024 25.2634 16.0971 25.4041 16.0763C25.5968 16.045 26.6229 15.5812 26.6646 14.4659C26.7271 13.0325 25.3676 11.469 22.9559 11.4846ZM5.07938 17.5145C4.31369 18.3536 3.23547 18.6716 2.7771 18.4005C2.28227 18.1139 2.47494 16.8787 3.41778 15.9875C3.99075 15.4455 4.7356 14.9452 5.22523 14.6377C5.33462 14.5699 5.5013 14.4709 5.69923 14.351C5.73048 14.3302 5.75132 14.3198 5.75132 14.3198C5.78778 14.2989 5.82945 14.2728 5.87112 14.2468C6.22011 15.5185 5.88675 16.6338 5.07938 17.5145ZM10.6788 13.7048C10.4132 14.3562 9.85064 16.0292 9.51206 15.9354C9.22032 15.8572 9.04327 14.5908 9.45471 13.3399C9.66307 12.7093 10.1058 11.9588 10.3663 11.6669C10.7882 11.1979 11.2465 11.0415 11.3612 11.2343C11.4966 11.4846 10.8455 13.2982 10.6788 13.7048ZM15.299 15.9145C15.1844 15.9719 15.0803 16.0136 15.0334 15.9823C14.9969 15.9615 15.0802 15.8833 15.0802 15.8833C15.0802 15.8833 15.6584 15.2631 15.8876 14.9765C16.0178 14.8098 16.1741 14.6169 16.3407 14.398L16.3407 14.4605C16.3408 15.211 15.622 15.7113 15.299 15.9145ZM18.8618 15.1015C18.7784 15.039 18.7889 14.8461 19.0701 14.2416C19.1796 14.0018 19.4295 13.6005 19.8619 13.2201C19.914 13.3764 19.9453 13.5275 19.94 13.6683C19.9348 14.6064 19.2681 14.9556 18.8618 15.1015Z" fill="#1D2733"/>
</svg>
