<svg width="34" height="24" viewBox="0 0 34 24" fill="none" xmlns="http://www.w3.org/2000/svg">
<path d="M28.957 13.7815C27.8382 13.7878 26.8694 14.0567 26.0568 14.457C25.7568 13.8628 25.4567 13.3437 25.4068 12.956C25.3505 12.5057 25.2818 12.2305 25.3505 11.6927C25.4192 11.1548 25.7318 10.3918 25.7318 10.3292C25.7255 10.2729 25.6629 9.99775 25.0192 9.99149C24.3755 9.98524 23.8191 10.1166 23.7566 10.2854C23.6941 10.4543 23.5691 10.8421 23.4878 11.2423C23.3753 11.8302 22.2002 13.9128 21.5314 15.0073C21.3126 14.582 21.1251 14.2068 21.0875 13.9065C21.0314 13.4563 20.9625 13.181 21.0314 12.6432C21.1001 12.1053 21.4126 11.3424 21.4126 11.2798C21.4064 11.2236 21.3439 10.9484 20.7001 10.9421C20.0563 10.9359 19.5 11.0672 19.4375 11.2361C19.375 11.4049 19.3063 11.8052 19.1688 12.1929C19.0374 12.5807 17.4748 16.058 17.0685 16.9648C16.8622 17.4276 16.681 17.7966 16.5497 18.0468C16.4185 18.2969 16.5435 18.0655 16.531 18.0905C16.4185 18.3032 16.3559 18.422 16.3559 18.422L16.3559 18.4283C16.2684 18.5847 16.1747 18.7347 16.1309 18.7347C16.0996 18.7347 16.0371 18.3157 16.1434 17.7404C16.3746 16.5333 16.9372 14.6509 16.931 14.5821C16.931 14.5508 17.0372 14.2193 16.5684 14.0505C16.1121 13.8816 15.9497 14.163 15.9121 14.163C15.8746 14.163 15.8433 14.2631 15.8433 14.2631C15.8433 14.2631 16.3496 12.143 14.8745 12.143C13.9494 12.143 12.6743 13.1499 12.043 14.0693C11.643 14.2882 10.7929 14.7509 9.89282 15.2451C9.54904 15.4327 9.19276 15.6328 8.85523 15.8142L8.78654 15.739C6.99888 13.8315 3.69234 12.4806 3.82985 9.91645C3.87986 8.98459 4.20489 6.52673 10.1805 3.54978C15.0746 1.11069 18.9937 1.77988 19.675 3.26835C20.6438 5.39474 17.5811 9.34732 12.4932 9.91645C10.5555 10.1353 9.5366 9.38485 9.28039 9.10341C9.01162 8.80947 8.97411 8.79696 8.87411 8.85325C8.71159 8.94081 8.8116 9.20348 8.87411 9.35983C9.02412 9.75384 9.64917 10.4543 10.7118 10.8045C11.643 11.111 13.9183 11.2798 16.6685 10.2166C19.7501 9.02211 22.1565 5.70744 21.4502 2.93688C20.7314 0.116288 16.056 -0.809317 11.6368 0.760459C9.0053 1.69857 6.15506 3.16203 4.10488 5.08204C1.66716 7.35852 1.27963 9.34732 1.44214 10.1729C2.01101 13.1185 6.06755 15.0385 7.69269 16.4582C7.61143 16.5019 7.53643 16.5457 7.46767 16.5833C6.6551 16.9835 3.56108 18.6034 2.78601 20.3169C1.91094 22.2557 2.92352 23.6504 3.59858 23.838C5.68626 24.4197 7.82395 23.3752 8.9803 21.6554C10.1303 19.9355 9.99289 17.7028 9.46159 16.6834L9.44278 16.6458L10.0803 16.2706C10.4929 16.0267 10.8992 15.8015 11.2554 15.6076C11.0555 16.1517 10.9117 16.7959 10.8367 17.734C10.7492 18.8348 11.1992 20.2606 11.793 20.8235C12.0556 21.0674 12.3681 21.0737 12.5619 21.0737C13.2494 21.0737 13.562 20.5045 13.9057 19.8229C14.3308 18.9911 14.7058 18.0279 14.7058 18.0279C14.7058 18.0279 14.237 20.6359 15.5184 20.6359C15.9872 20.6359 16.456 20.0292 16.6685 19.7165L16.6685 19.7228C16.6685 19.7228 16.681 19.704 16.706 19.6603C16.7322 19.6215 16.7572 19.5818 16.781 19.5415L16.781 19.529C16.9685 19.2038 17.3873 18.4595 18.0123 17.2275C18.8186 15.6389 19.5937 13.6501 19.5937 13.6501C19.5937 13.6501 19.6687 14.138 19.9 14.9385C20.0375 15.4139 20.3375 15.9329 20.5688 16.4395C20.3812 16.7021 20.2687 16.8523 20.2687 16.8523L20.275 16.8585C20.125 17.0587 19.9562 17.2714 19.7812 17.484C19.1437 18.247 18.3811 19.1163 18.2811 19.3665C18.1624 19.6604 18.1874 19.8793 18.4186 20.0545C18.5874 20.1795 18.8874 20.2045 19.2062 20.1795C19.7812 20.1419 20.1813 19.9982 20.3813 19.9105C20.6938 19.798 21.0501 19.6291 21.3939 19.3789C22.0189 18.9162 22.4002 18.2595 22.3627 17.384C22.344 16.9024 22.1877 16.4271 21.9939 15.9768C22.0502 15.8955 22.1065 15.8141 22.1627 15.7266C23.1503 14.2819 23.9129 12.6934 23.9129 12.6934C23.9129 12.6934 23.9879 13.1812 24.2191 13.9817C24.3378 14.3882 24.5754 14.8323 24.7879 15.2701C23.8629 16.0269 23.2816 16.9025 23.0815 17.4778C22.7128 18.541 23.0003 19.0226 23.5441 19.1352C23.7878 19.1852 24.1379 19.0726 24.4003 18.96C24.7254 18.8537 25.1191 18.6723 25.4817 18.4034C26.1068 17.9406 26.7069 17.2965 26.6756 16.4271C26.6568 16.0269 26.5506 15.6329 26.4068 15.2576C27.1944 14.9324 28.2132 14.7448 29.5071 14.9011C32.2886 15.2264 32.8386 16.965 32.7324 17.6905C32.6262 18.416 32.0449 18.8162 31.851 18.9413C31.6573 19.0601 31.5948 19.104 31.6135 19.1914C31.6385 19.3228 31.726 19.3165 31.8948 19.2916C32.1261 19.254 33.3574 18.6974 33.4074 17.3591C33.4824 15.639 31.851 13.7628 28.957 13.7815ZM7.50517 21.0175C6.58634 22.0244 5.29248 22.4059 4.74243 22.0807C4.14863 21.7367 4.37984 20.2545 5.51125 19.185C6.19881 18.5346 7.09264 17.9342 7.68019 17.5652C7.81145 17.4839 8.01147 17.3651 8.24899 17.2212C8.28649 17.1963 8.31149 17.1837 8.31149 17.1837C8.35525 17.1587 8.40525 17.1274 8.45526 17.0961C8.87404 18.6221 8.47401 19.9605 7.50517 21.0175ZM14.2245 16.4457C13.9057 17.2275 13.2307 19.235 12.8244 19.1225C12.4743 19.0287 12.2618 17.5089 12.7556 16.0079C13.0056 15.2511 13.5369 14.3506 13.8494 14.0003C14.3558 13.4374 14.9058 13.2498 15.0433 13.4812C15.2058 13.7815 14.4245 15.9579 14.2245 16.4457ZM19.7687 19.0975C19.6312 19.1663 19.5062 19.2163 19.45 19.1788C19.4062 19.1538 19.5062 19.06 19.5062 19.06C19.5062 19.06 20.2 18.3158 20.475 17.9718C20.6313 17.7717 20.8188 17.5403 21.0188 17.2776L21.0188 17.3526C21.0189 18.2531 20.1563 18.8535 19.7687 19.0975ZM24.0441 18.1218C23.944 18.0468 23.9566 17.8154 24.2941 17.0899C24.4254 16.8022 24.7254 16.3206 25.2442 15.8641C25.3067 16.0517 25.3442 16.233 25.3379 16.4019C25.3317 17.5277 24.5317 17.9467 24.0441 18.1218Z" fill="white"/>
</svg>
