<svg width="10" height="11" viewBox="0 0 10 11" fill="none" xmlns="http://www.w3.org/2000/svg">
<path d="M4.53882 1.1011C4.71017 0.691982 5.28983 0.691981 5.46118 1.1011L6.47675 3.52583C6.54884 3.69794 6.71077 3.81559 6.89674 3.83097L9.51662 4.04755C9.95867 4.08409 10.1378 4.63537 9.80164 4.92477L7.80942 6.63991C7.668 6.76166 7.60615 6.95202 7.649 7.13364L8.25261 9.69222C8.35445 10.1239 7.8855 10.4646 7.5064 10.2344L5.25957 8.86966C5.10008 8.77279 4.89992 8.77279 4.74043 8.86966L2.4936 10.2344C2.1145 10.4646 1.64555 10.1239 1.74739 9.69222L2.351 7.13364C2.39385 6.95202 2.332 6.76166 2.19058 6.63991L0.198356 4.92477C-0.137789 4.63537 0.0413356 4.08409 0.483383 4.04755L3.10326 3.83097C3.28923 3.81559 3.45116 3.69794 3.52325 3.52583L4.53882 1.1011Z" fill="white"/>
</svg>
