<svg width="405" height="79" viewBox="0 0 405 79" fill="none" xmlns="http://www.w3.org/2000/svg">
<path d="M105.653 78.583C105.653 78.3535 105.556 78.2097 105.436 78.2634C105.317 78.3172 105.071 78.1014 104.889 77.7838C104.697 77.4489 104.401 77.2065 104.184 77.2065C103.888 77.2065 103.864 77.1586 104.07 76.9778C104.27 76.8021 104.263 76.7326 104.042 76.6782C103.814 76.6224 103.824 76.5438 104.088 76.3097C104.344 76.0828 104.357 75.9957 104.144 75.9434C103.99 75.9057 103.864 75.8032 103.864 75.7157C103.864 75.6282 103.964 75.6014 104.086 75.6562C104.212 75.7134 104.25 75.6479 104.173 75.5028C104.1 75.3636 104.155 75.2497 104.296 75.2497C104.482 75.2497 104.486 75.1612 104.312 74.9236C104.119 74.6616 104.142 74.5975 104.424 74.5975C104.709 74.5975 104.723 74.5555 104.496 74.3789C104.207 74.1529 103.645 74.3549 103.718 74.6586C103.737 74.7371 103.635 74.833 103.491 74.8718C103.319 74.9181 103.273 74.8187 103.358 74.5813C103.429 74.3828 103.396 74.2593 103.285 74.3069C103.173 74.3546 102.881 74.3396 102.635 74.2736C102.28 74.1785 102.384 74.1291 103.138 74.0351C103.73 73.9612 104.088 73.8298 104.088 73.6863C104.088 73.5596 104.284 73.456 104.523 73.456C104.762 73.456 105.095 73.3127 105.263 73.1375C105.565 72.8235 106.703 72.3949 107.073 72.4566C107.177 72.474 107.831 72.3836 108.526 72.2557C109.221 72.1278 110.419 71.9714 111.188 71.9082C111.956 71.845 112.641 71.7271 112.71 71.6462C112.779 71.5653 113.055 71.4975 113.324 71.4955C113.594 71.4935 114.418 71.275 115.156 71.01C115.894 70.7449 116.668 70.5265 116.876 70.5244C117.084 70.5224 117.316 70.4474 117.392 70.3577C117.468 70.268 117.416 70.1947 117.278 70.1947C116.968 70.1947 117.08 69.4653 117.392 69.4495C117.515 69.4433 118.057 69.3461 118.596 69.2335C119.135 69.1209 119.822 69.0738 120.122 69.1287C120.422 69.1836 120.987 69.1567 121.377 69.0688C121.768 68.981 122.649 68.829 123.335 68.7311C125.218 68.4623 126.224 68.2378 126.224 68.0861C126.224 67.9289 114.754 68.0386 111.914 68.2229C110.418 68.3201 109.847 68.2935 109.231 68.0982C108.8 67.9617 108.398 67.8394 108.336 67.8264C108.275 67.8135 107.93 67.7143 107.571 67.606C107.212 67.4978 106.759 67.4543 106.565 67.5094C106.371 67.5645 103.395 67.6359 99.9516 67.6681C96.5083 67.7003 93.2382 67.7997 92.6848 67.889C92.1314 67.9783 90.473 68.1366 88.9994 68.2407C87.5259 68.3448 86.1277 68.5052 85.8925 68.597C85.6572 68.6888 84.9732 68.7295 84.3726 68.6874C83.7719 68.6453 83.2263 68.6749 83.16 68.7532C83.0937 68.8314 82.9457 68.8532 82.8313 68.8016C82.7168 68.75 82.6231 68.7855 82.6231 68.8805C82.6231 68.9755 82.5477 69.0386 82.4554 69.0208C82.0835 68.949 80.1636 69.2457 80.1636 69.375C80.1636 69.5341 78.4746 69.7987 77.8359 69.7396C77.601 69.7178 77.2198 69.848 76.9888 70.0289C76.7577 70.2097 76.3965 70.3664 76.1861 70.377C75.9757 70.3876 75.1998 70.4121 74.462 70.4314C73.7241 70.4507 72.7179 70.5513 72.226 70.6548C71.7341 70.7584 70.9516 70.8844 70.487 70.9348C70.0224 70.9852 69.6969 71.0908 69.7636 71.1695C69.9717 71.4151 69.4748 71.4795 65.5901 71.7099C65.3837 71.7221 65.2328 71.8016 65.2547 71.8866C65.2767 71.9715 65.0934 72.0842 64.8475 72.137C64.6015 72.1898 64.1462 72.359 63.8358 72.513C63.4296 72.7145 62.5828 72.8225 60.8173 72.898C59.4676 72.9557 58.1307 72.9952 57.8464 72.9858C57.5622 72.9765 57.0206 73.0853 56.6429 73.2278C56.2528 73.3749 55.8966 73.4221 55.8182 73.3372C55.6257 73.1286 54.8385 72.9282 55.0109 73.1317C55.1927 73.3462 54.9751 73.3352 54.3798 73.0999C53.1782 72.6249 47.4898 72.9859 46.8964 73.5748C46.7127 73.7572 46.6925 73.8802 46.8405 73.9161C46.9677 73.9471 47.0718 74.0373 47.0718 74.1167C47.0718 74.1961 46.9311 74.2217 46.759 74.1736C46.587 74.1254 46.3798 74.1644 46.2987 74.2602C46.0818 74.516 47.4218 74.4789 48.145 74.2091C48.4771 74.0851 49.2015 73.9297 49.7549 73.8637C50.3083 73.7977 50.9372 73.7198 51.1524 73.6907C51.3676 73.6616 51.5437 73.7339 51.5437 73.8514C51.5437 74.0025 51.8217 74.0491 52.4939 74.0107C53.2285 73.9687 53.3543 73.9944 53.0482 74.1239C52.8304 74.216 52.7026 74.3508 52.7641 74.4234C52.8968 74.58 51.6467 74.7375 49.2265 74.8691C47.8676 74.943 47.4241 74.9137 47.2735 74.7403C47.1322 74.5776 47.0777 74.5719 47.0752 74.7198C47.0702 75.02 45.7262 74.9715 45.2448 74.6537C45.0199 74.5053 44.8359 74.4533 44.8359 74.5381C44.8359 74.6317 44.1101 74.6483 42.9912 74.5803C41.9767 74.5186 40.392 74.4278 39.4696 74.3783C38.5473 74.3289 37.4622 74.2032 37.0582 74.0989C36.6543 73.9947 36.0733 73.9443 35.7672 73.9869C35.4611 74.0296 35.1472 73.9896 35.0697 73.8981C34.983 73.7958 35.0415 73.7826 35.2214 73.8637C35.4034 73.9457 35.4598 73.9316 35.3704 73.8261C35.2021 73.6274 34.1357 73.4475 32.8736 73.4047C32.1292 73.3795 31.9752 73.3157 31.955 73.0241C31.9333 72.7109 32.0875 72.6605 33.4083 72.5488C34.221 72.4801 35.1375 72.4398 35.445 72.4592L36.0039 72.4945L35.4107 72.2593C34.3819 71.8514 33.3787 71.6794 31.4203 71.5747C30.375 71.5189 28.8657 71.3534 28.0664 71.2069C26.2279 70.87 19.8486 70.8442 19.5703 71.1725C19.4746 71.2855 19.2779 71.3246 19.1332 71.2594C18.7597 71.091 14.645 71.0343 14.785 71.1995C14.9159 71.3539 14.8826 71.3566 11.9576 71.4213C9.89317 71.467 9.02178 71.5227 5.93066 71.8066C4.52118 71.9361 3.6971 71.8619 2.89152 71.5332C2.55416 71.3955 2.62686 71.3172 3.43934 70.9431C4.09465 70.6414 4.89524 70.4639 6.10368 70.3525C8.16594 70.1624 10.1336 69.9229 11.5512 69.6894C12.3992 69.5498 12.5683 69.4635 12.4794 69.2157C12.4157 69.0378 12.2414 68.9489 12.0574 69.0004C11.8851 69.0486 11.7441 69.0069 11.7441 68.9076C11.7441 68.8083 11.9202 68.7259 12.1354 68.7246C12.4698 68.7225 12.4779 68.6991 12.1913 68.564C11.9792 68.464 11.956 68.405 12.1284 68.4034C12.2786 68.4019 12.3429 68.2908 12.2717 68.1554C12.1818 67.9846 12.4049 67.8249 13.0054 67.6303L13.8682 67.3506L11.6836 67.2523C10.482 67.1982 8.89731 67.1614 8.16198 67.1705C7.42666 67.1796 6.82504 67.1779 6.82504 67.1666C6.82504 67.1554 7.02627 66.9771 7.27222 66.7702C7.51817 66.5634 7.71941 66.4438 7.71941 66.5044C7.71941 66.5651 7.94598 66.5065 8.22291 66.3741C8.49984 66.2417 9.47232 66.0491 10.384 65.9459C11.2957 65.8428 12.4401 65.6558 12.9271 65.5305C13.4142 65.4052 14.1773 65.3 14.623 65.2968C15.8682 65.2879 19.0048 64.6931 18.0979 64.6379C17.9851 64.631 17.6917 64.5916 17.4457 64.5504C17.1998 64.5091 16.8757 64.4557 16.7255 64.4317C16.2139 64.3499 16.1813 64.1912 16.6535 64.0819C16.9127 64.0219 17.3877 63.795 17.7092 63.5778C18.0306 63.3605 18.5181 63.1828 18.7925 63.1828C19.067 63.1828 19.4063 63.0819 19.5466 62.9586C19.7562 62.7744 19.5719 62.7153 18.5119 62.6273C17.8025 62.5684 16.9203 62.4846 16.5513 62.4412C15.6736 62.3378 12.181 62.3528 11.9412 62.4609C11.6175 62.6068 9.06097 62.6756 9.06097 62.5384C9.06097 62.4663 9.21189 62.316 9.39636 62.2044C9.58082 62.0927 9.73175 61.9247 9.73175 61.8311C9.73175 61.7374 9.66554 61.7091 9.58462 61.7681C9.5037 61.8271 9.30247 61.7937 9.13744 61.6938C8.97129 61.5932 8.83738 61.5817 8.83738 61.668C8.83738 61.7537 8.68645 61.8239 8.50198 61.8239C7.965 61.8239 8.1123 61.6492 8.85021 61.411C9.68006 61.1431 9.56123 61.0308 8.2234 60.8183C7.00299 60.6245 6.77034 60.3207 7.64533 60.0635C8.55087 59.7973 12.8053 59.4518 15.2373 59.447C16.3773 59.4446 17.5769 59.394 17.9031 59.3343L18.4963 59.2257L17.8592 58.8456C17.5088 58.6366 17.052 58.4629 16.844 58.4597C16.314 58.4515 16.1529 58.1921 16.4372 57.8047C16.7374 57.3956 18.6824 56.6601 19.4638 56.6601C19.7933 56.6601 19.9838 56.5897 19.9052 56.497C19.8292 56.4073 19.5825 56.334 19.357 56.334C18.9782 56.334 18.557 55.9268 18.64 55.6409C18.7243 55.3503 15.1768 55.6753 14.8799 55.9854C14.6531 56.2223 8.94356 56.8413 8.38227 56.6899L7.84777 56.5457L8.36771 56.3427C8.65367 56.2311 10.5114 55.9424 12.4959 55.7011C16.1274 55.2596 17.0112 54.9479 14.6316 54.9479C13.9004 54.9479 13.2278 54.8547 13.0091 54.7232C12.6985 54.5364 12.2685 54.5312 10.457 54.6926C7.12604 54.9892 5.19022 55.193 4.73625 55.2947C4.43547 55.3622 4.34502 55.3138 4.40086 55.1155C4.48223 54.8266 5.17399 54.4875 6.25848 54.205C7.19195 53.9619 6.6117 53.7475 5.41815 53.8946C4.90069 53.9583 4.02453 54.0622 3.47114 54.1254L2.46497 54.2402L3.30344 53.6542C3.7646 53.3319 4.14192 53.042 4.14192 53.0099C4.14192 52.9779 3.51799 52.9002 2.75541 52.8373C0.95238 52.6885 -0.0123704 52.3199 0.000119765 51.7845C0.00668077 51.5021 1.45317 51.1234 2.79909 51.0515C3.35318 51.0219 4.61146 50.8812 5.59527 50.7387C6.57908 50.5962 8.08846 50.4466 8.94945 50.4062C9.81043 50.3659 11.1184 50.2555 11.8562 50.1611C16.4377 49.5744 17.4689 49.4299 17.6664 49.3474C17.7877 49.2966 17.4356 49.1749 16.8838 49.077C16.3285 48.9784 15.8806 48.8032 15.8806 48.6847C15.8806 48.4103 18.1341 47.8142 20.1794 47.5476C21.1744 47.4179 21.9105 47.225 22.1515 47.0308C22.3672 46.8569 23.1157 46.6377 23.8563 46.5314C25.5364 46.2904 25.4911 46.0617 23.6655 45.5698C23.2741 45.4643 22.9992 45.2931 23.0546 45.1894C23.1807 44.9533 24.2171 44.5931 24.7703 44.5931C24.999 44.5931 25.1239 44.5198 25.0479 44.4301C24.9719 44.3404 24.161 44.267 23.2459 44.267C21.7383 44.267 21.1328 44.1003 21.8617 43.8858C22.5129 43.6941 19.2498 43.7979 17.6381 44.0201C15.631 44.2968 14.539 44.181 14.539 43.6914C14.539 43.4657 15.123 43.1694 16.7337 42.5779C18.251 42.0207 18.8376 41.7292 18.6342 41.6334C18.248 41.4515 18.6292 41.2655 20.1288 40.9042C22.2455 40.3944 23.9248 39.5397 23.7043 39.0844C23.5537 38.7734 24.3787 38.6038 27.7872 38.245C29.4815 38.0667 31.1782 37.8078 31.5577 37.6697C31.9373 37.5316 32.7407 37.3755 33.3433 37.3229C35.0047 37.1776 38.1837 36.5911 38.6809 36.3381C38.9235 36.2146 39.4266 36.1085 39.7989 36.1022C40.1712 36.0959 40.677 36.0277 40.923 35.9506C41.2791 35.839 41.188 35.8055 40.4758 35.7864C38.57 35.7352 37.5587 35.5982 37.306 35.3569C37.1335 35.1922 36.8641 35.1415 36.5234 35.2098C36.0764 35.2994 36.0591 35.2887 36.3993 35.1333C36.6167 35.0339 36.9689 34.9736 37.1818 34.9991C37.3948 35.0247 37.7045 34.9837 37.8699 34.9081C38.0479 34.8268 38.3959 34.8585 38.7222 34.9859C39.152 35.1536 39.367 35.1586 39.6967 35.0085C39.9643 34.8866 40.1694 34.8745 40.255 34.9755C40.3295 35.0634 40.963 35.1379 41.6629 35.141C42.3627 35.1442 43.1869 35.2517 43.4943 35.3799C44.1641 35.6591 44.3887 35.6796 44.3887 35.4614C44.3887 35.3717 44.2318 35.2983 44.0401 35.2983C43.8484 35.2983 43.7466 35.2333 43.814 35.1538C43.8814 35.0743 43.7258 34.9691 43.4682 34.92C43.2107 34.8709 43.0437 34.7341 43.0972 34.6161C43.1958 34.3983 44.1973 34.2706 47.2954 34.0811C50.0943 33.9099 50.8729 33.8177 50.8729 33.6577C50.8729 33.5735 50.722 33.5046 50.5375 33.5046C50.3512 33.5046 50.2021 33.3597 50.2021 33.1785C50.2021 32.9393 50.3512 32.8523 50.7611 32.8523C51.4043 32.8523 51.514 32.6012 50.9202 32.488C50.7003 32.446 49.5684 32.4509 48.4048 32.4988C45.0159 32.6383 43.6603 32.5918 42.9514 32.3121C42.5912 32.1699 42.2321 32.0827 42.1533 32.1182C42.0746 32.1538 42.0517 31.9763 42.1025 31.7238C42.2133 31.1729 41.8988 31.0869 39.6031 31.0409C38.2291 31.0133 38.1224 30.9886 38.5999 30.8081C39.3855 30.5111 42.2671 30.085 43.9855 30.0117C44.8637 29.9742 45.6933 29.8403 45.9917 29.6878C46.6269 29.3634 47.0097 29.3593 47.4391 29.6725C47.6323 29.8134 48.1707 29.9156 48.7088 29.9136C50.366 29.9074 56.5491 29.4487 57.3886 29.2698C58.1725 29.1027 58.1963 29.0757 58.0309 28.5409C57.9267 28.2039 57.9501 27.9191 58.0906 27.8167C58.25 27.7004 58.2431 27.5787 58.0684 27.4252C57.5343 26.9558 58.2138 26.8586 61.4768 26.9377C64.0122 26.9992 64.8031 26.9655 65.3176 26.7742C65.8619 26.5718 68.3159 26.2925 69.9901 26.2425C70.2361 26.2352 70.9404 26.1636 71.5553 26.0834L72.6732 25.9376L71.6671 25.819C71.1137 25.7538 69.4535 25.7378 67.9778 25.7836C66.5021 25.8293 64.3891 25.857 63.2823 25.845C62.1755 25.8331 60.0123 25.9429 58.4751 26.0889C55.4335 26.378 52.2968 26.5802 50.9465 26.5743C50.4756 26.5722 50.0271 26.6346 49.9499 26.7129C49.8726 26.7912 49.4953 26.8647 49.1114 26.8761C48.7275 26.8876 48.4134 26.9577 48.4134 27.0319C48.4134 27.1062 48.187 27.1205 47.9103 27.0637C47.5165 26.9829 47.48 26.9977 47.7426 27.1318C48.0317 27.2794 48.024 27.3034 47.6867 27.3055C47.4715 27.307 47.2954 27.3898 47.2954 27.4898C47.2954 27.6015 47.0828 27.5701 46.7443 27.4083C46.1322 27.1158 45.8639 27.0699 46.0499 27.2895C46.1173 27.369 45.9723 27.4722 45.7277 27.5188C45.4732 27.5674 45.283 27.523 45.283 27.4151C45.283 27.3059 44.93 27.2265 44.4445 27.2265C43.9116 27.2265 43.6252 27.2979 43.6585 27.4225C43.6945 27.5575 43.4535 27.5946 42.8856 27.5415C41.9548 27.4546 41.0365 27.0747 41.0314 26.7743C41.0289 26.6459 40.9503 26.6619 40.8112 26.8188C40.643 27.0087 40.5937 26.9606 40.591 26.6043C40.5867 26.0161 40.9551 25.5143 41.3912 25.5143C41.5786 25.5143 41.6698 25.4409 41.5938 25.3512C41.5178 25.2615 41.6376 25.1825 41.8601 25.1757C42.5969 25.1529 43.0648 25.0541 43.563 24.8161C44.0097 24.6026 45.0595 24.6848 45.0595 24.9332C45.0595 24.9781 44.9247 24.9771 44.7599 24.9308C44.5951 24.8847 44.3184 24.9745 44.145 25.1303C43.8733 25.3745 43.8736 25.3944 44.1474 25.2741C44.3916 25.1667 44.4286 25.2035 44.3076 25.4336C44.2134 25.6125 44.2655 25.786 44.4373 25.8655C44.865 26.0634 45.2252 26.0262 44.8361 25.8242C44.5838 25.6933 44.7133 25.6717 45.3595 25.7374C45.8344 25.7856 46.4009 25.7413 46.627 25.6384C46.9364 25.4974 47.1153 25.5004 47.3632 25.6504C47.6272 25.8102 47.7242 25.7925 47.864 25.559C47.9594 25.3998 48.0215 25.2145 48.0019 25.1472C47.9824 25.0799 48.109 25.0249 48.2832 25.0249C48.4574 25.0249 48.6383 24.941 48.6852 24.8384C48.7321 24.7358 49.0656 24.629 49.4264 24.6009C49.7872 24.5729 50.1948 24.4378 50.3322 24.3007C50.4696 24.1637 50.6635 24.1055 50.7632 24.1713C50.8628 24.2372 50.8812 24.1627 50.804 24.0057C50.6312 23.6545 51.0588 23.6216 51.2432 23.972C51.3604 24.1947 51.4238 24.1918 51.7951 23.9467C52.1915 23.6851 52.2149 23.687 52.2181 23.9804C52.221 24.2407 52.2567 24.2514 52.4383 24.0465C52.7614 23.6819 52.7153 23.6024 52.1169 23.4929C51.7373 23.4234 51.5826 23.2889 51.6073 23.0498C51.6467 22.6689 52.4255 22.3842 53.3229 22.4227C54.1594 22.4585 54.8978 22.2487 54.8978 21.9751C54.8978 21.799 55.12 21.7473 55.7363 21.7802C56.6375 21.8281 58.1535 21.6446 58.6989 21.4215C58.9697 21.3107 58.9482 21.2818 58.5871 21.2716C58.3412 21.2647 57.6368 21.2245 57.022 21.1825C55.1207 21.0525 52.5916 21.0566 51.6793 21.1911C51.053 21.2835 50.8522 21.2679 50.9642 21.1358C51.0604 21.0223 51 20.9856 50.806 21.0399C50.6221 21.0913 50.3253 20.9421 50.0894 20.6794C49.8013 20.3588 49.7634 20.2125 49.9563 20.1655C50.1375 20.1215 50.0937 20.0243 49.8229 19.8694C49.4555 19.6591 49.4792 19.6462 50.0906 19.7237C50.4595 19.7705 50.6356 19.7655 50.4819 19.7126C49.9156 19.5179 50.2275 19.3176 51.0967 19.3176C51.6613 19.3176 51.9923 19.3927 51.9945 19.5214C51.9969 19.6714 52.0487 19.6668 52.1901 19.504C52.3109 19.365 52.4346 19.3445 52.523 19.4487C52.6731 19.6258 52.9577 19.612 53.6565 19.3939C53.8962 19.319 54.423 19.2529 54.8272 19.2469C55.7539 19.2332 56.0548 18.8284 55.1383 18.8284C54.7758 18.8284 54.4426 18.7223 54.3697 18.5838C54.2829 18.4187 54.3806 18.3392 54.6701 18.3392C54.9061 18.3392 55.1796 18.2474 55.2779 18.1353C55.5344 17.843 56.4456 17.4968 56.6802 17.6025C56.7896 17.6518 56.9424 17.6177 57.0196 17.5265C57.0969 17.4354 57.4377 17.3608 57.7771 17.3608C58.1164 17.3608 58.9406 17.2416 59.6085 17.096C60.6628 16.8661 60.7576 16.8132 60.3269 16.6954C60.054 16.6208 58.187 16.5697 56.178 16.5818C54.1691 16.5941 52.3939 16.5447 52.2332 16.4723C52.0668 16.3973 51.8752 16.4183 51.7881 16.5211C51.6084 16.7331 44.6577 16.8939 44.485 16.69C44.4242 16.6183 44.2184 16.6034 44.0276 16.6568C43.7926 16.7226 43.7617 16.7904 43.9317 16.8671C44.0699 16.9293 43.8771 16.9803 43.5033 16.9803C43.1295 16.9803 42.8237 16.9101 42.8237 16.8244C42.8237 16.7387 42.6704 16.7614 42.4829 16.8748C42.2955 16.9883 42.0706 17.0289 41.9832 16.9652C41.8958 16.9014 42.0743 16.7105 42.3799 16.5408L42.9355 16.2323L42.3765 16.3107C41.8867 16.3794 41.8729 16.3699 42.2648 16.2341C42.9096 16.0107 43.9694 16.0338 44.5906 16.2849C45.1961 16.5296 45.954 16.4489 45.954 16.1398C45.954 15.9974 46.3955 15.9335 47.4074 15.9293C48.3193 15.9256 48.8607 15.9901 48.8607 16.1025C48.8607 16.201 48.9865 16.1614 49.1402 16.0144C49.3421 15.8214 49.9475 15.7182 51.3203 15.6426C52.3656 15.585 53.8559 15.4344 54.6321 15.3079C55.4084 15.1814 56.3642 15.0708 56.7563 15.0622C57.1483 15.0535 57.9722 14.9463 58.587 14.8239C59.6354 14.6151 59.517 14.6068 56.6865 14.6902C55.0263 14.7391 53.5171 14.7803 53.3326 14.7818C53.1481 14.7833 50.834 14.9565 48.19 15.1667C45.546 15.3769 42.6634 15.5714 41.7843 15.5988C40.9052 15.6262 40.232 15.7036 40.2883 15.7709C40.3445 15.8381 39.957 15.8935 39.4271 15.8938C38.8972 15.8938 37.5581 16.0008 36.4513 16.1307C34.5534 16.3535 30.0889 16.5833 30.6952 16.4269C30.8497 16.3871 30.9192 16.2874 30.8497 16.2054C30.7802 16.1234 31.0059 16.0527 31.3514 16.0484C31.6968 16.0442 32.3316 15.9013 32.762 15.7311C33.1925 15.561 33.7458 15.3533 33.9918 15.2697C34.8002 14.9947 47.9875 13.4037 51.0967 13.2059C52.019 13.1473 54.6853 12.9539 57.0219 12.7763C59.3584 12.5986 62.4424 12.3821 63.8751 12.295C65.3079 12.208 66.9642 12.0305 67.5559 11.9007C68.3332 11.7301 68.6745 11.715 68.7859 11.8465C68.9272 12.0131 71.2795 11.9675 74.1268 11.7429C74.5572 11.7089 75.9155 11.6353 77.1453 11.5793C79.3519 11.4787 82.7139 11.1405 84.5956 10.8297C85.127 10.7419 85.656 10.7125 85.7711 10.7644C85.8862 10.8163 87.444 10.697 89.2329 10.4994C91.8797 10.207 92.5807 10.1773 92.9971 10.3398C93.4157 10.5032 93.9519 10.4758 95.9477 10.1889C99.2698 9.71147 103.605 9.09074 105.765 8.78319C106.749 8.64312 108.178 8.42444 108.941 8.29725C109.705 8.17004 110.66 8.06633 111.066 8.06676C111.471 8.06676 112.255 7.9619 112.808 7.83273C113.741 7.61506 115.651 7.37341 120.746 6.82825C123.364 6.54819 123.891 6.48354 126.559 6.11568C127.789 5.94614 129.801 5.68633 131.031 5.5383C132.261 5.39027 133.569 5.23276 133.938 5.18828C136.549 4.87362 137.046 4.87947 137.565 5.23098C137.845 5.42065 138.074 5.65913 138.074 5.76095C138.074 5.86277 138.15 5.93739 138.242 5.92677C138.334 5.91626 138.64 5.91626 138.921 5.92677C139.348 5.9429 139.395 5.99597 139.208 6.25077C138.934 6.62378 139.153 6.82498 139.563 6.57697C140.024 6.29793 139.919 6.54892 139.389 6.99381C139.111 7.22718 138.552 7.43641 138.037 7.49977C137.287 7.59229 137.201 7.64328 137.441 7.85454C137.802 8.17161 137.497 8.19128 151.825 6.92693C152.809 6.84011 154.57 6.73389 155.738 6.69088C156.907 6.64788 159.02 6.53544 160.434 6.44103C161.848 6.34664 163.709 6.24033 164.57 6.2048C165.431 6.16928 166.533 6.06418 167.02 5.97126C167.506 5.87835 169.435 5.7978 171.307 5.79229C173.178 5.7868 174.843 5.74957 175.006 5.70959C175.409 5.61096 180.648 5.41078 181.895 5.44641C182.446 5.46222 183.051 5.5766 183.239 5.70072C183.66 5.97884 184.734 6.00672 189.724 5.86923C192.019 5.806 194.125 5.66227 194.817 5.52177C195.72 5.33843 197.217 5.28824 201.19 5.30818C204.046 5.32259 208.797 5.27885 211.748 5.21119C217.73 5.07405 217.41 5.07249 223.599 5.26843C227.606 5.39529 229.918 5.40056 233.437 5.29085C234.052 5.27168 234.379 5.22243 234.164 5.18141C233.948 5.14041 233.772 5.03014 233.772 4.93639C233.772 4.82394 234.4 4.79826 235.617 4.86092C236.632 4.91317 239.675 5.03028 242.381 5.12117C245.086 5.21208 248.557 5.36172 250.095 5.45372C256.27 5.82336 258.626 5.95364 261.833 6.10297C269.855 6.47647 274.084 6.6253 278.491 6.68923C280.52 6.71868 283.035 6.79277 284.081 6.85386C285.126 6.91497 286.686 6.95838 287.546 6.95033C288.407 6.94241 290.118 7.00786 291.348 7.09608C292.577 7.1843 296.56 7.28879 300.198 7.32829C303.836 7.36779 307.257 7.47163 307.8 7.55905C308.343 7.64646 309.578 7.75773 310.545 7.80631C311.511 7.85488 312.617 7.93237 313.004 7.97851C314.326 8.13627 316.39 8.24354 319.409 8.31134C322.067 8.37103 324.649 8.51432 328.464 8.81377C329.079 8.86201 329.934 8.92198 330.365 8.947C330.795 8.97204 331.902 9.0396 332.824 9.09718C333.746 9.15475 335.306 9.24674 336.289 9.30161C337.273 9.35646 338.128 9.42396 338.19 9.45159C338.252 9.47924 338.874 9.54615 339.574 9.60039C340.273 9.65461 340.993 9.74022 341.173 9.79064C341.353 9.84105 342.391 9.90415 343.479 9.93087C346.467 10.0042 346.463 10.0038 346.463 10.2674C346.463 10.4019 346.57 10.512 346.7 10.512C346.83 10.512 346.864 10.4261 346.775 10.3212C346.665 10.1911 346.738 10.1652 347.004 10.2397C347.219 10.2997 347.616 10.3489 347.887 10.3489C348.22 10.3489 348.391 10.4549 348.414 10.675C348.454 11.0649 348.333 11.0836 347.885 10.7566C347.417 10.4152 346.893 10.4408 347.05 10.7973C347.128 10.9729 347.104 11.0126 346.987 10.9005C346.859 10.7763 346.229 10.753 345.01 10.8273C342.912 10.9552 341.328 10.92 338.414 10.6807C337.246 10.5847 335.736 10.4668 335.06 10.4185C334.384 10.3703 333.713 10.3029 333.569 10.2686C333.426 10.2344 333.25 10.3177 333.178 10.4537C333.082 10.6369 332.87 10.6724 332.36 10.5907C331.559 10.4624 331.044 10.4136 328.911 10.2639C328.05 10.2035 327.286 10.1271 327.212 10.0941C327.056 10.0238 324.065 10.0123 319.967 10.0661C317.368 10.1003 315.535 10.0069 314.167 9.77075C313.396 9.63767 308.005 9.5801 308.005 9.70497C308.005 9.76918 308.684 9.87472 309.515 9.93952C310.345 10.0043 311.225 10.0863 311.471 10.1217C313.196 10.3698 317.817 10.648 321.533 10.7274C322.393 10.7458 323.204 10.8105 323.334 10.8712C323.55 10.9722 330.397 11.3615 330.765 11.2938C330.852 11.2776 331.678 11.3157 332.6 11.3785C334.026 11.4755 337.668 11.6707 338.582 11.6991C338.912 11.7094 338.951 11.9199 338.648 12.0565C338.43 12.1546 336.745 12.1772 335.219 12.1026C334.754 12.0798 334.291 11.9645 334.191 11.8465C334.056 11.6868 333.671 11.6601 332.69 11.7423C331.964 11.8031 331.303 11.882 331.221 11.9177C331.139 11.9534 330.919 11.8713 330.732 11.7352C330.546 11.5992 330.34 11.5507 330.275 11.6275C330.148 11.7765 325.636 11.7131 324.328 11.5439C323.897 11.4882 323.138 11.4275 322.642 11.409C322.145 11.3905 321.516 11.2886 321.244 11.1825C320.849 11.0284 320.75 11.0333 320.75 11.2074C320.75 11.3356 320.451 11.4428 320.023 11.4679C318.255 11.572 315.781 11.5621 313.819 11.4432C312.407 11.3577 311.805 11.3684 312.023 11.4751C312.905 11.9055 311.251 12.1178 308.676 11.9048C306.393 11.716 305.985 11.7061 304.998 11.8153C304.489 11.8716 303.775 11.8596 303.412 11.7885C302.454 11.6014 297.477 11.27 295.26 11.2459C294.215 11.2345 292.706 11.1749 291.907 11.1136C291.107 11.0523 289.497 10.9645 288.329 10.9185C287.161 10.8724 284.394 10.7269 282.18 10.595C279.967 10.4631 276.674 10.3059 274.864 10.2457C271.913 10.1475 271.557 10.1643 271.429 10.4077C271.307 10.6392 270.918 10.6782 268.796 10.6723C267.426 10.6685 265.852 10.7249 265.299 10.7976L264.293 10.9299L265.97 11.1117C266.892 11.2117 267.999 11.2916 268.429 11.2891C268.86 11.2864 270.62 11.3983 272.342 11.5371C274.064 11.676 277.334 11.8716 279.609 11.9717C281.884 12.0718 283.969 12.1889 284.243 12.2318C284.516 12.2747 286.78 12.3813 289.274 12.4686C293.755 12.6255 296.895 12.7536 299.285 12.8769C299.962 12.9118 302.282 13.0147 304.441 13.1055C306.601 13.1964 308.513 13.3034 308.69 13.3433C308.867 13.3832 309.213 13.4714 309.459 13.5392C309.705 13.6071 310.293 13.6829 310.765 13.7078C311.238 13.7328 311.742 13.8695 311.884 14.0117C312.09 14.217 312.673 14.2789 314.714 14.3124C316.128 14.3356 317.385 14.3997 317.508 14.4548C317.631 14.5099 318.486 14.5981 319.409 14.6507C323.818 14.9023 328.225 15.1067 330.253 15.1535C331.483 15.1819 334.099 15.3333 336.066 15.4899C338.034 15.6465 340.549 15.799 341.656 15.8288C349.316 16.0348 355.434 16.2943 358.649 16.5495C359.756 16.6373 361.696 16.7564 362.96 16.8141C364.224 16.8718 365.312 16.9817 365.377 17.0583C365.442 17.135 365.162 17.2037 364.755 17.211C364.348 17.2184 363.731 17.2393 363.384 17.2577C363.037 17.276 362.709 17.2395 362.656 17.1764C362.602 17.1133 362.187 17.1365 361.732 17.228C361.271 17.3209 360.259 17.3468 359.442 17.2868C358.637 17.2275 354.356 17.1504 349.929 17.1153C345.502 17.0802 340.219 17.004 338.19 16.9461C334.574 16.8429 333.549 16.9061 335.921 17.0859C336.579 17.1358 337.167 17.2121 337.226 17.2555C337.386 17.3718 336.568 17.6596 335.89 17.7258C335.099 17.803 334.85 18.0095 335.526 18.0272C335.823 18.035 337.374 18.1098 338.973 18.1934C340.572 18.277 343.716 18.3887 345.96 18.4417C349.65 18.5288 350.041 18.5654 350.041 18.8238C350.041 19.1825 350.941 19.2673 356.366 19.4198C358.553 19.4813 360.395 19.5935 360.459 19.6692C360.524 19.7449 361.017 19.8068 361.556 19.8068C363.393 19.8068 362.878 20.2571 360.621 20.6239C359.985 20.7275 359.129 20.7987 358.721 20.7822C355.998 20.6721 356.712 20.9932 359.767 21.2524C360.997 21.3568 362.707 21.4777 363.568 21.5211C364.429 21.5646 365.989 21.6733 367.034 21.7626C368.079 21.8521 370.192 21.9736 371.729 22.0327C373.622 22.1056 374.596 22.2092 374.748 22.3539C374.872 22.4723 375.669 22.615 376.537 22.6738C377.397 22.7322 378.202 22.8696 378.325 22.9791C378.448 23.0886 379.284 23.2277 380.182 23.2882C381.08 23.3487 382.04 23.506 382.316 23.6377C382.632 23.7886 383.599 23.9037 384.931 23.9489C387.804 24.0464 390.055 24.2302 390.18 24.3774C390.311 24.5321 388.353 24.7532 388.052 24.6176C387.929 24.562 387.828 24.5861 387.828 24.6711C387.828 24.7561 388.18 24.8738 388.611 24.9327C389.46 25.0489 389.621 25.2518 389.002 25.4268C388.271 25.6334 389.294 25.9606 391.592 26.2557C393.523 26.5037 394.743 26.8101 393.854 26.8237C393.018 26.8364 394.308 27.1239 395.652 27.2241C396.449 27.2836 397.219 27.4031 397.362 27.4896C397.505 27.5761 398.258 27.7216 399.036 27.813C401.197 28.0668 401.173 28.2708 398.969 28.3971C398.145 28.4443 397.392 28.5842 397.165 28.7321C396.848 28.9395 396.459 28.9643 395.041 28.8677C392.158 28.6714 391.587 28.7096 391.155 29.1279C390.943 29.3327 390.813 29.5515 390.866 29.6143C390.92 29.677 391.641 29.7797 392.47 29.8424C393.299 29.9052 394.077 30.0142 394.2 30.0846C394.323 30.155 394.902 30.2645 395.486 30.3279C397.089 30.5019 396.76 30.7323 394.909 30.7323C394.007 30.7323 393.193 30.7873 393.1 30.8546C393.006 30.9219 392.069 30.9769 391.015 30.9769C389.684 30.9769 389.071 31.039 389.005 31.1807C388.939 31.3204 389.178 31.3849 389.766 31.3855C390.237 31.3858 390.975 31.4537 391.406 31.536C391.836 31.6182 393.04 31.732 394.081 31.7887C395.122 31.8455 396.087 31.9606 396.225 32.0445C396.364 32.1284 396.536 32.1543 396.608 32.1021C396.679 32.0498 396.972 32.068 397.258 32.1425C397.659 32.2471 397.421 32.3017 396.213 32.3819C394.787 32.4765 393.16 32.7145 392.3 32.9544C391.754 33.1066 392.603 33.274 395.151 33.5162C396.411 33.6361 397.443 33.7776 397.443 33.8308C397.443 33.884 398.097 33.8972 398.896 33.8601C400.064 33.8058 400.349 33.8394 400.349 34.0309C400.349 34.3265 399.642 34.8098 399.214 34.8065C398.951 34.8044 398.954 34.7767 399.231 34.6459C399.517 34.5114 399.507 34.4875 399.168 34.4854C398.949 34.4839 398.71 34.5967 398.637 34.7359C398.523 34.9515 398.119 34.9764 395.905 34.9037C393.13 34.8127 392.448 34.9206 392.959 35.3698C393.815 36.1222 397.307 36.9289 399.707 36.9289C401.157 36.9289 401.914 37.1266 401.914 37.5053C401.914 37.6949 401.557 37.7434 400.181 37.7403C399.228 37.7382 398.046 37.6591 397.554 37.5647C397.062 37.4702 394.745 37.3597 392.404 37.3191C388.264 37.2472 388.147 37.2542 388.114 37.573C388.081 37.8866 388.354 38.1125 388.834 38.1691C388.957 38.1836 389.922 38.3142 390.978 38.4593C394.434 38.9342 397.502 39.2235 400.643 39.3705C403.552 39.5067 404.545 39.6935 404.244 40.0483C404.175 40.1293 404.023 40.1522 403.906 40.0992C403.788 40.0462 403.72 40.1001 403.753 40.2188C403.787 40.3383 403.641 40.4248 403.426 40.4125C403.212 40.4002 403.085 40.4471 403.144 40.5169C403.204 40.5866 402.91 40.6904 402.493 40.7475C401.591 40.8709 401.377 41.1649 401.839 41.6461C402.085 41.9025 402.111 42.0554 401.936 42.2098C401.647 42.4629 401.836 42.6362 402.399 42.6362C402.624 42.6362 402.809 42.6669 402.809 42.7044C402.809 42.7419 402.875 42.8995 402.957 43.0547C403.093 43.3138 402.943 43.328 401.112 43.2286C400.016 43.1691 398.742 43.0769 398.281 43.0236C397.614 42.9464 397.442 42.9786 397.442 43.181C397.442 43.3209 397.28 43.5015 397.082 43.5824C396.57 43.7913 396.877 44.7309 397.519 44.9197C397.978 45.0548 397.98 45.0626 397.554 45.0833C397.107 45.1051 397.107 45.1051 397.554 45.2453C397.99 45.382 397.381 45.4404 395.095 45.4811C394.141 45.4981 393.418 45.7176 393.418 45.9901C393.418 46.1357 393.186 46.2245 392.803 46.2259C392.465 46.2274 391.959 46.2728 391.68 46.3275C391.203 46.4206 391.196 46.4404 391.568 46.6462C391.786 46.7668 392.24 46.8679 392.576 46.8708C392.912 46.8737 393.851 47.1328 394.663 47.4467C395.481 47.7633 396.463 48.0174 396.869 48.0174C398.224 48.0174 400.338 48.225 400.234 48.3479C400.177 48.4149 400.301 48.4597 400.511 48.4474C400.72 48.4352 400.927 48.5515 400.971 48.7061C401.072 49.0649 399.752 49.6835 399.071 49.596C398.799 49.561 398.539 49.6125 398.495 49.7103C398.389 49.941 395.78 50.0062 394.736 49.8043C394.293 49.7185 392.004 49.6284 389.649 49.6041C385.669 49.563 384.495 49.6463 385.983 49.8641C386.321 49.9136 387.051 50.0289 387.604 50.1202C388.158 50.2115 389.038 50.2893 389.561 50.2932C390.083 50.2972 390.511 50.3737 390.511 50.4634C390.511 50.5531 390.669 50.6265 390.861 50.6265C391.054 50.6265 391.418 50.7071 391.67 50.8056C392.124 50.9828 392.123 50.9869 391.6 51.1774C390.682 51.5109 390.966 51.8255 392.508 52.183C393.299 52.3664 393.993 52.6232 394.051 52.7537C394.108 52.8842 394.244 53.0335 394.353 53.0855C394.695 53.2492 394.286 53.7523 393.899 53.644C393.703 53.5892 393.605 53.5895 393.68 53.6446C393.756 53.6996 393.564 53.9296 393.254 54.1556C392.846 54.453 392.426 54.5741 391.733 54.5937C391.207 54.6085 390.817 54.6687 390.867 54.7273C390.916 54.786 389.994 54.798 388.817 54.7541C387.106 54.6902 386.602 54.7237 386.302 54.9214C385.886 55.1958 383.69 55.309 382.545 55.115C382.107 55.0409 381.788 55.0638 381.693 55.176C381.609 55.2747 381.303 55.3555 381.013 55.3555C380.341 55.3555 379.778 55.5119 379.778 55.6991C379.778 55.7792 379.924 55.8447 380.103 55.8447C380.281 55.8447 380.512 55.956 380.617 56.092C380.734 56.2454 381.609 56.453 382.92 56.6391C385.503 57.0056 387.405 57.566 387.225 57.9078C387.156 58.039 386.956 58.1063 386.781 58.0574C386.606 58.0084 386.519 58.0347 386.588 58.1157C386.657 58.1968 386.449 58.4917 386.127 58.7712C385.695 59.1451 385.422 59.2517 385.091 59.1752C384.842 59.1175 384.698 59.1373 384.767 59.2196C384.837 59.3013 384.543 59.3754 384.116 59.3842C383.688 59.393 382.632 59.5265 381.768 59.6808L380.199 59.9613L380.699 60.349C380.973 60.5622 381.291 60.7367 381.405 60.7367C381.518 60.7367 381.957 60.8562 382.379 61.0023C383.115 61.2569 383.132 61.2834 382.806 61.646C382.592 61.8844 382.55 62.0617 382.691 62.1256C382.815 62.1813 382.852 62.303 382.773 62.3961C382.68 62.5052 382.56 62.4868 382.434 62.344C382.307 62.2005 382.179 62.1812 382.07 62.2892C381.978 62.3807 381.601 62.5617 381.232 62.6915L380.561 62.9274L381.269 62.9828C382.035 63.0428 382.445 63.4613 381.889 63.6167C381.701 63.6692 381.492 63.6717 381.424 63.6221C381.356 63.5725 380.966 63.6692 380.557 63.8368C380.147 64.0045 379.43 64.194 378.963 64.258C378.495 64.3219 377.977 64.4731 377.812 64.5938C377.419 64.8799 377.266 64.8736 375.188 64.486C373.324 64.1383 372.798 64.1707 372.033 64.6806C371.602 64.9683 371.428 64.9825 370.259 64.825C368.727 64.6184 365.84 64.5919 366.004 64.786C366.067 64.8606 366.853 65.0129 367.75 65.1245C370.036 65.4087 370.293 65.4697 369.918 65.6389C369.267 65.9321 372.18 66.6244 375.027 66.8531C375.796 66.9148 376.474 67.0229 376.534 67.0932C376.593 67.1635 376.431 67.4167 376.173 67.6558C375.74 68.0575 375.732 68.1128 376.064 68.3809C376.262 68.5405 376.425 68.7113 376.425 68.7603C376.425 68.9619 372.638 68.6719 371.394 68.375C369.604 67.9481 365.98 67.6366 365.645 67.8808C365.468 68.01 365.466 68.1209 365.639 68.2731C365.873 68.4785 366.232 68.5664 369.214 69.1491C370.144 69.3309 370.611 69.5044 370.611 69.6678C370.611 69.8744 370.347 69.896 368.952 69.8038C367.889 69.7336 367.242 69.7548 367.15 69.8629C367.072 69.9556 367.13 70.0315 367.281 70.0315C367.432 70.0315 367.503 70.0695 367.44 70.1159C367.29 70.2253 364.123 69.7406 363.808 69.5602C363.561 69.4183 360.296 69.0515 359.599 69.0873C359.384 69.0984 359.208 69.1993 359.208 69.3116C359.208 69.4238 359.156 69.6146 359.092 69.7355C358.982 69.9443 361.713 70.3665 366.418 70.8683C367.125 70.9436 368.068 71.1164 368.514 71.2522C368.959 71.388 369.639 71.4995 370.024 71.5C371.036 71.5015 372.491 71.8243 372.256 71.9957C372.147 72.0751 370.785 72.1609 369.23 72.1865C367.674 72.212 366.418 72.2454 366.439 72.2606C366.459 72.2758 366.973 72.4307 367.581 72.6048C368.639 72.908 368.664 72.9296 368.181 73.1184C367.802 73.2662 367.397 73.2719 366.561 73.1411C365.2 72.9282 365.021 72.9254 365.021 73.1168C365.021 73.1994 365.322 73.3151 365.689 73.374C366.912 73.5698 366.647 73.782 365.181 73.782C364.327 73.782 363.464 73.8855 363.045 74.038C362.621 74.1923 362.145 74.2485 361.847 74.1794C361.209 74.0318 350.711 73.9755 350.833 74.1204C351.093 74.4273 348.16 74.4257 345.657 74.1174C340.589 73.4934 336.276 73.1387 333.495 73.117C331.957 73.105 329.643 72.9944 328.352 72.8711C327.061 72.7479 324.76 72.5714 323.24 72.4789C321.72 72.3865 320.412 72.2826 320.333 72.2481C320.255 72.2136 319.436 72.1385 318.514 72.0813C317.592 72.024 316.485 71.9461 316.054 71.9082C315.158 71.8292 311.079 71.6633 308.117 71.5854C305.974 71.5291 302.718 71.3791 300.515 71.2352C299.777 71.187 296.909 71.1163 294.142 71.0781C291.375 71.0398 288.105 70.9484 286.875 70.8749C285.646 70.8014 282.245 70.7485 279.317 70.7574C274.891 70.7709 273.96 70.8141 273.783 71.014C273.604 71.2179 273.541 71.2199 273.371 71.0268C273.237 70.8753 272.949 70.8315 272.509 70.8957C272.145 70.9488 271.738 70.912 271.603 70.8136C271.469 70.7154 271.026 70.6196 270.62 70.6007C270.215 70.5818 269.681 70.5229 269.435 70.4697C268.095 70.1804 266.699 70.0962 266.137 70.2709C265.685 70.4112 264.558 70.2455 264.714 70.0618C264.771 69.9941 263.694 69.919 262.319 69.8949C258.619 69.83 258.235 69.8003 257.816 69.5468C257.476 69.3407 257.442 69.3502 257.509 69.6324C257.56 69.8476 257.477 69.9311 257.249 69.8919C257.065 69.86 256.688 69.8325 256.411 69.8307C256.134 69.8289 255.908 69.7711 255.908 69.7023C255.908 69.6334 255.746 69.5317 255.547 69.4762C255.286 69.403 255.224 69.4452 255.321 69.6303C255.414 69.8059 255.369 69.8453 255.179 69.7569C255.026 69.6863 253.946 69.6055 252.777 69.5773C250.321 69.5181 250.686 69.5189 239.138 69.5486C234.281 69.5611 229.684 69.5183 228.924 69.4535C228.164 69.3887 227.372 69.3831 227.166 69.4409C226.785 69.5474 219.481 69.7577 217.237 69.7268C215.482 69.7026 213.491 70.455 214.598 70.7242C214.763 70.7643 214.649 70.8797 214.319 71.0068C214.012 71.1249 213.705 71.2835 213.636 71.3592C213.39 71.6328 211.491 71.7855 210.952 71.5751C210.612 71.4425 209.712 71.3948 208.296 71.4346C207.118 71.4676 203.249 71.5334 199.698 71.5807C196.147 71.6281 192.997 71.7115 192.698 71.7662C192.4 71.8208 191.13 71.8768 189.878 71.8905C188.625 71.9042 187.399 71.9979 187.153 72.0988C186.713 72.2791 184.639 72.5752 184.292 72.5072C183.864 72.4235 183.07 72.4445 182.346 72.5588C181.915 72.6268 181.362 72.67 181.116 72.655C180.87 72.64 180.467 72.6147 180.221 72.5989C179.976 72.5831 178.818 72.6563 177.65 72.7617C176.482 72.867 175.091 72.9516 174.559 72.9498C174.028 72.948 173.474 73.0158 173.33 73.1007C173.185 73.1855 172.739 73.306 172.34 73.3683C171.745 73.461 171.613 73.4315 171.613 73.2057C171.613 72.9612 171.428 72.9429 169.992 73.0451C169.101 73.1086 166.761 73.1774 164.794 73.1981C162.826 73.2188 160.674 73.3219 160.012 73.4272C159.349 73.5326 158.758 73.6188 158.699 73.6188C158.639 73.6188 158.715 73.7288 158.868 73.8634C159.021 73.9979 159.487 74.108 159.902 74.108C160.317 74.108 160.657 74.1387 160.657 74.1762C160.657 74.2137 160.718 74.3604 160.793 74.5023C160.979 74.8561 160.349 74.8387 159.853 74.4763C159.571 74.271 159.437 74.2487 159.37 74.3958C159.319 74.5077 159.185 74.5577 159.073 74.507C158.96 74.4564 158.868 74.4742 158.868 74.5468C158.868 74.6194 158.642 74.6877 158.365 74.6987C158.089 74.7097 156.554 74.8018 154.955 74.9033C153.357 75.0048 150.137 75.1172 147.8 75.1531C145.464 75.1891 143.301 75.2587 142.993 75.3079C141.952 75.4745 136.224 75.8608 133.155 75.9715C127.468 76.1767 123.157 76.7699 122.268 77.4695C121.99 77.6883 121.5 77.865 121.148 77.8734C118.254 77.9419 114.236 78.1617 112.473 78.3478C111.735 78.4257 110.441 78.5344 109.596 78.5894C108.752 78.6444 107.556 78.7593 106.939 78.8447C106.321 78.9301 105.779 79 105.734 79C105.69 79 105.653 78.8122 105.653 78.5827L105.653 78.583ZM105.653 77.0993C105.653 76.9209 105.554 76.9076 105.214 77.0402C104.952 77.1426 104.828 77.3106 104.905 77.4578C105.005 77.6475 105.106 77.6611 105.344 77.5169C105.514 77.4139 105.653 77.226 105.653 77.0993ZM143.329 74.674C144.203 74.4451 144.181 74.4418 142.323 74.5213C138.066 74.7033 136.733 74.7955 136.733 74.908C136.733 75.1207 142.388 74.9201 143.329 74.674ZM39.4696 72.7047C39.4696 72.6695 39.3187 72.6407 39.1343 72.6407C38.9498 72.6407 38.7989 72.7117 38.7989 72.7986C38.7989 72.8855 38.9498 72.9143 39.1343 72.8627C39.3187 72.8111 39.4696 72.74 39.4696 72.7047ZM55.6802 72.1514C55.7582 72.0593 55.5751 71.9884 55.2594 71.9884C54.9519 71.9884 54.6382 72.0618 54.5622 72.1514C54.4841 72.2435 54.6673 72.3145 54.983 72.3145C55.2904 72.3145 55.6041 72.2411 55.6802 72.1514ZM45.0595 71.3171C45.0595 71.1488 44.7918 71.1331 44.2952 71.272C43.7341 71.429 43.8847 71.6249 44.5005 71.5391C44.8079 71.4962 45.0595 71.3963 45.0595 71.3171ZM171.577 71.2906C172.339 71.1356 172.444 71.076 172.068 71.011C171.472 70.9079 164.358 71.1259 160.545 71.3641C159.509 71.4288 167.51 71.5868 169.154 71.5341C169.953 71.5085 171.043 71.3989 171.577 71.2906ZM179.327 70.7887C179.573 70.7463 179.12 70.7175 178.321 70.7248C176.413 70.7423 175.658 70.8921 176.868 71.0131C177.36 71.0623 178.014 71.0493 178.321 70.9842C178.628 70.9191 179.081 70.8311 179.327 70.7887V70.7887ZM36.6371 70.8366C37.0975 70.8268 37.0945 70.8183 36.5775 70.6677C35.9679 70.49 35.445 70.5785 35.445 70.8593C35.445 70.9615 35.6038 71.0005 35.7987 70.9459C35.9932 70.8915 36.3705 70.8423 36.6371 70.8366ZM182.686 70.653C182.746 70.6094 182.348 70.5614 181.802 70.5463C181.255 70.5313 180.739 70.601 180.654 70.7013C180.545 70.8294 180.808 70.8611 181.538 70.808C182.11 70.7664 182.626 70.6967 182.686 70.653V70.653ZM357.531 68.7271C357.617 68.6261 357.26 68.5714 356.594 68.5833C355.639 68.6004 355.594 68.6166 356.189 68.7271C357.168 68.9086 357.377 68.9086 357.531 68.7271ZM12.904 66.3327C12.7426 66.2856 12.5497 66.2914 12.4754 66.3456C12.4011 66.3998 12.5332 66.4383 12.7689 66.4313C13.0294 66.4234 13.0824 66.3848 12.904 66.3327V66.3327ZM15.5452 66.118C15.9945 66.013 16.0165 65.9865 15.657 65.9827C15.411 65.98 15.0086 66.0409 14.7626 66.118C14.1928 66.2966 14.7807 66.2966 15.5452 66.118ZM18.5454 66.1821C18.7399 66.1276 18.8991 65.9512 18.8991 65.7899C18.8991 65.5402 18.7584 65.5096 17.9488 65.5834C16.9214 65.677 16.2509 65.9549 17.0524 65.9549C17.3157 65.9549 17.5933 66.0283 17.6693 66.118C17.8284 66.3057 18.0467 66.3217 18.5454 66.1821V66.1821ZM381.791 63.3459C381.791 63.2562 381.615 63.1839 381.4 63.1853C381.065 63.1874 381.057 63.2108 381.344 63.3459C381.766 63.5447 381.791 63.5447 381.791 63.3459V63.3459ZM24.0836 56.7118C23.9222 56.6647 23.7294 56.6705 23.6551 56.7247C23.5808 56.7789 23.7128 56.8174 23.9486 56.8103C24.209 56.8025 24.262 56.7638 24.0836 56.7118V56.7118ZM22.253 56.236C22.253 55.9702 21.6311 55.9404 20.8142 56.1669C19.9248 56.4135 20.1359 56.587 21.2468 56.5226C21.9218 56.4834 22.253 56.3891 22.253 56.236ZM26.4061 56.3537C26.1829 56.0902 25.3833 56.023 25.3833 56.2677C25.3833 56.405 25.6128 56.497 25.9555 56.497C26.2702 56.497 26.473 56.4325 26.4061 56.3537V56.3537ZM24.7125 56.1709C24.962 56.0533 24.8331 56.0122 24.2094 56.0103C23.7483 56.0089 23.3709 56.0812 23.3709 56.1709C23.3709 56.3786 24.2718 56.3786 24.7125 56.1709ZM397.442 37.0921C397.442 37.0024 397.342 36.929 397.219 36.929C397.096 36.929 396.995 37.0024 396.995 37.0921C396.995 37.1818 397.096 37.2551 397.219 37.2551C397.342 37.2551 397.442 37.1818 397.442 37.0921ZM399.063 34.0489C398.91 34.0036 398.658 34.0036 398.504 34.0489C398.351 34.0941 398.476 34.1311 398.784 34.1311C399.091 34.1311 399.217 34.0941 399.063 34.0489ZM395.71 32.085C395.433 32.0461 394.98 32.0461 394.703 32.085C394.427 32.1238 394.653 32.1556 395.206 32.1556C395.76 32.1556 395.986 32.1238 395.71 32.085V32.085ZM385.368 30.7686C385.368 30.6988 384.538 30.5546 383.524 30.4483C382.509 30.3419 381.437 30.204 381.141 30.1419C380.807 30.0717 380.655 30.09 380.74 30.1902C380.815 30.2789 381.761 30.4449 382.843 30.559C383.924 30.673 384.91 30.7897 385.033 30.8181C385.156 30.8465 385.282 30.8756 385.312 30.8826C385.343 30.8897 385.368 30.8384 385.368 30.7686V30.7686ZM59.2576 29.2649C59.6569 29.1397 59.6404 29.1235 59.1031 29.1133C58.7722 29.1069 58.4393 29.1752 58.3633 29.2649C58.1983 29.4595 58.6365 29.4595 59.2576 29.2649V29.2649ZM383.803 28.3095C383.803 28.2325 382.793 28.0857 381.559 27.9833C378.779 27.7528 378.28 27.7482 378.564 27.9554C378.684 28.0424 379.886 28.1789 381.236 28.2588C382.587 28.3386 383.717 28.4142 383.747 28.4267C383.778 28.4393 383.803 28.3865 383.803 28.3095V28.3095ZM46.7134 26.3568C46.7767 26.2821 46.6821 26.2209 46.503 26.2209C46.3239 26.2209 46.1774 26.2821 46.1774 26.3568C46.1774 26.4316 46.2721 26.4927 46.3878 26.4927C46.5036 26.4927 46.6501 26.4316 46.7134 26.3568ZM76.628 26.0552C76.4666 26.0081 76.2738 26.0139 76.1995 26.068C76.1252 26.1222 76.2572 26.1608 76.493 26.1537C76.7534 26.1458 76.8064 26.1072 76.628 26.0552V26.0552ZM41.9292 25.8404C41.9292 25.7508 41.7531 25.6785 41.5379 25.6799C41.2035 25.6819 41.1954 25.7053 41.482 25.8404C41.904 26.0393 41.9292 26.0393 41.9292 25.8404V25.8404ZM42.8235 25.5862C42.8235 25.5467 42.7229 25.5143 42.5999 25.5143C42.477 25.5143 42.3764 25.592 42.3764 25.687C42.3764 25.782 42.477 25.8143 42.5999 25.7589C42.7229 25.7035 42.8235 25.6258 42.8235 25.5862V25.5862ZM55.5684 24.4508C55.8758 24.3882 56.8317 24.2756 57.6925 24.2008C58.5533 24.1259 59.6098 23.9871 60.0402 23.8923C60.4706 23.7975 60.8228 23.7261 60.8228 23.7336C60.8228 23.7961 62.3543 23.4472 63.1146 23.2115C64.2681 22.8538 64.341 22.5791 63.2823 22.5791C62.7358 22.5791 62.4997 22.5053 62.4997 22.3345C62.4997 22.0837 63.5005 21.9846 65.1616 22.0708C65.8853 22.1084 67.95 21.8273 68.4227 21.6269C68.7758 21.4773 67.6474 21.3085 66.1755 21.2908C65.218 21.2793 64.4021 21.3942 63.3941 21.6822C62.6096 21.9065 61.7605 22.091 61.5071 22.0924C61.1401 22.0945 61.1125 22.1254 61.3711 22.2447C61.5497 22.3271 61.7761 22.3583 61.8742 22.3141C61.9723 22.2699 62.0526 22.3032 62.0526 22.3879C62.0526 22.5339 61.5631 22.637 59.8554 22.8508C59.4462 22.902 59.0572 23.0471 58.9908 23.1733C58.892 23.3609 58.806 23.3648 58.5189 23.1948C58.2248 23.0206 58.1891 23.0285 58.2994 23.2437C58.3958 23.4317 58.3019 23.4933 57.95 23.4734C57.6854 23.4585 57.135 23.5128 56.727 23.5941C56.2125 23.6967 55.8869 23.6827 55.6649 23.5483C55.4849 23.4393 55.3448 23.4249 55.3448 23.5154C55.3448 23.6953 53.6411 24.2098 53.0455 24.2098C52.8344 24.2098 52.6616 24.3101 52.6616 24.4327C52.6616 24.5987 52.9615 24.6441 53.8355 24.6102C54.4811 24.5853 55.2609 24.5135 55.5684 24.4509V24.4508ZM64.7662 18.537C64.6049 18.4978 64.3667 18.5432 64.2367 18.638C64.0708 18.759 64.1581 18.7803 64.53 18.7093C64.8323 18.6517 64.9337 18.5778 64.7662 18.537ZM334.836 17.8909C334.836 17.8237 334.53 17.753 334.157 17.734C333.769 17.7141 333.536 17.7664 333.612 17.8563C333.768 18.0402 334.836 18.0705 334.836 17.8909ZM65.4065 16.8636L65.9654 16.8511L65.4439 16.6986C64.8547 16.5264 63.8413 16.6591 63.8413 16.9085C63.8413 16.9994 64.0662 17.0289 64.3444 16.9745C64.6211 16.9205 65.099 16.8706 65.4065 16.8636V16.8636ZM333.048 16.8989C333.048 16.8242 332.897 16.7631 332.712 16.7631C332.528 16.7631 332.377 16.8242 332.377 16.8989C332.377 16.9737 332.528 17.0348 332.712 17.0348C332.897 17.0348 333.048 16.9737 333.048 16.8989ZM333.984 16.9234C333.822 16.8763 333.63 16.8821 333.555 16.9363C333.481 16.9905 333.613 17.029 333.849 17.0219C334.109 17.0141 334.162 16.9755 333.984 16.9234V16.9234ZM69.2495 16.5973C69.0881 16.5502 68.8952 16.556 68.8209 16.6102C68.7466 16.6643 68.8787 16.7029 69.1144 16.6958C69.3749 16.688 69.4278 16.6493 69.2495 16.5973V16.5973ZM44.1651 16.3826C44.1651 16.2929 44.0645 16.2195 43.9415 16.2195C43.8185 16.2195 43.7179 16.2929 43.7179 16.3826C43.7179 16.4722 43.8185 16.5456 43.9415 16.5456C44.0645 16.5456 44.1651 16.4722 44.1651 16.3826ZM49.9785 15.9549C49.9785 15.7722 49.5586 15.9324 49.4384 16.161C49.3206 16.3848 49.3533 16.3949 49.638 16.2226C49.8253 16.1092 49.9785 15.9888 49.9785 15.9549ZM52.2145 15.9749C52.2145 15.8404 52.1749 15.7303 52.1266 15.7303C52.0783 15.7303 51.9808 15.8404 51.91 15.9749C51.8392 16.1094 51.8787 16.2195 51.9979 16.2195C52.117 16.2195 52.2145 16.1094 52.2145 15.9749ZM344.94 10.4008C344.778 10.3536 344.586 10.3595 344.511 10.4136C344.437 10.4678 344.569 10.5063 344.805 10.4993C345.065 10.4915 345.118 10.4528 344.94 10.4007V10.4008ZM139.071 7.09898C139.142 7.01549 139.108 6.90585 138.996 6.85533C138.884 6.80479 138.734 6.87311 138.664 7.00712C138.525 7.27131 138.861 7.34711 139.071 7.09898ZM32.9411 77.0842C32.8124 76.9721 32.7949 76.8782 32.9022 76.8754C33.0095 76.8728 32.9091 76.7908 32.6791 76.6933C32.0892 76.4434 32.6118 76.2291 33.768 76.2469C34.3719 76.2562 34.5171 76.2951 34.2152 76.3667C33.7892 76.4677 33.4716 76.8828 33.8239 76.8782C34.4804 76.8694 34.9546 76.6563 34.8523 76.4159C34.7524 76.1812 34.7791 76.1832 35.0601 76.432C35.442 76.77 37.1434 76.8322 37.2905 76.5135C37.3652 76.3516 37.4561 76.3527 37.7322 76.5189C38.1674 76.7808 38.4243 77.4173 38.0546 77.3178C37.9106 77.279 37.8253 77.1485 37.8651 77.0277C37.9158 76.8741 37.8132 76.8902 37.5238 77.0812C37.1934 77.2992 36.7137 77.3476 35.1425 77.3212C33.8931 77.3002 33.0896 77.2137 32.9411 77.0843L32.9411 77.0842ZM29.8717 76.7248C29.5739 76.5906 29.7171 76.2281 30.068 76.2281C30.3231 76.2281 30.547 76.6886 30.3378 76.7829C30.245 76.8247 30.0353 76.7985 29.8717 76.7248ZM34.6025 75.4128C34.3552 75.124 34.381 75.0838 34.8282 75.0618C35.1059 75.0482 35.4841 75.025 35.6686 75.0103C36.265 74.963 36.3772 75.112 35.9839 75.429C35.4869 75.8294 34.9539 75.8232 34.6025 75.4128V75.4128ZM170.048 74.1994C170.048 74.1599 170.149 74.0821 170.272 74.0267C170.395 73.9713 170.495 74.0037 170.495 74.0986C170.495 74.1936 170.395 74.2713 170.272 74.2713C170.149 74.2713 170.048 74.239 170.048 74.1994ZM172.672 74.088C172.823 73.9766 173.004 73.9265 173.072 73.9767C173.141 74.0269 173.017 74.1181 172.797 74.1793C172.478 74.2678 172.452 74.2491 172.672 74.088ZM52.6616 73.639C52.6616 73.5603 52.8168 73.402 53.0065 73.2872C53.2746 73.1249 53.4111 73.122 53.6195 73.274C53.828 73.4261 53.8134 73.5038 53.5541 73.6234C53.1325 73.8178 52.6616 73.826 52.6616 73.639V73.639ZM305.098 72.1514C305.098 72.0618 305.243 71.9884 305.421 71.9884C305.598 71.9884 305.805 72.0618 305.881 72.1514C305.957 72.2411 305.812 72.3145 305.559 72.3145C305.306 72.3145 305.098 72.2411 305.098 72.1514ZM301.297 71.9783C301.297 71.7926 301.898 71.7737 302.051 71.9545C302.111 72.0256 301.966 72.0944 301.729 72.1075C301.492 72.1205 301.297 72.0624 301.297 71.9783ZM79.5586 71.7151C79.3574 71.3327 79.664 71.2766 80.4368 71.5544C80.8399 71.6993 81.0692 71.8289 80.9462 71.8424C80.0039 71.9458 79.6635 71.9146 79.5586 71.7151V71.7151ZM272.901 71.3361C272.901 71.2464 272.945 71.1731 273 71.1731C273.054 71.1731 273.16 71.2464 273.236 71.3361C273.312 71.4258 273.268 71.4992 273.138 71.4992C273.008 71.4992 272.901 71.4258 272.901 71.3361ZM269.677 71.1949C269.581 71.0813 269.563 70.9442 269.636 70.8904C269.837 70.7445 270.055 70.9591 269.947 71.1956C269.871 71.3613 269.818 71.3612 269.677 71.1947V71.1949ZM270.497 71.2281C270.04 71.0934 270.181 70.8703 270.665 70.9627C270.911 71.0096 271.112 71.1128 271.112 71.1921C271.112 71.3475 270.938 71.3578 270.497 71.2281ZM377.692 70.4121C377.434 70.2244 377.529 70.0316 377.878 70.0316C378.062 70.0316 378.213 70.1416 378.213 70.2762C378.213 70.5308 377.949 70.5997 377.692 70.4121ZM100.204 69.4132C100.144 69.3421 100.291 69.2731 100.531 69.26C100.771 69.2468 100.909 69.3049 100.838 69.3892C100.679 69.5761 100.352 69.5885 100.204 69.4132ZM102.219 69.1331C102.29 68.9994 102.512 68.8845 102.715 68.8776C102.917 68.8706 103.535 68.8319 104.088 68.7915C104.814 68.7386 105.001 68.7641 104.759 68.8831C104.482 69.0193 104.479 69.0486 104.74 69.0507C104.914 69.0522 104.994 69.0989 104.918 69.1548C104.841 69.2107 104.174 69.2833 103.435 69.3162C102.316 69.366 102.113 69.3355 102.219 69.1331V69.1331ZM10.9711 68.7383C10.8057 68.5432 11.2263 68.3498 11.5242 68.4841C11.7742 68.5968 11.61 68.8901 11.2969 68.8901C11.1884 68.8901 11.0418 68.8218 10.9711 68.7383ZM13.0857 64.4969C13.0857 64.4125 13.1851 64.2986 13.3067 64.2439C13.4334 64.1867 13.4709 64.2522 13.3946 64.3973C13.2459 64.6798 13.0857 64.7315 13.0857 64.4969V64.4969ZM14.7253 64.4129C14.7253 64.2824 14.8108 64.214 14.9153 64.2611C15.0198 64.3082 15.0474 64.4151 14.9767 64.4986C14.7958 64.7119 14.7253 64.6879 14.7253 64.4129ZM404.374 43.1255C404.189 43.0386 404.139 42.9674 404.262 42.9674C404.385 42.9674 404.636 43.0386 404.821 43.1255C405.005 43.2125 405.056 43.2836 404.933 43.2836C404.81 43.2836 404.558 43.2125 404.374 43.1255ZM37.0101 31.0239C37.0101 30.9533 37.2114 30.8955 37.4573 30.8955C37.7033 30.8955 37.9045 30.9643 37.9045 31.0484C37.9045 31.1325 37.7033 31.1903 37.4573 31.1768C37.2114 31.1633 37.0101 31.0945 37.0101 31.0239ZM46.3735 28.6291L45.8491 28.3194L47.1872 28.1899C47.9231 28.1186 49.0533 28.0562 49.6988 28.0511C50.3442 28.046 50.8725 27.9919 50.8726 27.9309C50.8728 27.804 52.2047 28.0568 52.4125 28.2233C52.4881 28.2838 52.2395 28.2903 51.8601 28.2378C51.4355 28.179 50.9198 28.239 50.5185 28.3936C50.16 28.5317 49.3385 28.6519 48.6929 28.6606C48.0472 28.6693 47.519 28.7354 47.519 28.8075C47.519 29.0413 46.9111 28.9466 46.3735 28.6291V28.6291ZM43.5549 28.6771C43.6292 28.6229 43.822 28.6171 43.9834 28.6643C44.1618 28.7163 44.1088 28.755 43.8483 28.7628C43.6126 28.7698 43.4806 28.7313 43.5549 28.6771V28.6771ZM39.4873 26.4247C39.4776 26.2528 39.5304 26.1565 39.6047 26.2107C39.679 26.2649 39.687 26.4056 39.6224 26.5233C39.551 26.6534 39.498 26.6147 39.4873 26.4247H39.4873ZM45.5938 25.0542C45.6563 24.9805 45.5014 24.7916 45.2498 24.6345C44.7996 24.3533 44.8144 24.3411 46.1757 23.8716C47.8152 23.3061 47.9662 23.2934 47.9662 23.7205C47.9662 23.9215 47.816 24.0477 47.5749 24.0492C47.2578 24.0512 47.2436 24.0794 47.4999 24.1977C47.6739 24.278 48.0009 24.3178 48.2266 24.2861C48.4523 24.2544 48.637 24.3032 48.637 24.3947C48.637 24.4861 48.31 24.5478 47.9103 24.5319C47.5106 24.5159 46.9824 24.5114 46.7364 24.5219C46.3639 24.5377 46.3452 24.5673 46.6246 24.699C46.9113 24.8341 46.9031 24.8574 46.5687 24.8596C46.3535 24.861 46.1774 24.9355 46.1774 25.0251C46.1774 25.1148 46.0206 25.1882 45.8289 25.1882C45.6371 25.1882 45.5314 25.1279 45.5938 25.0542V25.0542ZM48.4528 23.7383C48.228 23.637 48.2368 23.569 48.4947 23.4129C48.8565 23.1939 49.1448 23.3852 48.8958 23.679C48.807 23.7837 48.6116 23.8099 48.4528 23.7383V23.7383ZM40.6994 16.8717C40.6234 16.782 40.7122 16.7087 40.8966 16.7087C41.0811 16.7087 41.2942 16.782 41.3702 16.8717C41.4462 16.9614 41.3575 17.0348 41.173 17.0348C40.9885 17.0348 40.7754 16.9614 40.6994 16.8717ZM45.2788 16.1417C45.6008 15.8587 45.7303 15.8293 45.7303 16.0389C45.7303 16.1191 45.5651 16.2308 45.3632 16.2873C45.0564 16.3732 45.0425 16.3493 45.2788 16.1417ZM361.283 13.5101C361.545 13.319 362.977 13.1692 363.266 13.3027C363.432 13.3795 363.467 13.4508 363.344 13.461C362.141 13.5616 361.181 13.5845 361.283 13.5101V13.5101ZM359.926 13.3089C359.74 13.2229 359.879 13.1756 360.317 13.1756C360.691 13.1756 360.997 13.2367 360.997 13.3114C360.997 13.485 360.303 13.4834 359.926 13.3088V13.3089ZM354.177 13.1008C353.22 12.9445 350.896 12.8324 346.555 12.7331C345.068 12.6991 343.636 12.5873 343.373 12.4847C343.087 12.373 342.085 12.3162 340.878 12.3432C339.769 12.368 338.861 12.3716 338.861 12.3511C338.861 12.2944 340.162 11.8165 340.316 11.8165C340.391 11.8165 340.39 11.8899 340.314 11.9796C340.234 12.0747 340.461 12.1427 340.86 12.1427C341.236 12.1427 341.544 12.0693 341.544 11.9796C341.544 11.8899 341.651 11.8165 341.781 11.8165C341.911 11.8165 341.942 11.9083 341.85 12.0204C341.726 12.1711 341.766 12.1812 342.004 12.0591C342.182 11.9682 342.528 11.9024 342.774 11.9126C343.02 11.9229 343.755 11.9422 344.408 11.9555C345.061 11.9687 345.548 12.0346 345.491 12.1019C345.434 12.1692 346.007 12.2135 346.764 12.2003C347.521 12.1871 348.316 12.2448 348.531 12.3284C348.793 12.4298 348.923 12.421 348.923 12.3019C348.923 12.2037 349.044 12.1783 349.193 12.2453C349.342 12.3123 350.323 12.3871 351.373 12.4116C352.423 12.4361 353.283 12.4648 353.283 12.4754C353.283 12.4861 353.786 12.5185 354.401 12.5476C355.016 12.5766 355.544 12.6167 355.575 12.6365C355.627 12.6704 355.857 12.7198 356.245 12.7804C356.423 12.8081 355.374 13.2817 355.183 13.2596C355.122 13.2524 354.669 13.181 354.177 13.1007L354.177 13.1008ZM345.122 12.2855C345.122 12.207 344.926 12.1428 344.688 12.1428C344.449 12.1428 344.199 12.207 344.133 12.2855C344.066 12.364 344.261 12.4282 344.567 12.4282C344.872 12.4282 345.122 12.364 345.122 12.2855ZM357.082 11.814C357.004 11.7229 356.847 11.6905 356.733 11.7421C356.618 11.7937 356.525 11.7625 356.525 11.6728C356.525 11.3571 356.886 11.3521 357.153 11.6642C357.301 11.8378 357.378 11.9798 357.322 11.9798C357.267 11.9798 357.159 11.9052 357.082 11.8141V11.814ZM352.295 11.178C352.059 11.0061 351.82 10.8995 351.763 10.941C351.706 10.9827 351.169 11.0413 350.57 11.0713C349.533 11.1234 348.247 10.7875 348.573 10.5496C348.834 10.3593 350.378 10.4038 350.716 10.6115C351.061 10.8241 351.69 10.8311 351.972 10.6255C352.209 10.4524 353.35 10.4904 353.508 10.6766C353.722 10.93 353.403 11.4904 353.044 11.4904C352.868 11.4904 352.531 11.3498 352.295 11.1779V11.178ZM354.603 11.3023C354.508 11.1899 354.541 11.1581 354.686 11.2234C354.82 11.2836 354.992 11.2582 355.069 11.167C355.278 10.9212 355.556 10.9663 355.556 11.2459C355.556 11.5332 354.835 11.5758 354.603 11.3023V11.3023ZM93.1926 10.0875C93.2669 10.0333 93.4597 10.0275 93.6211 10.0746C93.7995 10.1267 93.7465 10.1653 93.486 10.1732C93.2503 10.1802 93.1183 10.1417 93.1926 10.0875V10.0875ZM138.298 5.45704C138.298 5.36736 138.342 5.29398 138.396 5.29398C138.451 5.29398 138.557 5.36736 138.633 5.45704C138.709 5.54673 138.665 5.62011 138.535 5.62011C138.404 5.62011 138.298 5.54673 138.298 5.45704ZM143.512 5.47354C143.151 5.28014 143.237 5.00223 143.634 5.07801C143.888 5.12637 144.051 5.05985 144.074 4.89824C144.094 4.75715 144.128 4.53164 144.149 4.39711C144.169 4.26258 144.37 4.14335 144.596 4.13213C144.821 4.12088 145.081 4.0966 145.173 4.07808C145.266 4.05954 145.643 3.98523 146.012 3.91291C146.832 3.7521 147.278 3.51188 147.114 3.31871C147.047 3.23919 147.19 3.17413 147.433 3.17413C147.676 3.17413 147.926 3.26584 147.988 3.37796C148.067 3.51958 148.158 3.52838 148.287 3.40684C148.615 3.09591 149.299 2.99887 149.661 3.2121C149.95 3.38325 149.978 3.37898 149.819 3.18717C149.674 3.01129 149.722 2.98188 150.018 3.06487C150.233 3.12497 150.544 3.17412 150.71 3.17412C150.877 3.17412 151.073 3.31334 151.147 3.48351C151.234 3.68239 151.425 3.76549 151.684 3.7162C152.255 3.60735 152.196 3.20416 151.62 3.28137C151.166 3.34238 151.165 3.34015 151.602 3.18892C151.848 3.1037 152.389 3.02882 152.806 3.02251C153.222 3.01616 154.178 2.93908 154.93 2.8511C156.879 2.62313 161.779 2.22362 164.011 2.11067C165.056 2.0578 166.364 1.98544 166.918 1.94988C168.084 1.87497 170.385 1.75572 173.402 1.61395C174.57 1.55905 176.18 1.47371 176.979 1.42433C178.901 1.30563 181.925 1.29678 182.346 1.40867C182.53 1.45771 183.109 1.55416 183.631 1.62304C184.154 1.69191 184.582 1.80225 184.582 1.86825C184.582 1.93423 184.333 2.16964 184.029 2.39136C183.579 2.71957 183.267 2.79152 182.351 2.77845C181.682 2.76879 181.256 2.82935 181.301 2.92753C181.343 3.01834 182.151 3.09868 183.098 3.10605C184.585 3.1176 185.575 3.32859 185.237 3.5617C185.086 3.666 182.122 3.76906 182.123 3.67001C182.123 3.62151 181.444 3.60478 180.613 3.63283C179.783 3.66089 178.526 3.61721 177.821 3.53557C177.115 3.45402 176.49 3.4221 176.432 3.46466C176.374 3.50719 175.895 3.55748 175.367 3.57641C174.84 3.59534 174.13 3.66751 173.79 3.73682C173.423 3.81177 173.057 3.7932 172.889 3.69097C172.732 3.59645 171.632 3.50215 170.443 3.48141C168.971 3.45577 168.327 3.3877 168.425 3.26817C168.504 3.17164 168.398 3.19368 168.189 3.31718C167.928 3.47162 167.526 3.50861 166.9 3.43563C166.303 3.36597 166.039 3.38686 166.132 3.49646C166.29 3.68329 166.261 3.68686 164.235 3.72657C163.435 3.74222 162.555 3.81274 162.278 3.88327C162.002 3.95379 161.775 3.95151 161.775 3.87821C161.775 3.8049 161.524 3.74492 161.216 3.74492C160.909 3.74492 160.657 3.79996 160.657 3.86722C160.657 3.93449 160.5 3.98952 160.309 3.98952C160.117 3.98952 160.013 3.92755 160.077 3.85176C160.232 3.66865 157.935 3.93758 157.768 4.12206C157.463 4.45977 153.279 4.80199 153.279 4.48925C153.279 4.3938 153.172 4.31566 153.042 4.31566C152.912 4.31566 152.863 4.38398 152.934 4.46747C153.136 4.70614 152.621 4.85309 152.289 4.65168C152.066 4.51657 151.961 4.52484 151.877 4.68409C151.804 4.82159 151.437 4.8844 150.845 4.86026C150.339 4.83964 149.925 4.89129 149.925 4.97506C149.925 5.24473 148.776 5.06763 148.553 4.76358C148.434 4.6019 148.24 4.51341 148.121 4.56696C148.002 4.62051 147.956 4.72496 148.019 4.79904C148.082 4.87313 147.986 4.97494 147.806 5.02526C147.627 5.07559 147.419 5.04544 147.345 4.95823C147.263 4.86157 146.977 4.89478 146.611 5.0433C145.924 5.32281 143.784 5.61977 143.512 5.47362L143.512 5.47354ZM140.31 4.73288C140.31 4.44646 140.444 4.40429 140.636 4.63046C140.707 4.71395 140.662 4.82836 140.537 4.88468C140.412 4.94101 140.31 4.87286 140.31 4.73288V4.73288ZM141.153 4.4512C141.283 4.35643 141.521 4.31098 141.682 4.3502C141.85 4.39091 141.748 4.46483 141.446 4.52249C141.074 4.59342 140.987 4.57219 141.153 4.4512ZM218.176 4.03744C217.9 3.99857 217.673 3.91076 217.673 3.84231C217.673 3.64275 218.645 3.75123 218.741 3.96152C218.789 4.06657 218.795 4.14252 218.754 4.1303C218.713 4.11804 218.453 4.07631 218.176 4.03744H218.176ZM213.537 3.66331C214.152 3.47069 214.505 3.47069 214.096 3.66331C213.911 3.75026 213.61 3.81737 213.425 3.81243C213.204 3.80652 213.242 3.75573 213.537 3.66331V3.66331ZM214.891 3.67849C214.822 3.59716 214.967 3.56904 215.214 3.61599C215.736 3.71556 215.802 3.82636 215.339 3.82636C215.162 3.82636 214.96 3.75982 214.891 3.67849V3.67849ZM186.107 3.30947C185.755 3.05148 185.915 3.03359 188.678 3.02145C190.299 3.01424 191.849 2.97688 192.123 2.93824C192.397 2.8996 192.674 2.92959 192.738 3.00483C192.801 3.08008 193.161 3.12611 193.538 3.1071C194.555 3.05574 194.56 3.29315 193.543 3.36389C193.062 3.39733 192.716 3.36823 192.775 3.29939C192.958 3.0828 192.614 3.16316 192.264 3.41869C191.883 3.6961 190.939 3.74605 190.73 3.49979C190.638 3.39122 190.444 3.39374 190.153 3.50729C189.658 3.7005 189.192 3.5692 189.42 3.30065C189.519 3.18321 189.464 3.17204 189.256 3.26743C189.083 3.34651 188.388 3.4502 187.712 3.49787C186.744 3.56606 186.402 3.52596 186.107 3.30944V3.30947ZM204.034 3.5002C204.034 3.41052 204.079 3.33715 204.133 3.33715C204.187 3.33715 204.294 3.41052 204.37 3.5002C204.446 3.5899 204.401 3.66327 204.271 3.66327C204.141 3.66327 204.034 3.5899 204.034 3.5002ZM195.091 3.17407C194.889 3.0791 194.861 3.015 195.021 3.0135C195.168 3.01202 195.35 3.08438 195.426 3.17407C195.597 3.37653 195.52 3.37653 195.091 3.17407ZM282.422 3.15184C282.538 3.01532 281.686 2.85473 281.514 2.98056C281.273 3.15588 280.28 3.189 280.28 3.02167C280.28 2.91818 279.643 2.89324 278.547 2.95377C277.202 3.02799 276.638 2.98974 276.031 2.7832C275.601 2.6368 275.418 2.55066 275.626 2.59177C275.833 2.63289 276.034 2.60273 276.073 2.52486C276.111 2.44695 276.294 2.35935 276.478 2.33019C276.663 2.30107 276.888 2.20382 276.978 2.11413C277.068 2.02444 277.144 2.11176 277.146 2.3083C277.149 2.64599 277.183 2.65272 277.764 2.43126C278.316 2.22112 278.411 2.22631 278.689 2.4817C278.983 2.75247 278.992 2.75245 278.863 2.4817C278.759 2.26147 278.852 2.19633 279.269 2.19633C279.567 2.19633 279.913 2.32475 280.038 2.4817C280.165 2.64007 280.269 2.67635 280.273 2.56324C280.28 2.3497 280.95 2.26901 280.95 2.4817C280.95 2.54896 281.711 2.59976 282.641 2.59458C283.57 2.58938 284.381 2.64442 284.443 2.71688C284.504 2.78932 284.77 2.84859 285.033 2.84859C285.416 2.84859 285.456 2.88936 285.232 3.05242C284.952 3.25651 282.253 3.35267 282.422 3.1525V3.15184ZM286.093 3.14693C286.093 3.07218 286.168 3.00609 286.261 3.00003C286.353 2.99398 286.75 2.95831 287.144 2.92078C288.028 2.83637 288.343 3.11611 287.492 3.23041C286.651 3.34341 286.093 3.31013 286.093 3.14693V3.14693ZM269.994 2.60336C269.994 2.51368 269.617 2.4403 269.156 2.4403C268.695 2.4403 268.243 2.51368 268.153 2.60336C268.044 2.71207 267.987 2.71207 267.985 2.60336C267.98 2.39907 266.64 2.35074 266.64 2.55487C266.64 2.63698 266.549 2.66294 266.437 2.61256C266.224 2.51658 264.257 2.36247 262.168 2.27809C261.492 2.25077 260.939 2.21194 260.939 2.19179C260.939 2.0825 257.997 2.08081 257.809 2.19002C257.473 2.38493 255.237 2.52092 255.237 2.34643C255.237 2.26353 255.086 2.19571 254.902 2.19571C254.717 2.19571 254.566 2.26652 254.566 2.35308C254.566 2.45132 252.991 2.48143 250.374 2.43327C248.068 2.39084 245.939 2.35688 245.642 2.35782C245.346 2.3593 244.767 2.29187 244.357 2.20922C243.908 2.11885 243.61 2.11828 243.61 2.20774C243.61 2.35593 242.828 2.33192 242.616 2.17722C242.555 2.13259 241.537 2.12217 240.355 2.15406C238.93 2.1925 238.099 2.14757 237.889 2.02081C237.643 1.87185 237.572 1.87906 237.57 2.05337C237.567 2.19476 237.506 2.21445 237.402 2.10682C237.303 2.00458 236.031 1.92837 234.219 1.91618C232.559 1.90508 227.528 1.85387 223.04 1.80259C218.551 1.75132 212.791 1.69958 210.239 1.68764C207.687 1.67582 205.599 1.62001 205.599 1.56389C205.599 1.50775 205.045 1.46182 204.369 1.46182C203.693 1.46182 203.14 1.51686 203.14 1.58412C203.14 1.65139 203.033 1.70643 202.903 1.70643C202.773 1.70643 202.728 1.63305 202.804 1.54335C202.88 1.45367 202.786 1.3803 202.594 1.3803C202.402 1.38037 202.245 1.30699 202.245 1.21731C202.245 1.12762 202.139 1.05424 202.009 1.05424C201.878 1.05424 201.834 1.12762 201.91 1.21731C201.992 1.31362 201.745 1.37936 201.308 1.37787C200.748 1.37581 200.65 1.33695 200.904 1.21731C201.152 1.10056 201.162 1.05858 200.944 1.05673C200.716 1.05467 200.725 0.998007 200.984 0.809637C201.168 0.675109 201.528 0.565035 201.782 0.565035C202.037 0.565035 202.245 0.486707 202.245 0.390973C202.245 0.287724 202.439 0.261667 202.721 0.326929C203.04 0.400942 203.146 0.377865 203.043 0.256386C202.959 0.157075 202.949 0.0758332 203.022 0.0758332C203.095 0.0758332 203.231 0.226749 203.324 0.411209L203.494 0.746598L204.084 0.408338C204.488 0.176486 204.723 0.127752 204.829 0.253443C204.939 0.383443 205.039 0.372427 205.172 0.215558C205.324 0.0357557 206.858 -0.004556 213.361 0.000391407C217.762 0.00384721 223.174 0.0535972 225.387 0.111226C227.601 0.168844 231.273 0.258533 233.549 0.310542C241.764 0.498289 243.88 0.566524 244.064 0.649496C244.475 0.834892 246.277 0.999349 246.55 0.876385C246.718 0.800611 246.914 0.827666 247.014 0.94055C247.144 1.08623 247.244 1.0737 247.408 0.891167C247.529 0.756636 247.63 0.719945 247.632 0.809637C247.634 0.912554 249.017 0.96543 251.38 0.952998C255.115 0.933327 261.497 1.19656 261.498 1.37032C261.498 1.42069 262.278 1.45365 263.231 1.44358C264.864 1.4263 268.626 1.64946 269.293 1.8032C269.539 1.85992 269.543 1.92088 269.317 2.11985C269.089 2.32036 269.095 2.35291 269.348 2.2946C269.519 2.2552 269.94 2.17798 270.283 2.12302C270.667 2.06143 270.857 1.94667 270.778 1.82402C270.707 1.71455 270.766 1.73984 270.909 1.8802C271.12 2.08662 271.407 2.11194 272.411 2.01257C273.117 1.94269 273.822 1.95568 274.045 2.04269C274.26 2.12686 274.72 2.2057 275.066 2.21791C275.646 2.23835 275.653 2.24597 275.157 2.31425C274.739 2.37162 274.689 2.42137 274.933 2.53415C275.279 2.69373 274.988 2.71372 271.839 2.74698C270.74 2.75852 269.994 2.7005 269.994 2.60338L269.994 2.60336ZM205.01 1.1367C204.939 1.00268 204.792 0.933639 204.682 0.983267C204.366 1.12556 204.448 1.38036 204.81 1.38036C205.009 1.38036 205.088 1.2847 205.01 1.1367V1.1367ZM191.969 1.69413C192.199 1.38054 192.186 1.34493 191.869 1.4335C191.554 1.52185 191.539 1.48614 191.767 1.1762L192.031 0.816329L192.253 1.17989C192.508 1.59699 192.97 1.65764 193.159 1.29883C193.23 1.16429 193.207 1.05422 193.108 1.05422C193.01 1.05422 192.929 0.943259 192.929 0.807617C192.929 0.607122 193.131 0.580552 194.01 0.665558C194.748 0.736975 195.091 0.711783 195.091 0.586051C195.091 0.483798 195.444 0.401965 195.886 0.401965C196.408 0.401965 196.63 0.463733 196.53 0.581301C196.422 0.708793 196.514 0.707714 196.847 0.577551C197.237 0.42541 197.294 0.436445 197.186 0.642812C197.114 0.779407 196.965 0.891176 196.855 0.891176C196.746 0.891176 196.656 0.964557 196.656 1.05423C196.656 1.39415 197.06 1.19769 197.326 0.728101C197.637 0.180446 197.645 0.177435 198.206 0.396205C198.489 0.506566 198.576 0.678882 198.499 0.973703C198.438 1.20482 198.477 1.37253 198.584 1.34637C198.692 1.32023 198.83 1.37053 198.892 1.4582C198.958 1.55246 198.426 1.62886 197.591 1.64523C196.299 1.67051 196.157 1.63932 195.934 1.28203C195.693 0.896788 194.867 0.727849 194.867 1.06386C194.867 1.15885 194.966 1.19172 195.088 1.13693C195.213 1.0807 195.253 1.14314 195.181 1.28007C195.107 1.42193 194.907 1.48173 194.7 1.42389C194.47 1.35958 194.402 1.39004 194.504 1.51096C194.684 1.72321 193.941 1.87994 193.078 1.81168C192.771 1.78737 192.335 1.83268 192.111 1.91239C191.745 2.04226 191.73 2.0196 191.969 1.69413V1.69413ZM198.086 1.08141C198.149 1.00667 198.059 0.945526 197.885 0.945526C197.712 0.945526 197.622 1.00667 197.685 1.08141C197.748 1.15614 197.838 1.2173 197.885 1.2173C197.932 1.2173 198.023 1.15614 198.086 1.08141ZM188.957 1.72503C188.89 1.64553 189.035 1.54227 189.281 1.49553C189.577 1.43892 189.68 1.32382 189.589 1.15087C189.514 1.00803 189.547 0.891163 189.663 0.891163C189.97 0.891163 189.92 1.42383 189.591 1.66379C189.257 1.90718 189.123 1.92019 188.957 1.72503ZM190.328 1.27165C190.391 1.15206 190.472 1.05422 190.507 1.05422C190.542 1.05422 190.622 1.15206 190.685 1.27165C190.748 1.39124 190.668 1.48908 190.507 1.48908C190.346 1.48908 190.266 1.39124 190.328 1.27165ZM191.191 0.814815C191.43 0.68314 191.845 0.57307 192.115 0.570214C192.648 0.564454 192.988 0.811843 192.654 0.962454C192.539 1.01404 192.407 0.971964 192.36 0.868795C192.296 0.727919 192.156 0.727648 191.797 0.867321C191.109 1.13559 190.677 1.09779 191.191 0.81436V0.814815ZM188.22 0.792632C188.294 0.738447 188.487 0.732651 188.648 0.779783C188.827 0.831832 188.774 0.870476 188.513 0.878291C188.277 0.88535 188.145 0.846835 188.22 0.79265V0.792632ZM200.01 0.728079C199.723 0.592998 199.731 0.569636 200.065 0.567501C200.281 0.566024 200.457 0.638385 200.457 0.728079C200.457 0.926962 200.432 0.926962 200.01 0.728079ZM198.809 0.479714C198.702 0.277066 198.759 0.263107 199.12 0.403912C199.639 0.606212 199.688 0.728079 199.251 0.728079C199.08 0.728079 198.881 0.616307 198.809 0.479714V0.479714Z" fill="black"/>
</svg>
