<svg width="39" height="40" viewBox="0 0 39 40" fill="none" xmlns="http://www.w3.org/2000/svg">
<path fill-rule="evenodd" clip-rule="evenodd" d="M-3.8147e-06 0H39V40H-3.8147e-06V0ZM27.5447 30.7929C25.899 30.7929 24.9685 29.8629 24.2533 28.5977L21.5419 30.3044C22.5214 32.4012 24.5233 34.001 27.622 34.001C30.7911 34.001 33.1509 32.218 33.1509 28.9635C33.1509 25.9447 31.5502 24.6019 28.7153 23.2849L27.8812 22.8978C26.4497 22.2261 25.8297 21.7871 25.8297 20.7026C25.8297 19.8252 26.4491 19.1535 27.4264 19.1535C28.3845 19.1535 29.0016 19.5913 29.5737 20.7026L32.1719 18.8952C31.0729 16.8009 29.5478 16.001 27.4264 16.001C24.4466 16.001 22.54 18.0648 22.54 20.7759C22.54 23.719 24.1395 25.1112 26.5472 26.2225L27.3813 26.6102C28.903 27.3314 29.8104 27.7704 29.8104 29.0099C29.8104 30.0443 28.9273 30.7929 27.5447 30.7929ZM14.6141 30.7703C13.4678 30.7703 12.991 29.9185 12.4668 28.911L9.75084 30.6924C10.5376 32.4965 12.0847 33.9943 14.7562 33.9943C17.7128 33.9943 19.7384 32.2907 19.7384 28.5477V16.2074H16.4019V28.4988C16.4019 30.3056 15.7103 30.7703 14.6141 30.7703Z" fill="#121212"/>
</svg>
