<svg width="79" height="90" viewBox="0 0 79 90" fill="none" xmlns="http://www.w3.org/2000/svg">
<path fill-rule="evenodd" clip-rule="evenodd" d="M8.9284 73.7699C9.40851 75.4854 10.3668 76.8907 11.6972 77.9977C12.2457 78.4548 13.1832 78.5311 13.5784 77.8554C14.8705 75.6477 17.0782 75.7865 19.0906 75.638C31.8932 74.6947 44.5788 75.8626 57.1948 77.981C61.7989 78.7536 66.3735 79.704 70.9655 80.5465C71.5889 80.6606 72.222 81.0076 72.8024 80.1762C73.3817 79.347 72.5855 78.9544 72.5455 78.4065C72.2431 74.2466 68.9124 73.7674 65.973 72.7876C51.1076 67.8315 35.853 66.5158 20.3116 67.9282C17.4677 68.1869 14.6672 68.7237 12.0413 69.8819C10.3686 70.6205 8.9674 71.6794 8.9284 73.7699Z" fill="#8BFB46"/>
<path fill-rule="evenodd" clip-rule="evenodd" d="M30.5482 35.8931C29.3726 36.565 28.9739 37.3375 29.5518 38.4741C30.1192 39.591 30.7901 40.1043 32.1925 39.9728C35.1922 39.6918 37.9032 40.9824 40.5869 42.0856C50.0378 45.9678 59.1722 50.5401 68.368 54.9772C69.0922 55.3264 69.8146 55.7292 70.6824 55.1554C71.7392 54.4585 70.5973 53.8191 70.7229 53.1569C71.1362 50.9766 69.5465 50.0898 68.0704 49.1901C60.4049 44.5199 52.8362 39.6655 44.3364 36.563C41.5479 35.5454 38.7407 34.6063 35.8353 33.9537C34.5499 33.6654 33.2897 34.676 31.9367 33.7311C31.3862 33.346 30.2146 33.7121 29.533 34.4267C29.1786 34.7979 28.7068 35.1895 28.947 35.716C29.2288 36.3338 29.8355 35.8602 30.5482 35.8931Z" fill="#8BFB46"/>
<path fill-rule="evenodd" clip-rule="evenodd" d="M46.4732 5.03616C46.8921 7.42752 48.0065 8.7212 49.8572 9.83701C53.4226 11.9862 55.9269 15.3343 58.4466 18.5853C61.7784 22.8821 64.8113 27.3813 67.4778 32.1296C68.1528 33.3329 69.0501 34.4197 69.9153 35.5038C70.2447 35.9168 70.6993 36.3869 71.3644 35.8778C71.907 35.4637 71.7942 35.0201 71.7463 34.3994C71.3722 29.5588 68.3386 25.9078 66.0972 21.9642C63.0415 16.5884 59.4535 11.5338 54.9676 7.19564C53.321 5.60362 51.5116 4.23738 49.5004 3.14521C48.6382 2.67738 47.7663 2.38387 46.8269 3.02447C45.7969 3.72754 46.2323 4.53576 46.4732 5.03616Z" fill="#8BFB46"/>
</svg>
