<svg width="45" height="40" viewBox="0 0 45 40" fill="none" xmlns="http://www.w3.org/2000/svg">
<mask id="path-1-inside-1" fill="white">
<path fill-rule="evenodd" clip-rule="evenodd" d="M35.519 12.4605C41.232 14.2092 44.9582 17.0291 44.9582 20.0046C44.9582 22.9709 41.2503 25.7908 35.5739 27.5395C36.9015 33.344 36.3247 37.9675 33.752 39.4507C33.1478 39.7986 32.4519 39.9634 31.6829 39.9634C29.1652 39.9634 25.8692 38.1872 22.5366 35.0927C19.2041 38.2055 15.9081 40 13.3904 40C12.6213 40 11.9255 39.8352 11.3304 39.4873C8.74858 38.0041 8.16263 33.3715 9.48101 27.5486C3.76803 25.8 0.0417787 22.9801 0.0417787 20.0046C0.0417787 17.0382 3.74972 14.2275 9.44439 12.4697C8.11685 6.66514 8.69365 2.04166 11.2663 0.55848C11.8706 0.210574 12.5664 0.045777 13.3354 0.045777L13.3354 0.0366217C15.8532 0.0366217 19.1491 1.81277 22.4817 4.9073C25.8143 1.79446 29.1102 -1.50861e-07 31.628 -1.63928e-07L31.628 0.00916309C32.3843 0.0104824 33.0769 0.17535 33.6696 0.521858C36.2514 2.00504 36.8374 6.63768 35.519 12.4605ZM31.6188 2.04167C29.7147 2.04653 26.9173 3.5659 23.9374 6.33555C25.2283 7.68139 26.5101 9.2195 27.7461 10.9133C29.806 11.133 31.7653 11.4717 33.5598 11.9112C33.7612 10.9865 33.926 10.0801 34.0267 9.2195C34.4478 5.72213 33.9077 3.00298 32.6625 2.28885C32.3787 2.13321 32.04 2.05081 31.6188 2.05081L31.6188 2.04167ZM21.026 6.3447C18.0413 3.58892 15.2306 2.07828 13.3354 2.07828L13.3354 2.08743C12.9143 2.08743 12.5572 2.16068 12.2826 2.32548C11.0466 3.04875 10.5156 5.76791 10.9459 9.26528C11.0557 10.1167 11.2114 11.0048 11.422 11.9203C13.2164 11.4717 15.1757 11.133 17.2448 10.9133C18.4625 9.2195 19.7442 7.69055 21.026 6.3447ZM31.8019 17.5143C32.278 16.2966 32.6991 15.079 33.0379 13.8979C31.8385 13.6049 30.5842 13.3669 29.2842 13.1746C29.7328 13.8705 30.1814 14.5846 30.6026 15.317C31.0329 16.0494 31.4265 16.7819 31.8019 17.5143ZM26.6383 27.1458C27.3982 26.0563 28.1306 24.8844 28.8447 23.6484C29.5314 22.4491 30.1631 21.2222 30.7399 19.9954C30.1631 18.7686 29.5314 17.5509 28.8356 16.3516C28.1214 15.1247 27.3798 13.962 26.6199 12.8725C25.2649 12.7626 23.8825 12.6986 22.5 12.6986C21.1084 12.6986 19.7259 12.7626 18.3618 12.8817C17.6019 13.9712 16.8694 15.1431 16.1553 16.379C15.4687 17.5784 14.8278 18.8052 14.2601 20.032C14.8369 21.2589 15.4687 22.4765 16.1645 23.6759C16.8786 24.9027 17.6202 26.0655 18.3801 27.155C19.7351 27.2648 21.1175 27.3289 22.5 27.3289C23.8916 27.3289 25.2741 27.2648 26.6383 27.1458ZM33.0654 26.1021C32.7175 24.9119 32.2963 23.6851 31.8019 22.4582C31.4265 23.1907 31.0329 23.9323 30.6117 24.6647C30.1906 25.4063 29.7419 26.1296 29.2933 26.8345C30.6026 26.6423 31.866 26.3951 33.0654 26.1021ZM19.9731 29.2973C20.8154 30.3685 21.6669 31.3481 22.5183 32.2271C23.3606 31.3481 24.2121 30.3685 25.0361 29.2973C24.2029 29.3431 23.3515 29.3614 22.4909 29.3614C21.6394 29.3614 20.7971 29.3339 19.9731 29.2973ZM11.953 26.1112C13.1523 26.4042 14.4066 26.6423 15.7067 26.8345C15.2581 26.1387 14.8186 25.4246 14.3883 24.6922C13.958 23.9597 13.5643 23.2273 13.189 22.4949C12.7129 23.7125 12.2917 24.9302 11.953 26.1112ZM25.0178 10.7118C24.1755 9.64065 23.324 8.66102 22.4725 7.7821C21.6303 8.66102 20.7788 9.64065 19.9548 10.7118C20.788 10.6661 21.6394 10.6477 22.5 10.6477C23.3515 10.6477 24.1938 10.6752 25.0178 10.7118ZM14.3792 15.3445C14.8003 14.6029 15.2489 13.8796 15.6975 13.1746C14.3883 13.3669 13.1249 13.6141 11.9255 13.8979C12.2734 15.0881 12.6946 16.3149 13.189 17.5418C13.5643 16.8093 13.958 16.0769 14.3792 15.3445ZM2.07428 20.0046C2.07428 21.442 4.17087 23.2548 7.41189 24.6372C8.20841 24.976 9.06902 25.2873 9.97541 25.5711C10.4881 23.7858 11.1656 21.9272 12.0079 20.0229C11.1565 18.1094 10.4698 16.2417 9.94794 14.4472C9.05986 14.7311 8.19926 15.0332 7.41189 15.3719C4.17087 16.7453 2.07428 18.5672 2.07428 20.0046ZM10.9733 30.7897C10.5522 34.287 11.0924 37.0062 12.3375 37.7203C12.6122 37.8759 12.9601 37.9583 13.3721 37.9675C15.2764 37.9675 18.0779 36.4477 21.0626 33.6736C19.7717 32.3278 18.4899 30.7897 17.254 29.0959C15.194 28.8762 13.2347 28.5374 11.4403 28.098C11.2389 29.0227 11.0741 29.929 10.9733 30.7897ZM32.7175 37.6837C33.9534 36.9604 34.4845 34.2412 34.0541 30.7439C33.9534 29.8924 33.7886 29.0044 33.5781 28.0797C31.7836 28.5283 29.8243 28.867 27.7552 29.0868C26.5376 30.7805 25.2558 32.3095 23.974 33.6553C26.9587 36.4111 29.7694 37.9217 31.6646 37.9217C32.0857 37.9217 32.4428 37.8485 32.7175 37.6837ZM35.0429 25.5619C35.931 25.2781 36.7916 24.976 37.579 24.6372C40.82 23.2639 42.9166 21.442 42.9257 20.0046C42.9257 18.5672 40.8292 16.7544 37.5881 15.3719C36.7825 15.0332 35.9219 14.7219 35.0155 14.4381C34.5028 16.2234 33.8253 18.0819 32.983 19.9863C33.8344 21.8997 34.5211 23.7675 35.0429 25.5619ZM26.6781 20.0043C26.6781 22.3151 24.8048 24.1884 22.4941 24.1884C20.1833 24.1884 18.31 22.3151 18.31 20.0043C18.31 17.6936 20.1833 15.8203 22.4941 15.8203C24.8048 15.8203 26.6781 17.6936 26.6781 20.0043Z"/>
</mask>
<path fill-rule="evenodd" clip-rule="evenodd" d="M35.519 12.4605C41.232 14.2092 44.9582 17.0291 44.9582 20.0046C44.9582 22.9709 41.2503 25.7908 35.5739 27.5395C36.9015 33.344 36.3247 37.9675 33.752 39.4507C33.1478 39.7986 32.4519 39.9634 31.6829 39.9634C29.1652 39.9634 25.8692 38.1872 22.5366 35.0927C19.2041 38.2055 15.9081 40 13.3904 40C12.6213 40 11.9255 39.8352 11.3304 39.4873C8.74858 38.0041 8.16263 33.3715 9.48101 27.5486C3.76803 25.8 0.0417787 22.9801 0.0417787 20.0046C0.0417787 17.0382 3.74972 14.2275 9.44439 12.4697C8.11685 6.66514 8.69365 2.04166 11.2663 0.55848C11.8706 0.210574 12.5664 0.045777 13.3354 0.045777L13.3354 0.0366217C15.8532 0.0366217 19.1491 1.81277 22.4817 4.9073C25.8143 1.79446 29.1102 -1.50861e-07 31.628 -1.63928e-07L31.628 0.00916309C32.3843 0.0104824 33.0769 0.17535 33.6696 0.521858C36.2514 2.00504 36.8374 6.63768 35.519 12.4605ZM31.6188 2.04167C29.7147 2.04653 26.9173 3.5659 23.9374 6.33555C25.2283 7.68139 26.5101 9.2195 27.7461 10.9133C29.806 11.133 31.7653 11.4717 33.5598 11.9112C33.7612 10.9865 33.926 10.0801 34.0267 9.2195C34.4478 5.72213 33.9077 3.00298 32.6625 2.28885C32.3787 2.13321 32.04 2.05081 31.6188 2.05081L31.6188 2.04167ZM21.026 6.3447C18.0413 3.58892 15.2306 2.07828 13.3354 2.07828L13.3354 2.08743C12.9143 2.08743 12.5572 2.16068 12.2826 2.32548C11.0466 3.04875 10.5156 5.76791 10.9459 9.26528C11.0557 10.1167 11.2114 11.0048 11.422 11.9203C13.2164 11.4717 15.1757 11.133 17.2448 10.9133C18.4625 9.2195 19.7442 7.69055 21.026 6.3447ZM31.8019 17.5143C32.278 16.2966 32.6991 15.079 33.0379 13.8979C31.8385 13.6049 30.5842 13.3669 29.2842 13.1746C29.7328 13.8705 30.1814 14.5846 30.6026 15.317C31.0329 16.0494 31.4265 16.7819 31.8019 17.5143ZM26.6383 27.1458C27.3982 26.0563 28.1306 24.8844 28.8447 23.6484C29.5314 22.4491 30.1631 21.2222 30.7399 19.9954C30.1631 18.7686 29.5314 17.5509 28.8356 16.3516C28.1214 15.1247 27.3798 13.962 26.6199 12.8725C25.2649 12.7626 23.8825 12.6986 22.5 12.6986C21.1084 12.6986 19.7259 12.7626 18.3618 12.8817C17.6019 13.9712 16.8694 15.1431 16.1553 16.379C15.4687 17.5784 14.8278 18.8052 14.2601 20.032C14.8369 21.2589 15.4687 22.4765 16.1645 23.6759C16.8786 24.9027 17.6202 26.0655 18.3801 27.155C19.7351 27.2648 21.1175 27.3289 22.5 27.3289C23.8916 27.3289 25.2741 27.2648 26.6383 27.1458ZM33.0654 26.1021C32.7175 24.9119 32.2963 23.6851 31.8019 22.4582C31.4265 23.1907 31.0329 23.9323 30.6117 24.6647C30.1906 25.4063 29.7419 26.1296 29.2933 26.8345C30.6026 26.6423 31.866 26.3951 33.0654 26.1021ZM19.9731 29.2973C20.8154 30.3685 21.6669 31.3481 22.5183 32.2271C23.3606 31.3481 24.2121 30.3685 25.0361 29.2973C24.2029 29.3431 23.3515 29.3614 22.4909 29.3614C21.6394 29.3614 20.7971 29.3339 19.9731 29.2973ZM11.953 26.1112C13.1523 26.4042 14.4066 26.6423 15.7067 26.8345C15.2581 26.1387 14.8186 25.4246 14.3883 24.6922C13.958 23.9597 13.5643 23.2273 13.189 22.4949C12.7129 23.7125 12.2917 24.9302 11.953 26.1112ZM25.0178 10.7118C24.1755 9.64065 23.324 8.66102 22.4725 7.7821C21.6303 8.66102 20.7788 9.64065 19.9548 10.7118C20.788 10.6661 21.6394 10.6477 22.5 10.6477C23.3515 10.6477 24.1938 10.6752 25.0178 10.7118ZM14.3792 15.3445C14.8003 14.6029 15.2489 13.8796 15.6975 13.1746C14.3883 13.3669 13.1249 13.6141 11.9255 13.8979C12.2734 15.0881 12.6946 16.3149 13.189 17.5418C13.5643 16.8093 13.958 16.0769 14.3792 15.3445ZM2.07428 20.0046C2.07428 21.442 4.17087 23.2548 7.41189 24.6372C8.20841 24.976 9.06902 25.2873 9.97541 25.5711C10.4881 23.7858 11.1656 21.9272 12.0079 20.0229C11.1565 18.1094 10.4698 16.2417 9.94794 14.4472C9.05986 14.7311 8.19926 15.0332 7.41189 15.3719C4.17087 16.7453 2.07428 18.5672 2.07428 20.0046ZM10.9733 30.7897C10.5522 34.287 11.0924 37.0062 12.3375 37.7203C12.6122 37.8759 12.9601 37.9583 13.3721 37.9675C15.2764 37.9675 18.0779 36.4477 21.0626 33.6736C19.7717 32.3278 18.4899 30.7897 17.254 29.0959C15.194 28.8762 13.2347 28.5374 11.4403 28.098C11.2389 29.0227 11.0741 29.929 10.9733 30.7897ZM32.7175 37.6837C33.9534 36.9604 34.4845 34.2412 34.0541 30.7439C33.9534 29.8924 33.7886 29.0044 33.5781 28.0797C31.7836 28.5283 29.8243 28.867 27.7552 29.0868C26.5376 30.7805 25.2558 32.3095 23.974 33.6553C26.9587 36.4111 29.7694 37.9217 31.6646 37.9217C32.0857 37.9217 32.4428 37.8485 32.7175 37.6837ZM35.0429 25.5619C35.931 25.2781 36.7916 24.976 37.579 24.6372C40.82 23.2639 42.9166 21.442 42.9257 20.0046C42.9257 18.5672 40.8292 16.7544 37.5881 15.3719C36.7825 15.0332 35.9219 14.7219 35.0155 14.4381C34.5028 16.2234 33.8253 18.0819 32.983 19.9863C33.8344 21.8997 34.5211 23.7675 35.0429 25.5619ZM26.6781 20.0043C26.6781 22.3151 24.8048 24.1884 22.4941 24.1884C20.1833 24.1884 18.31 22.3151 18.31 20.0043C18.31 17.6936 20.1833 15.8203 22.4941 15.8203C24.8048 15.8203 26.6781 17.6936 26.6781 20.0043Z" fill="#121212"/>
<path d="M35.519 12.4605L34.5437 12.2397L34.3387 13.145L35.2263 13.4167L35.519 12.4605ZM35.5739 27.5395L35.2795 26.5838L34.3921 26.8572L34.5991 27.7624L35.5739 27.5395ZM33.752 39.4507L34.251 40.3173L34.2515 40.317L33.752 39.4507ZM22.5366 35.0927L23.2171 34.3599L22.5346 33.7262L21.854 34.3619L22.5366 35.0927ZM11.3304 39.4873L11.8351 38.624L11.8285 38.6202L11.3304 39.4873ZM9.48101 27.5486L10.4563 27.7695L10.6613 26.8641L9.7737 26.5924L9.48101 27.5486ZM9.44439 12.4697L9.73934 13.4252L10.6261 13.1514L10.4192 12.2467L9.44439 12.4697ZM11.2663 0.55848L10.7674 -0.308143L10.7669 -0.307859L11.2663 0.55848ZM13.3354 0.045777L13.3354 1.04578L14.3354 1.04578L14.3354 0.045777L13.3354 0.045777ZM13.3354 0.0366217L13.3354 -0.963378L12.3354 -0.963378L12.3354 0.0366217L13.3354 0.0366217ZM22.4817 4.9073L21.8013 5.6401L22.4837 6.27381L23.1643 5.63809L22.4817 4.9073ZM31.628 -1.63928e-07L32.628 -1.69093e-07L32.628 -1L31.628 -1L31.628 -1.63928e-07ZM31.628 0.00916309L30.628 0.0091631L30.628 1.00742L31.6262 1.00916L31.628 0.00916309ZM33.6696 0.521858L33.1649 1.38518L33.1715 1.38896L33.6696 0.521858ZM23.9374 6.33555L23.2566 5.60307L22.5125 6.29466L23.2157 7.02777L23.9374 6.33555ZM31.6188 2.04167L32.6188 2.04167L32.6188 1.03911L31.6163 1.04167L31.6188 2.04167ZM27.7461 10.9133L26.9383 11.5027L27.1994 11.8606L27.64 11.9076L27.7461 10.9133ZM33.5598 11.9112L33.3219 12.8825L34.3185 13.1266L34.5368 12.124L33.5598 11.9112ZM34.0267 9.2195L33.0339 9.09995L33.0335 9.10327L34.0267 9.2195ZM32.6625 2.28885L33.16 1.4214L33.1517 1.41664L33.1434 1.41204L32.6625 2.28885ZM31.6188 2.05081L30.6188 2.05081L30.6188 3.05081L31.6188 3.05081L31.6188 2.05081ZM13.3354 2.07828L13.3354 1.07828L12.3354 1.07828L12.3354 2.07828L13.3354 2.07828ZM21.026 6.3447L21.7501 7.03436L22.4505 6.29893L21.7044 5.60999L21.026 6.3447ZM13.3354 2.08743L13.3354 3.08743L14.3354 3.08743L14.3354 2.08743L13.3354 2.08743ZM12.2826 2.32548L12.7877 3.18861L12.7971 3.18297L12.2826 2.32548ZM10.9459 9.26528L9.95335 9.3874L9.9541 9.39325L10.9459 9.26528ZM11.422 11.9203L10.4474 12.1445L10.6758 13.1377L11.6645 12.8905L11.422 11.9203ZM17.2448 10.9133L17.3504 11.9077L17.7955 11.8604L18.0568 11.497L17.2448 10.9133ZM33.0379 13.8979L33.9991 14.1736L34.286 13.1734L33.2752 12.9265L33.0379 13.8979ZM31.8019 17.5143L30.912 17.9704L31.9247 19.9465L32.7333 17.8784L31.8019 17.5143ZM29.2842 13.1746L29.4305 12.1854L27.2485 11.8627L28.4437 13.7165L29.2842 13.1746ZM30.6026 15.317L29.7356 15.8155L29.7403 15.8236L30.6026 15.317ZM28.8447 23.6484L29.7106 24.1487L29.7126 24.1453L28.8447 23.6484ZM26.6383 27.1458L26.7252 28.142L27.191 28.1014L27.4585 27.7179L26.6383 27.1458ZM30.7399 19.9954L31.6449 20.4209L31.8449 19.9954L31.6449 19.57L30.7399 19.9954ZM28.8356 16.3516L29.7005 15.8498L29.6998 15.8485L28.8356 16.3516ZM26.6199 12.8725L27.4402 12.3004L27.1705 11.9139L26.7008 11.8758L26.6199 12.8725ZM18.3618 12.8817L18.2748 11.8855L17.809 11.9261L17.5416 12.3096L18.3618 12.8817ZM16.1553 16.379L15.2894 15.8788L15.2875 15.8822L16.1553 16.379ZM14.2601 20.032L13.3526 19.6121L13.1567 20.0354L13.3552 20.4575L14.2601 20.032ZM16.1645 23.6759L15.2995 24.1777L15.3002 24.179L16.1645 23.6759ZM18.3801 27.155L17.5599 27.727L17.8295 28.1136L18.2993 28.1517L18.3801 27.155ZM31.8019 22.4582L32.7294 22.0845L31.9108 20.0531L30.912 22.0021L31.8019 22.4582ZM33.0654 26.1021L33.3027 27.0735L34.3186 26.8253L34.0252 25.8215L33.0654 26.1021ZM30.6117 24.6647L29.7448 24.1662L29.7422 24.1709L30.6117 24.6647ZM29.2933 26.8345L28.4497 26.2976L27.2763 28.1414L29.4386 27.8239L29.2933 26.8345ZM22.5183 32.2271L21.8001 32.9229L22.5222 33.6683L23.2403 32.919L22.5183 32.2271ZM19.9731 29.2973L20.0175 28.2983L17.8393 28.2015L19.187 29.9154L19.9731 29.2973ZM25.0361 29.2973L25.8287 29.907L27.1578 28.1792L24.9812 28.2988L25.0361 29.2973ZM15.7067 26.8345L15.5604 27.8238L17.7424 28.1464L16.5472 26.2926L15.7067 26.8345ZM11.953 26.1112L10.9917 25.8355L10.7048 26.8358L11.7157 27.0827L11.953 26.1112ZM13.189 22.4949L14.0789 22.0388L13.0662 20.0627L12.2576 22.1307L13.189 22.4949ZM22.4725 7.7821L23.1908 7.08631L22.4687 6.34088L21.7506 7.0902L22.4725 7.7821ZM25.0178 10.7118L24.9734 11.7108L27.1516 11.8077L25.8038 10.0937L25.0178 10.7118ZM19.9548 10.7118L19.1622 10.1021L17.8331 11.8299L20.0097 11.7103L19.9548 10.7118ZM15.6975 13.1746L16.5412 13.7115L17.7145 11.8677L15.5522 12.1853L15.6975 13.1746ZM14.3792 15.3445L15.2461 15.843L15.2487 15.8383L14.3792 15.3445ZM11.9255 13.8979L11.6952 12.9248L10.6701 13.1674L10.9657 14.1785L11.9255 13.8979ZM13.189 17.5418L12.2614 17.9156L13.08 19.9469L14.0789 17.9979L13.189 17.5418ZM7.41189 24.6372L7.01954 25.557L7.02052 25.5575L7.41189 24.6372ZM9.97541 25.5711L9.67658 26.5254L10.6539 26.8314L10.9366 25.8471L9.97541 25.5711ZM12.0079 20.0229L12.9224 20.4274L13.1019 20.0217L12.9215 19.6163L12.0079 20.0229ZM9.94794 14.4472L10.9082 14.168L10.6215 13.1822L9.64352 13.4947L9.94794 14.4472ZM7.41189 15.3719L7.80204 16.2927L7.8071 16.2905L7.41189 15.3719ZM12.3375 37.7203L11.84 38.5878L11.8445 38.5903L12.3375 37.7203ZM10.9733 30.7897L11.9662 30.9092L11.9666 30.9059L10.9733 30.7897ZM13.3721 37.9675L13.3498 38.9673L13.361 38.9675L13.3721 38.9675L13.3721 37.9675ZM21.0626 33.6736L21.7434 34.4061L22.4875 33.7145L21.7843 32.9814L21.0626 33.6736ZM17.254 29.0959L18.0618 28.5064L17.8006 28.1485L17.36 28.1015L17.254 29.0959ZM11.4403 28.098L11.6781 27.1267L10.6816 26.8826L10.4632 27.8851L11.4403 28.098ZM34.0541 30.7439L33.0611 30.8613L33.0616 30.866L34.0541 30.7439ZM32.7175 37.6837L32.2124 36.8206L32.203 36.8262L32.7175 37.6837ZM33.5781 28.0797L34.5531 27.8576L34.3263 26.8618L33.3355 27.1095L33.5781 28.0797ZM27.7552 29.0868L27.6496 28.0923L27.2045 28.1396L26.9433 28.503L27.7552 29.0868ZM23.974 33.6553L23.2499 32.9656L22.5495 33.7011L23.2957 34.39L23.974 33.6553ZM37.579 24.6372L37.1888 23.7165L37.1838 23.7186L37.579 24.6372ZM35.0429 25.5619L34.0827 25.8412L34.3694 26.827L35.3474 26.5145L35.0429 25.5619ZM42.9257 20.0046L43.9257 20.0109L43.9257 20.0046L42.9257 20.0046ZM37.5881 15.3719L37.9805 14.4521L37.9757 14.4501L37.5881 15.3719ZM35.0155 14.4381L35.3143 13.4838L34.337 13.1778L34.0543 14.1621L35.0155 14.4381ZM32.983 19.9863L32.0684 19.5818L31.889 19.9875L32.0693 20.3928L32.983 19.9863ZM45.9582 20.0046C45.9582 18.076 44.756 16.3694 42.9995 14.9867C41.2255 13.5902 38.7414 12.401 35.8117 11.5043L35.2263 13.4167C38.0097 14.2687 40.2451 15.3638 41.7625 16.5582C43.2974 17.7666 43.9582 18.9576 43.9582 20.0046L45.9582 20.0046ZM35.8684 28.4952C38.7801 27.5982 41.2505 26.4086 43.0151 25.013C44.7621 23.6313 45.9582 21.9272 45.9582 20.0046L43.9582 20.0046C43.9582 21.0483 43.3004 22.2374 41.7744 23.4443C40.2659 24.6374 38.0441 25.7321 35.2795 26.5838L35.8684 28.4952ZM34.2515 40.317C35.9197 39.3553 36.7952 37.4653 37.1152 35.2592C37.4385 33.0309 37.2295 30.2929 36.5488 27.3165L34.5991 27.7624C35.2459 30.5906 35.4123 33.0666 35.1359 34.972C34.8563 36.8995 34.157 38.0629 33.2526 38.5843L34.2515 40.317ZM31.6829 40.9634C32.5971 40.9634 33.4709 40.7664 34.251 40.3173L33.2531 38.5841C32.8246 38.8307 32.3068 38.9634 31.6829 38.9634L31.6829 40.9634ZM21.8562 35.8255C23.5696 37.4165 25.2959 38.69 26.9441 39.5705C28.5827 40.4459 30.2016 40.9634 31.6829 40.9634L31.6829 38.9634C30.6464 38.9634 29.3585 38.5928 27.8865 37.8065C26.4242 37.0253 24.8363 35.8634 23.2171 34.3599L21.8562 35.8255ZM13.3904 41C14.8738 41 16.4939 40.4765 18.1322 39.5941C19.7803 38.7064 21.5063 37.4235 23.2192 35.8235L21.854 34.3619C20.2344 35.8748 18.6462 37.0455 17.1837 37.8333C15.7114 38.6263 14.4247 39 13.3904 39L13.3904 41ZM10.8257 40.3506C11.6007 40.8037 12.4777 41 13.3904 41L13.3904 39C12.7649 39 12.2503 38.8667 11.8351 38.624L10.8257 40.3506ZM8.5057 27.3278C7.82975 30.3133 7.62564 33.058 7.95376 35.2907C8.27865 37.5015 9.1593 39.3933 10.8323 40.3544L11.8285 38.6202C10.9197 38.0981 10.2165 36.9321 9.9325 34.9999C9.65179 33.0898 9.81389 30.6069 10.4563 27.7695L8.5057 27.3278ZM-0.958221 20.0046C-0.958221 21.9332 0.244062 23.6398 2.00048 25.0224C3.77451 26.4189 6.25867 27.6081 9.18833 28.5049L9.7737 26.5924C6.99037 25.7405 4.75492 24.6454 3.23757 23.4509C1.70262 22.2426 1.04178 21.0515 1.04178 20.0046L-0.958221 20.0046ZM9.14944 11.5142C6.22955 12.4155 3.75492 13.6047 1.98812 14.9989C0.238695 16.3794 -0.958221 18.0813 -0.958221 20.0046L1.04178 20.0046C1.04178 18.9615 1.69883 17.7749 3.22705 16.569C4.73788 15.3767 6.96456 14.2817 9.73934 13.4252L9.14944 11.5142ZM10.7669 -0.307859C9.09862 0.653903 8.22319 2.54385 7.90314 4.75C7.57988 6.97823 7.78883 9.71621 8.46956 12.6926L10.4192 12.2467C9.77241 9.41861 9.60599 6.94257 9.88242 5.03714C10.162 3.10962 10.8613 1.94623 11.7658 1.42482L10.7669 -0.307859ZM13.3354 -0.954223C12.4212 -0.954223 11.5474 -0.757264 10.7674 -0.308142L11.7653 1.4251C12.1937 1.17841 12.7115 1.04578 13.3354 1.04578L13.3354 -0.954223ZM12.3354 0.0366217L12.3354 0.045777L14.3354 0.045777L14.3354 0.0366217L12.3354 0.0366217ZM23.1622 4.17451C21.4488 2.5835 19.7224 1.30998 18.0742 0.429484C16.4356 -0.445877 14.8167 -0.963378 13.3354 -0.963378L13.3354 1.03662C14.3719 1.03662 15.6599 1.4072 17.1318 2.19354C18.5942 2.97475 20.1821 4.13657 21.8013 5.6401L23.1622 4.17451ZM31.628 -1C30.1445 -1 28.5244 -0.476484 26.8862 0.405927C25.2381 1.29365 23.512 2.57654 21.7991 4.17651L23.1643 5.63809C24.784 4.12522 26.3722 2.95446 27.8346 2.16674C29.3069 1.37371 30.5937 1 31.628 1L31.628 -1ZM32.628 0.00916309L32.628 -1.69093e-07L30.628 -1.58763e-07L30.628 0.0091631L32.628 0.00916309ZM34.1743 -0.341439C33.4033 -0.792183 32.5305 -0.989264 31.6297 -0.990835L31.6262 1.00916C32.2381 1.01023 32.7505 1.14288 33.1649 1.38516L34.1743 -0.341439ZM36.4943 12.6813C37.1703 9.6959 37.3744 6.95111 37.0463 4.71841C36.7214 2.5077 35.8407 0.615825 34.1677 -0.345247L33.1715 1.38896C34.0803 1.91107 34.7836 3.0771 35.0675 5.00921C35.3482 6.91934 35.1861 9.40229 34.5437 12.2397L36.4943 12.6813ZM24.6182 7.06802C26.0642 5.72404 27.4437 4.7047 28.6666 4.02626C29.9067 3.33832 30.9091 3.04348 31.6214 3.04167L31.6163 1.04167C30.4243 1.04471 29.076 1.51199 27.6964 2.27736C26.2996 3.05224 24.7905 4.1774 23.2566 5.60307L24.6182 7.06802ZM28.5539 10.3238C27.2942 8.59758 25.984 7.02459 24.6591 5.64332L23.2157 7.02777C24.4727 8.33819 25.726 9.84142 26.9383 11.5027L28.5539 10.3238ZM33.7976 10.9399C31.9561 10.4889 29.9525 10.1429 27.8521 9.91889L27.64 11.9076C29.6595 12.123 31.5745 12.4546 33.3219 12.8825L33.7976 10.9399ZM33.0335 9.10327C32.9377 9.92134 32.7797 10.7938 32.5827 11.6984L34.5368 12.124C34.7426 11.1792 34.9142 10.2389 35.0199 9.33573L33.0335 9.10327ZM32.165 3.15631C32.3938 3.28754 32.7638 3.76604 32.9884 4.90407C33.2005 5.97875 33.2359 7.42232 33.0339 9.09995L35.0195 9.33906C35.2386 7.51931 35.2145 5.85463 34.9505 4.51685C34.699 3.24243 34.1764 2.00429 33.16 1.4214L32.165 3.15631ZM31.6188 3.05081C31.905 3.05081 32.0718 3.1054 32.1817 3.16567L33.1434 1.41204C32.6856 1.16102 32.1749 1.05081 31.6188 1.05081L31.6188 3.05081ZM30.6188 2.04167L30.6188 2.05081L32.6188 2.05081L32.6188 2.04167L30.6188 2.04167ZM13.3354 3.07828C14.0432 3.07828 15.0466 3.37015 16.2901 4.05424C17.516 4.72862 18.8998 5.74264 20.3476 7.07942L21.7044 5.60999C20.1675 4.19099 18.6536 3.07179 17.2542 2.30191C15.8724 1.54173 14.5229 1.07828 13.3354 1.07828L13.3354 3.07828ZM14.3354 2.08743L14.3354 2.07828L12.3354 2.07828L12.3354 2.08743L14.3354 2.08743ZM12.7971 3.18297C12.8596 3.14547 13.0154 3.08743 13.3354 3.08743L13.3354 1.08743C12.8132 1.08743 12.2549 1.17588 11.7681 1.46798L12.7971 3.18297ZM11.9384 9.14316C11.732 7.46538 11.7631 6.0213 11.9712 4.94494C12.1915 3.80537 12.5591 3.32231 12.7876 3.18856L11.7775 1.46239C10.7701 2.05192 10.2541 3.29008 10.0076 4.56524C9.74876 5.90363 9.72949 7.56781 9.95336 9.38739L11.9384 9.14316ZM12.3965 11.6962C12.1935 10.8134 12.0435 9.95745 11.9377 9.13731L9.9541 9.39325C10.068 10.276 10.2293 11.1962 10.4474 12.1445L12.3965 11.6962ZM17.1392 9.91885C15.0296 10.1429 13.0241 10.489 11.1794 10.9502L11.6645 12.8905C13.4087 12.4544 15.3218 12.1231 17.3504 11.9077L17.1392 9.91885ZM20.3019 5.65505C18.9892 7.03336 17.678 8.59763 16.4329 10.3295L18.0568 11.497C19.247 9.84138 20.4993 8.34773 21.7501 7.03436L20.3019 5.65505ZM32.0767 13.6222C31.748 14.7681 31.3375 15.956 30.8706 17.1502L32.7333 17.8784C33.2185 16.6373 33.6503 15.3898 33.9991 14.1736L32.0767 13.6222ZM29.1379 14.1639C30.4122 14.3523 31.6357 14.5848 32.8006 14.8694L33.2752 12.9265C32.0414 12.6251 30.7563 12.3815 29.4305 12.1854L29.1379 14.1639ZM31.4695 14.8185C31.036 14.0647 30.5769 13.3343 30.1246 12.6328L28.4437 13.7165C28.8887 14.4066 29.3268 15.1045 29.7356 15.8155L31.4695 14.8185ZM32.6918 17.0582C32.3106 16.3143 31.9075 15.5641 31.4648 14.8105L29.7403 15.8236C30.1582 16.5348 30.5425 17.2495 30.912 17.9704L32.6918 17.0582ZM27.9788 23.1482C27.2756 24.3653 26.5583 25.5124 25.8181 26.5737L27.4585 27.7179C28.238 26.6002 28.9856 25.4035 29.7106 24.1487L27.9788 23.1482ZM29.8349 19.57C29.2684 20.7749 28.649 21.9777 27.9769 23.1516L29.7126 24.1453C30.4138 22.9205 31.0578 21.6696 31.6449 20.4209L29.8349 19.57ZM27.9706 16.8534C28.6508 18.0259 29.2693 19.2179 29.8349 20.4209L31.6449 19.57C31.0569 18.3193 30.4119 17.076 29.7005 15.8498L27.9706 16.8534ZM25.7997 13.4446C26.5434 14.5108 27.2703 15.6504 27.9713 16.8546L29.6998 15.8485C28.9725 14.5991 28.2163 13.4132 27.4402 12.3004L25.7997 13.4446ZM22.5 13.6986C23.8519 13.6986 25.2072 13.7612 26.5391 13.8692L26.7008 11.8758C25.3227 11.764 23.913 11.6986 22.5 11.6986L22.5 13.6986ZM18.4487 13.8779C19.7856 13.7612 21.139 13.6986 22.5 13.6986L22.5 11.6986C21.0778 11.6986 19.6662 11.7641 18.2748 11.8855L18.4487 13.8779ZM17.0212 16.8793C17.7244 15.6622 18.4417 14.5151 19.182 13.4537L17.5416 12.3096C16.762 13.4272 16.0144 14.624 15.2894 15.8788L17.0212 16.8793ZM15.1677 20.452C15.7218 19.2544 16.349 18.0533 17.0231 16.8759L15.2875 15.8822C14.5883 17.1035 13.9338 18.356 13.3526 19.6121L15.1677 20.452ZM17.0294 23.1741C16.3492 22.0016 15.7307 20.8096 15.1651 19.6066L13.3552 20.4575C13.9432 21.7082 14.5881 22.9515 15.2995 24.1777L17.0294 23.1741ZM19.2003 26.5829C18.4566 25.5167 17.7297 24.3771 17.0287 23.1728L15.3002 24.179C16.0275 25.4284 16.7837 26.6142 17.5599 27.727L19.2003 26.5829ZM22.5 26.3289C21.1481 26.3289 19.7928 26.2662 18.4609 26.1582L18.2993 28.1517C19.6773 28.2634 21.087 28.3289 22.5 28.3289L22.5 26.3289ZM26.5513 26.1496C25.2144 26.2662 23.861 26.3289 22.5 26.3289L22.5 28.3289C23.9223 28.3289 25.3338 28.2634 26.7252 28.142L26.5513 26.1496ZM30.8744 22.832C31.3561 24.0274 31.7666 25.2231 32.1055 26.3827L34.0252 25.8215C33.6683 24.6007 33.2365 23.3427 32.7294 22.0845L30.8744 22.832ZM31.4786 25.1632C31.9106 24.4119 32.3123 23.6549 32.6918 22.9143L30.912 22.0021C30.5408 22.7264 30.1551 23.4526 29.7448 24.1662L31.4786 25.1632ZM30.137 27.3714C30.5892 26.6608 31.048 25.9214 31.4813 25.1585L29.7422 24.1709C29.3331 24.8912 28.8947 25.5983 28.4497 26.2976L30.137 27.3714ZM32.8281 25.1306C31.6598 25.416 30.4271 25.6573 29.148 25.8451L29.4386 27.8239C30.778 27.6272 32.0722 27.3741 33.3027 27.0735L32.8281 25.1306ZM23.2366 31.5313C22.4114 30.6795 21.5824 29.7261 20.7592 28.6792L19.187 29.9154C20.0484 31.0109 20.9223 32.0168 21.8001 32.9229L23.2366 31.5313ZM24.2434 28.6876C23.4426 29.7287 22.6149 30.681 21.7963 31.5352L23.2403 32.919C24.1063 32.0153 24.9815 31.0083 25.8287 29.907L24.2434 28.6876ZM22.4909 30.3614C23.3653 30.3614 24.2355 30.3428 25.0909 30.2958L24.9812 28.2988C24.1703 28.3434 23.3377 28.3614 22.4909 28.3614L22.4909 30.3614ZM19.9287 30.2963C20.76 30.3333 21.6186 30.3614 22.4909 30.3614L22.4909 28.3614C21.6602 28.3614 20.8342 28.3346 20.0175 28.2983L19.9287 30.2963ZM15.853 25.8453C14.5786 25.6568 13.3552 25.4244 12.1903 25.1398L11.7157 27.0827C12.9495 27.3841 14.2346 27.6277 15.5604 27.8238L15.853 25.8453ZM13.5261 25.1987C13.9632 25.9428 14.4099 26.6687 14.8662 27.3764L16.5472 26.2926C16.1062 25.6088 15.674 24.9064 15.2505 24.1856L13.5261 25.1987ZM12.299 22.9509C12.6803 23.6949 13.0834 24.4451 13.5261 25.1987L15.2505 24.1856C14.8327 23.4744 14.4484 22.7597 14.0789 22.0388L12.299 22.9509ZM12.9142 26.3869C13.2429 25.241 13.6534 24.0532 14.1203 22.859L12.2576 22.1307C11.7723 23.3719 11.3406 24.6194 10.9917 25.8355L12.9142 26.3869ZM21.7543 8.4779C22.5795 9.32968 23.4084 10.283 24.2317 11.33L25.8038 10.0937C24.9425 8.99829 24.0685 7.99237 23.1908 7.08631L21.7543 8.4779ZM20.7474 11.3215C21.5482 10.2805 22.3759 9.3282 23.1945 8.47401L21.7506 7.0902C20.8846 7.99384 20.0093 9.00081 19.1622 10.1021L20.7474 11.3215ZM22.5 9.64775C21.6256 9.64775 20.7554 9.66634 19.8999 9.71334L20.0097 11.7103C20.8205 11.6658 21.6532 11.6477 22.5 11.6477L22.5 9.64775ZM25.0622 9.71282C24.2308 9.67587 23.3722 9.64775 22.5 9.64775L22.5 11.6477C23.3307 11.6477 24.1567 11.6746 24.9734 11.7108L25.0622 9.71282ZM14.8539 12.6378C14.4017 13.3483 13.9428 14.0878 13.5096 14.8506L15.2487 15.8383C15.6578 15.118 16.0962 14.4109 16.5412 13.7115L14.8539 12.6378ZM12.1558 14.871C13.3288 14.5935 14.5639 14.3519 15.8428 14.164L15.5522 12.1853C14.2128 12.382 12.9209 12.6347 11.6952 12.9248L12.1558 14.871ZM14.1165 17.168C13.6347 15.9726 13.2243 14.7769 12.8853 13.6174L10.9657 14.1785C11.3225 15.3993 11.7544 16.6573 12.2614 17.9156L14.1165 17.168ZM13.5123 14.846C13.0818 15.5947 12.6804 16.3415 12.299 17.0857L14.0789 17.9979C14.4483 17.2771 14.8343 16.5591 15.2461 15.8429L13.5123 14.846ZM7.80424 23.7174C6.24797 23.0536 5.01139 22.3043 4.18278 21.5859C3.30511 20.825 3.07428 20.2679 3.07428 20.0046L1.07428 20.0046C1.07428 21.1787 1.89175 22.2466 2.87263 23.0971C3.90257 23.99 5.33479 24.8384 7.01954 25.557L7.80424 23.7174ZM10.2742 24.6168C9.39391 24.3411 8.56477 24.0408 7.80325 23.717L7.02052 25.5575C7.85205 25.9111 8.74413 26.2334 9.67658 26.5254L10.2742 24.6168ZM11.0934 19.6184C10.2341 21.5611 9.54053 23.4625 9.01425 25.295L10.9366 25.8471C11.4357 24.109 12.0971 22.2934 12.9224 20.4274L11.0934 19.6184ZM8.98772 14.7265C9.52318 16.5677 10.2259 18.4779 11.0943 20.4294L12.9215 19.6163C12.087 17.7409 11.4164 15.9157 10.9082 14.168L8.98772 14.7265ZM7.8071 16.2905C8.55261 15.9698 9.37918 15.6788 10.2524 15.3998L9.64352 13.4947C8.74055 13.7833 7.8459 14.0966 7.01668 14.4533L7.8071 16.2905ZM3.07428 20.0046C3.07428 19.7405 3.30609 19.181 4.18331 18.4193C5.01148 17.7003 6.24731 16.9515 7.80204 16.2927L7.02174 14.4512C5.33545 15.1657 3.90248 16.0145 2.8721 16.9091C1.89077 17.7611 1.07428 18.8313 1.07428 20.0046L3.07428 20.0046ZM12.835 36.8528C12.6062 36.7216 12.2362 36.2431 12.0116 35.1051C11.7996 34.0304 11.7642 32.5868 11.9662 30.9092L9.98052 30.6701C9.76139 32.4898 9.78549 34.1545 10.0495 35.4923C10.301 36.7667 10.8237 38.0049 11.84 38.5878L12.835 36.8528ZM13.3943 36.9678C13.0963 36.9611 12.9226 36.9025 12.8305 36.8503L11.8445 38.5903C12.3017 38.8494 12.8238 38.9556 13.3498 38.9673L13.3943 36.9678ZM20.3818 32.9411C18.9335 34.2873 17.5519 35.3077 16.3275 35.9861C15.0859 36.6741 14.0832 36.9675 13.3721 36.9675L13.3721 38.9675C14.5652 38.9675 15.9155 38.501 17.2969 37.7355C18.6956 36.9605 20.2071 35.834 21.7434 34.4061L20.3818 32.9411ZM16.4462 29.6854C17.7058 31.4116 19.016 32.9846 20.3409 34.3658L21.7843 32.9814C20.5274 31.671 19.2741 30.1677 18.0618 28.5064L16.4462 29.6854ZM11.2024 29.0693C13.0439 29.5203 15.0475 29.8662 17.1479 30.0903L17.36 28.1015C15.3405 27.8861 13.4255 27.5546 11.6781 27.1267L11.2024 29.0693ZM11.9666 30.9059C12.0623 30.0878 12.2203 29.2153 12.4174 28.3108L10.4632 27.8851C10.2574 28.83 10.0858 29.7703 9.98012 30.6734L11.9666 30.9059ZM33.0616 30.866C33.2681 32.5438 33.237 33.9879 33.0288 35.0642C32.8085 36.2038 32.441 36.6869 32.2124 36.8206L33.2225 38.5468C34.2299 37.9572 34.7459 36.7191 34.9925 35.4439C35.2513 34.1055 35.2705 32.4413 35.0467 30.6218L33.0616 30.866ZM32.603 28.3017C32.8082 29.2026 32.9656 30.0545 33.0611 30.8613L35.0472 30.6264C34.9412 29.7304 34.7691 28.8061 34.5531 27.8576L32.603 28.3017ZM27.8608 30.0812C29.9704 29.8571 31.9759 29.511 33.8206 29.0498L33.3355 27.1095C31.5913 27.5456 29.6783 27.8769 27.6496 28.0923L27.8608 30.0812ZM24.6982 34.345C26.0109 32.9666 27.3221 31.4024 28.5672 29.6705L26.9433 28.503C25.753 30.1586 24.5007 31.6523 23.2499 32.9656L24.6982 34.345ZM31.6646 36.9217C30.9568 36.9217 29.9534 36.6299 28.7099 35.9458C27.484 35.2714 26.1002 34.2574 24.6524 32.9206L23.2957 34.39C24.8325 35.809 26.3464 36.9282 27.7459 37.6981C29.1277 38.4583 30.4772 38.9217 31.6646 38.9217L31.6646 36.9217ZM32.203 36.8262C32.1405 36.8637 31.9847 36.9217 31.6646 36.9217L31.6646 38.9217C32.1868 38.9217 32.7451 38.8333 33.232 38.5412L32.203 36.8262ZM37.1838 23.7186C36.4383 24.0394 35.6117 24.3303 34.7385 24.6094L35.3474 26.5145C36.2503 26.2259 37.145 25.9126 37.9742 25.5558L37.1838 23.7186ZM41.9258 19.9982C41.9241 20.2659 41.6873 20.8279 40.8092 21.5894C39.9796 22.3088 38.7435 23.0577 37.1888 23.7165L37.9691 25.558C39.6555 24.8434 41.0882 23.9947 42.1195 23.1004C43.1021 22.2483 43.9183 21.1806 43.9257 20.0109L41.9258 19.9982ZM37.1958 16.2918C38.7521 16.9556 39.9886 17.7048 40.8172 18.4232C41.6949 19.1842 41.9257 19.7413 41.9257 20.0046L43.9257 20.0046C43.9257 18.8305 43.1083 17.7625 42.1274 16.9121C41.0975 16.0191 39.6652 15.1708 37.9805 14.4521L37.1958 16.2918ZM34.7166 15.3924C35.5966 15.668 36.4273 15.9687 37.2005 16.2938L37.9757 14.4501C37.1376 14.0977 36.2471 13.7759 35.3143 13.4838L34.7166 15.3924ZM33.8975 20.3908C34.7568 18.4481 35.4503 16.5467 35.9766 14.7141L34.0543 14.1621C33.5552 15.9001 32.8938 17.7158 32.0684 19.5818L33.8975 20.3908ZM36.0032 25.2827C35.4677 23.4414 34.765 21.5312 33.8966 19.5797L32.0693 20.3928C32.9039 22.2683 33.5745 24.0935 34.0827 25.8412L36.0032 25.2827ZM22.4941 25.1884C25.3571 25.1884 27.6781 22.8674 27.6781 20.0043L25.6781 20.0043C25.6781 21.7628 24.2525 23.1884 22.4941 23.1884L22.4941 25.1884ZM17.31 20.0043C17.31 22.8674 19.631 25.1884 22.4941 25.1884L22.4941 23.1884C20.7356 23.1884 19.31 21.7628 19.31 20.0043L17.31 20.0043ZM22.4941 14.8203C19.631 14.8203 17.31 17.1413 17.31 20.0043L19.31 20.0043C19.31 18.2458 20.7356 16.8203 22.4941 16.8203L22.4941 14.8203ZM27.6781 20.0043C27.6781 17.1413 25.3571 14.8203 22.4941 14.8203L22.4941 16.8203C24.2525 16.8203 25.6781 18.2458 25.6781 20.0043L27.6781 20.0043Z" fill="#121212" mask="url(#path-1-inside-1)"/>
</svg>
