<svg width="41" height="26" viewBox="0 0 41 26" fill="none" xmlns="http://www.w3.org/2000/svg">
<path opacity="0.2" d="M10.5 8.98958C11.833 3.6427 15.167 0.96875 20.5 0.96875C28.5 0.96875 29.5 6.98437 33.5 7.98698C36.167 8.65571 38.5 7.65311 40.5 4.97917C39.167 10.3261 35.833 13 30.5 13C22.5 13 21.5 6.98437 17.5 5.98177C14.833 5.31303 12.5 6.31564 10.5 8.98958ZM0.5 21.0208C1.833 15.6739 5.167 13 10.5 13C18.5 13 19.5 19.0156 23.5 20.0182C26.167 20.687 28.5 19.6844 30.5 17.0104C29.167 22.3573 25.833 25.0312 20.5 25.0312C12.5 25.0312 11.5 19.0156 7.5 18.013C4.833 17.3443 2.5 18.3469 0.5 21.0208Z" fill="#121212"/>
</svg>
