<svg width="27" height="32" viewBox="0 0 27 32" fill="none" xmlns="http://www.w3.org/2000/svg">
<path opacity="0.2" d="M7.13592 12.9524V5.46787H13.724C14.3516 5.46787 14.9565 5.5201 15.5391 5.62477C16.1217 5.72924 16.6372 5.91587 17.0854 6.18488C17.5334 6.45388 17.892 6.82736 18.1611 7.30529C18.4299 7.78343 18.5645 8.39598 18.5645 9.14271C18.5645 10.4873 18.1611 11.4585 17.3542 12.0559C16.5476 12.6536 15.5168 12.9524 14.2618 12.9524H7.13592ZM0.0994263 0V32H15.6064C17.0406 32 18.4375 31.8208 19.797 31.4622C21.1565 31.1036 22.3665 30.5509 23.4272 29.804C24.4878 29.057 25.3319 28.0933 25.9594 26.9132C26.587 25.733 26.9006 24.3361 26.9006 22.7227C26.9006 20.7207 26.415 19.0103 25.444 17.5911C24.4729 16.1718 23.0013 15.1783 21.0293 14.6106C22.4635 13.9235 23.5468 13.042 24.2788 11.9663C25.0107 10.8907 25.3767 9.54632 25.3767 7.9327C25.3767 6.43881 25.1302 5.184 24.6372 4.16805C24.1442 3.15231 23.4495 2.33806 22.5531 1.72552C21.6569 1.11298 20.5813 0.672206 19.3263 0.403406C18.0715 0.1344 16.682 0 15.1582 0H0.0994263ZM7.13592 26.5321V17.7478H14.7996C16.3234 17.7478 17.5485 18.0988 18.4749 18.8011C19.401 19.5033 19.8643 20.6759 19.8643 22.3193C19.8643 23.156 19.7222 23.8431 19.4384 24.3809C19.1545 24.9187 18.7736 25.3446 18.2955 25.6582C17.8175 25.972 17.2646 26.196 16.6372 26.3306C16.0096 26.4648 15.3525 26.5321 14.6652 26.5321H7.13592Z" fill="#121212"/>
</svg>
