<svg width="81" height="24" viewBox="0 0 81 24" fill="none" xmlns="http://www.w3.org/2000/svg">
<path d="M5.99875 23L0.0787514 0.599998H4.46275L8.49475 18.424L13.2308 0.599998H17.7428L22.3508 18.424L26.3828 0.599998H30.7988L24.7188 23H19.8548L15.4068 6.392L10.8308 23H5.99875ZM34.7273 23V0.599998H38.8233V9.656L47.1113 0.599998H52.1673L43.9113 9.496L52.3913 23H47.3673L40.9673 12.632L38.8233 14.968V23H34.7273ZM63.804 23.384C62.1613 23.384 60.7107 23.1067 59.452 22.552C58.1933 21.976 57.2013 21.1653 56.476 20.12C55.7507 19.0533 55.3773 17.7627 55.356 16.248H59.676C59.7187 17.2933 60.092 18.1787 60.796 18.904C61.5213 19.608 62.5133 19.96 63.772 19.96C64.86 19.96 65.724 19.704 66.364 19.192C67.004 18.6587 67.324 17.9547 67.324 17.08C67.324 16.1627 67.036 15.448 66.46 14.936C65.9053 14.424 65.1587 14.008 64.22 13.688C63.2813 13.368 62.2787 13.0267 61.212 12.664C59.484 12.0667 58.1613 11.2987 57.244 10.36C56.348 9.42133 55.9 8.17333 55.9 6.616C55.8787 5.29333 56.188 4.16267 56.828 3.224C57.4893 2.264 58.3853 1.528 59.516 1.016C60.6467 0.482666 61.948 0.216 63.42 0.216C64.9133 0.216 66.2253 0.482666 67.356 1.016C68.508 1.54933 69.404 2.296 70.044 3.256C70.7053 4.216 71.0573 5.35733 71.1 6.68H66.716C66.6947 5.89067 66.3853 5.19733 65.788 4.6C65.212 3.98133 64.4013 3.672 63.356 3.672C62.46 3.65067 61.7027 3.87467 61.084 4.344C60.4867 4.792 60.188 5.45333 60.188 6.328C60.188 7.07467 60.4227 7.672 60.892 8.12C61.3613 8.54667 62.0013 8.90933 62.812 9.208C63.6227 9.50667 64.5507 9.82667 65.596 10.168C66.7053 10.552 67.7187 11 68.636 11.512C69.5533 12.024 70.2893 12.7067 70.844 13.56C71.3987 14.392 71.676 15.4693 71.676 16.792C71.676 17.9653 71.3773 19.0533 70.78 20.056C70.1827 21.0587 69.2973 21.8693 68.124 22.488C66.9507 23.0853 65.5107 23.384 63.804 23.384Z" fill="#121212"/>
<path d="M77.8738 23.224C77.1271 23.224 76.5084 22.9893 76.0178 22.52C75.5484 22.0507 75.3138 21.4853 75.3138 20.824C75.3138 20.1413 75.5484 19.5653 76.0178 19.096C76.5084 18.6267 77.1271 18.392 77.8738 18.392C78.6204 18.392 79.2284 18.6267 79.6978 19.096C80.1884 19.5653 80.4338 20.1413 80.4338 20.824C80.4338 21.4853 80.1884 22.0507 79.6978 22.52C79.2284 22.9893 78.6204 23.224 77.8738 23.224Z" fill="#8BFB46"/>
</svg>
