<svg width="180" height="38" viewBox="0 0 180 38" fill="none" xmlns="http://www.w3.org/2000/svg">
<path fill-rule="evenodd" clip-rule="evenodd" d="M33.4194 6.62485C30.0556 2.27919 24.8425 0.187869 19.4602 0.0148069C13.8304 -0.166214 8.05298 1.28883 4.36748 5.69071C0.51544 10.2915 -0.893455 16.6918 0.56145 22.5871C1.97513 28.3152 6.47181 32.3779 11.6 34.9969C16.8082 37.6567 22.8839 39.3127 28.0883 36.645C33.2385 34.0051 35.5762 28.019 36.6139 22.1754C37.5877 16.6919 36.7893 10.9784 33.4194 6.62485ZM27.4862 9.19989L27.4382 10.3016C27.4234 10.6415 27.3495 11.0208 27.243 11.4179C27.1444 11.7855 27.0489 12.1308 26.9563 12.4537L26.9487 12.4803L26.9396 12.5065C26.9209 12.5606 26.8942 12.6902 26.9094 12.9339C26.9356 13.2631 26.947 13.5624 26.9384 13.8235L26.9315 14.0347L26.842 14.225C26.6627 14.6058 26.4629 15.0969 26.243 15.7052L26.2404 15.7123C26.0248 16.2951 25.8125 16.9275 25.6037 17.6103L25.6022 17.6153L24.9756 19.6274C24.8156 20.2068 24.6906 20.7297 24.5991 21.1977C24.6573 21.5513 24.7134 21.85 24.7669 22.0961C24.8624 22.4311 24.9389 22.7574 24.9947 23.0742C25.0612 23.4089 25.094 23.7573 25.0968 24.1168C25.0999 24.4915 25.0637 24.9184 24.9973 25.3874L24.9392 25.7973L24.616 26.045C24.5189 26.1194 24.4281 26.1862 24.3483 26.2403L24.3443 26.2429L24.3443 26.243C24.3251 26.2559 24.2937 26.2772 24.2535 26.3016C24.1971 26.3477 24.1501 26.3789 24.1262 26.3948L24.1222 26.3974C24.0412 26.4512 23.9506 26.5033 23.8592 26.5523C23.6822 26.6573 23.4556 26.7452 23.19 26.7509C22.8941 26.7572 22.6294 26.6594 22.4162 26.5071C22.3065 26.4887 22.1725 26.4601 22.0451 26.4104C21.9761 26.3835 21.8283 26.3205 21.686 26.189C21.5866 26.0973 21.4592 25.9384 21.3928 25.7221C21.062 25.2646 20.7829 24.8048 20.5611 24.3424L20.5459 24.3108L20.5329 24.2781C20.3615 23.8464 20.1995 23.4276 20.047 23.0215L20.0426 23.0096L20.0384 22.9976C19.8866 22.5604 19.7463 22.1244 19.6174 21.6896L19.6105 21.6661L19.6046 21.6422C19.5148 21.275 19.394 20.8986 19.2408 20.513L19.2349 20.498L19.2294 20.4828C19.0396 19.957 18.7932 19.3359 18.4882 18.6173L18.4804 18.599L18.4733 18.5804C18.2045 17.871 17.8897 17.1763 17.5287 16.4961C17.1785 15.8362 16.7805 15.2389 16.3358 14.7018L16.3294 14.6941L16.3231 14.6863C16.2137 14.5486 16.1053 14.4272 15.9981 14.3206C15.4879 15.6141 15.1101 16.8927 14.8622 18.1569C14.5698 19.7601 14.4659 21.2753 14.544 22.7056L14.5464 22.7504L14.5449 22.7953C14.5408 22.9212 14.5323 23.0486 14.5154 23.1677C14.5015 23.2659 14.471 23.4464 14.3828 23.6266C14.3615 23.6699 14.321 23.7584 14.2572 23.9038C14.1885 24.0754 14.1068 24.273 14.0126 24.4959C13.9581 24.6658 13.89 24.8511 13.8006 25.0256C13.7786 25.2807 13.7514 25.5238 13.7187 25.7544C13.6635 26.1445 13.5205 26.6101 13.1488 26.9528L12.15 27.8739L11.6076 26.6128C11.0052 25.2122 10.6673 23.7248 10.5912 22.1578L10.5907 22.1485L10.5904 22.1392C10.5439 20.6058 10.6416 19.0705 10.8831 17.5342L10.8843 17.5264L10.8856 17.5188C11.1478 16.0014 11.5097 14.5328 11.9719 13.1136C12.4169 11.7344 12.8682 10.475 13.3262 9.33672C13.3829 9.11141 13.5076 8.84131 13.7738 8.63729L13.8511 8.57808L13.9382 8.53558C13.9529 8.52842 13.9618 8.52331 13.9661 8.52073L14.0779 8.43513C14.2643 8.29236 14.47 8.21073 14.6718 8.17359L14.7314 8.16261L14.792 8.15931C14.8624 8.15547 14.9259 8.15106 14.9828 8.14619C15.1955 8.09434 15.4079 8.0902 15.6103 8.12042C15.879 8.16055 16.1578 8.29076 16.3702 8.54582C16.5686 8.78405 16.6435 9.05253 16.6706 9.25925C16.6858 9.3748 16.7001 9.43941 16.7074 9.4672C16.7742 9.65487 16.7988 9.84555 16.8111 9.98695C16.8262 10.1601 16.8297 10.3542 16.8259 10.5606C17.6237 10.905 18.3263 11.3975 18.9227 12.0398C19.6636 12.7923 20.2841 13.6312 20.7812 14.5551C21.159 15.229 21.4892 15.912 21.7711 16.6042C21.8798 16.2394 21.989 15.8718 22.0985 15.5013L22.1027 15.4872L22.1072 15.4732C22.3492 14.7339 22.5733 14.0394 22.7795 13.3899L22.7835 13.3772L22.7878 13.3646C23.0199 12.6947 23.195 12.1754 23.3146 11.8036L23.3202 11.7863L23.3264 11.7692C23.4692 11.374 23.6633 11.0036 23.9315 10.6973C24.1348 10.4651 24.354 10.2567 24.5901 10.0758C24.6013 10.0672 24.6489 10.0259 24.729 9.92063L24.7594 9.88077L24.7935 9.84426C25.0408 9.57946 25.3643 9.3717 25.759 9.30296C25.8251 9.2875 25.8953 9.2734 25.9656 9.26366C26.0341 9.25419 26.1676 9.2389 26.3203 9.26012L26.3296 9.26041C26.3464 9.26076 26.3739 9.26049 26.4139 9.2583L27.4862 9.19989ZM15.7057 9.39276C15.6842 9.22947 15.6098 9.1359 15.4822 9.11203C15.6092 9.13618 15.6834 9.22969 15.7047 9.39258C15.7268 9.56093 15.7538 9.69464 15.7857 9.79372C15.8368 9.91924 15.8587 10.1701 15.8513 10.5463C15.8472 10.8993 15.8258 11.1319 15.787 11.244C16.7566 11.5303 17.5699 12.029 18.2268 12.7401C18.9095 13.4316 19.4779 14.2002 19.9321 15.0462C20.4088 15.8954 20.8035 16.7561 21.1162 17.628C21.4323 18.4769 21.7068 19.2135 21.9398 19.8377L21.9401 19.8362C21.7584 19.3493 21.5514 18.7941 21.3192 18.1707L21.1172 17.6282C20.8044 16.7563 20.4097 15.8956 19.9331 15.0463C19.4789 14.2004 18.9104 13.4317 18.2277 12.7403C17.7365 12.2086 17.1579 11.7956 16.4918 11.5014C16.2671 11.4021 16.0325 11.3164 15.7879 11.2442C15.7936 11.2278 15.7989 11.2089 15.8038 11.1875C15.8326 11.0617 15.8488 10.848 15.8523 10.5464C15.8596 10.1703 15.8377 9.91942 15.7866 9.7939C15.7547 9.69482 15.7277 9.56111 15.7057 9.39276ZM26.3033 11.1522C26.4006 10.7896 26.4543 10.4912 26.4646 10.257L26.4655 10.2569C26.4553 10.4912 26.4016 10.7897 26.3043 11.1524L26.2754 11.2596C26.1884 11.5823 26.104 11.8862 26.0223 12.1713C25.9446 12.3955 25.9166 12.6743 25.9383 13.0076C25.9633 13.3179 25.9723 13.5786 25.9653 13.7897C25.7683 14.2083 25.5566 14.7308 25.3301 15.3572C25.107 15.9605 24.8885 16.6116 24.6748 17.3107L24.0433 19.3384C23.8553 20.0177 23.7108 20.6328 23.6099 21.1836C23.6826 21.6425 23.754 22.0304 23.8239 22.3473C23.9163 22.6677 23.9878 22.9731 24.0385 23.2636C24.0925 23.531 24.1207 23.8182 24.1232 24.1251C24.1257 24.432 24.0958 24.8048 24.0337 25.2435C23.8535 25.3816 23.7392 25.4589 23.691 25.4752C23.662 25.5181 23.5606 25.5855 23.3869 25.6774C23.288 25.7397 23.1948 25.7625 23.1071 25.7459C23.1945 25.7622 23.2874 25.7393 23.3859 25.6772C23.5596 25.5853 23.661 25.5179 23.69 25.4751C23.7383 25.4587 23.8525 25.3814 24.0328 25.2433C24.0949 24.8046 24.1247 24.4318 24.1223 24.1249C24.1198 23.818 24.0916 23.5308 24.0376 23.2634C23.9869 22.9729 23.9154 22.6675 23.823 22.3472C23.753 22.0302 23.6817 21.6423 23.6089 21.1834C23.7099 20.6326 23.8543 20.0176 24.0423 19.3383L24.6738 17.3105C24.8876 16.6115 25.106 15.9603 25.3292 15.357C25.5556 14.7306 25.7674 14.2081 25.9644 13.7896C25.9713 13.5784 25.9623 13.3177 25.9374 13.0074C25.9157 12.6741 25.9437 12.3953 26.0213 12.1711C26.1121 11.8546 26.2061 11.5149 26.3033 11.1522ZM22.6152 25.5268C22.6258 25.5284 22.6364 25.5302 22.6469 25.5322C22.6367 25.5302 22.6265 25.5285 22.6161 25.5269C22.5908 25.5232 22.5671 25.5193 22.5451 25.5152C22.5669 25.5192 22.5902 25.523 22.6152 25.5268ZM15.5614 12.8372L15.5622 12.8376C14.7902 14.5614 14.2382 16.2709 13.9064 17.9661C13.6003 19.6416 13.4888 21.2401 13.5718 22.7615C13.5649 22.9727 13.5452 23.1113 13.513 23.1772C13.4807 23.2431 13.4306 23.3535 13.3627 23.5084C13.2916 23.6864 13.2044 23.8974 13.1009 24.1413C13.048 24.3112 12.9952 24.4486 12.9424 24.5533C12.9113 24.6152 12.8801 24.6658 12.849 24.7049C12.8257 25.0316 12.7944 25.3334 12.7552 25.6105C12.716 25.8876 12.6303 26.087 12.4983 26.2088L12.498 26.208C12.6297 26.0862 12.7151 25.887 12.7543 25.6103C12.7935 25.3332 12.8247 25.0314 12.848 24.7048C12.9318 24.5994 13.0158 24.4115 13.1 24.1411C13.2034 23.8972 13.2907 23.6862 13.3618 23.5082C13.4297 23.3533 13.4797 23.2429 13.512 23.177C13.5443 23.1111 13.5639 22.9725 13.5709 22.7614C13.4878 21.2399 13.5993 19.6414 13.9054 17.9659C14.2373 16.2706 14.7893 14.5611 15.5614 12.8372Z" fill="#101010"/>
<path d="M61.512 26.5V9.484H58.2V20.74L51.12 9.484H46.992V26.5H50.304V14.428L58.032 26.5H61.512ZM69.6653 23.956C68.1053 23.956 66.6653 22.804 66.6653 20.596C66.6653 18.364 68.1053 17.236 69.6653 17.236C71.2253 17.236 72.6653 18.364 72.6653 20.596C72.6653 22.828 71.2253 23.956 69.6653 23.956ZM69.6653 14.332C66.1373 14.332 63.4733 16.948 63.4733 20.596C63.4733 24.22 66.1373 26.86 69.6653 26.86C73.1933 26.86 75.8573 24.22 75.8573 20.596C75.8573 16.948 73.1933 14.332 69.6653 14.332ZM80.8684 26.5V19.588C80.8684 18.292 81.6844 17.26 83.0764 17.26C84.5164 17.26 85.1644 18.22 85.1644 19.492V26.5H88.3324V19.588C88.3324 18.316 89.1484 17.26 90.5164 17.26C91.9804 17.26 92.6044 18.22 92.6044 19.492V26.5H95.7004V18.844C95.7004 15.676 93.6124 14.356 91.4284 14.356C89.8684 14.356 88.6204 14.884 87.6844 16.324C87.0844 15.052 85.7884 14.356 84.1804 14.356C82.8844 14.356 81.3724 14.98 80.7244 16.132V14.692H77.6764V26.5H80.8684ZM97.4244 23.284C97.4244 25.132 98.9604 26.836 101.48 26.836C103.232 26.836 104.36 26.02 104.96 25.084C104.96 25.54 105.008 26.188 105.08 26.5H108.008C107.936 26.092 107.864 25.252 107.864 24.628V18.82C107.864 16.444 106.472 14.332 102.728 14.332C99.5604 14.332 97.8564 16.372 97.6644 18.22L100.496 18.82C100.592 17.788 101.36 16.9 102.752 16.9C104.096 16.9 104.744 17.596 104.744 18.436C104.744 18.844 104.528 19.18 103.856 19.276L100.952 19.708C98.9844 19.996 97.4244 21.172 97.4244 23.284ZM102.152 24.46C101.12 24.46 100.616 23.788 100.616 23.092C100.616 22.18 101.264 21.724 102.08 21.604L104.744 21.196V21.724C104.744 23.812 103.496 24.46 102.152 24.46ZM121.738 9.124H118.594V15.868C118.258 15.244 117.298 14.404 115.258 14.404C111.922 14.404 109.594 17.116 109.594 20.572C109.594 24.148 111.994 26.788 115.354 26.788C116.938 26.788 118.138 26.068 118.666 25.132C118.666 25.684 118.738 26.26 118.786 26.5H121.834C121.786 26.02 121.738 25.156 121.738 24.364V9.124ZM112.81 20.572C112.81 18.46 114.106 17.26 115.738 17.26C117.37 17.26 118.642 18.436 118.642 20.548C118.642 22.684 117.37 23.932 115.738 23.932C114.058 23.932 112.81 22.684 112.81 20.572ZM127.482 26.5V9.124H124.29V26.5H127.482ZM132.511 19.252C132.583 18.172 133.495 16.924 135.151 16.924C136.975 16.924 137.743 18.076 137.791 19.252H132.511ZM138.103 22.324C137.719 23.38 136.903 24.124 135.415 24.124C133.831 24.124 132.511 22.996 132.439 21.436H140.887C140.887 21.388 140.935 20.908 140.935 20.452C140.935 16.66 138.751 14.332 135.103 14.332C132.079 14.332 129.295 16.78 129.295 20.548C129.295 24.532 132.151 26.86 135.391 26.86C138.295 26.86 140.167 25.156 140.767 23.116L138.103 22.324ZM146.806 11.164H143.926V12.82C143.926 13.876 143.35 14.692 142.102 14.692H141.502V17.524H143.638V23.02C143.638 25.3 145.078 26.668 147.382 26.668C148.318 26.668 148.894 26.5 149.182 26.38V23.74C149.014 23.788 148.582 23.836 148.198 23.836C147.286 23.836 146.806 23.5 146.806 22.468V17.524H149.182V14.692H146.806V11.164ZM155.18 11.164H152.3V12.82C152.3 13.876 151.724 14.692 150.476 14.692H149.876V17.524H152.012V23.02C152.012 25.3 153.452 26.668 155.756 26.668C156.692 26.668 157.268 26.5 157.556 26.38V23.74C157.388 23.788 156.956 23.836 156.572 23.836C155.66 23.836 155.18 23.5 155.18 22.468V17.524H157.556V14.692H155.18V11.164ZM161.781 19.252C161.853 18.172 162.765 16.924 164.421 16.924C166.245 16.924 167.013 18.076 167.061 19.252H161.781ZM167.373 22.324C166.989 23.38 166.173 24.124 164.685 24.124C163.101 24.124 161.781 22.996 161.709 21.436H170.157C170.157 21.388 170.205 20.908 170.205 20.452C170.205 16.66 168.021 14.332 164.373 14.332C161.349 14.332 158.565 16.78 158.565 20.548C158.565 24.532 161.421 26.86 164.661 26.86C167.565 26.86 169.437 25.156 170.037 23.116L167.373 22.324ZM179.241 14.644C179.001 14.62 178.761 14.596 178.497 14.596C177.489 14.596 175.857 14.884 175.137 16.444V14.692H172.041V26.5H175.233V21.1C175.233 18.556 176.649 17.764 178.281 17.764C178.569 17.764 178.881 17.788 179.241 17.86V14.644Z" fill="#101010"/>
</svg>
