<svg width="180" height="39" viewBox="0 0 180 39" fill="none" xmlns="http://www.w3.org/2000/svg">
<path fill-rule="evenodd" clip-rule="evenodd" d="M33.4194 7.12485C30.0556 2.77919 24.8425 0.687869 19.4602 0.514807C13.8304 0.333786 8.05298 1.78883 4.36748 6.19071C0.51544 10.7915 -0.893455 17.1918 0.56145 23.0871C1.97513 28.8152 6.47181 32.8779 11.6 35.4969C16.8082 38.1567 22.8839 39.8127 28.0883 37.145C33.2385 34.5051 35.5762 28.519 36.6139 22.6754C37.5877 17.1919 36.7893 11.4784 33.4194 7.12485ZM27.4862 9.69989L27.4382 10.8016C27.4234 11.1415 27.3495 11.5208 27.243 11.9179C27.1444 12.2855 27.0489 12.6308 26.9563 12.9537L26.9487 12.9803L26.9396 13.0065C26.9209 13.0606 26.8942 13.1902 26.9094 13.4339C26.9356 13.7631 26.947 14.0624 26.9384 14.3235L26.9315 14.5347L26.842 14.725C26.6627 15.1058 26.4629 15.5969 26.243 16.2052L26.2404 16.2123C26.0248 16.7951 25.8125 17.4275 25.6037 18.1103L25.6022 18.1153L24.9756 20.1274C24.8156 20.7068 24.6906 21.2297 24.5991 21.6977C24.6573 22.0513 24.7134 22.35 24.7669 22.5961C24.8624 22.9311 24.9389 23.2574 24.9947 23.5742C25.0612 23.9089 25.094 24.2573 25.0968 24.6168C25.0999 24.9915 25.0637 25.4184 24.9973 25.8874L24.9392 26.2973L24.616 26.545C24.5189 26.6194 24.4281 26.6862 24.3483 26.7403L24.3443 26.7429L24.3443 26.743C24.3251 26.7559 24.2937 26.7772 24.2535 26.8016C24.1971 26.8477 24.1501 26.8789 24.1262 26.8948L24.1222 26.8974C24.0412 26.9512 23.9506 27.0033 23.8592 27.0523C23.6822 27.1573 23.4556 27.2452 23.19 27.2509C22.8941 27.2572 22.6294 27.1594 22.4162 27.0071C22.3065 26.9887 22.1725 26.9601 22.0451 26.9104C21.9761 26.8835 21.8283 26.8205 21.686 26.689C21.5866 26.5973 21.4592 26.4384 21.3928 26.2221C21.062 25.7646 20.7829 25.3048 20.5611 24.8424L20.5459 24.8108L20.5329 24.7781C20.3615 24.3464 20.1995 23.9276 20.047 23.5215L20.0426 23.5096L20.0384 23.4976C19.8866 23.0604 19.7463 22.6244 19.6174 22.1896L19.6105 22.1661L19.6046 22.1422C19.5148 21.775 19.394 21.3986 19.2408 21.013L19.2349 20.998L19.2294 20.9828C19.0396 20.457 18.7932 19.8359 18.4882 19.1173L18.4804 19.099L18.4733 19.0804C18.2045 18.371 17.8897 17.6763 17.5287 16.9961C17.1785 16.3362 16.7805 15.7389 16.3358 15.2018L16.3294 15.1941L16.3231 15.1863C16.2137 15.0486 16.1053 14.9272 15.9981 14.8206C15.4879 16.1141 15.1101 17.3927 14.8622 18.6569C14.5698 20.2601 14.4659 21.7753 14.544 23.2056L14.5464 23.2504L14.5449 23.2953C14.5408 23.4212 14.5323 23.5486 14.5154 23.6677C14.5015 23.7659 14.471 23.9464 14.3828 24.1266C14.3615 24.1699 14.321 24.2584 14.2572 24.4038C14.1885 24.5754 14.1068 24.773 14.0126 24.9959C13.9581 25.1658 13.89 25.3511 13.8006 25.5256C13.7786 25.7807 13.7514 26.0238 13.7187 26.2544C13.6635 26.6445 13.5205 27.1101 13.1488 27.4528L12.15 28.3739L11.6076 27.1128C11.0052 25.7122 10.6673 24.2248 10.5912 22.6578L10.5907 22.6485L10.5904 22.6392C10.5439 21.1058 10.6416 19.5705 10.8831 18.0342L10.8843 18.0264L10.8856 18.0188C11.1478 16.5014 11.5097 15.0328 11.9719 13.6136C12.4169 12.2344 12.8682 10.975 13.3262 9.83672C13.3829 9.61141 13.5076 9.34131 13.7738 9.13729L13.8511 9.07808L13.9382 9.03558C13.9529 9.02842 13.9618 9.02331 13.9661 9.02073L14.0779 8.93513C14.2643 8.79236 14.47 8.71073 14.6718 8.67359L14.7314 8.66261L14.792 8.65931C14.8624 8.65547 14.9259 8.65106 14.9828 8.64619C15.1955 8.59434 15.4079 8.5902 15.6103 8.62042C15.879 8.66055 16.1578 8.79076 16.3702 9.04582C16.5686 9.28405 16.6435 9.55253 16.6706 9.75925C16.6858 9.8748 16.7001 9.93941 16.7074 9.9672C16.7742 10.1549 16.7988 10.3455 16.8111 10.4869C16.8262 10.6601 16.8297 10.8542 16.8259 11.0606C17.6237 11.405 18.3263 11.8975 18.9227 12.5398C19.6636 13.2923 20.2841 14.1312 20.7812 15.0551C21.159 15.729 21.4892 16.412 21.7711 17.1042C21.8798 16.7394 21.989 16.3718 22.0985 16.0013L22.1027 15.9872L22.1072 15.9732C22.3492 15.2339 22.5733 14.5394 22.7795 13.8899L22.7835 13.8772L22.7878 13.8646C23.0199 13.1947 23.195 12.6754 23.3146 12.3036L23.3202 12.2863L23.3264 12.2692C23.4692 11.874 23.6633 11.5036 23.9315 11.1973C24.1348 10.9651 24.354 10.7567 24.5901 10.5758C24.6013 10.5672 24.6489 10.5259 24.729 10.4206L24.7594 10.3808L24.7935 10.3443C25.0408 10.0795 25.3643 9.8717 25.759 9.80296C25.8251 9.7875 25.8953 9.7734 25.9656 9.76366C26.0341 9.75419 26.1676 9.7389 26.3203 9.76012L26.3296 9.76041C26.3464 9.76076 26.3739 9.76049 26.4139 9.7583L27.4862 9.69989ZM15.7057 9.89276C15.6842 9.72947 15.6098 9.6359 15.4822 9.61203C15.6092 9.63618 15.6834 9.72969 15.7047 9.89258C15.7268 10.0609 15.7538 10.1946 15.7857 10.2937C15.8368 10.4192 15.8587 10.6701 15.8513 11.0463C15.8472 11.3993 15.8258 11.6319 15.787 11.744C16.7566 12.0303 17.5699 12.529 18.2268 13.2401C18.9095 13.9316 19.4779 14.7002 19.9321 15.5462C20.4088 16.3954 20.8035 17.2561 21.1162 18.128C21.4323 18.9769 21.7068 19.7135 21.9398 20.3377L21.9401 20.3362C21.7584 19.8493 21.5514 19.2941 21.3192 18.6707L21.1172 18.1282C20.8044 17.2563 20.4097 16.3956 19.9331 15.5463C19.4789 14.7004 18.9104 13.9317 18.2277 13.2403C17.7365 12.7086 17.1579 12.2956 16.4918 12.0014C16.2671 11.9021 16.0325 11.8164 15.7879 11.7442C15.7936 11.7278 15.7989 11.7089 15.8038 11.6875C15.8326 11.5617 15.8488 11.348 15.8523 11.0464C15.8596 10.6703 15.8377 10.4194 15.7866 10.2939C15.7547 10.1948 15.7277 10.0611 15.7057 9.89276ZM26.3033 11.6522C26.4006 11.2896 26.4543 10.9912 26.4646 10.757L26.4655 10.7569C26.4553 10.9912 26.4016 11.2897 26.3043 11.6524L26.2754 11.7596C26.1884 12.0823 26.104 12.3862 26.0223 12.6713C25.9446 12.8955 25.9166 13.1743 25.9383 13.5076C25.9633 13.8179 25.9723 14.0786 25.9653 14.2897C25.7683 14.7083 25.5566 15.2308 25.3301 15.8572C25.107 16.4605 24.8885 17.1116 24.6748 17.8107L24.0433 19.8384C23.8553 20.5177 23.7108 21.1328 23.6099 21.6836C23.6826 22.1425 23.754 22.5304 23.8239 22.8473C23.9163 23.1677 23.9878 23.4731 24.0385 23.7636C24.0925 24.031 24.1207 24.3182 24.1232 24.6251C24.1257 24.932 24.0958 25.3048 24.0337 25.7435C23.8535 25.8816 23.7392 25.9589 23.691 25.9752C23.662 26.0181 23.5606 26.0855 23.3869 26.1774C23.288 26.2397 23.1948 26.2625 23.1071 26.2459C23.1945 26.2622 23.2874 26.2393 23.3859 26.1772C23.5596 26.0853 23.661 26.0179 23.69 25.9751C23.7383 25.9587 23.8525 25.8814 24.0328 25.7433C24.0949 25.3046 24.1247 24.9318 24.1223 24.6249C24.1198 24.318 24.0916 24.0308 24.0376 23.7634C23.9869 23.4729 23.9154 23.1675 23.823 22.8472C23.753 22.5302 23.6817 22.1423 23.6089 21.6834C23.7099 21.1326 23.8543 20.5176 24.0423 19.8383L24.6738 17.8105C24.8876 17.1115 25.106 16.4603 25.3292 15.857C25.5556 15.2306 25.7674 14.7081 25.9644 14.2896C25.9713 14.0784 25.9623 13.8177 25.9374 13.5074C25.9157 13.1741 25.9437 12.8953 26.0213 12.6711C26.1121 12.3546 26.2061 12.0149 26.3033 11.6522ZM22.6152 26.0268C22.6258 26.0284 22.6364 26.0302 22.6469 26.0322C22.6367 26.0302 22.6265 26.0285 22.6161 26.0269C22.5908 26.0232 22.5671 26.0193 22.5451 26.0152C22.5669 26.0192 22.5902 26.023 22.6152 26.0268ZM15.5614 13.3372L15.5622 13.3376C14.7902 15.0614 14.2382 16.7709 13.9064 18.4661C13.6003 20.1416 13.4888 21.7401 13.5718 23.2615C13.5649 23.4727 13.5452 23.6113 13.513 23.6772C13.4807 23.7431 13.4306 23.8535 13.3627 24.0084C13.2916 24.1864 13.2044 24.3974 13.1009 24.6413C13.048 24.8112 12.9952 24.9486 12.9424 25.0533C12.9113 25.1152 12.8801 25.1658 12.849 25.2049C12.8257 25.5316 12.7944 25.8334 12.7552 26.1105C12.716 26.3876 12.6303 26.587 12.4983 26.7088L12.498 26.708C12.6297 26.5862 12.7151 26.387 12.7543 26.1103C12.7935 25.8332 12.8247 25.5314 12.848 25.2048C12.9318 25.0994 13.0158 24.9115 13.1 24.6411C13.2034 24.3972 13.2907 24.1862 13.3618 24.0082C13.4297 23.8533 13.4797 23.7429 13.512 23.677C13.5443 23.6111 13.5639 23.4725 13.5709 23.2614C13.4878 21.7399 13.5993 20.1414 13.9054 18.4659C14.2373 16.7706 14.7893 15.0611 15.5614 13.3372Z" fill="white"/>
<path d="M61.512 27V9.984H58.2V21.24L51.12 9.984H46.992V27H50.304V14.928L58.032 27H61.512ZM69.6653 24.456C68.1053 24.456 66.6653 23.304 66.6653 21.096C66.6653 18.864 68.1053 17.736 69.6653 17.736C71.2253 17.736 72.6653 18.864 72.6653 21.096C72.6653 23.328 71.2253 24.456 69.6653 24.456ZM69.6653 14.832C66.1373 14.832 63.4733 17.448 63.4733 21.096C63.4733 24.72 66.1373 27.36 69.6653 27.36C73.1933 27.36 75.8573 24.72 75.8573 21.096C75.8573 17.448 73.1933 14.832 69.6653 14.832ZM80.8684 27V20.088C80.8684 18.792 81.6844 17.76 83.0764 17.76C84.5164 17.76 85.1644 18.72 85.1644 19.992V27H88.3324V20.088C88.3324 18.816 89.1484 17.76 90.5164 17.76C91.9804 17.76 92.6044 18.72 92.6044 19.992V27H95.7004V19.344C95.7004 16.176 93.6124 14.856 91.4284 14.856C89.8684 14.856 88.6204 15.384 87.6844 16.824C87.0844 15.552 85.7884 14.856 84.1804 14.856C82.8844 14.856 81.3724 15.48 80.7244 16.632V15.192H77.6764V27H80.8684ZM97.4244 23.784C97.4244 25.632 98.9604 27.336 101.48 27.336C103.232 27.336 104.36 26.52 104.96 25.584C104.96 26.04 105.008 26.688 105.08 27H108.008C107.936 26.592 107.864 25.752 107.864 25.128V19.32C107.864 16.944 106.472 14.832 102.728 14.832C99.5604 14.832 97.8564 16.872 97.6644 18.72L100.496 19.32C100.592 18.288 101.36 17.4 102.752 17.4C104.096 17.4 104.744 18.096 104.744 18.936C104.744 19.344 104.528 19.68 103.856 19.776L100.952 20.208C98.9844 20.496 97.4244 21.672 97.4244 23.784ZM102.152 24.96C101.12 24.96 100.616 24.288 100.616 23.592C100.616 22.68 101.264 22.224 102.08 22.104L104.744 21.696V22.224C104.744 24.312 103.496 24.96 102.152 24.96ZM121.738 9.624H118.594V16.368C118.258 15.744 117.298 14.904 115.258 14.904C111.922 14.904 109.594 17.616 109.594 21.072C109.594 24.648 111.994 27.288 115.354 27.288C116.938 27.288 118.138 26.568 118.666 25.632C118.666 26.184 118.738 26.76 118.786 27H121.834C121.786 26.52 121.738 25.656 121.738 24.864V9.624ZM112.81 21.072C112.81 18.96 114.106 17.76 115.738 17.76C117.37 17.76 118.642 18.936 118.642 21.048C118.642 23.184 117.37 24.432 115.738 24.432C114.058 24.432 112.81 23.184 112.81 21.072ZM127.482 27V9.624H124.29V27H127.482ZM132.511 19.752C132.583 18.672 133.495 17.424 135.151 17.424C136.975 17.424 137.743 18.576 137.791 19.752H132.511ZM138.103 22.824C137.719 23.88 136.903 24.624 135.415 24.624C133.831 24.624 132.511 23.496 132.439 21.936H140.887C140.887 21.888 140.935 21.408 140.935 20.952C140.935 17.16 138.751 14.832 135.103 14.832C132.079 14.832 129.295 17.28 129.295 21.048C129.295 25.032 132.151 27.36 135.391 27.36C138.295 27.36 140.167 25.656 140.767 23.616L138.103 22.824ZM146.806 11.664H143.926V13.32C143.926 14.376 143.35 15.192 142.102 15.192H141.502V18.024H143.638V23.52C143.638 25.8 145.078 27.168 147.382 27.168C148.318 27.168 148.894 27 149.182 26.88V24.24C149.014 24.288 148.582 24.336 148.198 24.336C147.286 24.336 146.806 24 146.806 22.968V18.024H149.182V15.192H146.806V11.664ZM155.18 11.664H152.3V13.32C152.3 14.376 151.724 15.192 150.476 15.192H149.876V18.024H152.012V23.52C152.012 25.8 153.452 27.168 155.756 27.168C156.692 27.168 157.268 27 157.556 26.88V24.24C157.388 24.288 156.956 24.336 156.572 24.336C155.66 24.336 155.18 24 155.18 22.968V18.024H157.556V15.192H155.18V11.664ZM161.781 19.752C161.853 18.672 162.765 17.424 164.421 17.424C166.245 17.424 167.013 18.576 167.061 19.752H161.781ZM167.373 22.824C166.989 23.88 166.173 24.624 164.685 24.624C163.101 24.624 161.781 23.496 161.709 21.936H170.157C170.157 21.888 170.205 21.408 170.205 20.952C170.205 17.16 168.021 14.832 164.373 14.832C161.349 14.832 158.565 17.28 158.565 21.048C158.565 25.032 161.421 27.36 164.661 27.36C167.565 27.36 169.437 25.656 170.037 23.616L167.373 22.824ZM179.241 15.144C179.001 15.12 178.761 15.096 178.497 15.096C177.489 15.096 175.857 15.384 175.137 16.944V15.192H172.041V27H175.233V21.6C175.233 19.056 176.649 18.264 178.281 18.264C178.569 18.264 178.881 18.288 179.241 18.36V15.144Z" fill="white"/>
</svg>
