<svg width="165" height="72" viewBox="0 0 165 72" fill="none" xmlns="http://www.w3.org/2000/svg">
<g clip-path="url(#clip0)">
<path d="M50.9384 45.6919H54.5841V31.0064H50.9384V32.1874C47.4981 29.7997 42.7741 30.647 40.3864 34.113C37.9987 37.5789 38.846 42.2773 42.3119 44.665C44.905 46.4621 48.3453 46.4621 50.9641 44.665V45.6919H50.9384ZM42.5687 38.4262C42.5687 36.1155 44.4429 34.2157 46.7535 34.2157C49.0642 34.2157 50.9641 36.0899 50.9641 38.4005C50.9641 40.7112 49.0899 42.611 46.7792 42.611C44.4429 42.611 42.5687 40.7368 42.5687 38.4262ZM68.0115 26V32.1874C64.5712 29.7997 59.8472 30.647 57.4596 34.113C55.0719 37.5789 55.9191 42.2773 59.3851 44.665C61.9782 46.4621 65.4185 46.4621 68.0372 44.665V45.6919H71.6829V26H68.0115ZM59.6418 38.4262C59.6418 36.1155 61.516 34.2157 63.8267 34.2157C66.1373 34.2157 68.0372 36.0899 68.0372 38.4005C68.0372 40.7112 66.163 42.611 63.8524 42.611C61.516 42.611 59.6418 40.7625 59.6418 38.4262ZM77.0744 29.6457V26H73.4287V29.6457H77.0744ZM77.0744 45.6919V31.0064H73.4287V45.6919H77.0744ZM90.5019 26V32.1874C87.0616 29.7997 82.3376 30.647 79.9499 34.113C77.5622 37.5533 78.4095 42.2773 81.8755 44.665C84.4685 46.4621 87.9088 46.4621 90.5276 44.665V45.6919H94.1733V26H90.5019ZM82.1322 38.4262C82.1322 36.1155 84.0064 34.2413 86.3171 34.2413C88.6277 34.2413 90.5019 36.1155 90.5019 38.4262C90.5019 40.7368 88.6277 42.611 86.3171 42.611C84.0064 42.611 82.1322 40.7625 82.1065 38.4519C82.1322 38.4262 82.1322 38.4262 82.1322 38.4262ZM107.575 45.6919H111.221V31.0064H107.575V32.1874C104.135 29.7997 99.4108 30.647 97.0231 34.113C94.6354 37.5533 95.4827 42.2773 98.9486 44.665C101.542 46.4621 104.982 46.4621 107.601 44.665L107.575 45.6919ZM99.2054 38.4262C99.2054 36.1155 101.08 34.2157 103.39 34.2157C105.701 34.2157 107.601 36.0899 107.601 38.4005C107.601 40.7112 105.727 42.611 103.416 42.611C101.105 42.611 99.231 40.7625 99.231 38.4519C99.2054 38.4262 99.2054 38.4262 99.2054 38.4262ZM112.581 40.9166C112.71 43.8691 115.226 45.9743 119.462 45.9743C122.902 45.9743 125.752 44.4852 125.752 41.1733C125.752 38.8626 124.469 37.5276 121.465 36.9371L119.128 36.475C117.639 36.1926 116.587 35.9101 116.587 35.0116C116.587 34.0359 117.588 33.5995 118.846 33.5995C120.694 33.5995 121.439 34.5237 121.49 35.6021H125.162C124.956 32.7266 122.671 30.801 118.949 30.801C115.123 30.801 112.864 32.9063 112.864 35.6277C112.864 38.9653 115.56 39.5045 117.896 39.9409L119.822 40.2747C121.208 40.5315 121.798 40.9422 121.798 41.7381C121.798 42.457 121.105 43.1759 119.462 43.1759C117.074 43.1759 116.304 41.9435 116.279 40.8652L112.581 40.9166Z" fill="black"/>
</g>
<defs>
<clipPath id="clip0">
<rect width="86.7266" height="20" fill="white" transform="translate(39 26)"/>
</clipPath>
</defs>
</svg>
