<svg width="164" height="72" viewBox="0 0 164 72" fill="none" xmlns="http://www.w3.org/2000/svg">
<path fill-rule="evenodd" clip-rule="evenodd" d="M111.117 24H107.891V43.4409C107.891 44.7097 107.826 46.5806 107.762 47.7204H110.536L110.708 45.6344H110.837C111.547 47.1183 112.493 48 114.127 48C116.88 48 119.31 45.0753 119.31 39.1183C119.31 34.0215 117.525 30.7957 114.686 30.7957C113.203 30.7957 112.041 31.4409 111.181 32.9462H111.117V24ZM111.246 42.8602C111.16 42.5807 111.117 42.215 111.117 41.828V37.1828C111.117 36.8387 111.16 36.3871 111.224 36.043C111.461 34.8387 112.321 33.5699 113.375 33.5699C115.289 33.5699 116.041 36.1505 116.041 39.3333C116.041 42.7527 115.31 45.2903 113.396 45.2903C112.751 45.2903 111.762 44.8817 111.246 42.8602ZM92.4506 43.4409V24.0215H89.2248V32.6882H89.1603C88.5796 31.4193 87.5044 30.7957 86.171 30.7957C83.5259 30.7957 81.0312 33.5699 81.0312 39.4624C81.0312 44.6452 82.9237 48 85.999 48C87.6979 48 88.9667 46.8602 89.5044 45.6989H89.5904L89.8054 47.7204H92.5796C92.5151 46.5591 92.4506 44.7097 92.4506 43.4409ZM89.1818 36.3656C89.2248 36.7097 89.2248 37.0968 89.2248 37.3979V41.8495C89.2248 42.2151 89.1818 42.6237 89.1173 42.9032C88.5581 44.8817 87.5904 45.2688 86.8807 45.2688C85.1603 45.2688 84.2786 42.8602 84.2786 39.4409C84.2786 36.3656 84.9667 33.5484 86.9882 33.5484C88.1495 33.5484 89.0097 34.8602 89.1818 36.3656ZM69.7199 47.7218L71.0962 41.3562H75.8919L77.2253 47.7218H80.4081L75.5048 24.625H71.7629L66.5586 47.7218H69.7199ZM74.4511 33.2487L75.5048 38.7756H71.4833L72.5801 33.2487C72.8812 31.7863 73.2253 29.6573 73.4618 27.9798H73.5909C73.8274 29.6143 74.15 31.6788 74.4511 33.2487ZM100.131 48.0012C96.7972 48.0012 94.4102 45.1625 94.4102 39.442C94.4102 33.3775 97.2489 30.7969 100.303 30.7969C103.593 30.7969 105.959 33.7431 105.959 39.356C105.959 45.9797 102.711 48.0012 100.174 48.0012H100.131ZM100.217 45.4635C102.195 45.4635 102.647 41.9367 102.647 39.399C102.647 36.9044 102.195 33.3345 100.152 33.3345C98.0231 33.3345 97.6145 36.9044 97.6145 39.399C97.6145 42.1732 98.0876 45.4635 100.195 45.4635H100.217ZM124.064 40.0423C124.107 44.3218 125.956 45.3971 127.892 45.3971C129.053 45.3971 130.042 45.1175 130.773 44.7734L131.246 47.096C130.257 47.6121 128.752 47.8917 127.268 47.8917C123.096 47.8917 120.902 44.7304 120.902 39.5906C120.902 34.1498 123.397 30.7734 126.859 30.7734C130.322 30.7734 131.935 34.1068 131.935 38.2788C131.935 38.9087 131.909 39.3598 131.887 39.7402L131.887 39.7405C131.881 39.8535 131.875 39.9603 131.87 40.0638L124.064 40.0423ZM128.881 37.7412C128.924 34.7949 127.892 33.225 126.623 33.225C124.945 33.225 124.193 35.6552 124.085 37.7412H128.881ZM58.0446 24.6875H48.4102L58.0446 47.7198V24.6875ZM41.6344 24.6875H32V47.7198L41.6344 24.6875ZM51.1605 47.7212L45.01 33.1836L40.8164 43.0976H45.2895L47.139 47.7212H51.1605ZM131.657 30.7539C132.066 30.7539 132.388 31.0765 132.388 31.4851C132.388 31.8937 132.066 32.2378 131.657 32.2378C131.248 32.2378 130.926 31.9152 130.926 31.4851C130.926 31.0765 131.248 30.7539 131.657 30.7539ZM131.657 30.8614C131.334 30.8614 131.055 31.141 131.055 31.4851C131.055 31.8292 131.313 32.1088 131.657 32.1088C131.98 32.1088 132.259 31.8292 132.259 31.4851C132.259 31.141 132.001 30.8614 131.657 30.8614ZM131.528 31.9152H131.399V31.098C131.427 31.098 131.455 31.0939 131.487 31.0893C131.528 31.0833 131.575 31.0765 131.635 31.0765C131.764 31.0765 131.851 31.098 131.894 31.141C131.937 31.184 131.98 31.227 131.98 31.3131C131.98 31.4206 131.915 31.4851 131.808 31.5066C131.872 31.5281 131.937 31.5926 131.937 31.7001C131.947 31.7646 131.958 31.8076 131.966 31.8398L131.966 31.8399C131.974 31.8722 131.98 31.8937 131.98 31.9152H131.851C131.829 31.8937 131.808 31.8077 131.786 31.7001C131.764 31.5926 131.721 31.5496 131.614 31.5496H131.528V31.9152ZM131.528 31.4636H131.614C131.721 31.4636 131.808 31.4206 131.808 31.3131C131.808 31.2485 131.764 31.1625 131.614 31.1625H131.528V31.4636ZM60.0414 25.4187C60.0414 25.0101 59.7189 24.6875 59.3103 24.6875C58.9017 24.6875 58.5576 25.0101 58.5791 25.4187C58.5791 25.8488 58.9017 26.1714 59.3103 26.1714C59.7189 26.1714 60.0414 25.8273 60.0414 25.4187ZM58.6866 25.4187C58.6866 25.0746 58.9662 24.795 59.2888 24.795C59.6328 24.795 59.8909 25.0746 59.8909 25.4187C59.8909 25.7628 59.6113 26.0423 59.2888 26.0423C58.9447 26.0423 58.6866 25.7628 58.6866 25.4187ZM59.0307 25.8488H59.1597V25.4832H59.2457C59.3533 25.4832 59.3963 25.5262 59.4178 25.6337C59.4393 25.7413 59.4608 25.8273 59.4823 25.8488H59.6113C59.6113 25.8273 59.606 25.8058 59.5979 25.7735C59.5898 25.7413 59.5791 25.6982 59.5683 25.6337C59.5683 25.5262 59.5038 25.4617 59.4393 25.4402C59.5468 25.4187 59.6113 25.3542 59.6113 25.2466C59.6113 25.1606 59.5683 25.1176 59.5253 25.0746C59.4823 25.0316 59.3963 25.0101 59.2673 25.0101C59.2067 25.0101 59.1597 25.0169 59.1188 25.0229C59.087 25.0275 59.0589 25.0316 59.0307 25.0316V25.8488ZM59.2457 25.3972H59.1597V25.0961H59.2457C59.3963 25.0961 59.4393 25.1821 59.4393 25.2466C59.4393 25.3542 59.3533 25.3972 59.2457 25.3972Z" fill="black"/>
</svg>
