<svg width="164" height="72" viewBox="0 0 164 72" fill="none" xmlns="http://www.w3.org/2000/svg">
<path fill-rule="evenodd" clip-rule="evenodd" d="M50.3422 43.7661C51.043 43.8835 51.51 43.6504 51.8604 43.4165V43.3007C51.6273 43.4165 51.3934 43.533 50.9257 43.533C49.5241 43.6504 49.7579 41.5487 49.6414 39.7966C49.6414 36.1768 47.6562 35.5925 46.3711 35.4759C46.3711 35.4759 46.9554 35.3594 47.6562 35.1255C48.7067 34.7751 49.8752 33.8404 49.8752 31.8553C49.8752 29.9867 48.7067 28.4685 46.2546 28.4685H40.7654V28.5851H42.0497V43.533H40.7654V43.6504H44.9695V43.533H43.9183V35.5909H45.2026C47.5381 35.5909 47.5381 37.5761 47.6555 39.6785C47.7728 41.7818 48.3563 43.5323 50.3422 43.7661ZM43.919 28.5843H45.3207C47.0727 28.4677 48.0066 29.8686 47.8901 31.7372C47.8901 32.438 47.7736 35.5909 44.9711 35.4744H43.9198V28.5843H43.919ZM110.721 43.7661C111.422 43.8835 111.888 43.6504 112.239 43.4165L112.122 43.3007C112.006 43.4165 111.772 43.533 111.304 43.533C109.903 43.6504 110.137 41.5487 110.019 39.7966C110.019 36.1768 108.035 35.5925 106.75 35.4759C106.75 35.4759 107.333 35.3594 107.917 35.1255C109.085 34.7751 110.252 33.8404 110.252 31.8553C110.252 29.9867 109.085 28.4685 106.632 28.4685H101.027V28.5851H102.427V43.533H101.027V43.6504H105.346V43.533H104.295V35.5909H105.58C107.916 35.5909 107.916 37.5761 108.034 39.6785C108.151 41.7818 108.735 43.5323 110.721 43.7661ZM104.297 28.5843H105.699C107.45 28.4677 108.385 29.8686 108.267 31.7372C108.267 32.438 108.151 35.5909 105.232 35.4744H104.297V28.5843ZM27.2182 35.8248C27.2182 40.1463 30.1373 44 33.7579 44C37.2612 44 40.2976 39.9124 40.2976 35.8248C40.2976 31.6206 37.4951 28.1173 33.7579 28C30.3719 28 27.2182 31.6206 27.2182 35.8248ZM29.3207 35.8248C29.3207 32.7884 29.7876 28.1173 33.7587 28.1173C37.6124 28.1173 38.0794 32.7892 38.0794 35.8248C38.1959 38.5108 37.6117 43.8835 33.7587 43.8835C30.2546 43.8835 29.3207 39.3281 29.3207 35.8248ZM68.3273 35.8248C68.3273 40.1463 71.2472 44 74.867 44C78.4877 44 81.4075 39.9124 81.4075 35.8248C81.4075 31.6206 78.605 28.1173 74.867 28C71.5968 28 68.3273 31.6206 68.3273 35.8248ZM70.4298 35.8248C70.5463 32.7884 71.0133 28.1173 74.867 28.1173C78.8381 28.1173 79.305 32.7892 79.305 35.8248C79.305 38.5108 78.8373 43.8835 74.867 43.8835C71.3637 43.8835 70.4298 39.3281 70.4298 35.8248ZM20.562 43.7661V37.4603H21.7298V37.343H17.4083V37.4595H18.6934V40.9636C18.6934 42.4802 16.9413 43.7653 15.5397 43.7653C11.9198 43.7653 11.219 39.2108 11.219 35.7075C11.219 34.0727 11.219 28.1165 15.657 28.1165C18.5768 28.1165 19.8612 32.3207 19.8612 32.3207V28.1165C19.6281 28.5843 19.1603 28.8174 18.6934 28.8174C17.6422 28.8174 17.4083 28 15.657 28.1165C12.3868 28.1165 9.11732 31.3868 9 35.7075C9 41.5471 13.438 43.9992 15.5397 43.9992C17.1752 43.9992 17.9926 43.0661 18.5761 42.7141C19.3942 42.481 20.562 43.7661 20.562 43.7661Z" fill="black"/>
<path fill-rule="evenodd" clip-rule="evenodd" d="M62.1373 43.7663V37.4605H63.3051V37.3431H58.9844V37.4597H60.2695V40.9638C60.2695 42.5985 58.6347 43.7655 57.1166 43.7655C53.4959 43.7655 52.7959 39.3283 52.7959 35.8242C52.7959 34.0721 52.7959 28.2332 57.2339 28.2332C60.2702 28.2332 61.438 32.4374 61.438 32.4374V28.1167C61.2042 28.701 60.7372 28.8175 60.2703 28.8175C59.219 28.8175 58.9851 28.1167 57.2339 28.1167C53.8471 28.0001 50.6934 31.3869 50.6934 35.8242C50.5769 41.663 55.0141 43.9994 57.1166 43.9994C58.7513 43.9994 59.5686 43.0662 60.2695 42.8324C61.086 42.4812 62.1373 43.7663 62.1373 43.7663ZM134.894 38.5109H130.107L132.56 31.1538L134.894 38.5109ZM141.786 43.6497V43.5324H140.501V29.4018L149.727 43.8836H149.844V28.5844H151.011V28.4679H148.325V28.5844H149.726V40.1464L142.252 28.3506L138.981 28.4671V28.5836H140.384V43.5316H138.513L133.494 28.1167H133.378L128.122 43.5316H125.553V28.5844H127.071V28.4679H123.917L119.83 40.6126L115.508 28.4671H112.473V28.5836H113.758V43.5316H112.473V43.649H115.392V43.5316H113.991V30.1018L118.895 43.7655H119.013L123.566 29.9853V43.5316H122.281V43.649H129.756V43.5316H128.354L129.99 38.6267H135.012L136.53 43.5316H134.778V43.649H141.786V43.6497ZM95.5389 38.5109H90.6339L93.2034 31.1538L95.5389 38.5109ZM101.144 43.5324H99.2753L94.1365 28.1175H94.0207L88.7654 43.5324H87.3645V43.6497H90.4001V43.5324H88.9992L90.6339 38.6274H95.6555L97.2902 43.5324H95.4216V43.6497H101.144V43.5324ZM152.296 43.5324H151.011V43.6497H155.333V43.5324H154.048V28.5844H155.333V28.4679H151.011V28.5844H152.296V43.5324ZM64.824 43.5324H63.5389V43.6497H67.8596V43.5324H66.6918V28.5844H67.8596V28.4679H63.5389V28.5844H64.824V43.5324ZM23.3645 43.5324H22.0794V43.6497H26.4009V43.5324H25.2331V28.5844H26.4009V28.4679H22.0794V28.5844H23.3645V43.5324Z" fill="black"/>
</svg>
