<svg width="164" height="72" viewBox="0 0 164 72" fill="none" xmlns="http://www.w3.org/2000/svg">
<path d="M71.6945 32.1683C71.6945 32.7458 71.7569 33.2121 71.8662 33.5535C71.991 33.8969 72.1471 34.2715 72.3656 34.6773C72.4437 34.8002 72.4749 34.925 72.4749 35.0343C72.4749 35.1904 72.3812 35.3464 72.1783 35.5025L71.197 36.1561C71.0784 36.2416 70.9373 36.2904 70.7912 36.2965C70.6351 36.2965 70.4791 36.2185 70.3249 36.078C70.1153 35.8526 69.9279 35.6076 69.765 35.3464C69.5906 35.0472 69.4292 34.7406 69.2812 34.4275C68.0677 35.8595 66.5401 36.5755 64.7023 36.5755C63.3952 36.5755 62.3514 36.2029 61.5886 35.4557C60.8258 34.7065 60.4375 33.7115 60.4375 32.4649C60.4375 31.1421 60.9038 30.0652 61.8539 29.2575C62.804 28.4479 64.0643 28.0421 65.668 28.0421C66.1987 28.0421 66.743 28.0889 67.3185 28.1669C67.896 28.245 68.4891 28.3698 69.1095 28.5103V27.3729C69.1095 26.1887 68.8617 25.3634 68.3779 24.8815C67.8804 24.3977 67.0395 24.1656 65.8417 24.1656C65.2954 24.1656 64.7335 24.226 64.158 24.3665C63.5825 24.507 63.0206 24.6787 62.4763 24.8972C62.2988 24.9766 62.1163 25.0444 61.93 25.1001C61.8498 25.1259 61.7664 25.141 61.6822 25.1449C61.4637 25.1449 61.3545 24.9889 61.3545 24.663V23.9002C61.3545 23.6505 61.3857 23.4632 61.4637 23.354C61.5816 23.2123 61.7313 23.1007 61.9007 23.0281C62.4451 22.7472 63.0986 22.5131 63.8614 22.3258C64.6555 22.1225 65.4727 22.0235 66.2923 22.0312C68.1457 22.0312 69.4997 22.4526 70.3717 23.2935C71.2282 24.1324 71.6633 25.4103 71.6633 27.1232V32.1683H71.6945ZM65.3734 34.5368C65.8865 34.5368 66.4152 34.4431 66.9771 34.2559C67.537 34.0686 68.0365 33.7271 68.4559 33.2609C68.7056 32.9643 68.8929 32.6366 68.9866 32.262C69.0783 31.8894 69.1427 31.4367 69.1427 30.908V30.2545C68.67 30.1392 68.1913 30.0507 67.7087 29.9891C67.2234 29.9275 66.7347 29.8962 66.2455 29.8955C65.2017 29.8955 64.4389 30.0984 63.9239 30.5198C63.4108 30.9392 63.163 31.5304 63.163 32.3088C63.163 33.0404 63.3483 33.5867 63.7385 33.9593C64.1112 34.3495 64.6555 34.5368 65.3734 34.5368ZM77.879 36.2185C77.5981 36.2185 77.4108 36.1717 77.2859 36.0624C77.161 35.9688 77.0518 35.7503 76.9581 35.4557L73.3001 23.4164C73.229 23.2145 73.1818 23.005 73.1597 22.7921C73.1597 22.5424 73.2845 22.4019 73.5323 22.4019H75.0599C75.3545 22.4019 75.5574 22.4507 75.6647 22.558C75.7915 22.6516 75.8851 22.8701 75.9768 23.1667L78.595 33.4755L81.0239 23.1667C81.102 22.8545 81.1956 22.6516 81.3185 22.558C81.5057 22.4432 81.7236 22.3887 81.9428 22.4019H83.1875C83.4841 22.4019 83.687 22.4507 83.8118 22.558C83.9347 22.6516 84.0459 22.8701 84.1064 23.1667L86.5666 33.6003L89.2608 23.1667C89.3545 22.8545 89.4637 22.6516 89.573 22.558C89.7537 22.4432 89.9661 22.3886 90.1797 22.4019H91.6293C91.877 22.4019 92.0195 22.5287 92.0195 22.7921C92.0195 22.8701 92.0019 22.9482 91.9863 23.0418C91.9619 23.1749 91.9253 23.3055 91.877 23.432L88.1254 35.4693C88.0317 35.7815 87.9225 35.9824 87.7976 36.0761C87.6218 36.1889 87.415 36.2435 87.2065 36.2322H85.8662C85.5716 36.2322 85.3687 36.1853 85.2419 36.0761C85.119 35.9668 85.0097 35.7639 84.9492 35.4518L82.534 25.4083L80.1343 35.4362C80.0563 35.7483 79.9646 35.9512 79.8417 36.0605C79.7148 36.1697 79.4963 36.2166 79.2173 36.2166L77.879 36.2185ZM97.8879 36.638C97.0783 36.638 96.2686 36.5443 95.4902 36.359C94.7118 36.1717 94.105 35.9688 93.6992 35.7347C93.4495 35.5962 93.2798 35.4401 93.2173 35.2996C93.1565 35.1619 93.1246 35.0131 93.1237 34.8626V34.0686C93.1237 33.7428 93.2486 33.5867 93.4807 33.5867C93.5744 33.5867 93.668 33.6023 93.7617 33.6335C93.8553 33.6647 93.9958 33.7271 94.1519 33.7896C94.6806 34.0237 95.2561 34.209 95.8648 34.3339C96.4871 34.4587 97.0939 34.5212 97.7182 34.5212C98.6976 34.5212 99.4623 34.3495 99.991 34.0061C100.244 33.853 100.453 33.6355 100.595 33.3758C100.737 33.1161 100.808 32.8233 100.801 32.5273C100.806 32.3268 100.772 32.1272 100.7 31.94C100.628 31.7528 100.52 31.5817 100.381 31.4367C100.1 31.1421 99.5696 30.8768 98.8068 30.6271L96.5496 29.9247C95.4122 29.5677 94.5713 29.039 94.0582 28.3386C93.556 27.6922 93.2817 26.898 93.2778 26.0794C93.2778 25.4259 93.4202 24.8503 93.6992 24.3509C93.9802 23.8534 94.3528 23.4164 94.821 23.075C95.2893 22.716 95.816 22.4507 96.4403 22.2653C97.0646 22.078 97.7182 22 98.403 22C98.7444 22 99.1034 22.0156 99.4467 22.0624C99.8037 22.1093 100.13 22.1717 100.457 22.2341C100.769 22.3122 101.066 22.3902 101.345 22.4819C101.626 22.5755 101.844 22.6692 102.001 22.7628C102.184 22.8554 102.345 22.9889 102.469 23.153C102.569 23.3045 102.618 23.4846 102.607 23.6661V24.3977C102.607 24.7255 102.482 24.8972 102.248 24.8972C102.041 24.8734 101.84 24.8098 101.657 24.7099C100.716 24.2943 99.6967 24.0873 98.6683 24.1031C97.7806 24.1031 97.0783 24.2416 96.5964 24.5382C96.1126 24.8347 95.8648 25.2854 95.8648 25.9234C95.8648 26.3604 96.0209 26.7349 96.333 27.0295C96.6432 27.3261 97.2187 27.6226 98.044 27.888L100.256 28.5864C101.376 28.9454 102.188 29.4448 102.67 30.0828C103.152 30.7207 103.386 31.4523 103.386 32.262C103.386 32.9312 103.245 33.5399 102.982 34.0686C102.701 34.5992 102.326 35.0655 101.844 35.4401C101.361 35.8303 100.785 36.1093 100.116 36.3122C99.4136 36.5287 98.6839 36.638 97.8879 36.638ZM100.832 44.2076C95.7087 47.9925 88.2639 50 81.8648 50C72.8943 50 64.8135 46.6834 58.707 41.17C58.2252 40.7349 58.6602 40.1419 59.2377 40.4852C65.8397 44.3149 73.9849 46.6366 82.4091 46.6366C88.0942 46.6366 94.3372 45.4523 100.085 43.0234C100.941 42.6332 101.673 43.5833 100.832 44.2076ZM102.966 41.7768C102.311 40.9378 98.6351 41.3729 96.969 41.5758C96.4715 41.6382 96.3935 41.2012 96.8461 40.8735C99.7725 38.8191 104.586 39.4103 105.145 40.095C105.705 40.7974 104.989 45.6084 102.248 47.9125C101.829 48.2715 101.423 48.0842 101.61 47.6179C102.235 46.0766 103.62 42.604 102.966 41.7768Z" fill="black"/>
</svg>
