<svg width="164" height="72" viewBox="0 0 164 72" fill="none" xmlns="http://www.w3.org/2000/svg">
<path d="M40 29.2983L50.8658 24.1997C51.4924 23.907 52.0771 23.9489 52.7045 24.2416L62.9437 29.0483C63.1945 29.1725 63.4872 29.2579 63.4872 29.5499C63.4872 29.9265 63.1533 29.9677 62.9025 30.0935L53.0812 34.6904C52.1618 35.1082 51.3728 35.1082 50.4488 34.6904L40 29.8388V29.2952V29.2983ZM40 42.2956L41.9226 41.3343C42.717 40.9165 43.4679 41.0004 44.2631 41.3762L50.5738 44.3425C51.3682 44.7191 52.1191 44.7191 52.9142 44.3425L59.3088 41.3335C60.1032 40.9569 60.8541 40.9569 61.6492 41.3335C62.1089 41.5843 62.6105 41.7932 63.0702 42.0013C63.2799 42.1255 63.5719 42.211 63.5299 42.5029C63.5299 42.7537 63.2791 42.8795 63.0702 42.9626L58.3055 45.2192L52.9142 47.7273C52.2037 48.0612 51.4932 48.1039 50.7827 47.7692L40.6686 43.0465C40.4589 42.9626 40.292 42.7957 40.0839 42.6699C40 42.586 40 42.4602 40 42.2933V42.2956ZM40 35.8179L41.463 35.1074C42.5912 34.4396 43.6372 34.5638 44.8066 35.1493L50.7415 37.9495C51.4947 38.2834 52.1625 38.2834 52.873 37.9495L59.1838 34.9832C60.0612 34.5654 60.8921 34.5235 61.7773 34.9832L63.2403 35.6937C63.6581 35.9445 63.6169 36.1953 63.2403 36.4469C63.116 36.5308 62.9895 36.5711 62.8637 36.6138L52.7923 41.2947C52.1245 41.6286 51.4551 41.6286 50.7842 41.2947L40.7128 36.6138C40.462 36.4896 40.2531 36.3211 40.0023 36.1961V35.8195L40 35.8179ZM73.2596 28.7516V33.747C73.4173 33.7703 73.4615 33.6794 73.5299 33.6118C75.2398 31.7894 78.4343 32.0588 79.9206 34.1515C81.3828 36.1767 81.3377 39.6881 79.808 41.6449C78.2783 43.6017 75.3306 43.8036 73.5532 42.0487L73.2604 41.7784V42.6792C73.2604 42.9122 73.1704 43.0162 72.9234 43.0162H70.809C70.5605 43.0162 70.4494 42.9261 70.4494 42.6792V29.2688L70.4727 28.7516H73.2682H73.2596ZM73.2596 37.798V39.261C73.2431 39.4005 73.2659 39.5418 73.3255 39.669C73.385 39.7962 73.479 39.9042 73.5967 39.9808C73.7768 40.1159 73.9337 40.251 74.1363 40.3636C75.8237 41.2861 77.6229 40.5213 78.029 38.6988C78.1416 38.1816 78.1641 37.6412 78.0523 37.1015C77.8504 36.0889 77.3767 35.279 76.3424 34.9863C75.2631 34.671 74.2722 34.963 73.4631 35.7511C73.3055 35.8863 73.2612 36.0664 73.2612 36.2683V37.798H73.2596ZM124.941 35.2317C124.423 35.2767 123.928 35.1641 123.411 35.3217L122.826 35.5236C122.061 35.8164 121.678 36.2885 121.723 37.211L121.747 42.4525C121.747 42.9696 121.747 42.9696 121.251 42.9696H119.429C119.136 42.9696 119.069 42.857 119.069 42.5658L119.093 33.7679C119.093 32.8454 119.069 32.8454 119.97 32.8454H121.365C121.68 32.8221 121.792 32.958 121.768 33.2725C121.745 33.5427 121.768 33.7897 121.768 34.1267C122.713 33.2492 123.659 32.5519 124.963 32.642L124.94 35.2293L124.941 35.2317ZM113.488 38.8316H110.248C109.821 38.8316 109.753 38.8991 109.911 39.3037C110.428 40.6082 111.486 41.1712 112.926 41.0353C113.714 40.9678 114.479 40.7201 115.108 40.2029C115.243 40.0903 115.341 40.0903 115.445 40.2479L116.368 41.5975C116.503 41.7994 116.391 41.9128 116.255 42.0246C115.648 42.52 114.951 42.812 114.185 42.9921C112.61 43.375 111.058 43.3517 109.618 42.5651C107.637 41.5074 106.895 39.7308 106.977 37.5697C107.068 35.1858 108.845 33.1591 111.163 32.7344C114.156 32.1947 116.72 34.0389 117.147 37.0766C117.215 37.527 117.215 37.9774 117.238 38.4262C117.238 38.719 117.125 38.83 116.834 38.83C115.708 38.8067 114.605 38.83 113.482 38.83L113.488 38.8316ZM112.183 36.9641H114.163C114.614 36.9641 114.635 36.9408 114.523 36.4919C114.23 35.3893 113.308 34.782 112.003 34.8271C111.48 34.8479 110.979 35.0431 110.58 35.3815C110.181 35.7199 109.906 36.1821 109.8 36.6946C109.755 36.9431 109.868 36.9873 110.07 36.9873L112.186 36.9641H112.183ZM89.2116 41.7784C88.6719 42.2739 88.154 42.6559 87.5467 42.8811C86.5276 43.2851 85.4018 43.3327 84.3521 43.0162C83.2728 42.7009 82.5522 41.7117 82.4846 40.5205L82.4396 35.6378V33.3439C82.4396 33.0069 82.5297 32.8485 82.89 32.8718H84.6449C85.1621 32.8718 85.1621 32.8718 85.1621 33.3672V38.8339C85.1621 40.2736 85.7017 40.7907 87.1422 40.7441C87.9295 40.7208 88.515 40.3403 89.0524 39.8216C89.21 39.664 89.1875 39.4621 89.1875 39.2819V33.4092C89.1875 32.8695 89.1875 32.8695 89.7272 32.8695H91.5054C91.7981 32.8695 91.8882 32.9821 91.8882 33.2523V42.5674C91.8882 42.8601 91.7756 42.9712 91.4844 42.9712C90.8396 42.9487 90.1942 42.9487 89.5494 42.9712C89.2566 42.9712 89.1456 42.8586 89.1665 42.5883C89.2341 42.3554 89.2116 42.1162 89.2116 41.7784ZM104.511 39.1383V42.5355C104.511 42.8725 104.421 42.9859 104.084 42.9859C103.462 42.9634 102.839 42.9634 102.217 42.9859C101.88 42.9859 101.766 42.8733 101.766 42.5355V35.7861C101.766 35.2464 101.766 35.2464 101.227 35.2464H100.462C100.26 35.2464 100.146 35.1788 100.146 34.9537V33.1987C100.146 32.9503 100.259 32.8835 100.483 32.8835H101.428C101.677 32.8835 101.765 32.7934 101.765 32.5465C101.762 32.2068 101.792 31.8676 101.856 31.5339C102.193 29.7339 103.791 28.6313 105.681 28.8937C106.356 28.9838 106.985 29.1267 107.548 29.5693C107.781 29.7495 107.863 29.9063 107.661 30.1765C107.428 30.4693 107.234 30.8055 107.054 31.1216C106.918 31.3545 106.783 31.4368 106.536 31.2567C106.393 31.1641 106.233 31.1027 106.064 31.0765C105.097 30.8436 104.219 31.7964 104.511 32.7414C104.556 32.9215 104.713 32.899 104.826 32.899H106.176C106.409 32.899 106.536 32.9666 106.536 33.236V34.9459C106.536 35.1788 106.446 35.2829 106.199 35.2612H104.983C104.466 35.2612 104.466 35.2612 104.466 35.7566L104.511 39.1297V39.1383ZM95.0611 39.0707V35.658C95.0611 35.3652 94.971 35.2309 94.6782 35.2542C94.363 35.2775 94.0493 35.2542 93.7332 35.2542C93.5003 35.2542 93.3962 35.1866 93.3962 34.9389V33.184C93.3962 32.951 93.5088 32.8687 93.7115 32.8912H94.7015C94.9943 32.9145 95.0844 32.8012 95.0844 32.5084C95.0611 31.8111 95.1519 31.1138 95.5114 30.505C96.187 29.3356 97.5148 28.7051 98.9312 28.8868C99.5835 28.9768 100.214 29.0886 100.754 29.494C101.136 29.7867 101.157 29.831 100.911 30.2138L100.327 31.1363C100.214 31.3382 100.078 31.4065 99.8545 31.2489C99.6308 31.0913 99.3591 31.0004 99.0671 31.0004C98.1896 31.0004 97.5607 31.8546 97.8518 32.7103C97.9194 32.8905 98.0537 32.8679 98.1671 32.8679H99.4717C99.7201 32.8679 99.8312 32.958 99.8087 33.2049V34.8923C99.8087 35.1408 99.7186 35.2518 99.4717 35.2293H98.2789C97.9194 35.206 97.8068 35.3419 97.8285 35.6797V42.3173C97.8285 42.9463 97.8286 42.9463 97.1763 42.9463C96.6366 42.9463 96.0736 42.923 95.534 42.9463C95.2187 42.9463 95.0836 42.8562 95.0836 42.4959L95.0603 39.0762L95.0611 39.0707Z" fill="black"/>
</svg>
