<svg width="164" height="72" viewBox="0 0 164 72" fill="none" xmlns="http://www.w3.org/2000/svg">
<path fill-rule="evenodd" clip-rule="evenodd" d="M1 41.2972H3.13305V30.4409H1V30.0018H8.655C10.2868 30.0018 12.2323 30.064 13.737 30.6293C14.7413 31.0683 15.3057 32.0095 15.3057 32.8885C15.3057 33.7675 14.7422 34.2688 13.9254 34.8341C13.4864 35.1478 13.2357 35.21 12.5451 35.3984C13.4864 35.5237 14.1138 35.7122 14.9919 36.2143C15.9331 36.8409 16.31 37.7217 16.31 38.5989C16.31 39.6023 15.6194 40.5444 14.3645 40.9835C12.482 41.6741 10.2859 41.7372 8.27725 41.7372H1V41.2972ZM6.77257 41.2972H8.34126C9.65841 41.2972 10.7258 41.0457 11.5417 40.7933C12.2323 40.4182 12.9229 39.7899 12.9229 38.5971C12.9229 37.2168 12.5461 36.2765 11.0396 35.7735C10.2868 35.586 6.83568 35.6482 6.77348 35.6482V41.2972H6.77257ZM6.77257 35.1469C8.40437 35.1469 10.1606 35.2091 10.8512 34.9585C11.8555 34.5194 12.2323 34.0795 12.2323 32.8245C12.1692 31.758 11.7924 31.1927 11.1649 30.879C10.413 30.5031 9.22026 30.44 7.96531 30.44H6.77257V35.1469ZM62.7439 41.2972H64.877V30.4409H62.7439V30.0018H70.3989C72.0307 30.0018 73.9753 30.064 75.4818 30.6293C76.5483 31.0683 77.0505 32.0095 77.0505 32.8885C77.0505 33.7675 76.5483 34.2688 75.6702 34.8341C75.2312 35.1478 74.9797 35.21 74.29 35.3984C75.2312 35.5237 75.8587 35.7122 76.7999 36.2143C77.6789 36.8409 78.0548 37.7217 78.0548 38.5989C78.0548 39.6023 77.3642 40.5444 76.1724 40.9835C74.2909 41.6741 72.0316 41.7372 70.023 41.7372H62.7448V41.2972H62.7439ZM68.5796 41.2972H70.0852C71.4654 41.2972 72.4698 41.0457 73.2857 40.7933C74.0384 40.4182 74.6659 39.7899 74.6659 38.5971C74.6659 37.2168 74.3522 36.2765 72.7835 35.7735C72.0307 35.586 68.5796 35.6482 68.5796 35.6482V41.2972ZM68.5796 35.1469C70.2114 35.1469 71.9054 35.2091 72.596 34.9585C73.5994 34.5194 73.9762 34.0795 73.9762 32.8245C73.9762 31.758 73.5372 31.1927 72.9097 30.879C72.1569 30.5031 70.9642 30.44 69.7723 30.44H68.5805V35.1469H68.5796ZM22.2088 38.7224V30.44H19.7611V30.0009H27.856V30.44H25.4715V38.6602C25.4715 39.4752 25.8474 39.9774 26.538 40.4795C27.1664 41.0448 27.9814 41.2963 29.55 41.2963C31.3694 41.2963 32.6874 40.9195 33.4402 40.2289C34.2561 39.6005 34.632 38.7846 34.5689 37.9696V30.4391H32.2474V30H37.8947V30.4391H35.5101V38.0309C35.5101 39.1615 35.008 40.2289 33.9415 40.9186C32.8127 41.6092 31.5569 41.986 29.4869 41.986C27.5414 41.986 25.2821 41.7345 24.0281 41.1692C22.8363 40.667 22.2088 39.8521 22.2088 38.7846V38.7224ZM43.606 41.2972V30.4409H41.2214V30.0018H50.2567C52.2013 30.064 53.2056 30.0018 54.5859 30.504C55.5271 30.8799 56.1545 31.6336 56.1545 32.7632C56.1545 35.0225 54.0837 35.2731 52.6412 35.5869C53.8962 35.6491 54.5868 35.9006 55.4018 36.2143C56.2177 36.6525 56.5936 37.3431 56.782 37.783C56.9704 38.4096 56.9073 39.1633 56.9073 39.7908C57.0326 40.9213 57.5979 41.4234 58.6644 41.2981C58.9782 41.235 59.1666 41.1097 59.4172 40.9213L59.7319 41.4234C59.1282 41.8467 58.396 42.0466 57.661 41.9887C56.4683 41.9887 55.528 41.8003 54.7743 41.3603C54.0215 40.9222 53.5825 40.2929 53.394 39.4148C53.2687 38.6629 53.3318 37.9723 53.0803 37.2187C52.6412 36.0899 51.0717 35.8384 50.0682 35.8384H47.1815V41.299H49.6292V41.7372H41.0961V41.299H43.606V41.2972ZM47.1824 35.2722H50.3198C51.8262 35.2722 52.7666 34.6447 52.7666 32.7623C52.7666 31.2568 51.5116 30.4409 50.1945 30.4409H47.1815V35.2722H47.1824ZM126.56 41.2972V30.4409H124.175V30.0018H133.209C135.155 30.064 136.158 30.0018 137.475 30.504C138.479 30.8799 139.108 31.6336 139.108 32.7632C139.108 35.0225 137.037 35.2731 135.532 35.5869C136.849 35.6491 137.539 35.9006 138.292 36.2143C139.169 36.6525 139.546 37.3431 139.673 37.783C139.922 38.4096 139.859 39.1633 139.859 39.7908C139.922 40.9213 140.55 41.4234 141.616 41.2981C141.93 41.235 142.118 41.1097 142.307 40.9213L142.621 41.4234C142.057 41.8616 141.303 42.05 140.55 41.9887C139.421 41.9887 138.479 41.8003 137.727 41.3603C136.973 40.9222 136.471 40.2929 136.347 39.4148C136.22 38.6629 136.284 37.9723 135.97 37.2187C135.593 36.0899 134.024 35.8384 132.957 35.8384H130.134V41.299H132.582V41.7372H124.047V41.299H126.56V41.2972ZM130.136 35.2722H133.21C134.716 35.2722 135.719 34.6447 135.719 32.7623C135.719 31.2568 134.465 30.4409 133.085 30.4409H130.136V35.2722ZM105.162 41.2972V30.4409H102.778V30.0018H111.812C113.822 30.064 114.761 30.0018 116.142 30.504C117.084 30.8799 117.775 31.6336 117.775 32.7632C117.775 35.0225 115.704 35.2731 114.197 35.5869C115.453 35.6491 116.142 35.9006 116.957 36.2143C117.774 36.6525 118.149 37.3431 118.338 37.783C118.589 38.4096 118.465 39.1633 118.465 39.7908C118.59 40.9213 119.217 41.4234 120.22 41.2981C120.535 41.235 120.722 41.1097 120.974 40.9213L121.287 41.4234C120.722 41.8616 119.907 42.05 119.217 41.9887C118.025 41.9887 117.084 41.8003 116.331 41.3603C115.577 40.9222 115.139 40.2929 114.95 39.4148C114.825 38.6629 114.887 37.9723 114.637 37.2187C114.197 36.0899 112.627 35.8384 111.624 35.8384H108.738V41.299H111.247V41.7372H102.651V41.299H105.162V41.2972ZM108.738 35.2722H111.875C113.381 35.2722 114.323 34.6447 114.323 32.7623C114.323 31.2568 113.067 30.4409 111.75 30.4409H108.737V35.2722H108.738ZM82.1334 41.2972H84.5189V30.4409H82.1334V30.0018H97.0043V33.516H96.4409C96.1893 32.5748 95.5619 31.3821 94.8082 30.8799C94.306 30.5662 93.491 30.4409 92.1108 30.4409H88.0944V35.3984C89.0365 35.3984 90.2906 35.4606 91.1055 35.0847C91.7339 34.771 92.173 34.0804 92.2992 33.3276H92.9258V38.0327H92.2992C92.1721 37.1555 91.6708 36.5903 91.0433 36.2774C90.4168 36.0259 89.2222 36.0259 88.0944 36.0259V41.2981H92.6129C94.5566 41.2981 95.2472 41.0466 96.0009 40.6075C96.6915 40.1036 97.3812 38.8504 97.5696 37.7217H98.0718V41.7363H82.1334V41.2972ZM148.52 41.2972H151.281V36.2134L145.759 30.4409H143.438V30.0018H152.473V30.4409H149.712L154.294 35.5869L159.062 30.4409H155.862V30.0018H162.574V30.4409H160.065L154.795 36.2134V41.2972H157.556V41.7354H148.519V41.2972H148.52Z" fill="black"/>
</svg>
