<svg width="164" height="72" viewBox="0 0 164 72" fill="none" xmlns="http://www.w3.org/2000/svg">
<path fill-rule="evenodd" clip-rule="evenodd" d="M10 29.4337H14.7C18.0265 29.463 20.7452 32.3981 20.7452 35.985C20.7452 39.5857 18.0265 42.5208 14.7 42.5509H10V29.4337ZM12.0538 31.0245V41.0032H14.1654C17.2022 40.9177 18.7068 38.5596 18.7068 36.0435C18.7068 33.5414 17.1737 31.5022 14.7008 31.0831L12.0538 31.0245ZM28.6561 29.1302C32.6474 29.1302 35.9015 32.2248 35.9015 35.9996C35.9015 39.7744 32.6474 42.8552 28.6561 42.8552C24.6795 42.8552 21.4254 39.7737 21.4254 35.9996C21.4254 32.2256 24.6795 29.1302 28.6561 29.1302ZM28.6854 30.7934C31.5774 30.7934 33.9347 33.1215 33.9347 35.985C33.9347 38.8331 31.5774 41.1627 28.6854 41.1627C25.7934 41.1627 23.4215 38.8338 23.4215 35.985C23.4207 33.1215 25.7927 30.7934 28.6854 30.7934ZM36.4654 29.463H38.4029V41.0317H42.1053V42.5362H36.4654V29.463ZM48.397 29.0578C49.9007 29.0578 51.3036 29.5061 52.4607 30.258V32.6446C51.4916 31.4875 50.0456 30.7357 48.4116 30.7357C45.5196 30.7357 43.1623 33.093 43.1623 35.985C43.1623 38.8631 45.5196 41.2197 48.4116 41.2197C50.0463 41.2197 51.4923 40.4686 52.4607 39.3115V41.7266C51.2548 42.5217 49.8414 42.944 48.397 42.9407C44.4057 42.9407 41.1516 39.8168 41.1516 35.9988C41.1516 32.1816 44.4057 29.0578 48.397 29.0578ZM55.1069 40.9893H59.7923V42.5362H53.0677V29.4622H59.7923V30.9375H55.1069V34.8279H59.7923V36.4179H55.1069V40.9893ZM67.1679 41.7119C66.956 41.915 66.7118 42.0814 66.4453 42.2042C66.1799 42.3493 65.8914 42.447 65.5925 42.4931C65.5201 42.5085 65.4476 42.5216 65.3752 42.5216C65.3028 42.537 65.2304 42.537 65.1588 42.537C64.9561 42.537 64.7535 42.5085 64.5509 42.4646C64.3531 42.4058 64.1672 42.3127 64.0017 42.1896C63.8113 42.0387 63.658 41.8463 63.5533 41.6272C63.4271 41.4149 63.3483 41.1779 63.3222 40.9323V40.8453C63.3076 40.8029 63.3075 40.7729 63.3075 40.7444C63.3075 40.7158 63.3076 40.7004 63.3222 40.6719V40.5849V40.5564C63.3368 40.5425 63.3368 40.5425 63.3368 40.5279V40.4709V40.427C63.4239 40.0225 63.6118 39.7036 63.9007 39.4432C64.175 39.1828 64.4785 38.9509 64.7974 38.7629C64.6254 38.561 64.4661 38.3485 64.3206 38.1266C64.1776 37.9238 64.1017 37.6814 64.1033 37.4333V37.3177C64.118 37.2892 64.118 37.2607 64.118 37.2168C64.1326 37.2168 64.1326 37.2014 64.1326 37.1883V37.1729C64.1427 37.1556 64.1478 37.1359 64.1473 37.1159C64.1473 37.1005 64.1619 37.0874 64.1619 37.072C64.2343 36.753 64.393 36.5081 64.6534 36.3347C64.8943 36.1732 65.1736 36.0783 65.4631 36.0597H65.651C65.9985 36.0882 66.3313 36.2192 66.6202 36.4511C66.9098 36.6675 67.0539 36.9849 67.0539 37.4048C67.0539 37.7946 66.9237 38.1135 66.6926 38.3454C66.4615 38.5904 66.1864 38.8076 65.8968 39.0102L67.2858 40.6881C67.416 40.5286 67.56 40.3692 67.6902 40.2113C67.8058 40.0518 67.936 39.8769 68.0376 39.7043L68.5145 40.1966C68.4303 40.3569 68.3285 40.5073 68.211 40.645C68.1101 40.7744 67.9937 40.92 67.8782 41.0494C67.8488 41.078 67.8197 41.1071 67.7911 41.1365L67.7041 41.222L68.7163 42.4515H67.8196L67.1679 41.7119ZM65.4184 41.8999C65.6641 41.8714 65.8952 41.799 66.0978 41.668C66.3003 41.537 66.4936 41.3924 66.6764 41.2351C66.691 41.2351 66.7057 41.2197 66.7203 41.2066C66.7349 41.2066 66.7496 41.1912 66.7642 41.1781L65.1873 39.2976C65.1726 39.2976 65.1726 39.313 65.1588 39.3261C65.1441 39.3261 65.1295 39.3415 65.1148 39.3546C65.0863 39.37 65.0717 39.3846 65.0424 39.3985C65.0278 39.3985 65.0139 39.4139 64.9985 39.4286C64.8683 39.5141 64.7528 39.6019 64.6372 39.6874C64.5217 39.7744 64.42 39.8908 64.3329 40.0063C64.3036 40.0633 64.2605 40.1219 64.232 40.1943C64.199 40.2581 64.1747 40.3259 64.1596 40.3961L64.1164 40.571C64.1018 40.628 64.1018 40.6866 64.1018 40.7444C64.1018 41.0486 64.2174 41.3237 64.4492 41.5687C64.6657 41.8005 64.9554 41.93 65.302 41.93C65.302 41.93 65.3167 41.93 65.3167 41.9161H65.3752C65.3899 41.9161 65.3899 41.9007 65.4045 41.9007H65.4184V41.8999ZM64.8398 37.3154V37.3593C64.8398 37.3747 64.8252 37.3878 64.8252 37.4032V37.4317C64.8252 37.5912 64.8683 37.736 64.9554 37.8662C65.0417 38.0111 65.1434 38.1397 65.2589 38.256C65.2882 38.3 65.3313 38.3431 65.3606 38.3855C65.3891 38.4294 65.433 38.4594 65.4615 38.501C65.4908 38.4872 65.5047 38.4725 65.5339 38.4586C65.5534 38.4398 65.5793 38.429 65.6063 38.4286C65.7797 38.3277 65.9245 38.2121 66.0693 38.0827C66.2142 37.9517 66.3004 37.7923 66.3297 37.5904V37.5465V37.5026C66.3297 37.4888 66.3444 37.4741 66.3444 37.4587V37.4302C66.3444 37.2284 66.2719 37.0543 66.1279 36.9379C65.9971 36.8147 65.8291 36.7386 65.6503 36.7215H65.5193C65.3745 36.7215 65.2304 36.78 65.1002 36.8663C65.0272 36.9181 64.9661 36.9851 64.9212 37.0626C64.8763 37.14 64.8485 37.2263 64.8398 37.3154ZM79.2728 29C81.8751 29 84.1754 30.3304 85.462 32.3118L83.771 33.1793C83.2935 32.4218 82.6318 31.7977 81.8477 31.3653C81.0637 30.9329 80.1828 30.7062 79.2874 30.7064C76.3661 30.6917 73.9942 33.0637 73.9942 35.985C73.9942 38.8916 76.3661 41.2636 79.2874 41.2636C81.7457 41.2636 83.6839 40.0341 83.828 37.4749H79.6056V35.9272H83.7271C83.7271 35.8979 85.8248 35.9272 85.9542 35.9272V35.9996C85.9542 40.0926 83.7271 43 79.2735 43C74.8046 43 71.9704 39.8461 71.9704 35.9996C71.9704 32.1531 75.2522 29 79.2728 29ZM84.8557 42.5362L90.2637 29.4199H91.5518L97.0029 42.5362H94.8767L93.3737 38.8331H88.4133L86.9388 42.5362H84.8557ZM89.1651 37.1706L90.9147 32.5144L92.6935 37.1706H89.1651ZM116.007 42.5362L121.415 29.4199H122.702L128.155 42.5362H126.028L124.524 38.8331H119.563L118.089 42.5362H116.007ZM120.331 37.1706L122.065 32.5144L123.844 37.1706H120.331ZM141.979 42.5362L147.388 29.4199H148.674L154.127 42.5362H152.001L150.496 38.8331H145.536L144.061 42.5362H141.979ZM146.288 37.1706L148.038 32.5144L149.818 37.1706H146.288ZM101.688 30.9529C102.976 31.0977 103.453 31.647 103.453 32.9343C103.469 34.2208 102.585 34.9011 101.458 34.9011H99.7501V30.9383H101.688V30.9529ZM101.79 36.4911H101.891C102.845 36.4911 104.551 36.7091 104.551 38.8338C104.551 40.5417 103.061 41.0325 101.646 41.0186L101.992 41.0325H99.7501V36.4911H101.79ZM99.2732 42.5362H102.657C104.972 42.5362 106.636 41.0178 106.636 38.8331C106.636 37.1567 105.593 35.8687 104.118 35.3633C104.958 34.8279 105.435 33.8734 105.435 32.6585C105.435 30.6771 104.103 29.463 102.137 29.4191C101.067 29.4044 99.982 29.4191 98.8973 29.4191H97.7117V42.5355H99.2732V42.5362ZM111.623 30.9529C112.911 31.0977 113.388 31.647 113.403 32.9343C113.417 34.2208 112.535 34.9011 111.407 34.9011H109.7V30.9383H111.623V30.9529ZM111.739 36.4911H111.841C112.78 36.4911 114.501 36.7091 114.501 38.8338C114.501 40.5417 112.998 41.0325 111.595 41.0186L111.927 41.0325H109.7V36.4911H111.739ZM109.223 42.5362H112.608C114.906 42.5362 116.584 41.0178 116.584 38.8331C116.584 37.1567 115.53 35.8687 114.054 35.3633C114.906 34.8279 115.37 33.8734 115.37 32.6585C115.37 30.6771 114.04 29.463 112.087 29.4191C111.002 29.4044 109.917 29.4191 108.834 29.4191H107.662V42.5355H109.223V42.5362ZM129.021 29.463H130.265L139.448 39.1659V29.463H141.227V42.5362H139.868L130.872 32.9335V42.5362H129.021V29.463Z" fill="black"/>
</svg>
