<svg width="165" height="72" viewBox="0 0 165 72" fill="none" xmlns="http://www.w3.org/2000/svg">
<path fill-rule="evenodd" clip-rule="evenodd" d="M125.844 44.9612C125.623 45.2267 125.446 45.4033 125.291 45.4696C125.159 45.5579 124.982 45.58 124.783 45.58C124.385 45.58 124.053 45.4475 123.81 45.182C123.565 44.9165 123.456 44.4744 123.456 43.8551V42.107C123.456 41.4656 123.565 41.0235 123.81 40.758C124.053 40.4925 124.385 40.36 124.783 40.36C125.093 40.36 125.336 40.4483 125.557 40.6035C125.756 40.758 125.911 41.0235 126.021 41.3994C126.131 41.7973 126.242 42.0408 126.375 42.1732C126.618 42.4387 127.06 42.7042 127.681 42.9912C128.3 43.2567 128.986 43.3892 129.737 43.3892C130.909 43.3892 131.861 43.1237 132.613 42.5712C133.077 42.2395 133.321 41.8415 133.321 41.3552C133.321 41.0235 133.188 40.7359 132.967 40.4483C132.746 40.1608 132.37 39.9173 131.861 39.7396C131.508 39.6071 130.755 39.4299 129.583 39.2086C128.146 38.9431 127.083 38.6335 126.353 38.2576C125.624 37.8817 125.026 37.3733 124.606 36.6878C124.195 36.0237 123.98 35.2567 123.987 34.4755C123.987 33.2369 124.495 32.1528 125.535 31.2018C126.596 30.2723 127.946 29.8081 129.604 29.8081C130.29 29.8081 130.909 29.8743 131.485 30.0294C132.038 30.1619 132.568 30.4053 133.033 30.6929C133.364 30.3612 133.718 30.2066 134.05 30.2066C134.426 30.2066 134.735 30.3391 134.98 30.6051C135.223 30.8706 135.356 31.3128 135.356 31.9321V33.9009C135.356 34.5202 135.223 34.9623 134.98 35.2505C134.735 35.4939 134.426 35.6485 134.05 35.6485C133.718 35.6485 133.453 35.5381 133.21 35.3388C133.033 35.2063 132.878 34.9188 132.79 34.4761C132.701 34.0555 132.591 33.7458 132.436 33.5471C132.193 33.2375 131.817 32.9499 131.33 32.7285C130.843 32.5072 130.268 32.4189 129.626 32.4189C128.675 32.4189 127.946 32.6182 127.393 33.0608C126.839 33.503 126.574 33.9451 126.574 34.4319C126.574 34.7637 126.684 35.0733 126.906 35.3609C127.127 35.6705 127.459 35.9139 127.902 36.0685C128.19 36.1789 128.986 36.3781 130.335 36.6436C131.663 36.9097 132.702 37.1973 133.41 37.5064C134.117 37.8154 134.714 38.3023 135.202 38.9878C135.666 39.6513 135.91 40.4483 135.91 41.3773C135.91 42.6601 135.467 43.6994 134.559 44.4744C133.343 45.4916 131.817 46 129.937 46C129.229 46 128.521 45.9117 127.836 45.7345C127.145 45.5531 126.477 45.2936 125.844 44.9612ZM89.015 35.0733V42.9697H90.0765C90.7852 42.9697 91.2936 43.0801 91.5811 43.3235C91.8908 43.5902 92.0453 43.8998 92.0453 44.2978C92.0453 44.6736 91.8908 45.0054 91.5811 45.2488C91.2936 45.4922 90.7852 45.6026 90.0765 45.6026H86.2497C85.5421 45.6026 85.0337 45.4922 84.7461 45.2488C84.4365 45.0054 84.304 44.6736 84.304 44.2757C84.304 43.8998 84.4365 43.5902 84.7241 43.3235C85.0337 43.0801 85.4979 42.9697 86.0951 42.9697V32.5961C85.5868 32.5519 85.2109 32.4189 84.9454 32.1755C84.6799 31.9321 84.5475 31.6224 84.5475 31.2686C84.5475 30.8706 84.702 30.561 85.0116 30.3176C85.2992 30.0521 85.8076 29.9417 86.4942 29.9417H89.7006L93.683 37.927L97.597 29.9417H100.827C101.534 29.9417 102.022 30.0741 102.331 30.3176C102.619 30.561 102.773 30.8706 102.773 31.2686C102.773 31.6224 102.641 31.9321 102.375 32.1755C102.11 32.4189 101.734 32.5519 101.226 32.5961V42.9697C101.845 42.9697 102.287 43.0801 102.597 43.3456C102.884 43.5902 103.039 43.8998 103.039 44.2978C103.039 44.6736 102.884 45.0054 102.575 45.2488C102.287 45.4922 101.779 45.6026 101.07 45.6026H97.2432C96.5356 45.6026 96.0493 45.4922 95.7396 45.2488C95.4521 45.0054 95.2975 44.6736 95.2975 44.2757C95.2975 43.8998 95.4521 43.5902 95.7396 43.3235C96.0493 43.0801 96.5356 42.9697 97.2432 42.9697H98.3057V35.0733L94.9437 42.8152H92.4218L89.015 35.0733ZM71.0762 36.3787H73.1113C73.8636 36.3787 74.5271 36.2457 75.1243 36.0249C75.9208 35.7153 76.4512 35.6932 76.7393 35.3394C77.0048 35.0076 77.1594 34.9629 77.1594 34.6318C77.1594 34.1228 76.8939 33.6586 76.3629 33.238C75.8319 32.818 75.0796 32.5967 74.0629 32.5967H71.0767V36.3787H71.0762ZM71.0762 38.7235V42.9703H72.0057C72.6471 42.9703 73.0892 43.0807 73.3547 43.3241C73.6202 43.5675 73.7532 43.9004 73.7532 44.2983C73.7532 44.6742 73.6208 45.0059 73.3547 45.2494C73.0886 45.4928 72.6471 45.6032 72.0057 45.6032H68.0459C67.4266 45.6032 66.9845 45.4928 66.719 45.2494C66.4535 45.0059 66.321 44.6742 66.321 44.2763C66.321 43.9004 66.4535 43.5675 66.719 43.3241C66.9845 43.0807 67.4266 42.9703 68.0459 42.9703H68.4665V32.5961H68.0459C67.4266 32.5961 66.9845 32.4857 66.719 32.2196C66.4535 31.9762 66.321 31.6666 66.321 31.2686C66.321 30.8706 66.4535 30.5383 66.719 30.2955C66.9845 30.0526 67.4266 29.9417 68.0459 29.9417H73.9519C76.2078 29.9417 79.7691 30.8044 79.7691 33.6575C79.7691 36.4223 79.3049 36.2678 77.5126 37.2414C78.9058 38.1483 79.5257 39.4084 79.636 42.9697C80.2995 42.9697 81.3388 43.0139 81.5602 43.169C81.9361 43.4345 82.1133 43.8104 82.1133 44.2978C82.1133 44.6736 81.9808 45.0054 81.7374 45.2488C81.4719 45.4922 81.0298 45.6247 80.3878 45.6026L76.4727 45.4481C76.3403 40.317 76.1189 38.6131 73.6417 38.7235H71.0762ZM53.9559 39.1877V42.9924H60.415V41.5992C60.415 40.9578 60.5474 40.5157 60.7688 40.2502C61.0122 39.9836 61.3218 39.8511 61.6977 39.8511C62.0515 39.8511 62.3618 39.9836 62.6052 40.2502C62.8486 40.5157 62.959 40.9578 62.959 41.5992V45.6026H51.036C50.4167 45.6026 49.9745 45.4922 49.7311 45.2488C49.4656 45.0054 49.3326 44.6957 49.3326 44.2978C49.3326 43.9219 49.4651 43.6122 49.7311 43.3677C49.9966 43.1243 50.4167 42.9918 51.036 42.9918H51.4124V32.7954H51.036C50.4167 32.7954 49.9745 32.685 49.7311 32.4415C49.4656 32.1981 49.3326 31.8885 49.3326 31.4905C49.3326 31.092 49.4651 30.7829 49.7311 30.5389C49.9745 30.2955 50.4167 30.1851 51.036 30.1851H62.4053V34.1664C62.4053 34.7857 62.2729 35.2284 62.0515 35.4939C61.8302 35.7594 61.5205 35.8919 61.1447 35.8919C60.7467 35.8919 60.4591 35.7594 60.2157 35.4939C59.9723 35.2284 59.8619 34.7863 59.8619 34.1664V32.7954H53.9559V36.578H56.1897L59.0212 36.5338L59.1537 39.0773L56.1897 39.1877H53.9559ZM111.555 39.1877V42.9924H118.036V41.5992C118.036 40.9578 118.146 40.5157 118.367 40.2502C118.611 39.9836 118.921 39.8511 119.296 39.8511C119.672 39.8511 119.96 39.9836 120.204 40.2502C120.448 40.5157 120.558 40.9578 120.558 41.5992V45.6026H108.636C108.015 45.6026 107.595 45.4922 107.33 45.2488C107.064 45.0054 106.932 44.6957 106.932 44.2978C106.932 43.9219 107.064 43.6122 107.33 43.3677C107.595 43.1243 108.037 42.9918 108.636 42.9918H109.034V32.7954H108.636C108.015 32.7954 107.595 32.685 107.33 32.4415C107.064 32.1981 106.932 31.8885 106.932 31.4905C106.932 31.092 107.064 30.7829 107.33 30.5389C107.595 30.2955 108.015 30.1851 108.636 30.1851H120.005V34.1664C120.005 34.7857 119.895 35.2284 119.65 35.4939C119.429 35.7594 119.119 35.8919 118.743 35.8919C118.367 35.8919 118.058 35.7594 117.814 35.4939C117.593 35.2284 117.461 34.7863 117.461 34.1664V32.7954H111.555V36.578H113.789L116.62 36.5338L116.775 39.0773L113.789 39.1877H111.555ZM40.9714 39.0105H34.9108V42.9035H35.353C36.0385 42.9035 36.5253 43.0359 36.8129 43.3014C37.1005 43.5449 37.255 43.8777 37.255 44.2757C37.255 44.6736 37.1005 44.9833 36.8129 45.2267C36.5253 45.4922 36.0385 45.6026 35.353 45.6026H31.8806C31.2171 45.6026 30.7308 45.4922 30.4206 45.2267C30.133 44.9833 30 44.6516 30 44.2536C30 43.7673 30.2213 43.3903 30.6635 43.1027C30.8848 42.9703 31.3711 42.9035 32.0787 42.9035V32.3747C31.5924 32.3306 31.2165 32.1755 30.9505 31.9326C30.707 31.6892 30.5746 31.3796 30.5746 31.0037C30.5746 30.6057 30.7297 30.2734 31.0173 30.0306C31.3048 29.7877 31.7922 29.6547 32.4778 29.6547L35.353 29.6768C36.0385 29.6768 36.5253 29.7871 36.8129 30.0306C37.1005 30.2961 37.255 30.6057 37.255 31.0037C37.255 31.4243 37.1005 31.756 36.8129 31.9989C36.5253 32.2417 36.0385 32.3747 35.353 32.3747H34.9108V36.3125H40.9714V32.3747H40.5293C39.8438 32.3747 39.3569 32.2423 39.0694 31.9989C38.7818 31.7554 38.6272 31.4237 38.6272 31.0037C38.6272 30.6057 38.7818 30.2734 39.0694 30.0306C39.3569 29.7877 39.8438 29.6547 40.5293 29.6547L43.405 29.6768C44.0906 29.6768 44.5774 29.7871 44.865 30.0306C45.1526 30.2961 45.3071 30.6057 45.3071 31.0037C45.3071 31.3796 45.1746 31.6892 44.9312 31.9326C44.6657 32.176 44.2898 32.3312 43.803 32.3747V42.9035C44.5333 42.9035 44.9975 42.9918 45.1962 43.1027C45.6609 43.3903 45.8817 43.7673 45.8817 44.2757C45.8817 44.6736 45.7272 44.9833 45.4396 45.2267C45.152 45.4922 44.6652 45.6026 44.0017 45.6026H40.5287C39.8432 45.6026 39.3564 45.4922 39.0688 45.2267C38.7812 44.9833 38.6267 44.6516 38.6267 44.2536C38.6267 43.8556 38.7812 43.5449 39.0688 43.3014C39.3564 43.0359 39.8432 42.9035 40.5287 42.9035H40.9709V39.0105H40.9714ZM111.975 27.0224L115.337 27.5975C115.735 27.6637 116.001 27.8188 116.133 28.0396C116.243 28.2162 116.267 28.4155 116.199 28.6368C116.133 28.8312 116 28.9958 115.823 29.101C115.669 29.1893 115.425 29.212 115.072 29.1452L111.71 28.57C111.312 28.5038 111.046 28.3708 110.914 28.15C110.803 27.9507 110.781 27.752 110.847 27.5528C110.914 27.3541 111.024 27.1769 111.223 27.088C111.378 27.0003 111.621 26.9776 111.975 27.0224Z" fill="black"/>
</svg>
