<svg width="164" height="72" viewBox="0 0 164 72" fill="none" xmlns="http://www.w3.org/2000/svg">
<path d="M90.5367 49.1944C86.4685 50.2269 83.795 51.2594 82.0336 52.2312C76.5067 49.7399 70.4938 48.4048 64.7239 48.4048C57.6177 48.4048 51.1797 50.2269 45.7135 52.8386L38 15H90.5367V49.1944ZM53.6699 24.4748H48.9932V38.3226H58.3455V35.0429H53.6699V24.4748ZM66.4852 36.1958C64.3594 36.1958 63.8736 35.2847 63.8736 32.7349H73.4102C73.4102 26.6006 71.9526 24.0485 66.4863 24.0485C60.5342 24.0485 58.9551 26.1136 58.9551 31.4583C58.9551 36.6828 61.1416 39.1718 66.1838 39.1718C71.1641 39.1718 72.9862 37.3497 73.1066 34.4951H68.7336C68.7324 35.6503 68.3073 36.1958 66.4852 36.1958ZM63.8736 30.0018C63.8736 27.9368 64.2987 26.7839 66.303 26.7839C68.2477 26.7839 68.7324 27.695 68.7324 30.0018H63.8736ZM78.6324 24.4748H73.5306L78.8146 38.3226H84.5846L89.9912 24.4748H85.0097L81.7918 33.5245L78.6324 24.4748Z" fill="black"/>
<path d="M90.476 15H125.885L117.564 52.8386C112.098 49.6792 107.118 48.3441 99.89 48.3441C95.9422 48.3441 93.2698 48.7074 90.476 49.1944V15ZM91.3263 24.4141V38.3226H95.8815V24.4141H91.3263ZM99.3434 25.3251L99.1005 26.7209C100.558 25.8099 101.165 25.0203 101.165 23.9878C101.165 22.8338 100.376 22.2265 99.2219 22.2265C98.068 22.2265 97.3391 22.8957 97.3391 23.8663C97.3403 25.1429 98.1894 25.3251 99.3434 25.3251ZM105.842 33.9496H100.923C100.983 37.2901 102.745 38.6252 108.089 38.6252C113.07 38.6252 115.074 37.5319 115.074 34.07C115.074 28.6038 105.842 31.3369 105.842 28.0571C105.842 27.2676 106.753 26.5995 107.968 26.5995C109.245 26.5995 109.729 27.145 110.033 28.3001H114.71C114.649 25.3847 112.949 24.0485 108.272 24.0485C103.413 24.0485 101.165 25.3847 101.165 28.4227C101.165 34.4355 110.397 31.2154 110.397 34.6177C110.397 35.6503 109.851 36.1361 108.515 36.1361C106.935 36.1361 105.965 35.5288 105.842 33.9496ZM109.608 52.6552C111.065 52.6552 112.28 53.8699 112.28 55.3276C112.28 56.7853 111.065 58 109.608 58C108.15 58 106.935 56.846 106.935 55.3276C106.942 54.6208 107.226 53.9449 107.725 53.4451C108.225 52.9453 108.901 52.6617 109.608 52.6552ZM111.855 55.3287C111.855 54.114 110.884 53.1422 109.608 53.1422C108.332 53.1422 107.361 54.114 107.361 55.3287C107.361 56.5435 108.393 57.576 109.608 57.576C109.903 57.5767 110.196 57.5191 110.469 57.4064C110.742 57.2938 110.99 57.1283 111.198 56.9194C111.407 56.7106 111.573 56.4626 111.685 56.1896C111.798 55.9166 111.856 55.6241 111.855 55.3287ZM108.697 56.6649V53.9925H109.424C110.153 53.9925 110.701 54.1748 110.701 54.8428C110.701 55.1477 110.519 55.3895 110.094 55.6324L110.58 56.6649H110.094L109.669 55.8754H109.243V56.6649H108.697ZM110.094 54.8428C110.094 54.6606 109.85 54.5392 109.243 54.5392V55.2073C109.669 55.2073 110.094 55.2073 110.094 54.8428Z" fill="black"/>
</svg>
