<svg width="165" height="72" viewBox="0 0 165 72" fill="none" xmlns="http://www.w3.org/2000/svg">
<path fill-rule="evenodd" clip-rule="evenodd" d="M11.7159 42.4792H15.9517V44.0866H10V28.644H11.7159V42.4792ZM24.9613 29.9844C28.5007 29.9844 31.235 32.8798 31.235 36.3657C31.235 39.8516 28.4464 42.7478 24.9613 42.7478C21.422 42.7478 18.6335 39.8524 18.6335 36.3657C18.6335 32.8798 21.422 29.9844 24.9613 29.9844ZM24.9613 28.3754C20.5637 28.3754 16.9176 31.9681 16.9176 36.3657C16.9176 40.8159 20.5637 44.3552 24.9613 44.3552C29.3582 44.3552 33.0043 40.8159 33.0043 36.3657C33.0043 31.9681 29.3582 28.3754 24.9613 28.3754ZM36.9723 37.813C36.9723 38.9941 36.9723 40.2804 37.6697 41.2989C38.367 42.2098 39.6541 42.7478 40.7802 42.7478C41.9063 42.7478 43.0858 42.2648 43.7832 41.4065C44.6407 40.388 44.5873 39.0467 44.5873 37.813V28.644H46.3031V38.2951C46.3031 40.0118 46.1421 41.2981 44.9084 42.5852C43.8899 43.7113 42.3351 44.3544 40.7802 44.3544C39.3321 44.3544 37.8306 43.8189 36.8121 42.7995C35.4174 41.5133 35.2565 40.0644 35.2565 38.2951V28.644H36.9723V37.813ZM49.3595 28.644H51.0753V44.0866H49.3595V28.644ZM61.2111 31.6461C60.6213 30.5742 59.8706 29.9844 58.5835 29.9844C57.1888 29.9844 56.0093 30.9496 56.0093 32.3976C56.0093 33.6847 57.3498 34.3279 58.4225 34.8108L59.4419 35.2396C61.4263 36.1513 63.1413 37.1164 63.1413 39.5822C63.1413 42.2648 60.9967 44.3552 58.3158 44.3552C55.7949 44.3552 53.9723 42.7478 53.4902 40.3346L55.1518 39.905C55.3662 41.4599 56.5999 42.7478 58.2624 42.7478C59.9248 42.7478 61.4263 41.5141 61.4263 39.7448C61.4263 37.9206 60.0316 37.3316 58.5843 36.6877L57.6184 36.2589C55.8492 35.4548 54.2943 34.5431 54.2943 32.3443C54.2943 29.9311 56.3321 28.3762 58.5843 28.3762C60.3002 28.3762 61.7483 29.2879 62.6058 30.7894L61.2111 31.6461ZM76.8156 40.4406L81.2124 28.644H83.035L76.8156 45L70.5411 28.644H72.3645L76.8156 40.4406ZM86.4133 37.813C86.4133 38.9941 86.3608 40.2804 87.0565 41.2989C87.7546 42.2098 89.0409 42.7478 90.167 42.7478C91.2931 42.7478 92.5268 42.2648 93.2234 41.4065C94.0283 40.388 93.9741 39.0467 93.9741 37.813V28.644H95.6908V38.2951C95.6908 40.0118 95.5832 41.2981 94.3495 42.5852C93.2776 43.7113 91.7219 44.3544 90.167 44.3544C88.7198 44.3544 87.2717 43.8189 86.1981 42.7995C84.8585 41.5133 84.6983 40.0644 84.6983 38.2951V28.644H86.4133V37.813ZM98.8013 28.644H100.516V44.0866H98.8013V28.644ZM107.702 44.0866H105.987V30.2522H102.286V28.644H111.51V30.2522H107.702V44.0866ZM117.355 44.0866H115.638V30.2522H111.886V28.644H121.108V30.2522H117.355V44.0866ZM130.118 29.9844C133.657 29.9844 136.445 32.8798 136.445 36.3657C136.445 39.8516 133.656 42.7478 130.118 42.7478C126.632 42.7478 123.789 39.8524 123.789 36.3657C123.789 32.8798 126.578 29.9844 130.118 29.9844ZM130.118 28.3754C125.72 28.3754 122.074 31.9681 122.074 36.3657C122.074 40.8159 125.72 44.3552 130.118 44.3552C134.514 44.3552 138.16 40.8159 138.16 36.3657C138.16 31.9681 134.514 28.3754 130.118 28.3754ZM140.627 28L152.638 40.6024V28.644H154.355V44.7848L142.344 32.1833V44.0866H140.627V28Z" fill="black"/>
</svg>
