<svg width="165" height="72" viewBox="0 0 165 72" fill="none" xmlns="http://www.w3.org/2000/svg">
<path d="M40.386 38.5091C39.6828 39.7436 38.6981 40.5601 36.8964 40.5601C34.381 40.5601 32.4449 38.517 32.4449 36.0008C32.4449 33.4814 34.381 31.4427 36.8964 31.4427C38.7386 31.4427 39.8441 32.3673 40.5178 33.7386H43.1874C42.479 30.9798 39.9231 29 36.8422 29C32.9715 29 30.0038 32.127 30.0038 36.0008C30.0038 39.873 32.9715 43 36.8422 43C39.8307 43 42.2958 41.2314 43.1067 38.5091H40.386ZM151.112 42.9999C148.806 42.9999 146.419 42.0489 145.142 40.1962L147.204 38.7096C148.176 40.0259 149.586 40.6732 151.112 40.6732C152.448 40.6732 154.146 40.2725 154.146 38.9747C154.146 37.5081 151.665 37.2773 150.559 37.0094C148.366 36.4754 145.885 36.0007 145.885 33.1388C145.885 30.3335 148.577 29.0003 151.056 29.0003C153.344 29.0003 155.25 29.8203 156.644 31.651L154.642 33.1573C153.744 32.0136 152.68 31.3277 151.056 31.3277C149.608 31.3277 148.519 31.8437 148.519 32.7785C148.519 34.2848 150.672 34.3021 152.524 34.7583C154.489 35.2369 156.778 35.8292 156.778 38.6132C156.778 41.8763 153.784 42.9999 151.112 42.9999ZM141.098 33.8073C141.098 34.9309 140.182 35.8465 139.057 35.8465H135.072V31.7642H139.057C140.182 31.7642 141.098 32.6798 141.098 33.8073ZM144 42.6766L141.157 37.7732C142.568 37.0307 143.539 35.522 143.539 33.8073C143.539 31.3277 141.537 29.3232 139.057 29.3232H132.629V42.6766H135.072V38.286H138.621L141.136 42.6766H144ZM127.363 36.0007C127.363 38.5169 125.321 40.56 122.806 40.56C120.287 40.56 118.247 38.5169 118.247 36.0007C118.247 33.4817 120.287 31.4425 122.806 31.4425C125.321 31.4425 127.363 33.4817 127.363 36.0007ZM129.807 36.0007C129.807 32.1272 126.676 29.0003 122.806 29.0003C118.931 29.0003 115.807 32.1272 115.807 36.0007C115.807 39.8729 118.931 42.9999 122.806 42.9999C126.676 42.9999 129.807 39.8729 129.807 36.0007ZM112.696 42.6768L108.308 36.5334L106.592 38.2862V42.6768H104.149V29.3234H106.592V34.8942L112.009 29.3234H115.249L110.042 34.7412L115.71 42.6768H112.696H112.696ZM86.52 42.6768V29.3234H88.9627V40.2341H94.6865V42.6768H86.52ZM73.7415 42.6768V29.3234H83.0119V31.7644H76.1814V34.7793H83.0119V37.222H76.1814V40.2341H83.0119V42.6768H73.7415ZM67.0258 37.2404H63.4017L65.2136 32.6429L67.0258 37.2404ZM71.8333 42.6767L66.4732 29.3232H63.9543L58.5931 42.6767H61.2281L62.448 39.6445H67.9795L69.1995 42.6767H71.8333ZM54.2447 42.6768V37.222H48.0446V42.6768H45.6035V29.3234H48.0446V34.7793H54.2447V29.3234H56.6858V42.6768H54.2447ZM25.3205 29.3232H27.7632V42.6766H25.3205V29.3232ZM19.7496 42.6768V33.0635L16.4312 42.6768H13.7592L10.4423 33.0635V42.6768H8V29.3234H11.6253L15.0952 38.9391L18.5678 29.3234H22.1923V42.6768H19.7496Z" fill="black"/>
</svg>
