<svg width="165" height="72" viewBox="0 0 165 72" fill="none" xmlns="http://www.w3.org/2000/svg">
<path fill-rule="evenodd" clip-rule="evenodd" d="M57.5123 40.8744C56.9187 40.8744 56.454 41.2897 56.454 41.8957C56.454 42.502 56.9211 42.9149 57.5123 42.9149C58.1031 42.9149 58.5707 42.4992 58.5707 41.8957C58.5707 41.2897 58.1055 40.8744 57.5123 40.8744ZM57.5123 42.6229C57.0891 42.6229 56.7751 42.3137 56.7751 41.8957C56.7751 41.478 57.0867 41.1665 57.5123 41.1665C57.9328 41.1665 58.2491 41.4828 58.2491 41.8957C58.2491 42.3062 57.93 42.6229 57.5123 42.6229ZM67.8104 37.3025H62.6584L63.244 28.3477L59.8983 37.3025H55.114L62.705 17.0619H67.7956L67.208 26.1396L70.6172 17.0619H75.4018L67.8104 37.3025ZM68.4319 37.3025L76.0225 17.0619H80.8067L73.2161 37.3025H68.4319Z" fill="black"/>
<path fill-rule="evenodd" clip-rule="evenodd" d="M54.5624 30.3258C47.8769 38.1769 41.5704 48.6233 47.1409 53.4339C52.5387 58.0956 59.2855 55.3355 63.8858 53.4953C68.4862 51.6551 119.333 29.5743 119.333 29.5743C119.824 29.3289 119.732 29.0222 119.119 29.1753C118.871 29.2372 63.7634 44.1718 63.7634 44.1718C56.7704 46.1349 48.7968 41.8565 54.5624 30.3258Z" fill="black"/>
<path fill-rule="evenodd" clip-rule="evenodd" d="M57.6926 41.9674C57.841 41.9602 57.9571 41.8836 57.9571 41.6782C57.9571 41.4133 57.7839 41.3467 57.4947 41.3467H57.079V42.4449H57.3563V41.9774H57.403L57.6555 42.4449H57.9742L57.6926 41.9674ZM57.5147 41.7895H57.3567V41.5346H57.4899C57.5717 41.5346 57.6654 41.5442 57.6654 41.6507C57.6654 41.7648 57.6112 41.7895 57.5147 41.7895ZM105.605 17C105.011 17 104.547 17.4157 104.547 18.0212C104.547 18.6272 105.014 19.0401 105.605 19.0401C106.196 19.0401 106.663 18.6244 106.663 18.0212C106.664 17.4157 106.199 17 105.605 17ZM105.605 18.7489C105.182 18.7489 104.868 18.4397 104.868 18.0216C104.868 17.604 105.179 17.2924 105.605 17.2924C106.025 17.2924 106.342 17.6087 106.342 18.0216C106.342 18.4321 106.023 18.7489 105.605 18.7489Z" fill="black"/>
<path fill-rule="evenodd" clip-rule="evenodd" d="M105.786 18.0931C105.934 18.0859 106.051 18.0093 106.051 17.8039C106.051 17.539 105.877 17.4724 105.588 17.4724H105.173V18.5702H105.45V18.1031H105.497L105.749 18.5702H106.068L105.786 18.0931ZM105.607 17.9152H105.45V17.6603H105.583C105.665 17.6603 105.759 17.6702 105.759 17.7767C105.759 17.8904 105.704 17.9152 105.607 17.9152ZM102.453 20.4355L103.739 17.0619H89.1406L84.1282 23.1342L86.4423 17.0619H81.5967L74.0667 37.3025H78.8509L82.0658 28.8383L82.286 37.3025L96.9657 37.2706L98.3631 33.3772H92.7819L94.6157 28.4705H99.2156L100.631 24.6984H96.0311L97.608 20.4355H102.453ZM87.0323 35.953L86.7255 25.4036L93.9591 17.4616L87.0323 35.953Z" fill="black"/>
</svg>
