<svg width="164" height="72" viewBox="0 0 164 72" fill="none" xmlns="http://www.w3.org/2000/svg">
<path fill-rule="evenodd" clip-rule="evenodd" d="M125.28 23.6259C124.817 23.6259 124.373 23.8098 124.045 24.1372C123.718 24.4646 123.534 24.9087 123.534 25.3717C123.534 25.8348 123.718 26.2788 124.045 26.6063C124.373 26.9337 124.817 27.1176 125.28 27.1176C125.509 27.1174 125.736 27.0719 125.948 26.9838C126.16 26.8957 126.352 26.7666 126.514 26.6039C126.676 26.4413 126.804 26.2484 126.891 26.0361C126.978 25.8239 127.022 25.5965 127.021 25.3671C127.021 24.9053 126.838 24.4624 126.511 24.1358C126.184 23.8093 125.742 23.6259 125.28 23.6259ZM125.28 26.9074C125.078 26.9076 124.877 26.8678 124.691 26.7904C124.504 26.7129 124.335 26.5994 124.192 26.4563C124.049 26.3132 123.936 26.1433 123.859 25.9564C123.783 25.7694 123.743 25.5692 123.744 25.3671C123.744 25.1658 123.784 24.9664 123.862 24.7805C123.939 24.5946 124.052 24.4257 124.195 24.2835C124.337 24.1414 124.506 24.0287 124.693 23.952C124.879 23.8753 125.078 23.8361 125.28 23.8365C125.686 23.8365 126.075 23.9978 126.362 24.2848C126.649 24.5719 126.81 24.9612 126.81 25.3671C126.811 25.5689 126.772 25.7688 126.696 25.9555C126.62 26.1422 126.507 26.312 126.365 26.4551C126.223 26.5982 126.054 26.7119 125.867 26.7895C125.681 26.8671 125.481 26.9072 125.28 26.9074Z" fill="black"/>
<path fill-rule="evenodd" clip-rule="evenodd" d="M126.177 24.9099C126.177 24.7455 126.104 24.5718 125.957 24.4896C125.811 24.403 125.646 24.3937 125.481 24.3937H124.632V26.3452H124.869V25.4446H125.308L125.865 26.3452H126.149L125.559 25.4446C125.907 25.4354 126.177 25.2938 126.177 24.9099ZM125.235 25.2573H124.869V24.5674H125.427C125.669 24.5674 125.934 24.6039 125.934 24.9056C125.934 25.303 125.508 25.2573 125.235 25.2573ZM66.8258 54.1629L55.4486 48.6073C55.1985 48.4779 55.0696 48.147 55.0745 47.9305L55.1046 44.8635C55.109 44.6475 55.1518 44.4257 55.4355 44.2223C56.6518 43.4468 60.4184 41.3621 64.3096 35.6829C69.492 28.119 64.3096 21.7641 56.21 23.4942C49.0163 25.0306 41.6928 28.9257 38.5163 31.0435C35.6852 32.9307 36.0783 35.211 36 37.2558C36.1571 38.1204 36.4719 38.0421 37.1798 37.177C42.4483 32.3016 50.4696 28.6055 51.9637 27.9765C53.4578 27.3474 56.9967 25.2242 61.1647 26.1676C65.1683 27.0745 64.1952 32.5176 62.9731 34.8179C61.6361 37.3342 57.8223 40.9908 56.0923 41.8953C55.435 42.2388 55.1883 41.8953 55.1883 41.3445L55.4637 29.5095C55.4637 28.7233 55.1095 28.3691 54.3233 28.6445L53.0651 29.2735C52.2001 29.7849 52.2395 29.9814 52.1607 30.6105L51.97 44.2544C51.9637 44.5488 51.8265 44.7852 51.6644 44.8548L47.5602 47.1633C46.6168 47.6352 46.8523 48.3431 47.5602 48.5791L50.8632 50.1515C51.6499 50.4658 51.8858 50.7018 51.8858 51.488L51.7676 58.0939C54.7169 57.5043 54.9129 56.0885 54.9918 55.1446V53.1392C55.0701 52.6673 55.3454 52.5102 55.7386 52.589L65.3322 57.2284C66.1973 57.622 66.6692 57.4639 67.2982 56.3639C67.9268 55.2639 68.0056 54.7136 66.8258 54.1629ZM83.5918 37.4962C82.2587 38.2659 81.6418 39.7064 82.1672 40.6157C82.6917 41.5255 84.2778 41.6783 85.6118 40.9076C86.9458 40.1375 87.5228 38.7363 86.9974 37.827C86.4729 36.9177 84.9258 36.7255 83.5918 37.4962Z" fill="black"/>
<path fill-rule="evenodd" clip-rule="evenodd" d="M78.6726 38.4752C78.3102 38.917 77.611 40.2646 77.2179 41.0903C76.8248 41.9154 75.9992 43.7831 75.1736 43.7831C74.3008 43.7831 74.1903 41.6211 74.1903 40.8344C74.1903 40.0477 73.7184 39.9299 73.4824 39.9693C73.2465 40.0087 72.578 40.2442 72.3814 41.0703C72.1849 41.8959 71.1233 45.4743 69.9435 45.4743C69.1967 45.4743 68.646 43.3117 68.607 42.6432C68.5676 41.9752 68.2528 41.4245 67.5844 41.4245C67.1124 41.4245 66.5228 41.6605 66.2868 41.9358C66.0509 42.2112 66.0119 42.6432 64.7533 42.3683C63.6129 42.3289 62.5119 42.9191 61.1755 45.16C60.3708 46.5091 59.7169 49.0234 60.9395 50.0354C62.0799 50.9788 64.0848 49.2881 64.675 48.5802C65.2646 47.8728 65.776 47.3615 66.0119 46.9689C66.2474 46.5753 66.4839 46.6147 66.6016 47.0078C66.7193 47.4014 67.3878 48.9344 68.2533 48.8955C69.1184 48.8561 70.2194 48.1876 71.5169 45.9068C71.7529 45.4349 72.1066 45.4743 72.1854 45.8674C72.2642 46.261 72.775 47.5585 73.6401 47.5585C74.4657 47.5585 75.3842 46.2469 75.842 45.4748C76.1563 44.944 76.6283 45.1999 76.6283 45.7107C76.6283 46.2216 76.3923 58.2926 76.3923 58.2926C76.3923 58.8428 76.6083 59 77.0014 59H78.712C79.0263 59 79.3017 58.7251 79.3017 58.2926L79.6554 38.7311C79.6559 38.2587 79.1251 37.925 78.6726 38.4752ZM65.3045 46.1817C64.9504 46.7718 64.007 48.3443 63.1814 48.0694C62.7489 47.8334 63.3254 46.2605 63.6139 45.7102C64.0464 44.8846 65.3143 43.5696 65.8942 43.9014C66.4449 44.2157 65.6582 45.592 65.3045 46.1817ZM125.214 34.1219C125.057 34.2595 124.801 34.4955 124.231 34.2396C123.248 33.8465 123.17 31.9987 122.659 30.3075C122.199 28.7886 121.093 28.884 120.693 29.5802L119.493 31.5068C119.277 31.8999 118.806 32.8044 118.333 32.8044C117.783 32.8044 118.029 32.0177 118.059 31.2314C118.078 30.7007 117.743 30.0327 117.193 30.0327C116.564 30.0327 115.896 30.9955 115.385 32.097C115.028 32.8671 114.107 35.8125 112.946 35.8125C112.2 35.8125 112.121 33.6499 112.082 32.9815C112.043 32.313 111.806 31.4874 111.139 31.4874C110.686 31.4874 110.392 31.7228 110.155 31.9982C109.92 32.2736 109.881 32.509 109.055 32.3913C107.914 32.3519 106.027 33.414 104.69 35.6549C103.885 37.004 102.917 39.8331 104.14 40.8451C105.28 41.7884 107.324 39.5864 107.914 38.879C108.504 38.1712 109.015 37.6598 109.251 37.2672C109.487 36.8736 109.723 36.913 109.84 37.3066C109.958 37.6997 110.627 39.2332 111.492 39.1938C112.358 39.1544 113.065 38.9579 114.363 36.6771C114.598 36.2056 115.031 36.1467 115.109 36.5399C115.188 36.933 115.267 37.9751 116.093 37.9751C117.508 37.9751 119.112 34.531 119.513 33.7283C119.867 33.0204 120.437 33.2169 120.634 33.7477C120.915 34.5077 121.164 36.9524 122.698 36.9524C124.231 36.9524 125.273 35.3206 125.587 34.8093C125.942 34.2989 125.757 33.6465 125.214 34.1219ZM108.543 36.481C108.189 37.0706 107.403 38.3682 106.577 38.0928C106.144 37.8569 106.682 36.7169 106.971 36.1662C107.403 35.3406 108.67 34.0065 109.251 34.3379C109.801 34.6526 108.897 35.8908 108.543 36.481ZM100.947 34.4201C100.947 34.4201 97.605 31.9821 96.6612 30.8816C96.0272 30.1421 96.4646 29.5841 96.8577 29.2698C99.2164 27.6969 102.912 25.2589 104.368 21.4845C105.769 17.8463 103.581 14.6825 102.008 14.1712C99.8527 13.4711 95.2843 14.8791 93.0035 19.1254C91.5269 21.8757 90.8419 22.7821 90.6449 30.2526C90.6069 31.6674 90.5661 33.2802 90.5661 35.0496C90.5661 36.8191 90.3695 41.6157 90.1725 42.5197C89.4257 44.6428 91.667 43.3847 92.6887 42.5595C93.7114 41.7334 93.6321 40.4953 93.6321 39.9645C93.6321 39.2955 93.672 27.5003 94.0257 24.8658C94.2461 23.2272 94.4981 20.187 96.2272 17.5525C97.9577 14.918 99.7267 15.9801 100.199 16.4121C100.671 16.8446 101.34 17.9456 100.985 20.187C100.436 23.6651 96.4237 27.4609 95.4011 28.6402C94.3794 29.8196 94.6154 30.8422 95.2055 31.6679C95.6244 32.2551 96.6602 33.3979 97.7218 34.4595C98.7834 35.5211 98.6651 36.4649 98.5085 37.1728C97.9572 39.2955 92.2168 45.0364 92.2168 45.0364C90.9976 46.334 92.2557 48.4571 92.6883 49.1645C93.1217 49.8724 93.6715 49.6369 94.0252 49.0468C95.441 46.4128 101.535 40.0428 101.535 40.0428C103.307 37.8014 102.559 35.6388 100.947 34.4201Z" fill="black"/>
</svg>
