<svg width="164" height="72" viewBox="0 0 164 72" fill="none" xmlns="http://www.w3.org/2000/svg">
<path d="M66.3155 42.3226L67.4015 39.8004C68.575 40.6761 70.1338 41.1315 71.6752 41.1315C72.8137 41.1315 73.5318 40.6937 73.5318 40.0281C73.5143 38.1715 66.7184 39.6252 66.6658 34.9662C66.6483 32.6016 68.7501 30.78 71.7277 30.78C73.4968 30.78 75.2658 31.2179 76.5269 32.2163L75.511 34.791C74.355 34.0554 72.9188 33.5299 71.5526 33.5299C70.6243 33.5299 70.0112 33.9678 70.0112 34.5283C70.0288 36.3499 76.8772 35.3515 76.9473 39.8004C76.9473 42.2175 74.898 43.9165 71.9554 43.9165C69.8011 43.9165 67.8218 43.4085 66.3155 42.3226Z" fill="black"/>
<path d="M107.985 38.8896C107.442 39.8354 106.426 40.4835 105.252 40.4835C103.518 40.4835 102.117 39.0823 102.117 37.3482C102.117 35.6142 103.518 34.213 105.252 34.213C106.426 34.213 107.442 34.8611 107.985 35.8069L110.98 34.143C109.859 32.1462 107.704 30.78 105.252 30.78C101.627 30.78 98.6841 33.7226 98.6841 37.3482C98.6841 40.9739 101.627 43.9165 105.252 43.9165C107.722 43.9165 109.859 42.5678 110.98 40.5535L107.985 38.8896Z" fill="black"/>
<path d="M82.202 25.334H78.4537V43.6724H82.202V25.334Z" fill="black"/>
<path d="M112.451 25.334V43.6724H116.2V38.1726L120.649 43.6724H125.448L119.79 37.1392L125.027 31.0439H120.438L116.2 36.1058V25.334H112.451Z" fill="black"/>
<path d="M93.3402 38.9246C92.7972 39.8179 91.6763 40.4835 90.4152 40.4835C88.6811 40.4835 87.2799 39.0823 87.2799 37.3482C87.2799 35.6142 88.6811 34.213 90.4152 34.213C91.6763 34.213 92.7972 34.9136 93.3402 35.8244V38.9246ZM93.3402 31.0428V32.5316C92.7272 31.4982 91.2033 30.78 89.6095 30.78C86.3166 30.78 83.7243 33.6876 83.7243 37.3307C83.7243 40.9739 86.3166 43.9165 89.6095 43.9165C91.2033 43.9165 92.7272 43.1983 93.3402 42.1649V43.6537H97.0885V31.0428H93.3402Z" fill="black"/>
<path d="M43.1403 38.9094C43.1403 40.188 42.1069 41.2214 40.8283 41.2214C39.5497 41.2214 38.5163 40.188 38.5163 38.9094C38.5163 37.6308 39.5497 36.5974 40.8283 36.5974H43.1403V38.9094Z" fill="black"/>
<path d="M44.2953 38.9094C44.2953 37.6308 45.3287 36.5974 46.6074 36.5974C47.886 36.5974 48.9194 37.6308 48.9194 38.9094V44.6894C48.9194 45.968 47.886 47.0014 46.6074 47.0014C45.3287 47.0014 44.2953 45.968 44.2953 44.6894V38.9094Z" fill="black"/>
<path d="M46.609 29.624C45.3304 29.624 44.297 28.5906 44.297 27.312C44.297 26.0334 45.3304 25 46.609 25C47.8876 25 48.921 26.0334 48.921 27.312V29.624H46.609Z" fill="black"/>
<path d="M46.6096 30.797C47.8882 30.797 48.9216 31.8304 48.9216 33.109C48.9216 34.3876 47.8882 35.421 46.6096 35.421H40.812C39.5334 35.421 38.5 34.3876 38.5 33.109C38.5 31.8304 39.5334 30.797 40.812 30.797H46.6096Z" fill="black"/>
<path d="M55.8765 33.109C55.8765 31.8304 56.9099 30.797 58.1885 30.797C59.4671 30.797 60.5005 31.8304 60.5005 33.109C60.5005 34.3876 59.4671 35.421 58.1885 35.421H55.8765V33.109Z" fill="black"/>
<path d="M54.7215 33.1096C54.7215 34.3882 53.6881 35.4216 52.4095 35.4216C51.1309 35.4216 50.0975 34.3882 50.0975 33.1096V27.312C50.0975 26.0334 51.1309 25 52.4095 25C53.6881 25 54.7215 26.0334 54.7215 27.312V33.1096Z" fill="black"/>
<path d="M52.4094 42.3765C53.688 42.3765 54.7214 43.4099 54.7214 44.6885C54.7214 45.9671 53.688 47.0005 52.4094 47.0005C51.1308 47.0005 50.0974 45.9671 50.0974 44.6885V42.3765H52.4094Z" fill="black"/>
<path d="M52.4095 41.2215C51.1309 41.2215 50.0975 40.1881 50.0975 38.9095C50.0975 37.6309 51.1309 36.5975 52.4095 36.5975H58.2071C59.4857 36.5975 60.5191 37.6309 60.5191 38.9095C60.5191 40.1881 59.4857 41.2215 58.2071 41.2215H52.4095Z" fill="black"/>
</svg>
