<svg width="165" height="72" viewBox="0 0 165 72" fill="none" xmlns="http://www.w3.org/2000/svg">
<path d="M111.824 24.8622C111.824 24.8622 110.087 23.5365 104.594 21.5174C99.77 19.7437 96.1298 19.35 96.1298 19.35L96.1464 29.7534C96.1464 31.2177 95.7453 32.5541 94.6255 34.0786C90.5271 32.5859 86.652 31.6678 82.4171 31.6678H82.4071C78.1719 31.6678 74.2966 32.5859 70.1985 34.0786C69.0787 32.5543 68.6773 31.2177 68.6773 29.7534L68.6941 19.35C68.6941 19.35 65.0542 19.7437 60.2296 21.5174C54.737 23.5365 53 24.8622 53 24.8622C53.2276 29.5839 57.3619 33.7811 63.8776 36.6751C57.3619 39.5688 53.2278 43.7663 53 48.488C53 48.488 54.7373 49.8137 60.2298 51.8328C65.0542 53.6065 68.6941 54 68.6941 54L68.6776 43.5966C68.6776 42.1326 69.0787 40.7959 70.1985 39.2717C74.2966 40.7641 78.1719 41.6825 82.4066 41.6825H82.4171C86.652 41.6825 90.5271 40.7641 94.6257 39.2717C95.7455 40.7957 96.1464 42.1326 96.1464 43.5964L96.1301 54C96.1301 54 99.77 53.6065 104.594 51.8328C110.087 49.8137 111.824 48.488 111.824 48.488C111.596 43.7663 107.462 39.5686 100.946 36.6751C107.462 33.7809 111.596 29.5839 111.824 24.8622ZM92.1097 36.6751C91.8465 36.8686 91.5815 37.0596 91.3146 37.248C89.2927 38.68 86.3554 39.6626 82.5381 39.6626L82.4183 39.6639H82.4056L82.2858 39.6626C78.4686 39.6626 75.531 38.68 73.5094 37.248C73.1946 37.025 72.9342 36.8377 72.7143 36.6751C72.9342 36.512 73.1946 36.325 73.5096 36.1022C75.5313 34.67 78.4688 33.6874 82.2858 33.6874L82.4056 33.6861H82.4183L82.5381 33.6874C86.3556 33.6874 89.2927 34.67 91.3148 36.1022C91.5819 36.2904 91.8469 36.4814 92.11 36.6751" fill="#0C0D0E"/>
</svg>
