<svg width="164" height="72" viewBox="0 0 164 72" fill="none" xmlns="http://www.w3.org/2000/svg">
<path d="M117.508 40.2137C115.95 40.2137 114.668 38.313 114.668 35.9771C114.668 33.6183 115.95 31.7176 117.508 31.7176C119.065 31.7176 120.324 33.6183 120.324 35.9771C120.324 38.313 119.065 40.2137 117.508 40.2137ZM117.622 30C113.179 30 109.584 32.6794 109.584 36C109.584 39.2977 113.179 41.9771 117.622 41.9771C122.065 41.9771 125.66 39.2977 125.66 36C125.66 32.6794 122.065 30 117.622 30ZM67.126 40.2595C65.5687 40.2595 64.2863 38.3817 64.2863 36.0687C64.2863 33.7557 65.5687 31.8779 67.126 31.8779C68.7061 31.8779 69.9656 33.7557 69.9656 36.0687C69.9656 38.3817 68.7061 40.2595 67.126 40.2595ZM67.2405 30.1832C62.7977 30.1832 59.2023 32.8397 59.2023 36.0916C59.2023 39.3435 62.7977 42 67.2405 42C71.6832 42 75.2786 39.3435 75.2786 36.0916C75.2786 32.8397 71.6832 30.1832 67.2405 30.1832ZM76.0343 30.5038V32.1069H78.645V39.916H75.8969V41.6565L78.645 41.6794H91.6756V36.4809H89.9809C89.8893 39.229 87.5076 39.9389 86.4771 39.9389H83.7748V32.1069L86.3626 32.084V30.5267H76.0343V30.5038ZM96.5763 41.6794H102.874L107.981 32.084H110.592V30.5038H102.805V32.084H104.866L101.248 38.8855L97.355 32.1069L100.218 32.084V30.5038H88.8817V32.1069H91.4924L96.5763 41.6794ZM46.2176 41.6794H52.4924L57.5992 32.084H60.2328V30.5038H52.4237V32.084H54.4847L50.8893 38.8855L46.9962 32.1069L49.8359 32.084V30.5038H38.5V32.1069H41.1107L46.2176 41.6794Z" fill="black"/>
</svg>
