<svg width="164" height="72" viewBox="0 0 164 72" fill="none" xmlns="http://www.w3.org/2000/svg">
<path d="M52.5023 26.5138C49.9605 32.8927 47.0341 40.0888 44.4003 45.4583C45.6038 45.1591 46.7579 45.2495 47.5175 45.4566C48.1882 43.76 48.9544 41.8364 49.7172 39.903C52.305 39.8274 54.8944 39.8192 57.4821 39.9046C58.2187 41.7559 58.9552 43.6071 59.6753 45.4616C60.8261 45.1591 61.9737 45.2413 62.822 45.455C60.9248 41.9104 57.1221 32.6379 54.6987 26.5154C53.9129 26.7916 53.275 26.7735 52.5023 26.5138ZM56.9642 38.5877C54.725 38.6667 52.4809 38.665 50.245 38.5861C51.6161 35.1106 52.9149 31.7567 53.6021 29.7838C54.6478 32.7004 55.797 35.6416 56.9642 38.5877ZM48.9637 24C47.826 24.2565 46.799 24.2663 45.783 24C44.8853 25.6704 39.4698 34.5417 39.4698 34.5417C39.4698 34.5417 34.8039 26.9199 33.1566 24C31.8512 24.2795 31.3021 24.2959 30 24C32.5878 27.8997 38.1447 37.7641 38.1447 37.7641L37.9573 47.9277C38.9636 47.7405 39.9742 47.742 40.9889 47.9277L40.7982 37.7641C40.7982 37.7641 47.7734 25.6145 48.9637 24ZM91.4961 26.2688C84.7982 26.2688 81.2848 30.5138 81.2848 36.0181C81.2848 42.0419 85.1188 45.7148 91.4846 45.7148C98.3666 45.7148 101.727 41.575 101.727 36.0806C101.727 29.9548 97.7139 26.2688 91.4961 26.2688ZM91.5142 44.6445C87.0489 44.6445 84.4283 41.4468 84.4283 36.051C84.4283 29.9482 87.7471 27.4542 91.4172 27.4164C95.5107 27.3742 98.6067 30.2047 98.6067 36.0345C98.6067 41.8545 95.6046 44.6445 91.5142 44.6445ZM128.469 44.9749C127.476 44.9749 126.98 45.7312 126.98 46.5466C126.98 47.5068 127.746 48 128.696 48C129.383 48 130.13 47.5824 130.13 46.4513C130.13 45.5438 129.42 44.9749 128.469 44.9749ZM131.928 24.2631C131.175 24.2009 130.255 24.6938 130.255 25.8282C129.804 31.5298 129.339 37.2462 128.57 42.6847C129.037 42.6058 129.395 42.7275 129.747 42.8689C130.621 37.3448 132.695 29.067 133.224 26.7258C133.3 26.397 133.415 26.0057 133.415 25.7295C133.415 24.8944 132.729 24.329 131.928 24.2631ZM114.613 25.1311C107.945 25.1311 102.848 28.919 102.848 35.9589C102.848 41.7591 106.238 46.8656 114.669 46.8656C121.808 46.8656 126.467 42.9429 126.467 36.0608C126.467 29.5734 122.12 25.1311 114.613 25.1311ZM114.631 45.7197C110.117 45.7197 106.002 43.0678 106.002 35.9161C106.002 28.5014 110.562 26.3083 114.623 26.3083C119.631 26.3083 123.32 29.3498 123.32 36.0608C123.32 43.3539 118.857 45.7197 114.631 45.7197ZM77.2224 45.4649C78.3009 45.2084 79.3514 45.2183 80.3773 45.4649C80.1274 39.1615 80.1011 32.8516 80.3773 26.5253C79.3054 26.7818 78.2532 26.7752 77.2207 26.5253C77.3753 29.4681 77.4509 32.4143 77.4607 35.3638C73.9326 35.446 70.4077 35.4525 66.8862 35.3638C66.896 32.4143 66.9716 29.4681 67.1262 26.5253C66.0937 26.7752 65.0415 26.7818 63.9696 26.5253C64.2458 32.8483 64.2195 39.1615 63.9696 45.4649C64.9955 45.2183 66.046 45.2084 67.1245 45.4649C66.97 42.5253 66.896 39.589 66.8862 36.656C70.411 36.6067 73.9359 36.6034 77.4607 36.6527C77.4509 39.589 77.3769 42.5253 77.2224 45.4649Z" fill="black"/>
</svg>
