<svg width="164" height="72" viewBox="0 0 164 72" fill="none" xmlns="http://www.w3.org/2000/svg">
<path d="M55.9793 43.7143C55.9793 45.1028 54.8205 46.2298 53.9478 46.2298H44.0802L56.4916 26.4027H39.8972V29.6884H40.7486C40.7486 28.3 41.646 27.1765 42.5222 27.1765H51.0472L38.5617 47H56.5657V43.7143H55.9793Z" fill="black"/>
<path d="M77.5128 45.396L67.9102 26.4027L59.1095 45.4101C58.9541 45.827 58.1061 46.3534 56.9049 46.3534V46.9965H61.5897V46.3534C60.7206 46.3534 59.7878 45.9224 60.014 45.4066L62.1302 40.8173H70.249L72.556 45.396C72.8175 45.8588 71.648 46.357 70.4433 46.357V47H80.1943L80.1978 46.357C78.7211 46.3535 77.8201 45.8942 77.5128 45.396ZM62.4835 40.0754L65.9953 32.3664L69.9169 40.0754H62.4835Z" fill="black"/>
<path d="M81.3142 27.1977C82.7416 27.1977 83.9216 27.5651 83.9216 28.0103C83.9216 31.5432 83.9145 45.3748 83.9216 45.3748C83.9216 45.8482 82.7592 46.3746 81.3284 46.3746L81.3248 46.9965H90.8709V46.417C89.4542 46.417 88.306 45.8518 88.306 45.3783V27.0246H91.0582C93.7079 27.0246 95.856 29.2256 95.856 31.7234C95.856 34.2212 93.7079 36.2491 91.0546 36.2491H89.1504C89.1504 36.2491 95.6016 46.0178 95.6122 46.0178C95.8666 46.3888 95.9937 47 95.9937 47H102.95V46.4206C101.611 46.4206 100.912 45.8659 100.523 45.3783L94.3121 37.2737C97.2939 37.0759 99.6009 34.6664 99.6009 31.8047C99.6009 28.8158 97.0324 26.4027 93.8634 26.4027H81.3142V27.1977Z" fill="black"/>
<path d="M124.205 45.396L114.602 26.4027L105.801 45.4101C105.646 45.827 104.801 46.3746 103.597 46.3746V46.9965H108.281V46.417C107.412 46.417 106.483 45.9224 106.706 45.4066L108.822 40.8173H116.941L119.248 45.396C119.513 45.8588 118.34 46.3782 117.135 46.3782V47H126.886L126.89 46.3994C125.413 46.3994 124.512 45.8942 124.205 45.396ZM109.172 40.0754L112.684 32.3664L116.605 40.0754H109.172Z" fill="black"/>
</svg>
