<svg width="20" height="20" viewBox="0 0 20 20" fill="none" xmlns="http://www.w3.org/2000/svg">
<g clip-path="url(#clip0)">
<path d="M20 10C20 4.47757 15.5224 0 10 0C4.47757 0 0 4.47757 0 10C0 14.9909 3.65631 19.1281 8.43763 19.8791V12.8913H5.8979V10H8.43763V7.79637C8.43763 5.29039 9.93109 3.90522 12.2149 3.90522C13.309 3.90522 14.4537 4.10069 14.4537 4.10069V6.56166H13.1922C11.9505 6.56166 11.5624 7.3323 11.5624 8.12403V10H14.3355L13.8926 12.8913H11.5624V19.8791C16.3437 19.1295 20 14.9923 20 10Z" fill="#1977F3"/>
<path d="M13.8929 12.8923L14.3358 10.001H11.5627V8.12507C11.5627 7.33474 11.9494 6.5627 13.1925 6.5627H14.454V4.10172C14.454 4.10172 13.3092 3.90625 12.2152 3.90625C9.93138 3.90625 8.43792 5.29002 8.43792 7.7974V10.001H5.89819V12.8923H8.43792V19.8801C8.94699 19.9603 9.46872 20.001 10.0003 20.001C10.5319 20.001 11.0536 19.9588 11.5627 19.8801V12.8923H13.8929Z" fill="#FEFEFE"/>
</g>
<defs>
<clipPath id="clip0">
<rect width="20" height="20" fill="white"/>
</clipPath>
</defs>
</svg>
