<svg width="20" height="20" viewBox="0 0 20 20" fill="none" xmlns="http://www.w3.org/2000/svg">
<path fill-rule="evenodd" clip-rule="evenodd" d="M3.18787 14.7153C2.2369 13.3466 1.67896 11.6844 1.67896 9.89989C1.67896 5.27303 5.42976 1.46875 10.0566 1.46875C14.6835 1.46875 18.4343 5.27303 18.4343 9.89989C18.4343 14.5267 14.6835 18.331 10.0566 18.331C8.30766 18.331 6.68387 17.7874 5.34053 16.8613L2.35566 17.6723L3.18787 14.7153Z" fill="#4AC959"/>
<path d="M5.49877 16.8277L5.79993 17.0062C7.06475 17.7569 8.51488 18.1538 9.99378 18.1546H9.99694C14.5386 18.1546 18.2348 14.4593 18.2366 9.91728C18.2375 7.71629 17.3812 5.64657 15.8255 4.08968C14.2697 2.5328 12.2011 1.67498 10.0001 1.67405C5.45495 1.67405 1.75872 5.36898 1.75704 9.9106C1.7563 11.4669 2.1919 12.9828 3.01666 14.2944L3.21274 14.6059L2.38017 17.6455L5.49877 16.8277ZM0 20L1.40649 14.8646C0.539015 13.3617 0.0826254 11.6567 0.0831825 9.91004C0.0854117 4.44562 4.53233 0 9.99693 0C12.6487 0.00129349 15.1377 1.03328 17.0097 2.90656C18.8811 4.77984 19.9116 7.26974 19.9107 9.91802C19.9083 15.3821 15.4606 19.8284 9.99693 19.8284C9.99656 19.8284 9.99731 19.8284 9.99693 19.8284H9.99267C8.33366 19.8278 6.70343 19.4116 5.25535 18.6219L0 20Z" fill="white"/>
<path fill-rule="evenodd" clip-rule="evenodd" d="M7.51919 5.76773C7.33352 5.35534 7.13819 5.34699 6.96179 5.33974C6.81734 5.33362 6.65209 5.33399 6.48702 5.33399C6.32177 5.33399 6.05347 5.396 5.82658 5.64388C5.59949 5.89176 4.95947 6.49093 4.95947 7.7097C4.95947 8.92847 5.84719 10.106 5.97085 10.2715C6.09469 10.4367 7.68444 13.0176 10.2024 14.0104C12.2948 14.8355 12.7205 14.6714 13.1749 14.6302C13.629 14.589 14.6404 14.031 14.8467 13.4526C15.0531 12.8743 15.0531 12.3787 14.9913 12.2751C14.9293 12.1717 14.7642 12.1098 14.5164 11.986C14.2687 11.8621 13.0508 11.2628 12.8237 11.1802C12.5967 11.0975 12.4316 11.0563 12.2663 11.3042C12.1013 11.5521 11.6269 12.1098 11.4822 12.2751C11.3378 12.4405 11.1933 12.4611 10.9455 12.3373C10.6978 12.2131 9.89992 11.9518 8.95353 11.1079C8.21714 10.4514 7.72009 9.64054 7.57545 9.39266C7.431 9.14479 7.56004 9.01073 7.68426 8.88725C7.79548 8.77622 7.93195 8.59797 8.05598 8.45333C8.17945 8.30869 8.22086 8.20545 8.3033 8.04039C8.38592 7.87495 8.3447 7.73031 8.28269 7.60647C8.22086 7.48262 7.7394 6.25754 7.51919 5.76773Z" fill="white"/>
</svg>
