<svg width="20" height="20" viewBox="0 0 20 20" fill="none" xmlns="http://www.w3.org/2000/svg">
<g clip-path="url(#clip0)">
<path d="M15.5952 0H4.40476C1.97208 0 0 1.97208 0 4.40476V15.5952C0 18.0279 1.97208 20 4.40476 20H15.5952C18.0279 20 20 18.0279 20 15.5952V4.40476C20 1.97208 18.0279 0 15.5952 0Z" fill="url(#paint0_linear)"/>
<path d="M9.99996 3.46289C8.05307 3.4629 6.18592 4.1071 4.80926 5.25376C3.4326 6.40043 2.65919 7.95564 2.65918 9.57726C2.66095 10.6321 2.9903 11.6685 3.6152 12.5859C4.2401 13.5034 5.1393 14.2705 6.22543 14.8129C5.93615 15.4605 5.5023 16.0678 4.94184 16.6096C6.02871 16.4188 7.04898 16.018 7.92324 15.4384C8.59734 15.6052 9.29673 15.6905 9.99996 15.6916C11.9469 15.6916 13.814 15.0474 15.1907 13.9008C16.5673 12.7541 17.3407 11.1989 17.3407 9.57726C17.3407 7.95564 16.5673 6.40043 15.1907 5.25376C13.814 4.1071 11.9469 3.4629 9.99996 3.46289V3.46289Z" fill="white"/>
</g>
<defs>
<linearGradient id="paint0_linear" x1="10.1587" y1="18.6724" x2="10.1587" y2="2.48209" gradientUnits="userSpaceOnUse">
<stop stop-color="#0CBD2A"/>
<stop offset="1" stop-color="#5BF675"/>
</linearGradient>
<clipPath id="clip0">
<rect width="20" height="20" fill="white"/>
</clipPath>
</defs>
</svg>
