<svg width="14" height="14" viewBox="0 0 14 14" fill="none" xmlns="http://www.w3.org/2000/svg">
<path d="M10.5 4.66634H9.91671V3.49967C9.91671 1.88967 8.61004 0.583008 7.00004 0.583008C5.39004 0.583008 4.08337 1.88967 4.08337 3.49967V4.66634H3.50004C2.85837 4.66634 2.33337 5.19134 2.33337 5.83301V11.6663C2.33337 12.308 2.85837 12.833 3.50004 12.833H10.5C11.1417 12.833 11.6667 12.308 11.6667 11.6663V5.83301C11.6667 5.19134 11.1417 4.66634 10.5 4.66634ZM7.00004 9.91634C6.35837 9.91634 5.83337 9.39134 5.83337 8.74968C5.83337 8.10801 6.35837 7.58301 7.00004 7.58301C7.64171 7.58301 8.16671 8.10801 8.16671 8.74968C8.16671 9.39134 7.64171 9.91634 7.00004 9.91634ZM8.80837 4.66634H5.19171V3.49967C5.19171 2.50217 6.00254 1.69134 7.00004 1.69134C7.99754 1.69134 8.80837 2.50217 8.80837 3.49967V4.66634Z" fill="#535353"/>
</svg>
