<svg width="12" height="10" viewBox="0 0 12 10" fill="none" xmlns="http://www.w3.org/2000/svg">
<path d="M5.54652 0.476482C5.72571 0.0906155 6.27429 0.0906156 6.45348 0.476482L7.58271 2.90803C7.65556 3.0649 7.80432 3.17298 7.97603 3.19379L10.6375 3.51636C11.0599 3.56755 11.2294 4.08927 10.9178 4.37894L8.9542 6.20428C8.82751 6.32204 8.77069 6.49692 8.80396 6.66666L9.31963 9.29756C9.40146 9.71506 8.95766 10.0375 8.58587 9.83066L6.24309 8.52724C6.09194 8.44315 5.90806 8.44315 5.75691 8.52724L3.41413 9.83066C3.04235 10.0375 2.59854 9.71506 2.68037 9.29756L3.19604 6.66666C3.22931 6.49692 3.17249 6.32204 3.0458 6.20428L1.08222 4.37894C0.770611 4.08927 0.940129 3.56755 1.36248 3.51636L4.02397 3.19379C4.19568 3.17298 4.34444 3.0649 4.41729 2.90803L5.54652 0.476482Z" fill="#3D8FFF"/>
</svg>
