<svg width="20" height="16" viewBox="0 0 20 16" fill="none" xmlns="http://www.w3.org/2000/svg">
<g clip-path="url(#clip0)">
<path d="M19.688 1.89399C18.9637 2.2153 18.1851 2.43236 17.3682 2.53001C18.2021 2.03013 18.8426 1.23858 19.1442 0.295323C18.3636 0.758287 17.4992 1.09436 16.5791 1.27549C15.8424 0.490429 14.7926 0 13.6308 0C11.4001 0 9.5915 1.80845 9.5915 4.0391C9.5915 4.35569 9.62724 4.66401 9.69615 4.95962C6.33913 4.79119 3.36289 3.18307 1.37065 0.739286C1.02296 1.33583 0.823715 2.02964 0.823715 2.76992C0.823715 4.17131 1.53682 5.40762 2.62064 6.13195C1.95854 6.11098 1.3357 5.92926 0.791131 5.62675C0.790672 5.64358 0.790672 5.66051 0.790672 5.67755C0.790672 7.63454 2.18301 9.26697 4.03084 9.63829C3.69191 9.73063 3.33506 9.77995 2.9667 9.77995C2.70642 9.77995 2.45343 9.75455 2.20674 9.7075C2.72079 11.3122 4.21246 12.48 5.98005 12.5125C4.59766 13.5959 2.85605 14.2417 0.963535 14.2417C0.6375 14.2417 0.315994 14.2225 0 14.1852C1.78758 15.3313 3.91074 16 6.1918 16C13.6214 16 17.6843 9.84521 17.6843 4.50738C17.6843 4.33226 17.6804 4.15812 17.6726 3.98477C18.4617 3.41539 19.1464 2.70406 19.688 1.89399H19.688Z" fill="#2AA9E0"/>
</g>
<defs>
<clipPath id="clip0">
<rect width="19.688" height="16" fill="white"/>
</clipPath>
</defs>
</svg>
