<svg width="23" height="24" viewBox="0 0 23 24" fill="none" xmlns="http://www.w3.org/2000/svg">
<path fill-rule="evenodd" clip-rule="evenodd" d="M0 0.25C0 0.111929 0.111929 0 0.25 0H8.3215C8.45957 0 8.5715 0.111929 8.5715 0.250001V13.8282C8.5715 13.8875 8.5504 13.9449 8.51196 13.9901L0.440453 23.4822C0.289782 23.6594 0 23.5529 0 23.3203V0.25ZM12.8559 9.79179C12.8559 10.0152 13.1265 10.1264 13.2836 9.96759L22.7206 0.425797C22.8767 0.267911 22.7649 0 22.5428 0H13.1059C12.9678 0 12.8559 0.111929 12.8559 0.25V9.79179ZM12.8559 14.5916C12.8559 14.3706 13.1217 14.2583 13.2801 14.4124L22.7002 23.5708C22.8611 23.7272 22.7503 24 22.5259 24H13.1059C12.9678 24 12.8559 23.8881 12.8559 23.75V14.5916Z" fill="white"/>
</svg>
