<svg width="76" height="18" viewBox="0 0 76 18" fill="none" xmlns="http://www.w3.org/2000/svg">
<path d="M3.98697 1.4V6.26L7.65897 1.4H11.097L6.38097 7.43L11.187 14H7.65897L3.98697 8.924V14H0.908969V1.4H3.98697ZM15.3566 4.55V14H12.3506V4.55H15.3566ZM15.0326 3.524C14.7086 3.824 14.3066 3.974 13.8266 3.974C13.3466 3.974 12.9446 3.824 12.6206 3.524C12.3086 3.212 12.1526 2.822 12.1526 2.354C12.1526 1.874 12.3086 1.484 12.6206 1.184C12.9446 0.872 13.3466 0.715999 13.8266 0.715999C14.3066 0.715999 14.7086 0.872 15.0326 1.184C15.3566 1.496 15.5186 1.886 15.5186 2.354C15.5186 2.822 15.3566 3.212 15.0326 3.524ZM20.5172 2.552V4.55H22.1192V6.98H20.5172V10.454C20.5172 11.138 20.9072 11.48 21.6872 11.48C21.8912 11.48 22.0592 11.474 22.1912 11.462V14.036C21.9272 14.108 21.5432 14.144 21.0392 14.144C19.8752 14.144 18.9932 13.844 18.3932 13.244C17.8052 12.644 17.5112 11.666 17.5112 10.31V6.98H16.5932V4.55H17.5112V2.552H20.5172ZM26.7913 14.234C25.9633 14.234 25.2313 14.072 24.5953 13.748C23.9593 13.424 23.4793 13.046 23.1553 12.614L24.8473 10.976C25.4713 11.528 26.1673 11.804 26.9353 11.804C27.4993 11.804 27.7813 11.63 27.7813 11.282C27.7813 11.114 27.6733 10.97 27.4573 10.85C27.2413 10.718 26.9713 10.61 26.6473 10.526C26.3353 10.43 25.9933 10.304 25.6213 10.148C25.2493 9.98 24.9013 9.788 24.5773 9.572C24.2653 9.356 24.0013 9.05 23.7853 8.654C23.5693 8.246 23.4613 7.772 23.4613 7.232C23.4613 6.344 23.8033 5.636 24.4873 5.108C25.1713 4.58 26.0413 4.316 27.0973 4.316C28.5613 4.316 29.6893 4.856 30.4813 5.936L28.5373 7.466C28.0453 6.974 27.5233 6.728 26.9713 6.728C26.5153 6.728 26.2873 6.884 26.2873 7.196C26.2873 7.412 26.4373 7.592 26.7373 7.736C27.0373 7.868 27.3973 8 27.8173 8.132C28.2493 8.252 28.6753 8.408 29.0953 8.6C29.5273 8.792 29.8933 9.104 30.1933 9.536C30.4933 9.956 30.6433 10.484 30.6433 11.12C30.6433 12.068 30.2773 12.824 29.5453 13.388C28.8133 13.952 27.8953 14.234 26.7913 14.234ZM34.8613 9.248C34.8613 9.98 35.0473 10.556 35.4193 10.976C35.7913 11.384 36.2833 11.588 36.8953 11.588C37.5073 11.588 37.9993 11.372 38.3713 10.94C38.7433 10.508 38.9293 9.944 38.9293 9.248C38.9293 8.552 38.7433 7.994 38.3713 7.574C37.9993 7.154 37.5073 6.944 36.8953 6.944C36.2713 6.944 35.7733 7.166 35.4013 7.61C35.0413 8.042 34.8613 8.588 34.8613 9.248ZM34.7533 4.55V5.288C34.9453 5.072 35.2633 4.856 35.7073 4.64C36.1633 4.424 36.6973 4.316 37.3093 4.316C38.6653 4.316 39.7753 4.778 40.6393 5.702C41.5033 6.626 41.9353 7.814 41.9353 9.266C41.9353 10.742 41.5273 11.942 40.7113 12.866C39.9073 13.778 38.8273 14.234 37.4713 14.234C36.8473 14.234 36.3133 14.126 35.8693 13.91C35.4253 13.694 35.1193 13.484 34.9513 13.28V17.366H31.9453V4.55H34.7533ZM48.8113 4.316V7.376C48.6433 7.352 48.4813 7.34 48.3253 7.34C47.0293 7.34 46.3813 8.168 46.3813 9.824V14H43.3753V4.55H46.3093V5.81C46.8013 4.814 47.6353 4.316 48.8113 4.316ZM53.2059 4.55V14H50.1999V4.55H53.2059ZM52.8819 3.524C52.5579 3.824 52.1559 3.974 51.6759 3.974C51.1959 3.974 50.7939 3.824 50.4699 3.524C50.1579 3.212 50.0019 2.822 50.0019 2.354C50.0019 1.874 50.1579 1.484 50.4699 1.184C50.7939 0.872 51.1959 0.715999 51.6759 0.715999C52.1559 0.715999 52.5579 0.872 52.8819 1.184C53.2059 1.496 53.3679 1.886 53.3679 2.354C53.3679 2.822 53.2059 3.212 52.8819 3.524ZM60.6524 14V8.366C60.6524 7.934 60.5384 7.604 60.3104 7.376C60.0824 7.136 59.7824 7.016 59.4104 7.016C59.0024 7.016 58.6844 7.142 58.4564 7.394C58.2284 7.646 58.1144 7.97 58.1144 8.366V14H55.1084V4.55H58.0424V5.522C58.2464 5.198 58.5584 4.916 58.9784 4.676C59.3984 4.436 59.8784 4.316 60.4184 4.316C60.9824 4.316 61.4684 4.412 61.8764 4.604C62.2964 4.796 62.6144 5.036 62.8304 5.324C63.0584 5.6 63.2324 5.954 63.3524 6.386C63.4844 6.806 63.5684 7.196 63.6044 7.556C63.6404 7.904 63.6584 8.306 63.6584 8.762V14H60.6524ZM71.9993 13.514V13.28C71.8313 13.484 71.5253 13.694 71.0813 13.91C70.6373 14.126 70.1033 14.234 69.4793 14.234C68.1233 14.234 67.0373 13.778 66.2213 12.866C65.4173 11.942 65.0153 10.742 65.0153 9.266C65.0153 7.814 65.4473 6.626 66.3113 5.702C67.1753 4.778 68.2853 4.316 69.6413 4.316C70.2533 4.316 70.7813 4.424 71.2253 4.64C71.6813 4.856 72.0053 5.072 72.1973 5.288V4.55H75.0053V12.866C75.0053 13.706 74.8673 14.432 74.5913 15.044C74.3153 15.656 73.9253 16.13 73.4213 16.466C72.9293 16.814 72.3833 17.066 71.7833 17.222C71.1833 17.378 70.5113 17.456 69.7673 17.456C68.4953 17.456 67.3313 17.186 66.2753 16.646L67.1573 14.342C67.9853 14.726 68.8553 14.918 69.7673 14.918C71.2553 14.918 71.9993 14.45 71.9993 13.514ZM72.0893 9.248C72.0893 8.6 71.9033 8.06 71.5313 7.628C71.1593 7.184 70.6613 6.962 70.0373 6.962C69.4253 6.962 68.9333 7.172 68.5613 7.592C68.2013 8 68.0213 8.552 68.0213 9.248C68.0213 9.944 68.2073 10.508 68.5793 10.94C68.9513 11.372 69.4433 11.588 70.0553 11.588C70.6673 11.588 71.1593 11.384 71.5313 10.976C71.9033 10.556 72.0893 9.98 72.0893 9.248Z" fill="white"/>
</svg>
